<svg width="30" height="36" viewBox="0 0 30 36" fill="none" xmlns="http://www.w3.org/2000/svg">
<path d="M20.4782 11.2097L1.42213 12.3391H1V34.6046L1.78395 34.7121L20.4782 32.5609V11.2097Z" stroke="black"/>
<path d="M1.54274 12.3394V34.6586" stroke="black"/>
<path d="M17.3424 15.3511L5.34185 16.2116C5.24537 16.2116 5.18104 16.3191 5.16094 16.3729C5.18104 20.6934 5.22125 29.4525 5.22125 29.9258C5.22125 30.3991 5.50267 30.4457 5.64337 30.4098C9.26162 29.9796 16.667 29.0976 17.3424 29.0115C18.0178 28.9255 18.1464 28.5096 18.1263 28.3124C18.066 27.2547 17.9334 24.6337 17.8851 22.6115C17.8369 20.5894 17.5032 16.9287 17.3424 15.3511Z" stroke="black"/>
<path d="M5.70363 16.2114C5.58302 16.2473 5.34181 16.405 5.34181 16.7492C5.34181 17.0934 5.66343 25.3901 5.82424 29.4954C5.82424 29.7822 6.0534 30.3344 6.97002 30.2483" stroke="black"/>
<line y1="-0.5" x2="5.37948" y2="-0.5" transform="matrix(0.02242 0.999749 -0.999841 0.0178339 11.915 22.8804)" stroke="black"/>
<path d="M18.3477 8.16604C18.9564 7.76025 20.8434 7.25313 22.3042 8.47052C23.7651 9.68791 23.4202 11.4124 23.2173 12.1226" stroke="black"/>
<path d="M18.6522 5.20961C19.5315 4.59424 22.2572 3.82523 24.3675 5.67134C26.4777 7.51745 25.9795 10.1326 25.6864 11.2096" stroke="black"/>
<path d="M19.2609 2.41914C20.4333 1.58 24.0676 0.531342 26.8813 3.04877C29.6949 5.56619 29.0306 9.13234 28.6398 10.6009" stroke="black"/>
</svg>
