<svg width="34" height="26" viewBox="0 0 34 26" fill="none" xmlns="http://www.w3.org/2000/svg">
<path d="M7.01206 1.50793C7.26256 1.17393 8.06415 0.656237 9.26654 1.25743C10.4689 1.85863 25.0757 8.52187 32.2289 11.7783C32.535 11.8897 33.114 12.296 32.9804 13.0308C32.8468 13.7656 32.201 17.0666 31.8949 18.6253L29.8074 20.8798" stroke="black"/>
<path d="M28.1373 22.8001L26.3003 25.1381C26.1611 25.2773 25.6824 25.4554 24.8808 25.0546C24.0792 24.6538 9.01594 17.0944 1.5845 13.3647C1.44533 13.3369 1.167 13.1643 1.167 12.6967C1.167 12.2291 1.05567 8.99492 1 7.43627C1 7.2136 1.0835 6.68477 1.4175 6.35078C1.75149 6.01678 5.34197 2.9273 7.09545 1.42432" stroke="black"/>
<path d="M1.41748 6.35083C1.22265 6.57349 0.966581 7.08562 1.50098 7.35282C2.03537 7.62002 17.8112 15.1461 25.6323 18.8757C26.022 18.9871 26.9015 19.0761 27.3023 18.5417C27.7031 18.0073 30.9762 14.5338 32.5627 12.8638C32.7019 12.6411 32.8299 12.1123 32.2287 11.7783" stroke="black"/>
<path d="M31.8112 21.7148L29.0557 20.2953C29.1392 20.0727 29.2394 19.5939 28.9722 19.4603C28.6382 19.2933 28.0537 19.8778 27.6362 20.6293C27.2187 21.3808 26.8012 22.6333 27.0517 23.0508C27.2521 23.3848 27.6362 22.9116 27.8032 22.6333C27.8794 22.6727 27.9635 22.716 28.0537 22.7621M31.8112 21.7148C31.8947 21.9375 31.9949 22.5164 31.7277 23.0508C31.456 23.5941 31.1844 23.9165 30.8678 23.973M31.8112 21.7148C31.6163 21.7427 31.1599 21.9486 30.8927 22.5498C30.5587 23.3013 30.5924 23.9766 30.8678 23.973M29.03 20.2953L28.7217 20.1283C28.5547 20.1283 28.1372 20.3287 27.8032 21.1303C27.4692 21.9319 27.497 22.4107 27.5527 22.5498L28.0537 22.7621M28.0537 22.7621C28.9187 23.2046 30.3397 23.9088 30.6422 23.9693C30.7201 23.9849 30.7951 23.9859 30.8678 23.973" stroke="black"/>
<path d="M12.7744 6.01694C12.7744 6.48948 12.487 6.97849 11.8965 7.37221C11.3094 7.76359 10.4695 8.02192 9.51689 8.02192C8.56423 8.02192 7.72438 7.76359 7.1373 7.37221C6.54673 6.97849 6.25941 6.48948 6.25941 6.01694C6.25941 5.5444 6.54673 5.0554 7.1373 4.66168C7.72438 4.27029 8.56423 4.01196 9.51689 4.01196C10.4695 4.01196 11.3094 4.27029 11.8965 4.66168C12.487 5.0554 12.7744 5.5444 12.7744 6.01694Z" stroke="black"/>
<mask id="mask0_120_449" style="mask-type:alpha" maskUnits="userSpaceOnUse" x="5" y="3" width="9" height="6">
<ellipse cx="9.51689" cy="6.01694" rx="3.75747" ry="2.50498" fill="#D9D9D9"/>
</mask>
<g mask="url(#mask0_120_449)">
<path d="M12.7744 8.68906C12.7744 9.1616 12.4871 9.65061 11.8965 10.0443C11.3094 10.4357 10.4696 10.694 9.5169 10.694C8.56425 10.694 7.7244 10.4357 7.13732 10.0443C6.54674 9.65061 6.25943 9.1616 6.25943 8.68906C6.25943 8.21652 6.54674 7.72752 7.13732 7.3338C7.7244 6.94241 8.56425 6.68408 9.5169 6.68408C10.4696 6.68408 11.3094 6.94241 11.8965 7.3338C12.4871 7.72752 12.7744 8.21652 12.7744 8.68906Z" stroke="black"/>
</g>
<path d="M19.9553 9.69077C19.9553 10.1633 19.668 10.6523 19.0774 11.046C18.4903 11.4374 17.6505 11.6958 16.6978 11.6958C15.7452 11.6958 14.9053 11.4374 14.3182 11.046C13.7277 10.6523 13.4404 10.1633 13.4404 9.69077C13.4404 9.21823 13.7277 8.72923 14.3182 8.33551C14.9053 7.94412 15.7452 7.68579 16.6978 7.68579C17.6505 7.68579 18.4903 7.94412 19.0774 8.33551C19.668 8.72923 19.9553 9.21823 19.9553 9.69077Z" stroke="black"/>
<mask id="mask1_120_449" style="mask-type:alpha" maskUnits="userSpaceOnUse" x="12" y="7" width="9" height="6">
<ellipse cx="16.6978" cy="9.69077" rx="3.75747" ry="2.50498" fill="#D9D9D9"/>
</mask>
<g mask="url(#mask1_120_449)">
<path d="M19.9554 12.3629C19.9554 12.8354 19.668 13.3244 19.0775 13.7182C18.4904 14.1095 17.6505 14.3679 16.6979 14.3679C15.7452 14.3679 14.9054 14.1095 14.3183 13.7182C13.7277 13.3244 13.4404 12.8354 13.4404 12.3629C13.4404 11.8904 13.7277 11.4013 14.3183 11.0076C14.9054 10.6162 15.7452 10.3579 16.6979 10.3579C17.6505 10.3579 18.4904 10.6162 19.0775 11.0076C19.668 11.4013 19.9554 11.8904 19.9554 12.3629Z" stroke="black"/>
</g>
<path d="M27.4703 13.0306C27.4703 13.5032 27.183 13.9922 26.5925 14.3859C26.0054 14.7773 25.1655 15.0356 24.2129 15.0356C23.2602 15.0356 22.4204 14.7773 21.8333 14.3859C21.2427 13.9922 20.9554 13.5032 20.9554 13.0306C20.9554 12.5581 21.2427 12.0691 21.8333 11.6754C22.4204 11.284 23.2602 11.0256 24.2129 11.0256C25.1655 11.0256 26.0054 11.284 26.5925 11.6754C27.183 12.0691 27.4703 12.5581 27.4703 13.0306Z" stroke="black"/>
<mask id="mask2_120_449" style="mask-type:alpha" maskUnits="userSpaceOnUse" x="20" y="10" width="8" height="6">
<ellipse cx="24.2129" cy="13.0306" rx="3.75747" ry="2.50498" fill="#D9D9D9"/>
</mask>
<g mask="url(#mask2_120_449)">
<path d="M27.4703 15.7027C27.4703 16.1753 27.183 16.6643 26.5924 17.058C26.0053 17.4494 25.1655 17.7077 24.2128 17.7077C23.2602 17.7077 22.4203 17.4494 21.8332 17.058C21.2427 16.6643 20.9554 16.1753 20.9554 15.7027C20.9554 15.2302 21.2427 14.7412 21.8332 14.3475C22.4203 13.9561 23.2602 13.6978 24.2128 13.6978C25.1655 13.6978 26.0053 13.9561 26.5924 14.3475C27.183 14.7412 27.4703 15.2302 27.4703 15.7027Z" stroke="black"/>
</g>
</svg>
