<svg width="24" height="28" viewBox="0 0 24 28" fill="none" xmlns="http://www.w3.org/2000/svg">
<path d="M22.8182 1L1.47284 2.26508H1V27.2053L1.87813 27.3258L22.8182 24.9161V1Z" stroke="black"/>
<path d="M1.60799 2.26514V27.2656" stroke="black"/>
<path d="M19.3057 5.63867L5.86351 6.60255C5.75543 6.60255 5.68338 6.72303 5.66087 6.78327C5.68338 11.6227 5.72841 21.4342 5.72841 21.9643C5.72841 22.4944 6.04364 22.5466 6.20125 22.5065C10.2542 22.0245 18.5491 21.0366 19.3057 20.9402C20.0622 20.8438 20.2063 20.3779 20.1838 20.157C20.1163 18.9723 19.9676 16.0365 19.9136 13.7714C19.8596 11.5063 19.4858 7.40577 19.3057 5.63867Z" stroke="black"/>
<path d="M6.26874 6.60254C6.13364 6.6427 5.86345 6.81941 5.86345 7.20496C5.86345 7.59051 6.22371 16.8839 6.40384 21.4823C6.40384 21.8036 6.66052 22.4221 7.68726 22.3257" stroke="black"/>
<line y1="-0.5" x2="6.02573" y2="-0.5" transform="matrix(0.02242 0.999749 -0.999841 0.0178339 13.2263 14.0725)" stroke="black"/>
</svg>
