<svg width="34" height="25" viewBox="0 0 34 25" fill="none" xmlns="http://www.w3.org/2000/svg">
<path d="M17.7619 23.9923L1 15.8019V6.84949M17.7619 23.9923L33 18.2781V8.3733M17.7619 23.9923V14.2781M1 6.84949L16.619 1.32568L33 8.3733M1 6.84949L17.7619 14.2781M33 8.3733L17.7619 14.2781" stroke="black"/>
<path d="M24.3666 8.18778C24.3088 8.93961 23.6057 9.71252 22.1939 10.2717C20.8167 10.8171 18.9161 11.0879 16.8248 10.9271C14.7336 10.7663 12.8967 10.208 11.6192 9.45847C10.3094 8.69002 9.73277 7.8187 9.79059 7.06687C9.8484 6.31504 10.5515 5.54213 11.9633 4.98297C13.3405 4.43756 15.2411 4.16672 17.3323 4.32754C19.4236 4.48836 21.2605 5.04661 22.538 5.79618C23.8478 6.56463 24.4244 7.43595 24.3666 8.18778Z" stroke="black"/>
<mask id="mask0_120_485" style="mask-type:alpha" maskUnits="userSpaceOnUse" x="9" y="3" width="16" height="9">
<ellipse cx="17.0787" cy="7.62733" rx="7.80952" ry="3.80952" transform="rotate(4.39744 17.0787 7.62733)" fill="#D9D9D9"/>
</mask>
<g mask="url(#mask0_120_485)">
<path d="M24.3667 11.2354C24.3089 11.9872 23.6058 12.7601 22.1939 13.3193C20.8168 13.8647 18.9162 14.1355 16.8249 13.9747C14.7337 13.8139 12.8968 13.2556 11.6193 12.5061C10.3095 11.7376 9.73286 10.8663 9.79067 10.1145C9.84849 9.36265 10.5516 8.58974 11.9634 8.03058C13.3406 7.48516 15.2412 7.21433 17.3324 7.37515C19.4237 7.53597 21.2605 8.09422 22.5381 8.84379C23.8479 9.61224 24.4245 10.4836 24.3667 11.2354Z" stroke="black"/>
</g>
<mask id="path-5-inside-1_120_485" fill="white">
<ellipse cx="28.238" cy="8.37327" rx="1.71429" ry="0.952381" transform="rotate(5.68153 28.238 8.37327)"/>
</mask>
<path d="M28.9488 8.44399C28.9611 8.32007 29.0173 8.24281 29.0413 8.21699C29.06 8.19692 29.0506 8.21533 28.9808 8.24546C28.8386 8.30695 28.5772 8.35917 28.2427 8.32589L28.0447 10.3161C28.6523 10.3765 29.265 10.3014 29.7743 10.0813C30.248 9.87663 30.8606 9.42916 30.939 8.64199L28.9488 8.44399ZM28.2427 8.32589C27.9082 8.29261 27.6623 8.18992 27.5349 8.10161C27.4725 8.05833 27.4668 8.03842 27.4812 8.06177C27.4997 8.09182 27.5396 8.17864 27.5272 8.30256L25.537 8.10456C25.4587 8.89174 25.9712 9.45114 26.3953 9.74518C26.8512 10.0613 27.4371 10.2556 28.0447 10.3161L28.2427 8.32589ZM27.5272 8.30256C27.5149 8.42648 27.4587 8.50374 27.4347 8.52956C27.416 8.54963 27.4254 8.53122 27.4952 8.50108C27.6374 8.4396 27.8988 8.38738 28.2333 8.42066L28.4313 6.43048C27.8237 6.37003 27.211 6.44511 26.7017 6.6652C26.228 6.86992 25.6154 7.31738 25.537 8.10456L27.5272 8.30256ZM28.2333 8.42066C28.5678 8.45394 28.8137 8.55663 28.9411 8.64494C29.0035 8.68822 29.0092 8.70813 28.9948 8.68477C28.9763 8.65472 28.9364 8.5679 28.9488 8.44399L30.939 8.64199C31.0173 7.85481 30.5048 7.29541 30.0807 7.00137C29.6248 6.68525 29.0389 6.49093 28.4313 6.43048L28.2333 8.42066Z" fill="black" mask="url(#path-5-inside-1_120_485)"/>
<mask id="path-7-inside-2_120_485" fill="white">
<ellipse cx="6.22883" cy="7.01463" rx="1.71429" ry="0.952381" transform="rotate(5.68153 6.22883 7.01463)"/>
</mask>
<path d="M6.93961 7.08535C6.95194 6.96143 7.00812 6.88416 7.03217 6.85835C7.05086 6.83828 7.0414 6.85669 6.97167 6.88682C6.82942 6.9483 6.56805 7.00053 6.23355 6.96725L6.03555 8.95742C6.64316 9.01787 7.25584 8.9428 7.76511 8.7227C8.2388 8.51798 8.85147 8.07052 8.92978 7.28334L6.93961 7.08535ZM6.23355 6.96725C5.89904 6.93397 5.65309 6.83127 5.52573 6.74297C5.46331 6.69969 5.45766 6.67978 5.47203 6.70313C5.49052 6.73318 5.53038 6.82 5.51806 6.94392L3.52788 6.74592C3.44957 7.5331 3.96206 8.0925 4.38614 8.38654C4.84206 8.70266 5.42793 8.89697 6.03555 8.95742L6.23355 6.96725ZM5.51806 6.94392C5.50573 7.06784 5.44954 7.1451 5.42549 7.17092C5.40681 7.19098 5.41627 7.17257 5.48599 7.14244C5.62825 7.08096 5.88961 7.02874 6.22412 7.06202L6.42212 5.07184C5.8145 5.01139 5.20182 5.08646 4.69256 5.30656C4.21886 5.51128 3.60619 5.95874 3.52788 6.74592L5.51806 6.94392ZM6.22412 7.06202C6.55863 7.0953 6.80458 7.19799 6.93193 7.28629C6.99435 7.32957 7 7.34949 6.98563 7.32613C6.96714 7.29608 6.92728 7.20926 6.93961 7.08535L8.92978 7.28334C9.0081 6.49616 8.4956 5.93676 8.07153 5.64272C7.61561 5.3266 7.02973 5.13229 6.42212 5.07184L6.22412 7.06202Z" fill="black" mask="url(#path-7-inside-2_120_485)"/>
</svg>
