<svg width="32" height="22" viewBox="0 0 32 22" fill="none" xmlns="http://www.w3.org/2000/svg">
<path d="M7.73469 0.528076L3.50464 1.02775C3.15081 1.08327 2.16883 1.08327 1.61224 1.41638C1.16698 1.68287 1.01855 2.19365 1 2.41572C1.07421 6.28355 1.22263 14.3856 1.22263 15.8513C1.22263 17.317 2.07607 17.8315 2.50278 17.9055C8.56957 18.8494 21.0705 20.8147 22.5399 21.1256C24.0093 21.4365 24.7848 21.2552 24.9889 21.1256L29.8312 19.5156C30.6327 19.2491 30.833 18.2572 30.833 17.7945C30.8887 13.5195 31 4.63649 31 3.30403C31 1.97157 29.6642 1.7495 28.9963 1.80501L8.29128 0.528076H7.73469Z" stroke="black"/>
<path d="M1.00938 2.91546C0.953458 2.41409 1.12122 1.43365 2.23961 1.52278C3.358 1.61191 16.6855 2.59978 23.2094 3.08257C23.8059 3.08257 25.01 3.45024 25.0548 4.92091C25.0995 6.39158 24.9989 15.4867 24.9429 19.8504C24.9616 20.4446 24.6074 21.5551 23.0417 21.2431" stroke="black"/>
<path d="M11.4369 9.83925C11.775 12.5585 10.2351 14.8114 8.21907 15.0621C6.20305 15.3127 4.1584 13.5054 3.82034 10.7862C3.48228 8.06689 5.02216 5.81397 7.03818 5.56334C9.05419 5.31271 11.0988 7.11999 11.4369 9.83925Z" stroke="black"/>
<mask id="mask0_120_436" style="mask-type:alpha" maskUnits="userSpaceOnUse" x="3" y="5" width="9" height="11">
<ellipse cx="7.62862" cy="10.3127" rx="4.3376" ry="5.28592" transform="rotate(-7.08671 7.62862 10.3127)" fill="#D9D9D9"/>
</mask>
<g mask="url(#mask0_120_436)">
<path d="M14.8376 8.99135C15.1756 11.7106 13.6358 13.9635 11.6197 14.2142C9.60372 14.4648 7.55907 12.6575 7.22101 9.93825C6.88295 7.21899 8.42283 4.96607 10.4388 4.71544C12.4549 4.46481 14.4995 6.27209 14.8376 8.99135Z" stroke="black"/>
</g>
<path d="M21.6847 10.9206C22.0467 13.8324 20.3982 16.2572 18.2242 16.5275C16.0503 16.7978 13.8582 14.8504 13.4962 11.9386C13.1342 9.02689 14.7827 6.60201 16.9567 6.33174C19.1307 6.06147 21.3228 8.00887 21.6847 10.9206Z" stroke="black"/>
<mask id="mask1_120_436" style="mask-type:alpha" maskUnits="userSpaceOnUse" x="12" y="5" width="11" height="13">
<ellipse cx="17.5905" cy="11.4296" rx="4.6258" ry="5.63713" transform="rotate(-7.08671 17.5905 11.4296)" fill="#D9D9D9"/>
</mask>
<g mask="url(#mask1_120_436)">
<path d="M25.3114 10.0166C25.6734 12.9283 24.0248 15.3532 21.8509 15.6235C19.6769 15.8937 17.4848 13.9463 17.1228 11.0346C16.7608 8.12283 18.4094 5.69796 20.5833 5.42769C22.7573 5.15742 24.9494 7.10482 25.3114 10.0166Z" stroke="black"/>
</g>
</svg>
