<svg width="35" height="31" viewBox="0 0 35 31" fill="none" xmlns="http://www.w3.org/2000/svg">
<path d="M1.66667 12.7367H6.66667C7.10869 12.7367 7.53262 12.908 7.84518 13.2127C8.15774 13.5174 8.33333 13.9308 8.33333 14.3617V28.9867C8.33333 29.4177 8.15774 29.831 7.84518 30.1358C7.53262 30.4405 7.10869 30.6117 6.66667 30.6117H1.66667C1.22464 30.6117 0.800716 30.4405 0.488155 30.1358C0.175595 29.831 0 29.4177 0 28.9867V14.3617C0 13.9308 0.175595 13.5174 0.488155 13.2127C0.800716 12.908 1.22464 12.7367 1.66667 12.7367ZM1.66667 14.3617V28.9867H6.66667V14.3617H1.66667ZM27.86 27.4024L32.8617 19.2774C33.1617 18.7899 33.3333 18.2211 33.3333 17.6117V15.9867C33.3333 15.1248 32.9821 14.2981 32.357 13.6887C31.7319 13.0792 30.8841 12.7367 30 12.7367H20.65L23.0783 3.89675L23.0867 3.8675C23.1626 3.59207 23.1628 3.30201 23.0873 3.02647C23.0119 2.75092 22.8633 2.4996 22.6567 2.29775L12.6417 12.0624C12.3318 12.3641 12.0861 12.7226 11.9188 13.1172C11.7515 13.5118 11.6658 13.9347 11.6667 14.3617V25.7367C11.6667 26.5987 12.0179 27.4254 12.643 28.0348C13.2681 28.6443 14.1159 28.9867 15 28.9867H25C26.2167 28.9867 27.28 28.353 27.86 27.4024ZM35 17.6117C35 18.577 34.7133 19.4756 34.2167 20.2312L29.3733 28.1011C28.9405 28.8621 28.3067 29.4962 27.5377 29.9376C26.7686 30.3791 25.8924 30.6119 25 30.6117H15C13.6739 30.6117 12.4021 30.0981 11.4645 29.1839C10.5268 28.2697 10 27.0297 10 25.7367V14.3617C10 13.0162 10.5583 11.7991 11.4617 10.9167L22.6567 0L23.835 1.14887C24.2567 1.56 24.5575 2.07387 24.7061 2.63693C24.8547 3.19999 24.8457 3.79162 24.68 4.35013L22.8217 11.1117H30C31.3261 11.1117 32.5979 11.6254 33.5355 12.5396C34.4732 13.4538 35 14.6938 35 15.9867V17.6117Z" fill="black"/>
</svg>
