<svg width="28" height="29" viewBox="0 0 28 29" fill="none" xmlns="http://www.w3.org/2000/svg">
<path d="M19.5506 5.96509L14 6.25722C13.2454 6.20853 11.4438 6.53475 10.2753 8.22914C8.81463 10.3471 8.48393 11.9547 8.4109 14.2187C8.3025 17.5791 9.76407 20.0606 11.2247 21.5213C12.6854 22.982 14.8764 22.8359 15.7529 22.8359C16.454 22.8359 18.7716 22.8359 19.8428 22.8359" stroke="black"/>
<path fill-rule="evenodd" clip-rule="evenodd" d="M18.8211 22.7423C18.694 22.9814 18.5616 23.2122 18.4241 23.4343C17.0061 25.7251 15.1427 26.9725 13.2221 26.9992C11.3015 27.0258 9.40421 25.8307 7.92321 23.5801C6.4497 21.3409 5.48082 18.1719 5.4313 14.6056C5.38178 11.0392 6.2623 7.84451 7.67306 5.5653C9.09101 3.27449 10.9544 2.02711 12.875 2.00045C14.7956 1.97378 16.6929 3.16893 18.1739 5.41949C18.2974 5.60706 18.4173 5.80116 18.5334 6.00147C18.8017 5.92141 19.0778 5.87785 19.36 5.87393C19.4443 5.87276 19.5281 5.87514 19.6114 5.88099C17.9891 2.86785 15.5562 0.96312 12.8611 1.00054C8.102 1.06662 4.32788 7.16402 4.4314 14.6195C4.53492 22.0749 8.47688 28.0651 13.236 27.9991C15.9665 27.9611 18.3728 25.9379 19.9085 22.8118C19.805 22.8241 19.7007 22.8311 19.5955 22.8325C19.3326 22.8362 19.0739 22.8053 18.8211 22.7423Z" fill="black"/>
<path d="M13.2697 1.07202C12.1255 1.07202 9.58876 1.26191 8.5955 2.02146C6.76966 3.4177 3.79376 6.55555 3.48313 12.8305C3.11797 20.2069 5.67415 23.6395 7.06179 25.2462C8.44944 26.853 11.2978 28.0946 13.0506 27.9485" stroke="black"/>
<path d="M8.01126 2.53247C5.45507 3.60363 0.999997 7.47909 1 14.51C1 24.1513 6.98878 26.5606 9.32586 27.0719" stroke="black"/>
<path d="M18.382 12.173C17.6809 12.2898 17.4082 13.098 17.3595 13.4876C17.1404 14.5101 18.0169 15.6055 18.8933 15.7516C19.7697 15.8977 20.7191 15.3134 21.0112 15.2404C21.3034 15.1673 21.8146 16.0772 22.691 16.0772C23.2753 16.0772 23.4944 15.5325 23.7865 15.4595C24.0787 15.3864 24.9551 16.1168 25.7584 16.0772C26.5618 16.0376 27 15.0213 27 14.2909C27 13.5606 26.3427 12.9763 25.7584 12.8302C25.1742 12.6842 24.5169 13.1224 24.0787 13.1954C23.6405 13.2684 23.1292 12.5381 22.545 12.392C21.9607 12.246 21.1573 12.7572 21.0112 12.9033C20.8652 13.0493 20.427 12.7572 20.2809 12.6112C20.1348 12.4651 19.2584 12.0269 18.382 12.173Z" stroke="black"/>
<path fill-rule="evenodd" clip-rule="evenodd" d="M23.4156 15.7347C23.2645 17.3368 22.8286 18.7446 22.224 19.8043C21.4312 21.1941 20.4623 21.8203 19.5815 21.8325C18.7007 21.8448 17.7147 21.2457 16.8837 19.8785C16.0664 18.534 15.5134 16.6032 15.4829 14.4086C15.4524 12.214 15.9516 10.2686 16.7312 8.90192C17.5241 7.51221 18.493 6.88596 19.3738 6.87373C20.2546 6.8615 21.2405 7.46061 22.0716 8.82777C22.7083 9.87513 23.1846 11.2783 23.3784 12.8849C23.6296 13.0729 23.8631 13.2317 24.0789 13.1957C24.1783 13.1791 24.289 13.1438 24.4076 13.1007C24.0111 8.98279 21.8817 5.83881 19.3599 5.87382C16.6014 5.91213 14.418 9.73949 14.483 14.4225C14.548 19.1055 16.8369 22.8707 19.5954 22.8324C22.0738 22.798 24.088 19.7049 24.4243 15.6807C24.4174 15.6773 24.4105 15.674 24.4037 15.6707C24.129 15.5371 23.9077 15.4295 23.7867 15.4598C23.6764 15.4874 23.5765 15.5822 23.4634 15.6896C23.4477 15.7045 23.4318 15.7195 23.4156 15.7347Z" fill="black"/>
</svg>
