<svg width="32" height="50" viewBox="0 0 32 50" fill="none" xmlns="http://www.w3.org/2000/svg">
<path fill-rule="evenodd" clip-rule="evenodd" d="M9.43697 0.190311C9.26656 0.294986 9.05862 0.485688 8.97501 0.614287C8.70674 1.02635 -0.000387941 27.5856 1.29638e-08 27.9904C0.000387967 28.4291 0.268173 28.9167 0.645361 29.1656C0.893942 29.3295 1.35541 29.3451 7.33271 29.3906L13.753 29.4394L9.78593 38.8012C5.54686 48.8051 5.61165 48.625 6.01241 49.2867C6.39958 49.9261 7.29556 50.1894 7.94102 49.8533C8.20328 49.7168 31.6429 23.1512 31.8801 22.7218C32.0641 22.3886 32.0314 21.6712 31.8161 21.3157C31.3924 20.6161 31.7901 20.6568 24.8257 20.6025L18.5583 20.5537L23.8269 11.2285C28.6345 2.71932 29.0954 1.86493 29.0954 1.464C29.0954 0.935149 28.8359 0.465378 28.3938 0.194119C28.0843 0.00410111 27.8873 0 18.9123 0C9.99834 0 9.73841 0.00527285 9.43697 0.190311ZM24.8591 3.39024C24.7114 3.64402 22.3311 7.85137 19.5696 12.7398C14.9926 20.8422 14.5488 21.6666 14.5487 22.0672C14.5485 22.596 14.808 23.0657 15.2502 23.337C15.5564 23.525 15.7499 23.5311 21.4169 23.5314L27.2675 23.5318L26.9937 23.8605C26.6597 24.2614 12.6549 40.1988 12.3953 40.4733C12.2506 40.6262 12.2733 40.5204 12.4998 39.9851C12.6588 39.6091 13.8394 36.8244 15.1232 33.7966C17.6173 27.9151 17.6518 27.8084 17.2678 27.1744C16.8432 26.4733 17.271 26.5155 10.03 26.4612L3.51515 26.4124L7.38596 14.6705L11.2569 2.92868H18.1923H25.1278L24.8591 3.39024Z" fill="#404040"/>
</svg>
