<svg width="50" height="50" viewBox="0 0 50 50" fill="none" xmlns="http://www.w3.org/2000/svg">
<path fill-rule="evenodd" clip-rule="evenodd" d="M23.7995 0.184415C23.4932 0.282476 23.0533 0.473809 22.8218 0.609708C22.1898 0.980641 21.4083 1.86603 21.0564 2.61005L20.7439 3.27087V7.32826V11.3857L21.0564 12.0465C21.403 12.7792 22.1877 13.6747 22.7959 14.0317C23.8019 14.622 23.6187 14.6041 29.2061 14.6591C34.2074 14.7084 34.3565 14.7154 34.6184 14.9114C34.7666 15.0223 34.9785 15.2344 35.0892 15.3828C35.2866 15.6476 35.291 15.7674 35.3179 21.6096C35.3348 25.3289 35.3102 27.5663 35.2523 27.5663C35.2013 27.5663 34.7936 27.4796 34.3464 27.3737C30.7467 26.5209 26.1817 26.426 22.6934 27.1313C22.4358 27.1834 22.3096 27.1175 21.7168 26.621C18.3258 23.7815 13.7643 22.8441 9.41899 24.0938C8.24296 24.432 6.37796 25.3564 5.3635 26.1039C3.73838 27.3013 2.20952 29.1065 1.32266 30.8748C-0.405848 34.3217 -0.442946 38.788 1.22757 42.3252C3.04219 46.1672 6.48262 48.9076 10.6393 49.8217C11.3535 49.9788 11.8912 50.0035 14.4957 49.9996C25.478 49.983 36.7913 47.2122 47.2012 41.9895C49.1564 41.0086 49.582 40.7574 49.7721 40.4718L50 40.1296L49.9542 34.6057C49.9057 28.7531 49.8457 27.733 49.3442 24.2422C48.2879 16.888 45.9741 9.84434 42.4441 3.23704C41.4287 1.33652 40.6795 0.60042 39.3332 0.180895C38.7719 0.00588924 38.3397 -0.00408315 31.5475 0.000903046C24.8658 0.00579147 24.3167 0.0187947 23.7995 0.184415ZM38.6195 3.11493C39.117 3.34126 39.2265 3.4974 40.2017 5.37289C43.6733 12.0489 45.9247 19.594 46.7074 27.1753C46.927 29.3027 47.0536 32.446 47.0542 35.7883L47.0547 38.7797L45.3707 39.5904C35.4065 44.3869 26.0756 46.6825 14.935 47.0781C12.0805 47.1795 10.5864 46.9192 8.73559 45.9983C6.0923 44.6829 4.19743 42.4067 3.37257 39.556C2.55141 36.7186 2.99943 33.62 4.5774 31.2212C7.06888 27.4339 11.6132 25.7119 16.0089 26.8893C16.7428 27.0858 18.745 27.9958 18.7396 28.1303C18.738 28.1696 18.1998 28.4128 17.5436 28.6707C15.2602 29.5682 14.7393 29.9787 14.7401 30.8805C14.7405 31.4205 14.9985 31.8884 15.4467 32.162C15.9707 32.482 16.4235 32.4154 17.7229 31.8271C19.7959 30.8885 22.0682 30.2306 24.5704 29.8445C26.0401 29.6177 29.8966 29.6177 31.3663 29.8445C33.8572 30.2289 36.0655 30.8693 38.2101 31.8292C39.5176 32.4143 39.969 32.4802 40.4901 32.162C41.4331 31.5862 41.4331 30.1965 40.4901 29.6181C40.3152 29.5108 39.7436 29.2366 39.2201 29.009L38.2682 28.5951V22.0368C38.2682 16.2926 38.2487 15.4126 38.111 14.9476C37.8773 14.1582 37.6192 13.708 37.0629 13.1188C36.1032 12.1027 35.1366 11.7278 33.4757 11.7278H32.4105L32.4103 9.35696C32.4102 6.70411 32.3696 6.50681 31.737 6.08367C31.4203 5.87171 31.319 5.86174 29.4916 5.86213C27.7542 5.86242 27.5486 5.88041 27.2597 6.05678C26.3167 6.63254 26.3167 8.02398 27.2597 8.59974C27.5196 8.75852 27.7522 8.79411 28.5298 8.7944L29.4816 8.79479V10.2675V11.7403L27.0478 11.7096C24.3706 11.6759 24.3744 11.6767 23.874 11.006C23.682 10.7487 23.6714 10.5906 23.6433 7.59009C23.6269 5.85978 23.6397 4.30242 23.6715 4.12918C23.7436 3.73635 24.1545 3.23724 24.5465 3.06624C24.7844 2.96241 26.1889 2.93601 31.5318 2.93464C37.8472 2.93308 38.2416 2.94315 38.6195 3.11493Z" fill="#404040"/>
</svg>
