<svg width="61" height="53" viewBox="0 0 61 53" fill="none" xmlns="http://www.w3.org/2000/svg">
<path d="M19.0625 30.2857H17.1562C12.9446 30.2857 9.53125 33.681 9.53125 37.8713V45.4144C9.53125 49.6035 12.9446 53 17.1562 53H19.0625C21.1677 53 22.875 51.3012 22.875 49.2072V34.0785C22.875 31.9834 21.1677 30.2857 19.0625 30.2857ZM43.8438 30.2857H41.9375C39.8323 30.2857 38.125 31.9834 38.125 34.0785V49.2072C38.125 51.3012 39.8323 53 41.9375 53H43.8438C48.0554 53 51.4688 49.6035 51.4688 45.4144V37.8713C51.4688 33.6822 48.0554 30.2857 43.8438 30.2857ZM30.5 0C13.4522 0 0.544473 14.0935 0 30.2857V43.5357C0 44.5815 0.853047 45.4286 1.90625 45.4286H3.8125C4.8657 45.4286 5.71875 44.5815 5.71875 43.5357V30.2857C5.71875 16.7198 16.8381 5.70223 30.5 5.69987C44.1619 5.70223 55.2812 16.7198 55.2812 30.2857V43.5357C55.2812 44.5815 56.1343 45.4286 57.1875 45.4286H59.0938C60.147 45.4286 61 44.5815 61 43.5357V30.2857C60.4555 14.0935 47.5478 0 30.5 0Z" fill="#635258"/>
</svg>
