<svg width="33" height="41" viewBox="0 0 33 41" fill="none" xmlns="http://www.w3.org/2000/svg">
<path d="M22 17.2632C20.2496 17.2632 18.5708 16.5811 17.3331 15.3671C16.0954 14.153 15.4 12.5064 15.4 10.7895V2.15789H6.6C5.43305 2.15789 4.31389 2.61259 3.48873 3.42196C2.66357 4.23133 2.2 5.32907 2.2 6.47368V34.5263C2.2 35.6709 2.66357 36.7687 3.48873 37.578C4.31389 38.3874 5.43305 38.8421 6.6 38.8421H26.4C27.567 38.8421 28.6861 38.3874 29.5113 37.578C30.3364 36.7687 30.8 35.6709 30.8 34.5263V17.2632H22ZM17.6 10.7895C17.6 11.9341 18.0636 13.0318 18.8887 13.8412C19.7139 14.6506 20.833 15.1053 22 15.1053H29.8892L17.6 3.05126V10.7895ZM6.6 0H17.6L33 15.1053V34.5263C33 36.2432 32.3046 37.8899 31.0669 39.1039C29.8292 40.318 28.1504 41 26.4 41H6.6C4.84957 41 3.17084 40.318 1.9331 39.1039C0.695355 37.8899 0 36.2432 0 34.5263V6.47368C0 4.75676 0.695355 3.11015 1.9331 1.8961C3.17084 0.682047 4.84957 0 6.6 0Z" fill="#635258"/>
</svg>
