<svg width="40" height="41" viewBox="0 0 40 41" fill="none" xmlns="http://www.w3.org/2000/svg">
<path d="M28.7533 39.1033C28.1652 39.7046 27.467 40.1816 26.6985 40.5071C25.9301 40.8325 25.1064 41 24.2746 41C23.4428 41 22.6192 40.8325 21.8507 40.5071C21.0822 40.1816 20.384 39.7046 19.7959 39.1033L2.22511 21.5727C0.95 20.3901 0 18.6247 0 16.7256V6.47441C0 4.75729 0.667261 3.1105 1.85499 1.89631C3.04272 0.682124 4.65363 0 6.33334 0H16.3611C18.2189 0 19.9458 0.97332 21.1027 2.27468L38.1457 20.3448C39.333 21.5589 40 23.2054 40 24.9222C40 26.639 39.333 28.2855 38.1457 29.4996L28.7512 39.1033H28.7533ZM27.2587 37.5775L36.6531 27.9738C37.4447 27.1644 37.8893 26.0667 37.8893 24.9222C37.8893 23.7777 37.4447 22.68 36.6531 21.8706L19.2365 3.41849C18.5271 2.58329 17.5265 2.15814 16.3611 2.15814L6.27634 2.09987C3.94778 2.09987 2.11111 4.08967 2.11111 6.47441V16.7256C2.11111 17.9169 2.527 18.9398 3.344 19.665L21.2885 37.5775C22.0802 38.3867 23.154 38.8412 24.2736 38.8412C25.3932 38.8412 26.4669 38.3867 27.2587 37.5775ZM9.5 4.31628C10.8998 4.31628 12.2422 4.88471 13.232 5.89654C14.2217 6.90836 14.7778 8.28069 14.7778 9.71162C14.7778 11.1426 14.2217 12.5149 13.232 13.5267C12.2422 14.5385 10.8998 15.107 9.5 15.107C8.10025 15.107 6.75783 14.5385 5.76805 13.5267C4.77827 12.5149 4.22222 11.1426 4.22222 9.71162C4.22222 8.28069 4.77827 6.90836 5.76805 5.89654C6.75783 4.88471 8.10025 4.31628 9.5 4.31628ZM9.5 6.47441C8.66015 6.47441 7.8547 6.81547 7.26083 7.42257C6.66697 8.02966 6.33334 8.85306 6.33334 9.71162C6.33334 10.5702 6.66697 11.3936 7.26083 12.0007C7.8547 12.6078 8.66015 12.9488 9.5 12.9488C10.3399 12.9488 11.1453 12.6078 11.7392 12.0007C12.333 11.3936 12.6667 10.5702 12.6667 9.71162C12.6667 8.85306 12.333 8.02966 11.7392 7.42257C11.1453 6.81547 10.3399 6.47441 9.5 6.47441Z" fill="#635258"/>
</svg>
