<svg width="45" height="41" viewBox="0 0 45 41" fill="none" xmlns="http://www.w3.org/2000/svg">
<path d="M2.14286 17.059H8.57143C9.13975 17.059 9.68479 17.2883 10.0867 17.6965C10.4885 18.1047 10.7143 18.6583 10.7143 19.2355V38.8235C10.7143 39.4008 10.4885 39.9544 10.0867 40.3625C9.68479 40.7707 9.13975 41 8.57143 41H2.14286C1.57454 41 1.02949 40.7707 0.627628 40.3625C0.225765 39.9544 0 39.4008 0 38.8235V19.2355C0 18.6583 0.225765 18.1047 0.627628 17.6965C1.02949 17.2883 1.57454 17.059 2.14286 17.059V17.059ZM2.14286 19.2355V38.8235H8.57143V19.2355H2.14286ZM35.82 36.7015L42.2507 25.8192C42.6364 25.1663 42.8571 24.4046 42.8571 23.5884V21.4119C42.8571 20.2575 42.4056 19.1503 41.6019 18.334C40.7982 17.5176 39.7081 17.059 38.5714 17.059H26.55L29.6721 5.21913L29.6829 5.17996C29.7805 4.81106 29.7808 4.42256 29.6837 4.05351C29.5867 3.68446 29.3957 3.34785 29.13 3.0775L16.2536 16.1558C15.8551 16.5599 15.5393 17.04 15.3241 17.5686C15.109 18.0971 14.9989 18.6636 15 19.2355V34.4706C15 35.6251 15.4515 36.7323 16.2553 37.5486C17.059 38.3649 18.1491 38.8235 19.2857 38.8235H32.1429C33.7071 38.8235 35.0743 37.9747 35.82 36.7015ZM45 23.5884C45 24.8812 44.6314 26.0848 43.9929 27.0968L37.7657 37.6374C37.2092 38.6565 36.3943 39.5058 35.4056 40.0971C34.4168 40.6884 33.2903 41.0002 32.1429 41H19.2857C17.5808 41 15.9456 40.3121 14.74 39.0876C13.5344 37.8631 12.8571 36.2023 12.8571 34.4706V19.2355C12.8571 17.4334 13.575 15.8032 14.7364 14.6214L29.13 0L30.645 1.53875C31.1871 2.08939 31.5739 2.77765 31.765 3.53179C31.9561 4.28593 31.9445 5.07832 31.7314 5.82636L29.3421 14.8826H38.5714C40.2764 14.8826 41.9115 15.5705 43.1171 16.795C44.3227 18.0195 45 19.6802 45 21.4119V23.5884Z" fill="#635258"/>
</svg>
