<svg width="55" height="37" viewBox="0 0 55 37" fill="none" xmlns="http://www.w3.org/2000/svg">
<path d="M11.625 23.625C13.1138 23.6247 14.5571 24.1471 15.7104 25.1038C16.8638 26.0605 17.6564 27.3927 17.9542 28.875H36.1667V2.625H7.75C6.37971 2.625 5.06555 3.17812 4.09661 4.16269C3.12768 5.14725 2.58333 6.48261 2.58333 7.875V28.875H5.29583C5.5936 27.3927 6.38623 26.0605 7.53958 25.1038C8.69293 24.1471 10.1362 23.6247 11.625 23.625ZM11.625 36.75C10.1362 36.7503 8.69293 36.2279 7.53958 35.2712C6.38623 34.3145 5.5936 32.9823 5.29583 31.5H0V7.875C0 5.78642 0.816515 3.78338 2.26992 2.30653C3.72333 0.829685 5.69457 0 7.75 0H36.1667C36.8518 0 37.5089 0.276562 37.9934 0.768845C38.4778 1.26113 38.75 1.92881 38.75 2.625V7.875H46.5L54.25 18.3251V31.5H48.9542C48.6577 32.9835 47.8656 34.3172 46.7122 35.2752C45.5587 36.2332 44.1147 36.7566 42.625 36.7566C41.1352 36.7566 39.6913 36.2332 38.5378 35.2752C37.3844 34.3172 36.5923 32.9835 36.2958 31.5H17.9542C17.6564 32.9823 16.8638 34.3145 15.7104 35.2712C14.5571 36.2279 13.1138 36.7503 11.625 36.75ZM11.625 26.25C10.5973 26.25 9.61166 26.6648 8.88496 27.4033C8.15826 28.1417 7.75 29.1432 7.75 30.1875C7.75 31.2318 8.15826 32.2333 8.88496 32.9717C9.61166 33.7102 10.5973 34.125 11.625 34.125C12.6527 34.125 13.6383 33.7102 14.365 32.9717C15.0917 32.2333 15.5 31.2318 15.5 30.1875C15.5 29.1432 15.0917 28.1417 14.365 27.4033C13.6383 26.6648 12.6527 26.25 11.625 26.25ZM42.625 23.625C44.1138 23.6247 45.5571 24.1471 46.7104 25.1038C47.8638 26.0605 48.6564 27.3927 48.9542 28.875H51.6667V19.2045L51.0518 18.375H38.75V24.9375C39.867 24.0838 41.2273 23.6231 42.625 23.625ZM42.625 26.25C41.5973 26.25 40.6117 26.6648 39.885 27.4033C39.1583 28.1417 38.75 29.1432 38.75 30.1875C38.75 31.2318 39.1583 32.2333 39.885 32.9717C40.6117 33.7102 41.5973 34.125 42.625 34.125C43.6527 34.125 44.6383 33.7102 45.365 32.9717C46.0917 32.2333 46.5 31.2318 46.5 30.1875C46.5 29.1432 46.0917 28.1417 45.365 27.4033C44.6383 26.6648 43.6527 26.25 42.625 26.25ZM38.75 10.5V15.75H49.1066L45.2083 10.5H38.75Z" fill="#404040"/>
</svg>
