<svg width="23" height="25" viewBox="0 0 23 25" fill="none" xmlns="http://www.w3.org/2000/svg">
<path d="M5.30769 12.5C5.07308 12.5 4.84807 12.5941 4.68217 12.7615C4.51628 12.929 4.42308 13.1561 4.42308 13.3929V17.8571C4.42308 18.0939 4.51628 18.321 4.68217 18.4885C4.84807 18.6559 5.07308 18.75 5.30769 18.75C5.54231 18.75 5.76731 18.6559 5.93321 18.4885C6.09911 18.321 6.19231 18.0939 6.19231 17.8571V16.9643H6.63462C7.22115 16.9643 7.78367 16.7291 8.19841 16.3105C8.61315 15.8919 8.84615 15.3241 8.84615 14.7321C8.84615 14.1401 8.61315 13.5724 8.19841 13.1538C7.78367 12.7352 7.22115 12.5 6.63462 12.5H5.30769ZM6.63462 15.1786H6.19231V14.2857H6.63462C6.75192 14.2857 6.86443 14.3327 6.94737 14.4165C7.03032 14.5002 7.07692 14.6137 7.07692 14.7321C7.07692 14.8505 7.03032 14.9641 6.94737 15.0478C6.86443 15.1315 6.75192 15.1786 6.63462 15.1786ZM9.73077 13.3929C9.73077 13.1561 9.82397 12.929 9.98987 12.7615C10.1558 12.5941 10.3808 12.5 10.6154 12.5H11.0577C11.8788 12.5 12.6664 12.8292 13.247 13.4153C13.8276 14.0013 14.1538 14.7962 14.1538 15.625C14.1538 16.4538 13.8276 17.2487 13.247 17.8347C12.6664 18.4208 11.8788 18.75 11.0577 18.75H10.6154C10.3808 18.75 10.1558 18.6559 9.98987 18.4885C9.82397 18.321 9.73077 18.0939 9.73077 17.8571V13.3929ZM11.5 16.8884C11.7592 16.7964 11.9837 16.6254 12.1425 16.3991C12.3013 16.1728 12.3866 15.9023 12.3866 15.625C12.3866 15.3477 12.3013 15.0772 12.1425 14.8509C11.9837 14.6246 11.7592 14.4536 11.5 14.3616V16.8884ZM15.0385 17.8571V13.3929C15.0385 13.1561 15.1317 12.929 15.2976 12.7615C15.4635 12.5941 15.6885 12.5 15.9231 12.5H18.5769C18.8115 12.5 19.0365 12.5941 19.2024 12.7615C19.3683 12.929 19.4615 13.1561 19.4615 13.3929C19.4615 13.6297 19.3683 13.8568 19.2024 14.0242C19.0365 14.1916 18.8115 14.2857 18.5769 14.2857H16.8077V15.1786H18.5769C18.8115 15.1786 19.0365 15.2726 19.2024 15.4401C19.3683 15.6075 19.4615 15.8346 19.4615 16.0714C19.4615 16.3082 19.3683 16.5353 19.2024 16.7028C19.0365 16.8702 18.8115 16.9643 18.5769 16.9643H16.8077V17.8571C16.8077 18.0939 16.7145 18.321 16.5486 18.4885C16.3827 18.6559 16.1577 18.75 15.9231 18.75C15.6885 18.75 15.4635 18.6559 15.2976 18.4885C15.1317 18.321 15.0385 18.0939 15.0385 17.8571ZM12.3846 6.25V0H4.42308C3.71923 0 3.04422 0.282206 2.54652 0.784535C2.04883 1.28687 1.76923 1.96817 1.76923 2.67857V9.82143C1.3 9.82143 0.849991 10.0096 0.518196 10.3445C0.1864 10.6793 0 11.1335 0 11.6071V19.6429C0 20.1165 0.1864 20.5707 0.518196 20.9055C0.849991 21.2404 1.3 21.4286 1.76923 21.4286V22.3214C1.76923 23.0318 2.04883 23.7131 2.54652 24.2155C3.04422 24.7178 3.71923 25 4.42308 25H18.5769C19.2808 25 19.9558 24.7178 20.4535 24.2155C20.9512 23.7131 21.2308 23.0318 21.2308 22.3214V21.4286C21.7 21.4286 22.15 21.2404 22.4818 20.9055C22.8136 20.5707 23 20.1165 23 19.6429V11.6071C23 11.1335 22.8136 10.6793 22.4818 10.3445C22.15 10.0096 21.7 9.82143 21.2308 9.82143V8.92857H15.0385C14.3346 8.92857 13.6596 8.64637 13.1619 8.14404C12.6642 7.64171 12.3846 6.9604 12.3846 6.25ZM21.2308 11.6071V19.6429H1.76923V11.6071H21.2308ZM14.1538 6.25V0.104464C14.5861 0.229774 14.9797 0.463885 15.2977 0.784821L20.4532 5.98839C20.7712 6.30935 21.0031 6.70661 21.1273 7.14286H15.0385C14.8038 7.14286 14.5788 7.04879 14.4129 6.88135C14.247 6.7139 14.1538 6.4868 14.1538 6.25Z" fill="#404040"/>
</svg>
