<svg width="50" height="50" viewBox="0 0 50 50" fill="none" xmlns="http://www.w3.org/2000/svg">
<path fill-rule="evenodd" clip-rule="evenodd" d="M0.706744 0.194435C0.284475 0.451859 0.000390684 0.9378 5.56165e-08 1.40343C-0.000390572 1.77374 2.05705 10.074 2.45988 11.3278C2.71125 12.11 3.31477 13.3315 3.83489 14.111C4.06488 14.4557 6.11958 16.5972 8.82429 19.3113L13.4227 23.9256L7.02105 30.3465C-0.391994 37.7818 0.0484379 37.231 0.0484379 39.0675C0.0484379 40.0593 0.0620123 40.1252 0.409476 40.8253C0.745904 41.5033 1.038 41.8187 4.70638 45.4663C9.33259 50.0663 9.17263 49.9512 10.9372 49.9512C12.7678 49.9512 12.22 50.3894 19.653 42.9787L26.0739 36.5771L32.1531 42.6435L38.2323 48.7099L39.2577 49.2007C40.4769 49.7843 41.373 50 42.5781 50C43.7857 50 44.682 49.7836 45.8945 49.1992C46.7927 48.7664 47.0241 48.5989 47.8115 47.8115C48.5989 47.0241 48.7664 46.7927 49.1992 45.8945C49.7836 44.682 50 43.7857 50 42.5781C50 41.373 49.7843 40.4769 49.2007 39.2577L48.7099 38.2323L42.6435 32.1531L36.5771 26.0739L42.9787 19.653C50.3894 12.22 49.9512 12.7678 49.9512 10.9372C49.9512 9.17263 50.0663 9.33259 45.4663 4.70638C41.8187 1.038 41.5033 0.745904 40.8253 0.409476C40.1252 0.0620123 40.0593 0.0484379 39.0675 0.0484379C37.231 0.0484379 37.7818 -0.391994 30.3465 7.02105L23.9256 13.4227L19.3113 8.82429C16.5972 6.11958 14.4557 4.06488 14.111 3.83489C13.332 3.31506 12.1104 2.71154 11.3278 2.45969C10.0739 2.05617 1.77785 -0.000390572 1.40558 5.56403e-08C1.1962 0.00019537 0.881745 0.087696 0.706744 0.194435ZM39.4806 3.06555C39.657 3.14202 41.3651 4.7808 43.3741 6.80093C46.1563 9.59861 46.9678 10.4697 47.0185 10.7129C47.1127 11.164 46.8845 11.5684 46.0931 12.3538L45.4119 13.0299L42.994 10.6274C40.789 8.43669 40.5402 8.21911 40.1676 8.15768C39.3812 8.0278 38.6022 8.58034 38.4232 9.3948C38.2865 10.0172 38.4999 10.3019 40.9518 12.7688L43.3062 15.1374L42.2358 16.2112C41.647 16.8017 41.1199 17.2849 41.0645 17.2849C41.009 17.2849 40.437 16.7545 39.7933 16.1062C38.5165 14.8203 38.2739 14.6482 37.7393 14.6482C36.9996 14.6482 36.41 15.1452 36.2698 15.8869C36.1537 16.501 36.3848 16.8755 37.7066 18.2157L38.9619 19.4882L37.8635 20.5835L36.7651 21.6788L34.5202 19.4262C33.2855 18.1873 32.1122 17.0889 31.9129 16.9852C31.2292 16.6293 30.433 16.832 30.0067 17.4703C29.7478 17.8578 29.7106 18.5215 29.9249 18.9255C30.002 19.0706 31.0787 20.1996 32.3175 21.4345C33.5565 22.6694 34.5702 23.7249 34.5702 23.78C34.5702 23.835 34.0867 24.362 33.4959 24.9511L32.4214 26.0222L31.1765 24.7891C30.4917 24.1109 29.8287 23.5037 29.703 23.4397C29.5773 23.3758 29.2808 23.3233 29.0441 23.3233C28.0784 23.3233 27.3983 24.2086 27.6474 25.1409C27.7313 25.4546 28.0197 25.8064 29.0351 26.8329L30.3169 28.1289L29.2228 29.2231L28.1286 30.3172L25.7097 27.9138C23.5038 25.722 23.2549 25.5044 22.8823 25.443C22.0959 25.3131 21.3169 25.8656 21.138 26.6801C21.0012 27.3025 21.2146 27.5872 23.6665 30.054L26.0209 32.4227L24.9505 33.4965C24.3617 34.087 23.8347 34.5702 23.7792 34.5702C23.7237 34.5702 23.1517 34.0398 22.508 33.3915C21.2312 32.1056 20.9886 31.9335 20.454 31.9335C19.7143 31.9335 19.1247 32.4305 18.9845 33.1722C18.8684 33.7863 19.0995 34.1608 20.4214 35.501L21.6766 36.7735L20.5782 37.8688L19.4798 38.9641L17.2349 36.7115C16.0002 35.4726 14.8269 34.3742 14.6277 34.2705C13.944 33.9146 13.1478 34.1173 12.7214 34.7555C12.4625 35.143 12.4253 35.8068 12.6396 36.2108C12.7167 36.3559 13.7934 37.4849 15.0322 38.7198C16.2712 39.9547 17.2849 41.0102 17.2849 41.0653C17.2849 41.1203 16.8014 41.6473 16.2106 42.2364L15.1362 43.3075L13.8912 42.0744C13.2064 41.3962 12.5434 40.789 12.4177 40.725C12.0601 40.5429 11.3696 40.5829 11.0107 40.8066C10.6434 41.0354 10.4476 41.3205 10.3448 41.7765C10.1988 42.4241 10.3889 42.741 11.7494 44.1172L13.0295 45.4122L12.3537 46.0932C11.5684 46.8845 11.164 47.1127 10.7129 47.0185C10.4697 46.9678 9.59861 46.1563 6.80093 43.3741C4.67201 41.2569 3.14387 39.661 3.06008 39.4673C2.97336 39.2671 2.94289 39.0204 2.98166 38.8325C3.03196 38.5887 6.6857 34.8826 20.6855 20.8752C30.3878 11.1675 38.4588 3.1594 38.621 3.07932C38.9894 2.89748 39.0893 2.89592 39.4806 3.06555ZM6.98209 4.39906C10.4046 5.27045 10.7539 5.37455 11.4743 5.73715C12.2842 6.14487 12.7972 6.53345 13.7478 7.45943L14.6541 8.34225L11.503 11.4944L8.35202 14.6466L7.5857 13.8905C5.86841 12.1963 5.55883 11.5335 4.44994 7.1774C3.98509 5.35121 3.5803 3.77581 3.55032 3.67649C3.50804 3.53606 3.53606 3.50784 3.67649 3.54964C3.77581 3.57913 5.26332 3.96136 6.98209 4.39906ZM18.6765 18.6761L15.5276 21.8251L12.9882 19.2871L10.4487 16.7491L13.5979 13.5988L16.747 10.4486L19.2863 12.9879L21.8256 15.5271L18.6765 18.6761ZM37.5737 31.2749L40.6249 34.3272L37.4749 37.4761L34.3249 40.6249L31.2499 37.5487L28.1748 34.4725L31.2987 31.3475C33.0169 29.6287 34.4451 28.2225 34.4725 28.2225C34.5001 28.2225 35.8956 29.596 37.5737 31.2749ZM46.5269 40.5448C47.8989 43.2729 46.2812 46.4634 43.2685 46.9715C42.3954 47.1187 41.4846 46.9809 40.6165 46.5705C40.1123 46.332 39.6841 45.9643 38.2118 44.5056L36.4205 42.7308L39.5718 39.5784L42.723 36.4261L44.4609 38.1593C45.887 39.5815 46.2578 40.0096 46.5269 40.5448Z" fill="#404040"/>
</svg>
