<svg width="50" height="50" viewBox="0 0 50 50" fill="none" xmlns="http://www.w3.org/2000/svg">
<path fill-rule="evenodd" clip-rule="evenodd" d="M9.79111 0.142039C8.39375 0.395367 6.6374 1.03562 5.97363 1.53359C5.40654 1.95899 5.21914 2.72689 5.53135 3.34556C5.61807 3.51744 7.0209 4.99844 8.64863 6.63668C11.8448 9.85338 11.891 9.91559 11.6321 10.6583C11.4468 11.19 11.2595 11.3957 10.8018 11.5705C9.91933 11.9076 9.95312 11.9313 6.64316 8.64221C5.00498 7.01443 3.52403 5.61155 3.35215 5.52483C2.7335 5.21261 1.96564 5.40002 1.54025 5.96713C1.40499 6.14741 1.16173 6.6025 0.999719 6.97849C-0.82762 11.2174 -0.114145 16.0062 2.84727 19.3783C4.58174 21.3533 6.77412 22.6342 9.39745 23.2051C10.4797 23.4406 12.9187 23.4423 13.9647 23.2082L14.6945 23.0449L15.1615 23.5048L15.6284 23.9648L8.52236 31.0971C3.30792 36.3308 1.32931 38.3782 1.08976 38.7882C0.271889 40.1881 -0.0396336 41.4336 0.0324365 43.0148C0.130581 45.1663 1.038 46.9848 2.69542 48.3514C4.71543 50.0169 7.6209 50.4612 10.0569 49.4772C11.4165 48.9281 11.5036 48.8494 18.9022 41.4773L26.0343 34.3711L26.4943 34.838L26.9541 35.305L26.7903 36.0348C26.5581 37.0692 26.5611 39.511 26.7959 40.6022C27.358 43.2137 28.6445 45.417 30.6206 47.1526C33.9926 50.1141 38.7813 50.8276 43.02 49.0002C43.396 48.8382 43.8511 48.595 44.0314 48.4597C44.5984 48.0343 44.7858 47.2664 44.4736 46.6477C44.3869 46.4758 42.9841 44.9948 41.3564 43.3566C38.1602 40.1399 38.114 40.0777 38.3729 39.335C38.5582 38.8033 38.7455 38.5976 39.2031 38.4228C40.0857 38.0857 40.0519 38.062 43.3618 41.3511C45 42.9789 46.481 44.3817 46.6528 44.4685C47.2713 44.7806 48.0357 44.594 48.4695 44.0253C48.6073 43.8446 48.8729 43.3398 49.0596 42.9036C50.3732 39.8344 50.307 36.2052 48.8836 33.2489C47.2705 29.8989 44.3076 27.5866 40.6075 26.7902C39.515 26.555 37.0747 26.5523 36.0378 26.7851L35.3056 26.9494L33.792 25.4358L32.2785 23.9222L36.2564 19.944L40.2344 15.9659L40.8947 16.6189C41.7647 17.4789 42.2229 17.6261 42.9336 17.2738C43.4077 17.0389 43.429 17.0068 46.409 12.0568C50.1746 5.80159 50.0371 6.05551 49.9802 5.46291C49.9483 5.13126 49.8475 4.88428 49.6354 4.61904C49.064 3.90388 45.2561 0.201025 44.9868 0.0986777C44.5198 -0.078867 44.0505 -0.0185135 43.4732 0.293411C43.1702 0.457088 40.6812 1.94024 37.9419 3.58941C32.992 6.56949 32.96 6.59078 32.725 7.06492C32.3728 7.77568 32.52 8.2339 33.3799 9.10385L34.0329 9.76422L30.0549 13.7424L26.0769 17.7204L24.5633 16.2068L23.0498 14.6932L23.2136 13.9609C23.4482 12.9124 23.4468 10.4746 23.211 9.39107C22.1542 4.53486 18.4207 0.916868 13.6718 0.146628C12.5634 -0.0330648 10.7691 -0.0352133 9.79111 0.142039ZM13.8436 3.22475C16.4183 3.882 18.5478 5.66126 19.6466 8.07335C20.2184 9.32866 20.3607 10.0581 20.3572 11.715C20.3544 13.043 20.3222 13.3443 20.0956 14.1714C19.881 14.9542 19.8542 15.1778 19.9371 15.4898C20.0215 15.8072 21.1288 16.9586 27.0775 22.9141C33.3484 29.1919 34.1626 29.9738 34.5251 30.0651C34.872 30.1524 35.0676 30.1286 35.8511 29.9043C36.6702 29.6697 36.9345 29.641 38.2837 29.6401C39.94 29.6388 40.6728 29.7821 41.9252 30.3528C43.8521 31.2305 45.7163 33.1403 46.3877 34.9242C46.9965 36.5416 47.1824 38.3854 46.8869 39.8743L46.7543 40.5424L44.4965 38.2978C42.1701 35.9848 41.8422 35.732 40.8006 35.4496C40.5184 35.3731 40.0039 35.3404 39.4764 35.3656C38.739 35.4009 38.5072 35.4574 37.8808 35.755C36.9134 36.2145 36.2199 36.908 35.7605 37.8754C35.4629 38.5019 35.4064 38.7336 35.3711 39.471C35.3459 39.9986 35.3785 40.5131 35.4551 40.7953C35.7375 41.8369 35.9903 42.1649 38.3031 44.4913L40.5477 46.7492L39.8796 46.8807C39.0544 47.0432 37.3588 47.0403 36.5747 46.8753C33.8372 46.2991 31.5071 44.4415 30.3584 41.9199C29.7877 40.6671 29.6445 39.9347 29.6459 38.2783C29.6472 36.9291 29.6761 36.6638 29.9117 35.8368C30.1368 35.047 30.1606 34.851 30.072 34.5184C29.9824 34.1814 29.0012 33.1598 22.9275 27.0792C16.6566 20.8014 15.8424 20.0195 15.4799 19.9282C15.133 19.8409 14.9374 19.8646 14.1539 20.089C13.3347 20.3235 13.0705 20.3523 11.7213 20.3532C10.065 20.3545 9.33222 20.2111 8.07978 19.6405C5.5583 18.4918 3.70079 16.1616 3.12462 13.424C2.95958 12.6399 2.95675 10.9442 3.11915 10.119L3.25069 9.45093L5.5085 11.6955C7.83486 14.0085 8.16279 14.2612 9.20439 14.5437C9.48661 14.6202 10.0011 14.6529 10.5286 14.6277C11.266 14.5924 11.4977 14.5359 12.1242 14.2383C13.0916 13.7788 13.785 13.0853 14.2445 12.1179C14.5421 11.4914 14.5986 11.2597 14.6339 10.5223C14.6591 9.9947 14.6264 9.48023 14.5499 9.19799C14.2674 8.15626 14.0148 7.82852 11.7 5.50002L9.45341 3.24018L10.1235 3.1312C10.492 3.07123 10.9034 3.00424 11.0377 2.98227C11.5101 2.90521 13.1452 3.04653 13.8436 3.22475ZM46.4103 6.2518C46.2644 6.50181 45.2222 8.24845 44.0942 10.1332L42.0435 13.5599L39.2412 10.7636L36.4391 7.96719L40.315 5.64251L44.1908 3.31792L45.4332 4.55751L46.6755 5.7971L46.4103 6.2518ZM37.1615 12.8878L38.1353 13.8651L34.157 17.8436L30.1788 21.8219L29.1781 20.8212L28.1774 19.8206L32.1315 15.8654C34.3062 13.6901 36.1085 11.9103 36.1367 11.9103C36.1648 11.9103 36.626 12.3501 37.1615 12.8878ZM16.9715 39.2148C12.4479 43.7274 9.84853 46.2505 9.54443 46.4236C7.4623 47.6089 4.76602 46.9076 3.57208 44.8701C2.80723 43.565 2.80899 41.8029 3.57637 40.4552C3.74942 40.1513 6.2751 37.5486 10.7836 33.0282L17.7243 26.0692L20.8275 29.1707L23.9307 32.2723L16.9715 39.2148ZM17.5372 30.9033C17.2385 31.0105 16.1122 32.0798 12.526 35.6609C9.98163 38.2017 7.83691 40.399 7.75986 40.544C7.68281 40.6891 7.61972 41.0354 7.61972 41.3138C7.61972 41.781 7.65244 41.8525 8.04628 42.2464C8.44023 42.6403 8.51171 42.673 8.9789 42.673C9.25722 42.673 9.60351 42.6101 9.74862 42.5332C9.89364 42.4564 12.1057 40.292 14.6644 37.7235C19.5333 32.8361 19.6359 32.7154 19.4893 32.0482C19.2857 31.1212 18.3912 30.5965 17.5372 30.9033Z" fill="#404040"/>
</svg>
