<svg width="55" height="56" viewBox="0 0 55 56" fill="none" xmlns="http://www.w3.org/2000/svg">
<path fill-rule="evenodd" clip-rule="evenodd" d="M46.4884 0.104593C43.5252 0.611027 40.7504 2.62648 39.2238 5.38129C38.2302 7.17422 37.9321 8.80741 37.9312 12.4634L37.9305 15.0356L36.2117 16.7836L34.4928 18.5315L34.4924 17.4387C34.4913 14.6886 33.6976 12.039 32.1754 9.7042C31.1641 8.15284 28.506 5.40142 27.9127 5.29158C27.017 5.12583 26.8243 5.24268 25.1412 6.97215C22.5475 9.63747 21.4196 11.6679 20.7241 14.9237C20.5042 15.9527 20.5391 19.0873 20.7831 20.2298C21.3479 22.8754 22.4815 25.0772 24.294 27.0491L25.182 28.0153L22.9268 30.3119L20.6717 32.6085L20.6567 31.315C20.6225 28.3354 19.7275 25.5998 18.0174 23.2477C17.2866 22.2428 15.0727 19.8933 14.5411 19.5586C14.1199 19.2936 13.3795 19.2657 12.9379 19.4983C12.4757 19.7418 9.9048 22.47 9.2571 23.4045C7.59687 25.7995 6.75698 28.4886 6.74592 31.4438C6.73206 35.168 8.0094 38.4429 10.5361 41.1612L11.3815 42.0708L5.84877 47.6978C2.80581 50.7926 0.24671 53.4577 0.16184 53.6201C-0.209761 54.3322 0.0836312 55.351 0.78558 55.7869C1.20015 56.0443 1.93412 56.0731 2.34966 55.8482C2.50919 55.7617 5.12619 53.1556 8.16507 50.0567L13.6905 44.4223L14.5837 45.2833C17.2533 47.8567 20.4532 49.1505 24.1258 49.1413C27.0807 49.134 29.8918 48.1971 32.1871 46.4546C33.1189 45.7473 35.6404 43.2612 35.8552 42.838C36.0599 42.4352 36.0597 41.6763 35.8549 41.275C35.6209 40.8165 33.1818 38.4239 32.1739 37.6642C29.8632 35.9226 27.1777 35.0115 24.2522 34.9766L22.9821 34.9614L25.238 32.664L27.4939 30.3665L28.3567 31.193C30.9591 33.6862 33.8293 34.9247 37.3397 35.0694C40.3691 35.1942 42.9507 34.4542 45.5012 32.7299C46.9968 31.7186 49.6993 29.0053 49.806 28.4078C49.9688 27.4957 49.854 27.2994 48.1558 25.5854C44.9659 22.3661 42.2452 21.0738 38.3232 20.915L36.8358 20.8548L38.5368 19.1201L40.2378 17.3853L42.7636 17.3846C45.6573 17.3839 46.8918 17.2378 48.2402 16.7367C49.7509 16.1753 50.7388 15.5356 51.9349 14.3445C53.237 13.048 54.1055 11.5842 54.6557 9.75847C54.9431 8.80511 54.9459 8.76464 54.9832 4.96785C55.0194 1.2738 55.0129 1.1261 54.8025 0.782136C54.6824 0.585974 54.4267 0.327778 54.2341 0.208199C53.9027 0.00240861 53.6993 -0.00853186 50.4462 0.00317445C48.5554 0.0100669 46.7744 0.0556887 46.4884 0.104593ZM51.7638 5.70633C51.7166 7.9592 51.6919 8.2058 51.4314 9.01583C51.0312 10.2603 50.4658 11.1641 49.5203 12.0707C48.6113 12.9424 47.6701 13.476 46.4812 13.7939C45.8725 13.9567 45.3186 13.9937 43.4974 13.9937H41.2609L41.2625 11.7236C41.2643 9.13191 41.3656 8.5013 41.9878 7.21065C42.2831 6.59798 42.6155 6.15106 43.2993 5.44661C44.5192 4.18998 45.6687 3.61287 47.4918 3.34177C47.6396 3.31989 48.6726 3.29516 49.7875 3.28696L51.8147 3.27208L51.7638 5.70633ZM28.2681 10.0278C29.9679 11.9019 30.9477 14.0893 31.1469 16.4554C31.4167 19.6608 30.43 22.5259 28.2565 24.8477L27.5098 25.6454L26.7632 24.8477C24.5896 22.5259 23.6029 19.6608 23.8728 16.4554C24.0192 14.7168 24.5625 13.1226 25.5089 11.6547C26.0698 10.7848 27.3348 9.28934 27.5098 9.28934C27.5585 9.28934 27.8997 9.6216 28.2681 10.0278ZM15.6995 25.6911C16.2984 26.6166 16.7856 27.7447 17.1124 28.9631C17.4523 30.2298 17.448 32.7166 17.1035 34.0695C16.6343 35.9118 15.7504 37.5256 14.4302 38.9509L13.7238 39.7135L13.2981 39.2984C11.9554 37.9892 10.7621 35.9191 10.3154 34.1242C10.0201 32.9378 9.9309 31.2511 10.101 30.0674C10.4404 27.7025 11.3989 25.7387 13.1062 23.9098L13.705 23.2682L14.4396 24.0739C14.8437 24.517 15.4106 25.2447 15.6995 25.6911ZM39.2197 24.3271C41.2253 24.5194 43.505 25.644 45.1821 27.2689L45.9341 27.9976L45.1821 28.7229C44.015 29.8487 42.6792 30.6895 41.2613 31.1909C39.2218 31.9122 36.6167 31.924 34.5409 31.2213C33.0755 30.7252 31.393 29.6408 30.303 28.4899L29.8196 27.9793L30.6028 27.228C32.4245 25.4807 34.5413 24.492 36.91 24.2821C37.7522 24.2074 38.0257 24.2128 39.2197 24.3271ZM26.5617 38.5949C28.4066 39.0885 29.9173 39.942 31.3655 41.3094L32.1593 42.0589L31.4729 42.7066C30.041 44.0575 28.8271 44.8055 27.2387 45.3157C23.5206 46.5098 19.6509 45.5774 16.7469 42.7877L15.991 42.0614L16.738 41.3361C18.3421 39.7783 20.095 38.861 22.2786 38.4367C23.3496 38.2286 25.488 38.3076 26.5617 38.5949Z" fill="#404040"/>
</svg>
