<svg width="276" height="113" viewBox="0 0 276 113" fill="none" xmlns="http://www.w3.org/2000/svg">
<path fill-rule="evenodd" clip-rule="evenodd" d="M171.305 0.658486C171.125 0.723579 167.27 1.97917 162.738 3.44887C155.388 5.83252 154.402 6.23629 153.608 7.18723C151.261 9.99712 151.288 11.6433 153.798 19.1299C154.878 22.3495 155.762 25.092 155.762 25.2235C155.762 25.3553 155.136 25.6322 154.371 25.8391C151.296 26.6701 149.217 28.9473 149.217 31.4843C149.217 32.304 149.74 34.7587 150.38 36.9385C151.865 42.0005 154.869 52.3661 157.723 62.2767C166.037 91.1457 171.151 108.599 171.487 109.257C172.58 111.396 174.324 112.5 176.606 112.5C178.111 112.5 191.145 108.915 193.721 107.794C196.134 106.743 197.645 103.943 197.142 101.459C197.028 100.898 196.221 97.9867 195.348 94.9881C194.475 91.9896 191.678 82.3248 189.134 73.5109C186.589 64.697 183.574 54.2888 182.434 50.3816C181.294 46.4744 179.23 39.3373 177.847 34.5215C176.463 29.7056 174.972 25.1333 174.531 24.3604C173.598 22.7219 171.762 21.6351 169.927 21.6351C169.244 21.6351 167.15 22.0786 165.272 22.6204C163.395 23.1623 161.819 23.5658 161.77 23.5172C161.475 23.2185 158.38 12.9765 158.38 12.2965C158.38 10.837 159.39 10.1491 164.106 8.39525C169.341 6.44842 171.68 6.14047 172.712 7.26191C173.047 7.62537 174.835 12.2347 176.684 17.5049C183.699 37.4857 191.331 58.8291 191.732 59.5864C191.924 59.9479 192.896 60.6464 193.892 61.1387C196.588 62.47 198.521 62.2086 206.973 59.3696C210.753 58.1005 214.043 57.0085 214.285 56.9434C214.566 56.8677 215.157 57.8018 215.921 59.5289C216.579 61.0161 217.209 62.3223 217.32 62.4316C217.431 62.541 218.315 62.3378 219.283 61.9803C220.836 61.4073 228.445 58.7088 252.131 50.3304C262.18 46.776 271.555 43.4649 273.729 42.7026C274.808 42.324 275.823 41.8977 275.984 41.7557C276.149 41.6106 274.989 38.5532 273.341 34.7878C271.727 31.0977 269.754 26.5577 268.958 24.6991C268.162 22.8402 267.319 21.3163 267.084 21.3123C266.85 21.308 261.843 23.1075 255.959 25.311C250.074 27.5146 240.989 30.9176 235.77 32.873C230.55 34.8288 222.82 37.7236 218.59 39.3059C214.361 40.8883 210.425 42.3831 209.844 42.628L208.787 43.073L210.418 46.7998C211.316 48.8498 212.086 50.7285 212.13 50.975C212.236 51.5741 201.014 55.9733 198.73 56.228C197.172 56.4018 196.952 56.3384 196.087 55.4647C195.485 54.8574 194.778 53.433 194.137 51.538C186.559 29.1399 183.083 18.8543 180.907 12.3834C177.645 2.68329 177.314 1.96893 175.701 1.13825C174.586 0.563656 172.269 0.310886 171.305 0.658486ZM11.7803 50.712V62.6071H6.46281H1.14531L1.30892 64.6722L1.47254 66.7373L72.318 66.8265L143.163 66.9161L148.28 82.4216C151.094 90.9494 153.315 98.0091 153.216 98.1096C153.116 98.21 131.481 98.2923 105.136 98.2923H57.2379L57.3335 100.853L57.429 103.414L80.417 103.499L103.405 103.584V105.068V106.553H133.51C150.068 106.553 163.615 106.488 163.615 106.41C163.615 106.331 160.667 96.555 157.063 84.685C153.458 72.8147 148.857 57.6402 146.837 50.9638L143.163 38.8248L77.4719 38.8209L11.7803 38.8169V50.712ZM85.6559 42.9138C89.0392 44.6597 90.6773 47.5165 90.9041 52.0661C91.1544 57.0937 89.6131 60.3853 86.0617 62.4082C84.3814 63.3651 84.0447 63.4331 80.9896 63.4331C78.3338 63.4331 77.4398 63.301 76.2448 62.7313C74.2601 61.7853 72.7153 60.1709 71.6999 57.9812C70.9819 56.4329 70.8563 55.6993 70.8514 53.0249C70.8474 50.8511 71.0248 49.3669 71.4293 48.1978C72.4767 45.1679 75.1407 42.7638 78.2082 42.0801C80.2566 41.6238 83.9593 42.0382 85.6559 42.9138ZM22.3283 50.9598L22.4153 59.7985H25.3604H28.3055L28.3542 51.0424L28.4033 42.2863L30.3942 42.1882L32.3851 42.0897L32.4724 50.9443L32.5595 59.7985H35.6682H38.7769L38.8256 51.0424L38.8747 42.2863L40.8708 42.1879L42.8672 42.0897L42.8682 47.4745C42.8689 50.4364 42.9657 55.2017 43.0832 58.0638L43.2969 63.2679H30.6475H17.9977V52.6945V42.1211H20.1195H22.2409L22.3283 50.9598ZM54.9025 46.6644C54.9852 50.6403 55.0484 51.0424 55.588 51.0424C56.4601 51.0424 57.07 50.1889 58.2373 47.3364C58.8109 45.9345 59.5881 44.3924 59.9641 43.9097C60.8479 42.7753 62.4301 42.1211 64.2904 42.1211H65.7734V43.5657C65.7734 44.9852 65.7515 45.0139 64.5198 45.2128C62.9605 45.4646 62.4589 46.024 61.3836 48.7116C60.915 49.883 60.2219 51.1739 59.8436 51.5803L59.1558 52.3198L60.325 53.3563C61.0835 54.0287 62.2452 55.8844 63.6336 58.6414C64.8107 60.9784 65.7734 62.9752 65.7734 63.0792C65.7734 63.183 64.6955 63.2679 63.3781 63.2679H60.9831L59.2422 59.4668C57.4647 55.585 56.3819 54.0162 55.4813 54.0162C55.0481 54.0162 54.9748 54.6869 54.9748 58.642V63.2679H52.8478H50.7208V52.6786V42.0897L52.766 42.1879L54.8112 42.2863L54.9025 46.6644ZM113.549 52.6945V63.2679H111.591H109.633L109.546 54.5944L109.459 45.9209L106.268 45.8264L103.078 45.7319L103.076 52.6C103.075 56.3774 102.923 60.0189 102.737 60.6923C102.2 62.6471 101.127 63.2679 98.2887 63.2679H95.8786V61.6158V59.9637H97.1957C98.3083 59.9637 98.5622 59.8322 98.8319 59.1162C99.0076 58.6493 99.1509 54.641 99.1509 50.1949V42.1211H106.35H113.549V52.6945ZM135.873 52.6945C138.163 58.419 140.04 63.1463 140.046 63.1998C140.051 63.253 138.999 63.253 137.709 63.1998L135.363 63.1027L134.551 60.8631L133.74 58.6235L129.46 58.7154L125.18 58.8073L124.364 61.0376L123.549 63.2679H121.345H119.141L119.587 62.0288C119.927 61.0812 124.752 48.5864 126.992 42.8493C127.266 42.1475 127.453 42.098 129.499 42.1885L131.71 42.2863L135.873 52.6945ZM78.2082 46.1453C76.0246 47.2826 75.1525 49.081 75.1227 52.5091C75.0808 57.3045 77.1155 59.9637 80.826 59.9637C85.0103 59.9637 87.2528 56.422 86.5689 50.8937C86.1766 47.723 84.3666 45.8294 81.4612 45.5495C80.0187 45.4108 79.4012 45.5238 78.2082 46.1453ZM129.103 47.9639C128.611 49.198 126.638 54.7154 126.638 54.8588C126.638 54.9404 127.89 55.0074 129.42 55.0074C130.95 55.0074 132.201 54.8759 132.201 54.715C132.201 54.296 129.848 47.957 129.573 47.6335C129.447 47.4848 129.235 47.6335 129.103 47.9639ZM68.9806 73.0434C66.7898 73.724 64.4406 76.1258 63.5024 78.6449C62.8699 80.3426 62.7861 81.0943 62.897 84.0843C63.006 87.0254 63.1552 87.8055 63.8781 89.2058C65.5721 92.4885 68.1141 94.0322 72.1979 94.2586C75.6636 94.4505 77.7752 93.7712 79.8744 91.7887C82.2331 89.561 82.9363 87.6393 82.9363 83.4235C82.9363 80.4903 82.8169 79.6844 82.1641 78.2098C81.1545 75.9302 78.6934 73.6821 76.4807 73.0186C74.4178 72.4 71.0156 72.4113 68.9806 73.0434ZM0 83.4235V93.9969H2.29062H4.58123V90.0685V86.1398L8.09896 86.0123C10.7531 85.9158 11.9364 85.7245 12.9194 85.2322C15.4947 83.9429 16.8622 80.5809 16.0503 77.5364C15.5611 75.7022 13.6976 73.6209 12.1573 73.1887C11.4999 73.0047 8.49589 72.853 5.48112 72.852L0 72.8501V83.4235ZM19.6338 83.4235V93.9969H27.651H35.6682V92.1796V90.3623H29.778H23.8878V87.5537V84.7451H29.1235H34.3592V82.9278V81.1105H29.1235H23.8878V78.7976V76.4847H29.6144H35.3409V74.6674V72.8501H27.4874H19.6338V83.4235ZM39.2677 83.4116V93.9969H41.2252H43.1824L43.2704 86.3146L43.3581 78.6324L45.2789 86.3146L47.1998 93.9969H49.2643H51.3288L51.8127 92.2622C52.0791 91.3083 52.9361 87.9267 53.7176 84.7481L55.1384 78.9691L55.2264 86.4828L55.3144 93.9969H57.4352H59.556V83.4235V72.8501H56.3056C53.4957 72.8501 53.0317 72.9284 52.8785 73.4283C52.7813 73.7465 52.0202 76.6829 51.1871 79.9541C50.354 83.2252 49.5715 86.0866 49.4482 86.313C49.3248 86.5393 48.4069 83.6399 47.4082 79.8698L45.5921 73.0153L42.4301 72.9208L39.2677 72.8263V83.4116ZM86.3889 83.4235V93.9969H88.5159H90.6429V89.371V84.7451H94.7333H98.8237V89.371V93.9969H100.951H103.078V83.4235V72.8501H100.951H98.8237V76.9803V81.1105H94.7333H90.6429V76.9803V72.8501H88.5159H86.3889V83.4235ZM106.023 74.6674V76.4847H109.131H112.24V85.2408V93.9969H114.367H116.494V85.2408V76.4847H119.603H122.712V74.6674V72.8501H114.367H106.023V74.6674ZM129.262 78.2062C128.126 81.1664 126.335 85.7975 125.282 88.4974C124.228 91.1969 123.366 93.5389 123.366 93.7015C123.366 93.864 124.365 93.9969 125.587 93.9969H127.808L128.605 91.675L129.402 89.3528L133.658 89.4447L137.914 89.5362L138.73 91.7665L139.545 93.9969H141.91H144.275L143.95 93.0882C143.771 92.5886 141.902 87.8676 139.795 82.5974L135.964 73.0153L133.646 72.9194L131.327 72.8233L129.262 78.2062ZM76.0887 77.1501C77.5717 78.0756 78.3191 79.8196 78.4781 82.7263C78.6336 85.5679 78.2111 87.2722 76.9876 88.7402C74.6116 91.5918 70.138 91.2055 68.2705 87.9875C66.6527 85.2005 66.8398 80.3413 68.6484 78.1771C70.3464 76.1447 73.7294 75.6778 76.0887 77.1501ZM10.9907 77.577C11.9914 78.7517 11.9996 80.1553 11.0126 81.3137C10.3114 82.1371 10.0012 82.2277 7.41309 82.3651L4.58123 82.5151V79.466V76.4169L7.39116 76.5332C9.99625 76.6413 10.2584 76.7173 10.9907 77.577ZM136.128 85.286C136.128 85.6287 135.502 85.7364 133.51 85.7364C132.07 85.7364 130.893 85.6251 130.895 85.4886C130.896 85.3521 131.417 83.8282 132.053 82.1018C132.689 80.3754 133.289 78.7398 133.386 78.4672C133.559 77.9851 136.128 84.3747 136.128 85.286Z" fill="#635258"/>
</svg>
