<svg width="177" height="121" viewBox="0 0 177 121" fill="none" xmlns="http://www.w3.org/2000/svg">
<path fill-rule="evenodd" clip-rule="evenodd" d="M86.111 2.27669C84.8262 3.54168 82.2935 6.03768 80.4828 7.82333C76.6276 11.625 67.3614 20.7222 66.1854 21.8601C65.4558 22.566 61.7926 26.1684 51.2911 36.5078C49.4222 38.3479 46.3393 41.3829 44.4402 43.2523C42.5412 45.1216 39.3868 48.2283 37.4306 50.1561C35.4743 52.0839 32.536 54.9755 30.901 56.582C29.2661 58.1884 26.6136 60.8022 25.0067 62.3903C23.3999 63.9784 21.8941 65.4582 21.6605 65.6786C21.2552 66.0609 14.1882 72.9986 6.90629 80.1628C5.035 82.0039 2.71552 84.2854 1.75195 85.233L0 86.9558L26.8101 86.9589C41.5557 86.9606 53.6746 86.9972 53.741 87.0401C53.8527 87.1122 59.6903 92.8253 66.4148 99.4435C67.9624 100.967 70.5894 103.548 72.2527 105.18C78.5292 111.34 81.2099 113.973 84.199 116.916C87.6227 120.287 88.3729 121 88.4978 121C88.6568 121 90.1225 119.575 103.471 106.444C105.019 104.922 107.479 102.508 108.938 101.08C110.397 99.6514 112.78 97.3119 114.234 95.8807C115.688 94.4495 117.053 93.1112 117.268 92.9067C117.483 92.7023 118.928 91.2804 120.48 89.7469L123.301 86.9588L150.151 86.956L177 86.9531L175.089 85.0804C174.038 84.0505 171.791 81.8412 170.097 80.171C168.402 78.5007 165.607 75.7506 163.885 74.0597C162.163 72.3687 159.441 69.691 157.835 68.1091C156.229 66.5273 153.171 63.5181 151.039 61.422C148.908 59.3258 145.945 56.4114 144.455 54.9456C140.893 51.4404 136.239 46.8635 132.293 42.9867C130.539 41.2634 127.482 38.2561 125.499 36.3039C123.516 34.3517 120.627 31.5094 119.079 29.9879C117.532 28.4663 114.976 25.952 113.399 24.4005C111.822 22.849 107.856 18.9533 104.586 15.7432C101.316 12.5332 97.4217 8.70277 95.9325 7.23119C92.1841 3.52713 88.5947 0.0283742 88.5142 0.000121576C88.4772 -0.0128364 87.3957 1.01169 86.111 2.27669ZM90.2478 12.9C91.1844 13.8188 93.3133 15.9099 94.9786 17.5468C101.771 24.223 104.292 26.7005 106.922 29.2816C111.877 34.1451 115.256 37.4653 118.389 40.5486C120.083 42.2151 123.929 45.9893 126.937 48.9356C132.374 54.2625 135.389 57.2243 141.376 63.1186C146.044 67.7149 155.521 77.011 156.614 78.0657L157.569 78.9883L147.456 78.9906L137.344 78.9929L137.316 71.5845L137.289 64.1762L133.083 64.1231L128.876 64.07L121.509 56.8523C117.457 52.8825 112.924 48.4375 111.436 46.9745C105.812 41.4472 103.172 38.8595 98.536 34.3265C95.9093 31.7583 92.6751 28.5882 91.3489 27.2818C90.0228 25.9755 88.8364 24.8355 88.7124 24.7487C88.442 24.5593 88.6196 24.4006 83.8235 29.1207C82.0398 30.8761 79.149 33.7188 77.3996 35.4379C74.0888 38.6913 70.6761 42.0495 64.8221 47.815C62.9242 49.6842 59.914 52.6485 58.1329 54.4024C56.3517 56.1563 53.4242 59.049 51.6272 60.8306L48.36 64.07L44.0354 64.1231L39.7109 64.1762L39.6836 71.5845L39.6563 78.9929L29.6497 78.9898L19.6431 78.9867L21.0234 77.6452C22.5532 76.1585 33.0104 65.8706 38.3836 60.5662C40.2816 58.6926 43.459 55.56 45.4445 53.6049C49.8606 49.2566 55.1386 44.0555 59.7262 39.5311C61.6238 37.6596 66.2104 33.1443 69.9187 29.4969C76.2629 23.2569 79.4701 20.0962 85.7924 13.854C87.2524 12.4126 88.4689 11.2322 88.4959 11.2312C88.5227 11.23 89.3111 11.981 90.2478 12.9ZM94.8707 36.3573C96.2431 37.7012 98.7399 40.1582 100.419 41.8172C102.098 43.4762 103.515 44.8601 103.567 44.8926C103.65 44.9448 105.748 47.0053 118.018 59.0849C119.624 60.666 121.428 62.431 122.028 63.0071C122.628 63.5833 123.074 64.0821 123.021 64.1154C122.967 64.1489 120.293 64.1523 117.08 64.1231L111.238 64.07L110.354 63.2241C109.149 62.0705 97.9534 51.0899 90.9687 44.2105L88.9247 42.1975V36.3533V30.5092L90.6501 32.2115C91.5991 33.1476 93.4984 35.0133 94.8707 36.3573ZM88.0753 53.9267V64.1231L77.6963 64.1215L67.3173 64.1199L70.0249 61.4388C71.514 59.9641 74.9777 56.5594 77.722 53.8727C83.0581 48.6485 87.7096 44.0773 87.9035 43.867C87.9688 43.7962 88.0341 43.7365 88.0487 43.7343C88.0634 43.732 88.0753 48.3186 88.0753 53.9267ZM117.28 67.151C118.204 67.3894 119.241 67.9494 119.864 68.5468C120.328 68.9918 121.203 70.1991 121.203 70.3946C121.203 70.4671 119.848 70.8145 119.565 70.8145C119.496 70.8145 119.238 70.5283 118.992 70.1787C117.919 68.6579 116.231 67.9531 114.518 68.3105C113.573 68.5076 112.838 68.9044 112.139 69.5946C111.141 70.5805 110.695 71.7122 110.693 73.2616C110.688 76.3019 112.618 78.3556 115.478 78.3556C117.379 78.3556 118.917 77.3679 119.479 75.787C119.579 75.5057 119.723 75.2754 119.8 75.2754C119.877 75.2754 120.274 75.3514 120.682 75.4442C121.54 75.6395 121.53 75.5838 120.93 76.8323C120.314 78.1124 118.964 79.1113 117.221 79.5769C116.369 79.8048 114.457 79.8083 113.611 79.5837C110.727 78.8175 109.06 76.6656 108.917 73.5229C108.812 71.2132 109.619 69.3905 111.268 68.2137C112.951 67.0124 115.202 66.6145 117.28 67.151ZM89.3715 67.404C90.2016 67.672 90.8595 68.1395 91.3111 68.7827C91.612 69.2115 91.6323 69.3018 91.6318 70.2133C91.6315 71.0835 91.602 71.2316 91.3525 71.6155C91.0761 72.0408 90.4956 72.6091 90.1264 72.8157C90.0212 72.8746 89.9587 72.9383 89.9873 72.9573C90.0161 72.9763 90.313 73.1284 90.6471 73.2954C91.3803 73.6617 92.0528 74.3615 92.2077 74.9191C93.0486 77.9487 89.4805 80.3159 85.4388 79.4099C84.0906 79.1076 82.701 77.9853 82.1355 76.7419C81.9679 76.3734 81.8455 76.0568 81.8633 76.0383C81.9152 75.9845 83.1197 75.7082 83.3205 75.7041C83.4382 75.7017 83.6056 75.9096 83.7918 76.2902C84.1394 77.0004 84.7102 77.5392 85.5143 77.9164C86.0417 78.1638 86.2403 78.196 87.2259 78.1939C88.5157 78.1912 89.2636 77.9866 89.8423 77.4784C90.3419 77.0396 90.5174 76.6602 90.5174 76.0189C90.5174 74.5854 89.511 73.9528 86.8808 73.7329L86.0579 73.6641V73.0407C86.0579 72.3326 85.9645 72.3869 87.4271 72.2464C88.6679 72.1273 89.4696 71.6872 89.7978 70.945C90.1929 70.0517 89.8409 69.1704 88.8848 68.6592C88.5097 68.4586 88.2797 68.425 87.2789 68.4248C86.1916 68.4247 86.0675 68.4467 85.482 68.7433C84.7734 69.1023 84.1685 69.7816 83.8768 70.5459C83.6762 71.0713 83.6939 71.0651 82.6775 70.9588C82.0435 70.8926 82.0281 70.8835 82.0863 70.6136C82.2101 70.0397 82.8758 68.8329 83.31 68.3953C83.8133 67.888 84.8021 67.3583 85.527 67.2077C86.3716 67.0322 88.5666 67.1443 89.3715 67.404ZM66.0963 67.9998V68.6902H62.3244H58.5526L58.5816 70.5224L58.6107 72.3546L61.4244 72.4156C63.6301 72.4635 64.3759 72.5163 64.8752 72.6598C66.2167 73.0454 67.1175 73.8065 67.3791 74.7754C67.4455 75.0211 67.4789 75.6047 67.4535 76.072C67.3783 77.4491 66.8736 78.1905 65.5959 78.8005C64.5201 79.3141 63.6586 79.4099 60.0784 79.414C57.1655 79.4174 56.8711 79.4016 56.8399 79.24C56.821 79.1422 56.8184 76.4178 56.834 73.1859L56.8622 67.3095H61.4793H66.0963V67.9998ZM75.6601 67.6547C75.7471 67.8446 77.0471 70.5388 78.549 73.642C80.0509 76.7451 81.2798 79.3142 81.2798 79.3509C81.2798 79.3877 80.8079 79.4177 80.2311 79.4177H79.1825L78.3768 77.5324L77.5712 75.6472L74.448 75.619C71.5392 75.5929 71.3212 75.6038 71.2754 75.7783C71.2482 75.8815 70.8983 76.7425 70.4978 77.6918L69.7696 79.4177H68.8355C68.3217 79.4177 67.9013 79.3738 67.9013 79.3202C67.9013 79.2332 68.4141 78.1055 69.8127 75.1161C70.0588 74.5903 70.5602 73.5149 70.9271 72.7263C71.294 71.9377 71.8298 70.7906 72.1179 70.1772C72.4059 69.5638 72.8248 68.6677 73.0489 68.1857L73.4561 67.3095H74.479H75.5019L75.6601 67.6547ZM96.5696 72.0359C96.5696 74.6355 96.6083 76.7624 96.6558 76.7624C96.7033 76.7624 96.8441 76.6243 96.9687 76.4557C97.2038 76.1377 99.699 73.0442 102.654 69.4072L104.359 67.3095H105.242H106.126V73.3636V79.4177H105.276H104.427V74.5762C104.427 71.6054 104.388 69.7483 104.327 69.7701C104.245 69.7992 100.487 74.6251 97.5415 78.4846L96.835 79.4103L95.8529 79.414L94.8707 79.4177V73.3636V67.3095H95.7202H96.5696V72.0359ZM73.2355 71.5401C72.5779 73.0395 72.0403 74.3022 72.041 74.3461C72.0418 74.3899 73.1412 74.4257 74.4844 74.4257C75.8276 74.4257 76.9265 74.4021 76.9265 74.3732C76.9265 74.279 74.577 68.9577 74.5032 68.8848C74.4636 68.8457 73.8932 70.0406 73.2355 71.5401ZM58.6372 73.7408C58.5934 73.7864 58.5576 74.7718 58.5576 75.9304V78.0369H60.8883C62.1702 78.0369 63.4578 77.9858 63.7497 77.9231C64.3758 77.7887 65.0666 77.32 65.2979 76.8725C65.7318 76.0332 65.5855 74.9515 64.9693 74.4435C64.3108 73.9004 63.6495 73.7773 61.0528 73.7143C59.768 73.6832 58.6811 73.6951 58.6372 73.7408ZM67.8482 84.8114C69.0162 85.9655 72.5281 89.4164 75.6524 92.4801C78.7767 95.5438 82.408 99.108 83.722 100.4C85.0359 101.693 86.5536 103.176 87.0946 103.697L88.0783 104.643L88.0502 110.485L88.0222 116.327L84.6245 112.983C82.7557 111.145 79.9128 108.349 78.3068 106.771C76.7009 105.193 74.1446 102.679 72.6263 101.185C71.1079 99.6911 68.7428 97.3694 67.3704 96.0259C63.6382 92.3724 59.2422 88.0539 56.3809 85.2302L53.8326 82.7155L59.7786 82.7143L65.7247 82.7132L67.8482 84.8114ZM109.205 83.4733C108.767 83.8911 107.74 84.8819 106.922 85.6754C103.922 88.5867 101.362 91.0729 99.808 92.5829C98.9321 93.4341 97.3314 94.989 96.251 96.0382C95.1707 97.0874 93.4745 98.7346 92.4817 99.6988C91.4889 100.663 90.2825 101.834 89.8007 102.302L88.9247 103.152V92.931V82.7103L99.463 82.7121L110.001 82.714L109.205 83.4733Z" fill="#635258"/>
</svg>
