<svg width="166" height="119" viewBox="0 0 166 119" fill="none" xmlns="http://www.w3.org/2000/svg">
<path fill-rule="evenodd" clip-rule="evenodd" d="M54.6793 5.10405C54.6793 9.31206 54.737 9.69093 55.3487 9.50588C55.7171 9.39485 57.9118 8.86489 60.2262 8.32883C62.5406 7.79276 65.9472 6.99191 67.7968 6.54932C69.646 6.10674 71.2167 5.80952 71.2875 5.8885C71.3579 5.96747 71.8808 7.9885 72.4493 10.3792C73.2392 13.7002 73.3727 14.7944 73.0158 15.0142C72.7588 15.1729 69.8621 15.9371 66.5787 16.7128C58.4818 18.6258 55.0197 19.4919 54.8694 19.6419C54.8002 19.7113 54.6957 20.7976 54.6372 22.0559C54.5557 23.8152 54.6598 24.3688 55.0878 24.4512C55.3939 24.51 59.1704 23.7022 63.4801 22.6568C67.7895 21.611 71.4264 20.8766 71.5614 21.0246C71.8491 21.3397 73.9156 29.911 73.7365 30.0461C73.6252 30.13 67.7199 31.5513 58.4091 33.7345L54.6793 34.6093V37.2298C54.6793 39.6106 54.7443 39.8296 55.3908 39.6247C55.7822 39.5011 57.2022 39.1649 58.5468 38.878C61.3019 38.2901 78.733 34.1294 79.4085 33.8985C79.6836 33.8047 80.2785 35.4701 81.011 38.387C81.6518 40.9376 82.1434 43.0563 82.1036 43.0952C82.0638 43.1341 76.5226 44.4741 69.7898 46.0727C63.057 47.6718 56.8965 49.1544 56.1001 49.3677L54.6521 49.7553L54.7611 53.4571L54.8706 57.1588H83.1789H111.487L111.585 28.8294L111.684 0.5H83.1812H54.6793V5.10405ZM115.589 68.2452C114.563 68.9621 114.445 70.879 115.349 72.1655C116.737 74.1415 120.551 72.1888 119.953 69.8095C119.434 67.7461 117.365 67.0044 115.589 68.2452ZM63.8604 83.8666V99.7406L65.8687 99.625L67.8771 99.5097V83.8666V68.2234L65.8687 68.1082L63.8604 67.9926V83.8666ZM11.7653 68.7957C2.96143 69.0079 2.56588 69.1212 0.931647 71.8881C0.230441 73.0751 0.156227 73.9969 0.0441415 82.9127C-0.0962527 94.0583 0.0349604 95.4441 1.38305 97.0416C3.34321 99.3651 3.98359 99.5086 12.408 99.509L20.0589 99.5097V97.2205V94.9313L13.1444 94.7405C4.69207 94.5074 4.89482 94.6214 4.81334 90.0544L4.7571 86.9189L12.5036 86.8155L20.2502 86.7125V84.2481V81.7838L12.5036 81.6807L4.7571 81.5773L4.79076 78.4067C4.84202 73.5696 4.7988 73.5944 13.3739 73.4456L20.2502 73.3261V71.0835C20.2502 69.8499 20.1209 68.7877 19.9633 68.7229C19.8057 68.658 16.1164 68.6908 11.7653 68.7957ZM116.652 76.4128L115.313 76.6173V88.0635V99.5097L117.321 99.625L119.329 99.7406V88.128C119.329 75.182 119.511 75.9756 116.652 76.4128ZM23.3106 76.6055C23.3106 76.7039 24.9459 79.1813 26.9447 82.1104C28.9435 85.0394 30.5789 87.5496 30.5789 87.6885C30.5789 87.9903 25.076 96.0015 23.8147 97.536C22.3592 99.3068 22.6136 99.7005 25.2133 99.7005H27.499L30.0908 95.9019C32.5945 92.2322 33.3516 91.5367 33.7414 92.5466C33.8428 92.8091 35.0004 94.5261 36.3137 96.362L38.7019 99.7005H40.8885C43.3517 99.7005 43.8211 99.4605 43.0652 98.5868C42.7783 98.2552 40.9589 95.6394 39.0225 92.774L35.5011 87.5649L39.1609 82.226C41.1735 79.2896 42.8204 76.7833 42.8204 76.6566C42.8204 76.5303 41.7324 76.4266 40.4031 76.4266H37.9854L35.7169 79.7437C34.469 81.5682 33.2759 83.1066 33.0655 83.1626C32.8551 83.2187 31.65 81.7288 30.3876 79.8516L28.0924 76.4388L25.7015 76.4326C24.3867 76.4292 23.3106 76.507 23.3106 76.6055ZM47.9847 76.7905C47.5639 76.9641 46.7893 77.5677 46.2633 78.1317C45.3138 79.1496 45.3061 79.2156 45.1975 87.2348C45.0739 96.3372 45.2855 97.2842 47.7625 98.7112C48.9009 99.3671 49.8175 99.4674 54.8396 99.4872L60.6087 99.5097L60.7231 97.5372L60.8379 95.565L55.8847 95.4387C49.0436 95.2647 49.3221 95.5845 49.3294 87.909C49.3328 84.6365 49.4981 81.7013 49.697 81.3866C49.9797 80.9394 51.2123 80.7727 55.3338 80.6235L60.6087 80.4327L60.7243 78.4296L60.8402 76.4266L54.7948 76.4506C51.4701 76.4639 48.4055 76.6169 47.9847 76.7905ZM71.5836 86.2512C71.6915 95.1545 71.7706 96.1762 72.4286 97.1446C73.831 99.2079 74.9569 99.509 81.2662 99.509C87.7002 99.509 88.8968 99.1644 90.2713 96.9156C90.9599 95.7897 91.0184 94.9423 91.0196 86.0604L91.0211 76.4266H88.9171H86.8131V85.1428C86.8131 95.9027 87.139 95.3128 81.1924 95.3128C75.4592 95.3128 75.7193 95.8046 75.7193 84.9689V76.4266H73.5919H71.4642L71.5836 86.2512ZM97.3017 76.7963C96.8641 76.9729 96.0462 77.662 95.4846 78.3274C94.5367 79.4514 94.464 79.7933 94.464 83.1382C94.464 86.6698 94.4881 86.7655 95.7073 88.0895C97.2038 89.7145 98.7741 90.1403 103.312 90.1529C107.06 90.1632 107.624 90.4997 107.624 92.7267C107.624 93.676 107.362 94.2872 106.739 94.7897C105.964 95.4158 105.155 95.5036 100.16 95.5036H94.464V97.602V99.7005H100.98C108.287 99.7005 109.476 99.4243 110.928 97.3903C112.166 95.6566 112.447 90.613 111.415 88.6629C110.142 86.2581 109.136 85.8361 104.12 85.6022C101.65 85.487 99.4134 85.2539 99.1502 85.0841C98.8874 84.9143 98.672 84.023 98.672 83.1035C98.672 82.184 98.8874 81.2927 99.1502 81.1229C99.4134 80.9531 102.383 80.7284 105.749 80.6235L111.87 80.4327L111.985 78.4296L112.101 76.4266L105.1 76.4506C101.249 76.4639 97.7397 76.6196 97.3017 76.7963ZM122.007 76.8096C122.007 77.0206 123.661 81.184 125.682 86.062C130.555 97.8222 130.735 98.2278 131.453 99.0187C132.269 99.918 134.691 99.9264 135.497 99.0328C135.829 98.6658 137.299 95.4463 138.765 91.8789C140.23 88.3115 142.224 83.5392 143.195 81.274C144.165 79.0088 144.96 76.9916 144.96 76.7909C144.96 76.5906 144.034 76.4266 142.902 76.4266H140.844L137.259 85.0055C135.288 89.724 133.562 93.5871 133.424 93.5901C133.285 93.5932 132.626 92.2651 131.959 90.6389C131.292 89.0128 129.69 85.1497 128.399 82.0543L126.052 76.4266H124.029C122.917 76.4266 122.007 76.599 122.007 76.8096ZM149.654 76.9924C148.974 77.2869 148.071 78.0958 147.647 78.7894C146.94 79.9463 146.875 80.7021 146.875 87.8728C146.875 99.4331 146.847 99.4041 158.445 99.6318L166 99.7803V97.6665V95.5528L159.344 95.4326C153.438 95.3262 152.599 95.2312 151.885 94.586C151.443 94.1861 151.081 93.3963 151.081 92.8309C151.081 91.6981 150.447 92.0258 160.836 87.7873L165.809 85.7583L165.921 83.2187C166.06 80.0909 165.36 78.2499 163.632 77.1995C162.507 76.5154 161.724 76.4307 156.628 76.443C152.568 76.4525 150.528 76.6131 149.654 76.9924ZM161.092 81.2549C162.786 82.7834 162.245 83.1482 152.898 86.7816L151.081 87.4882V84.8189C151.081 80.9394 151.489 80.6235 156.502 80.6235C159.585 80.6235 160.538 80.7544 161.092 81.2549ZM38.3587 106.764C32.8371 110.065 35.2242 118.484 41.6819 118.484C42.6658 118.484 43.8624 118.275 44.341 118.019C45.0303 117.652 45.4018 117.657 46.1275 118.044C47.4193 118.734 48.132 118.023 47.4408 116.734C47.0475 116.002 47.0448 115.644 47.4266 114.933C47.6883 114.445 47.9029 113.139 47.9029 112.032C47.9029 107.152 42.6035 104.227 38.3587 106.764ZM53.778 106.068C53.6426 106.203 53.5316 108.179 53.5316 110.46C53.5316 116.808 54.5695 118.396 58.7209 118.396C60.6623 118.396 61.0058 118.267 62.1772 117.099L63.4778 115.802V110.994V106.187H62.3302H61.1826V110.706C61.1826 115.846 60.8735 116.488 58.4007 116.488C56.2003 116.488 55.8269 115.603 55.8269 110.382C55.8269 106.025 55.8162 105.971 54.9256 105.897C54.4299 105.856 53.9134 105.933 53.778 106.068ZM70.8418 106.076C69.9918 106.238 69.9811 106.316 69.9811 112.343V118.447L71.0331 118.326C72.0304 118.211 72.0912 118.09 72.2006 115.988C72.3127 113.835 72.3452 113.774 73.336 113.89C74.1401 113.983 74.6015 114.473 75.5158 116.202C76.4981 118.06 76.8367 118.396 77.7276 118.396C79.0673 118.396 79.049 118.005 77.5892 115.46L76.3991 113.385L77.3023 112.426C77.9759 111.711 78.2058 111.03 78.2058 109.748C78.2058 107.46 76.8417 106.187 74.3903 106.187C73.4726 106.187 72.4921 106.125 72.2121 106.049C71.9317 105.974 71.3154 105.986 70.8418 106.076ZM82.9876 106.328C82.9876 106.543 83.8484 108.229 84.9004 110.075C86.6605 113.162 86.8131 113.63 86.8131 115.938V118.447L87.8651 118.326C88.8876 118.209 88.9228 118.125 89.1187 115.344C89.2832 113.01 89.546 112.112 90.5444 110.478C91.2173 109.375 92.0348 107.959 92.3608 107.33L92.9533 106.187H91.6657C90.4553 106.187 90.3019 106.342 89.1225 108.754L87.8678 111.321L86.5931 108.8C85.5063 106.649 85.1475 106.253 84.1533 106.108C83.501 106.012 82.9876 106.11 82.9876 106.328ZM108.434 106.175C108.331 106.342 109.105 107.965 110.154 109.783C111.941 112.882 112.061 113.256 112.061 115.743V118.396H113.209H114.356V115.891C114.356 113.6 114.52 113.09 116.269 109.928C117.321 108.026 118.182 106.406 118.182 106.328C118.182 106.25 117.623 106.188 116.939 106.189C115.783 106.192 115.611 106.37 114.496 108.714L113.298 111.236L112.01 108.826C111.048 107.026 110.456 106.347 109.672 106.144C109.094 105.994 108.537 106.009 108.434 106.175ZM124.822 106.184C123.067 106.89 122.229 109.421 123.169 111.173C123.387 111.581 124.603 112.436 125.871 113.074C127.923 114.107 128.162 114.347 128.056 115.266C127.908 116.543 126.421 116.837 124.626 115.944C123.52 115.394 123.389 115.399 122.921 116.013C122.22 116.934 122.263 117.157 123.241 117.679C125.64 118.959 128.743 118.711 129.838 117.152C130.16 116.694 130.423 115.7 130.423 114.944C130.423 113.364 129.468 112.27 127.3 111.366C125.282 110.525 124.594 109.74 125.082 108.831C125.529 107.997 127.313 107.836 128.584 108.515C129.445 108.975 130.023 108.48 130.035 107.273C130.046 106.127 126.7 105.427 124.822 106.184ZM98.0752 106.681C97.9704 106.953 97.9329 109.657 97.9915 112.69L98.0982 118.205L101.828 118.314L105.558 118.423V117.473C105.558 116.566 105.442 116.518 102.976 116.41L100.393 116.298L100.287 111.242L100.18 106.187H99.2229C98.6961 106.187 98.1797 106.409 98.0752 106.681ZM44.401 109.094C45.774 110.333 46.1363 114.199 44.8796 114.199C44.5889 114.199 44.3506 114.027 44.3506 113.818C44.3506 113.238 43.6061 113.361 42.9103 114.055C42.338 114.626 42.3475 114.716 43.0315 115.214C43.6692 115.679 43.693 115.806 43.201 116.116C41.2194 117.365 38.0967 115.656 37.6606 113.082C36.9732 109.024 41.413 106.397 44.401 109.094ZM75.6428 108.552C76.9178 109.824 75.4863 111.91 73.3387 111.91C72.3188 111.91 72.2764 111.834 72.2764 110.002V108.094H73.73C74.5296 108.094 75.3903 108.3 75.6428 108.552Z" fill="#635258"/>
</svg>
