<svg width="191" height="101" viewBox="0 0 191 101" fill="none" xmlns="http://www.w3.org/2000/svg">
<path fill-rule="evenodd" clip-rule="evenodd" d="M90.162 0.0284797C89.7513 0.0466709 88.34 0.108423 87.0258 0.165651C72.823 0.784645 58.5679 3.26485 46.0558 7.29396C32.9946 11.5 22.4159 17.0626 14.0962 24.0995C12.7295 25.2555 9.78654 28.1624 8.66028 29.469C4.06866 34.7953 1.11971 40.7356 0.310966 46.2875C-0.597841 52.5269 0.482313 58.4344 3.59155 64.229C7.09367 70.7558 13.0622 76.8499 21.1154 82.1216C32.0149 89.2565 45.4445 94.4141 61.9858 97.8179C62.9876 98.0241 67.8597 98.8787 69.453 99.1278C70.5033 99.2919 75.2058 99.8783 77.3682 100.115C86.2289 101.083 97.9148 101.272 107.934 100.607C115.363 100.115 123.903 98.9294 130.983 97.4085C151.812 92.9336 168.657 85.0111 179.358 74.6569C183.555 70.5967 186.629 66.3747 188.527 62.0657C189.242 60.4425 189.435 59.9176 189.901 58.3291C190.725 55.5173 190.918 54.2449 190.987 51.151C191.066 47.6161 190.797 45.5967 189.822 42.3995C187.375 34.3771 181.189 26.7047 171.915 20.189C165.731 15.8451 157.342 11.6018 149.302 8.75201C135.566 3.88276 121.149 1.0875 105.246 0.209802C102.684 0.0684021 92.1266 -0.0584449 90.162 0.0284797ZM102.11 2.52618C118.23 3.19985 132.745 5.85754 146.166 10.5929C153.198 13.0741 159.706 16.1841 165.509 19.8361C172.293 24.1058 178.104 29.5642 181.551 34.9034C184.045 38.768 185.514 42.4657 186.209 46.6277C186.469 48.1899 186.469 52.8478 186.208 54.3789C185.016 61.3681 181.338 67.7976 175.179 73.657C164.523 83.796 147.627 91.5047 127.199 95.5467C112.077 98.5389 96.1425 99.3161 79.9071 97.8532C56.1893 95.7161 34.5038 88.3501 20.6176 77.7137C17.8603 75.6017 14.3594 72.3155 12.485 70.0797C8.05375 64.7941 5.56319 59.5211 4.77545 53.7567C4.54885 52.099 4.54994 48.8396 4.77754 47.1686C5.46691 42.1077 7.66267 37.0903 11.1892 32.5172C12.3363 31.0298 12.4012 30.954 14.0063 29.2231C20.8201 21.8759 31.6161 15.3412 44.6619 10.6676C57.6631 6.00995 72.8254 3.20182 88.569 2.53572C91.3043 2.41999 99.4319 2.41428 102.11 2.52618ZM89.2162 5.18938C79.6314 5.57681 70.5364 6.75107 61.8337 8.72467C35.8646 14.6141 16.8599 26.9748 11.3214 41.578C8.14644 49.9493 9.51493 58.6257 15.2738 66.6381C20.2043 73.4978 28.904 80.0752 39.2358 84.7541C51.2409 90.1908 64.3881 93.5632 79.7577 95.1483C88.5683 96.0569 99.4478 96.1495 108.631 95.3941C117.559 94.6596 126.638 93.0918 134.716 90.8895C154.721 85.4362 170.045 75.954 177.111 64.6577C178.397 62.6 179.811 59.5178 180.402 57.4828C181.544 53.549 181.682 49.2862 180.802 45.164C179.035 36.8916 172.71 28.9099 162.578 22.1697C159.803 20.3232 156.859 18.6705 153.235 16.9243C140.941 11.0007 125.921 7.12748 109.627 5.67868C103.574 5.14061 95.3195 4.94267 89.2162 5.18938ZM90.162 16.5775C92.6967 16.8817 94.0258 17.2132 95.3393 17.8686C97.6497 19.0213 99.3968 20.8397 100.672 23.4186C101.671 25.4393 101.973 26.9614 101.879 29.5075C101.818 31.1968 101.631 32.2405 101.177 33.4284C100.504 35.1901 99.2695 37.0356 98.0555 38.0962C97.404 38.6654 95.9028 39.6954 95.7248 39.6954C95.4936 39.6954 95.6806 39.8736 96.0158 39.9728C96.6505 40.1605 98.4379 41.0636 99.1227 41.5424C101.571 43.2545 103.243 45.8444 103.917 48.9668C104.206 50.3085 104.232 53.2437 103.967 54.5925C102.945 59.7792 100.057 63.6614 96.0938 65.1738C94.9837 65.5974 93.6547 65.9177 92.4891 66.0424C90.5047 66.2547 85.7999 66.3406 76.0988 66.3418L66.1674 66.3431V41.3604V16.3778L77.6918 16.4208C85.5313 16.4501 89.5186 16.5003 90.162 16.5775ZM120.827 35.3963V54.4015L120.138 54.5087C119.156 54.6615 118.245 55.1147 117.499 55.8222C116.375 56.8887 115.806 58.4738 116.039 59.8919C116.401 62.0908 118.122 63.7524 120.339 64.0428L120.827 64.1068V65.225V66.3431H116.297H111.767V41.367V16.391H116.297H120.827V35.3963ZM75.3272 30.4615V36.2723L81.5747 36.2269C88.2431 36.1783 88.3832 36.1686 89.7728 35.659C90.5237 35.3837 91.6035 34.5518 92.0656 33.8927C92.2736 33.5959 92.5649 33.0433 92.7127 32.6647C92.944 32.0722 92.9876 31.791 93.0261 30.6436C93.0604 29.6217 93.0331 29.1631 92.9091 28.677C92.4112 26.7262 91.1838 25.4858 89.2661 24.9949C88.3181 24.7523 85.7826 24.6559 80.2804 24.6532L75.3272 24.6508V30.4615ZM75.4019 44.5674C75.3607 44.6099 75.3272 47.6462 75.3272 51.3149V57.985L81.1765 57.9848C87.1153 57.9845 89.2367 57.9033 90.3114 57.6356C92.7034 57.0394 94.218 55.3619 94.6521 52.8278C94.7928 52.0066 94.714 49.9945 94.5132 49.2822C94.1471 47.9831 93.3811 46.8401 92.3787 46.0971C91.2534 45.2631 90.2443 44.9649 87.673 44.7067C86.4191 44.5809 75.5085 44.457 75.4019 44.5674ZM122.136 55.525C122.919 55.7665 123.643 56.3003 124.14 57.0019C125.394 58.775 124.907 61.3581 123.101 62.5108C121.08 63.8007 118.356 63.1309 117.341 61.0945C116.552 59.5121 116.784 57.8093 117.958 56.5509C118.997 55.4377 120.587 55.0474 122.136 55.525ZM51.3457 73.0729C51.7088 73.1489 52.244 73.3303 52.535 73.4759C53.1663 73.7919 54.0905 74.6366 54.4001 75.1806L54.6226 75.5715L53.7492 76.1019C53.2688 76.3936 52.8218 76.6638 52.7557 76.7025C52.6803 76.7464 52.5741 76.6553 52.4712 76.4589C52.2265 75.9916 51.4419 75.2027 50.9866 74.9659C50.4223 74.6726 49.4448 74.6781 48.8671 74.9779C48.0056 75.425 47.4833 76.5738 47.3837 78.2411C47.2837 79.9129 47.6442 81.3935 48.3265 82.113C49.1028 82.9317 50.7944 82.9988 51.6149 82.2434C51.9463 81.9384 52.3212 81.171 52.3936 80.6497L52.4549 80.2078H51.3959H50.337V79.3228V78.4378H52.6767H55.0164V79.548C55.0164 81.2816 54.7123 82.1693 53.7872 83.1354C52.8384 84.1261 51.6531 84.5736 49.9885 84.5695C47.217 84.5626 45.52 83.2668 44.7913 80.6011C44.5249 79.627 44.5485 77.7346 44.8392 76.7358C45.1482 75.6745 45.4891 75.0529 46.1211 74.3986C47.0722 73.4137 48.2623 72.9533 49.889 72.9408C50.327 72.9375 50.9825 72.9968 51.3457 73.0729ZM97.5415 73.1622C98.3405 73.4145 98.8516 73.727 99.4776 74.346C102.052 76.8923 101.475 82.3608 98.461 83.9673C97.6922 84.3771 96.8162 84.567 95.6877 84.5681C93.051 84.5709 91.2834 83.2304 90.5869 80.6994C90.4556 80.2226 90.4127 79.7107 90.418 78.6836C90.4243 77.4673 90.456 77.2145 90.6907 76.5127C91.3078 74.6675 92.5716 73.457 94.2841 73.0709C95.0326 72.9022 96.8818 72.954 97.5415 73.1622ZM74.4674 73.3727C75.2966 73.5462 75.8886 73.8745 76.3665 74.4258C76.8176 74.9464 77.0201 75.6095 77.0188 76.5628C77.0172 77.8235 76.4282 78.7221 75.2017 79.335C74.6516 79.61 74.6339 79.6306 74.768 79.841C74.8448 79.9615 75.4872 80.9674 76.1955 82.076C76.9038 83.1847 77.5161 84.1472 77.5561 84.2147C77.6129 84.3106 77.3238 84.3377 76.2414 84.3377H74.8538L73.8756 82.7889C73.3376 81.9371 72.6811 80.9194 72.4167 80.5273C71.9394 79.8195 71.9328 79.8144 71.491 79.8144H71.046V82.0791V84.3438L69.8264 84.3161L68.6067 84.2885L68.581 78.7574L68.5552 73.2263L71.1697 73.2279C73.0715 73.2292 73.9703 73.2686 74.4674 73.3727ZM117.046 77.0857C117.048 79.3357 117.091 81.1257 117.15 81.3779C117.38 82.3623 117.993 82.7588 119.293 82.7622C120.3 82.7649 120.853 82.5177 121.168 81.9246C121.367 81.551 121.376 81.3668 121.404 77.3778L121.433 73.2203L122.648 73.2479L123.864 73.2754L123.894 76.7662C123.926 80.6161 123.843 81.7884 123.478 82.5913C122.875 83.9222 121.49 84.5666 119.234 84.5666C116.599 84.5666 115.171 83.6826 114.766 81.8008C114.694 81.4634 114.654 79.86 114.654 77.253V73.2263H115.849H117.044L117.046 77.0857ZM143.265 73.3708C144.742 73.6309 145.798 74.3778 146.225 75.4644C146.523 76.2236 146.546 77.6527 146.273 78.4368C145.995 79.2337 145.178 80.0096 144.323 80.2885C143.49 80.5604 142.515 80.695 141.362 80.6974L140.441 80.6994V82.5185V84.3377H139.246H138.052V78.782V73.2263L140.267 73.2297C141.712 73.232 142.754 73.2809 143.265 73.3708ZM94.8942 74.858C93.6921 75.2926 93.0635 76.8718 93.1763 79.1734C93.2959 81.6146 94.1133 82.7644 95.7291 82.7644C96.5066 82.7644 96.9157 82.5807 97.4349 81.9983C98.0652 81.291 98.2765 80.479 98.2718 78.782C98.2676 77.2679 98.1324 76.5872 97.6863 75.8354C97.1105 74.8651 95.9745 74.4674 94.8942 74.858ZM71.046 76.5067V78.0445H72.0894C73.787 78.0445 74.3596 77.6767 74.3675 76.5813C74.376 75.4226 73.914 75.0938 72.1713 75.0178L71.046 74.9688V76.5067ZM140.464 76.925L140.491 78.8803L141.238 78.8775C142.232 78.874 142.664 78.7761 143.03 78.4713C143.497 78.0833 143.664 77.6871 143.664 76.9628C143.664 76.2785 143.512 75.8807 143.114 75.5247C142.697 75.1516 142.401 75.0631 141.411 75.0161L140.437 74.9698L140.464 76.925Z" fill="#635258"/>
</svg>
