<svg width="268" height="67" viewBox="0 0 268 67" fill="none" xmlns="http://www.w3.org/2000/svg">
<path fill-rule="evenodd" clip-rule="evenodd" d="M37.0604 1.14676C37.0604 1.23571 36.9511 1.30848 36.8176 1.30848C36.604 1.30848 36.5749 2.76396 36.5749 13.4375V25.5664H38.3551V13.4375H39.4879C40.3871 13.4375 40.6208 13.4876 40.6208 13.68C40.6208 13.8135 40.6936 13.9226 40.7826 13.9226C40.8716 13.9226 40.9444 14.0318 40.9444 14.1652C40.9444 14.2986 41.0537 14.4078 41.1872 14.4078C41.3382 14.4078 41.43 14.5604 41.43 14.8121C41.43 15.0637 41.5217 15.2164 41.6727 15.2164C41.8208 15.2164 41.9155 15.3673 41.9155 15.6034C41.9155 15.8162 42.0247 16.0323 42.1582 16.0835C42.2917 16.1346 42.401 16.2879 42.401 16.4243C42.401 16.5604 42.4659 16.6719 42.5453 16.6719C42.6246 16.6719 42.7353 16.8538 42.7912 17.0762C42.847 17.2985 42.9642 17.4805 43.0514 17.4805C43.1388 17.4805 43.2101 17.5896 43.2101 17.723C43.2101 17.8565 43.3194 17.9656 43.4529 17.9656C43.5896 17.9656 43.6957 18.1102 43.6957 18.2968C43.6957 18.4789 43.8777 18.7965 44.1002 19.0026C44.3228 19.2088 44.5048 19.5349 44.5048 19.7277C44.5048 19.9205 44.6074 20.1175 44.733 20.1657C44.8584 20.2137 45.0055 20.4297 45.0598 20.6456C45.114 20.8617 45.2299 21.0383 45.3171 21.0383C45.4045 21.0383 45.4758 21.1475 45.4758 21.2809C45.4758 21.4143 45.5472 21.5235 45.6346 21.5235C45.7218 21.5235 45.839 21.7054 45.8948 21.9277C45.9507 22.1501 46.0614 22.332 46.1407 22.332C46.2201 22.332 46.285 22.4412 46.285 22.5746C46.285 22.708 46.3943 22.8172 46.5278 22.8172C46.6796 22.8172 46.7705 22.9705 46.7705 23.2265C46.7705 23.4518 46.8798 23.6779 47.0133 23.729C47.1468 23.7802 47.256 23.9235 47.256 24.0474C47.256 24.1713 47.324 24.2727 47.407 24.2727C47.4901 24.2727 47.6066 24.426 47.6661 24.6134C47.8953 25.335 48.2565 25.5664 49.1531 25.5664C49.9943 25.5664 50.0072 25.559 50.0072 25.0813C50.0072 24.7578 49.9263 24.5961 49.7645 24.5961C49.631 24.5961 49.5217 24.487 49.5217 24.3535C49.5217 24.2201 49.4504 24.111 49.363 24.111C49.2757 24.111 49.1552 23.9108 49.0951 23.6662C49.0349 23.4216 48.8152 23.0612 48.6064 22.8654C48.3978 22.6696 48.2271 22.3602 48.2271 22.1781C48.2271 21.9915 48.121 21.8469 47.9843 21.8469C47.8333 21.8469 47.7415 21.6942 47.7415 21.4426C47.7415 21.191 47.6498 21.0383 47.4988 21.0383C47.3653 21.0383 47.256 20.9291 47.256 20.7957C47.256 20.6623 47.1911 20.5531 47.1117 20.5531C47.0324 20.5531 46.9217 20.3712 46.8658 20.1488C46.81 19.9265 46.6928 19.7445 46.6056 19.7445C46.5182 19.7445 46.4469 19.6354 46.4469 19.502C46.4469 19.3685 46.3376 19.2594 46.2041 19.2594C46.0423 19.2594 45.9614 19.0977 45.9614 18.7742C45.9614 18.4508 45.8804 18.2891 45.7186 18.2891C45.5851 18.2891 45.4758 18.1799 45.4758 18.0465C45.4758 17.9131 45.403 17.8039 45.314 17.8039C45.225 17.8039 45.1522 17.6561 45.1522 17.4754C45.1522 17.2946 45.0496 17.1075 44.924 17.0593C44.7986 17.0113 44.6515 16.7952 44.5972 16.5794C44.543 16.3633 44.4271 16.1867 44.3399 16.1867C44.2525 16.1867 44.1812 16.0853 44.1812 15.9614C44.1812 15.8375 44.0719 15.6943 43.9384 15.643C43.8049 15.5919 43.6957 15.3923 43.6957 15.1996C43.6957 15.0068 43.5136 14.6806 43.2911 14.4744C43.0685 14.2684 42.8865 13.9508 42.8865 13.7687C42.8865 13.4688 42.9862 13.4375 43.9384 13.4375C44.5319 13.4375 44.9903 13.367 44.9903 13.2757C44.9903 13.1868 45.1747 13.114 45.3999 13.114C45.6254 13.114 45.8516 13.0049 45.9028 12.8714C45.9541 12.738 46.1416 12.6289 46.3198 12.6289C46.6108 12.6289 48.2271 11.1913 48.2271 10.9326C48.2271 10.8744 48.3363 10.7177 48.4698 10.5842C48.6033 10.4508 48.7126 10.1649 48.7126 9.94901C48.7126 9.73295 48.7854 9.55619 48.8744 9.55619C48.9739 9.55619 49.0362 8.74759 49.0362 7.45383C49.0362 6.16008 48.9739 5.35148 48.8744 5.35148C48.7854 5.35148 48.7126 5.17472 48.7126 4.95866C48.7126 4.74276 48.6033 4.45684 48.4698 4.32343C48.3363 4.19001 48.2271 3.96651 48.2271 3.82662C48.2271 3.6869 48.1178 3.57256 47.9843 3.57256C47.8508 3.57256 47.7415 3.4634 47.7415 3.32998C47.7415 3.19656 47.6635 3.0874 47.5682 3.0874C47.3441 3.0874 46.9324 2.67599 46.9324 2.452C46.9324 2.35675 46.8179 2.2788 46.6781 2.2788C46.5381 2.2788 46.3145 2.16964 46.181 2.03622C46.0474 1.9028 45.7691 1.79364 45.5626 1.79364C45.3559 1.79364 45.1449 1.68448 45.0936 1.55106C45.024 1.36978 44.7338 1.30848 43.9434 1.30848C43.3467 1.30848 42.8865 1.23814 42.8865 1.14676C42.8865 1.04488 41.8075 0.985045 39.9734 0.985045C38.1393 0.985045 37.0604 1.04488 37.0604 1.14676ZM76.7101 1.14676C76.7101 1.23571 76.4166 1.30848 76.0578 1.30848C75.6271 1.30848 75.3737 1.39096 75.3122 1.55106C75.2544 1.7013 75.0081 1.79364 74.6649 1.79364C74.3214 1.79364 74.0751 1.88599 74.0175 2.03622C73.9662 2.16964 73.75 2.2788 73.537 2.2788C73.3008 2.2788 73.1498 2.37341 73.1498 2.52138C73.1498 2.6548 73.0405 2.76396 72.907 2.76396C72.7735 2.76396 72.6643 2.82881 72.6643 2.90822C72.6643 2.98746 72.4822 3.09807 72.2597 3.15387C72.0371 3.20966 71.8551 3.32675 71.8551 3.41391C71.8551 3.50124 71.7458 3.57256 71.6123 3.57256C71.4788 3.57256 71.3696 3.68172 71.3696 3.81514C71.3696 3.94856 71.2603 4.05772 71.1268 4.05772C70.9933 4.05772 70.8841 4.16688 70.8841 4.3003C70.8841 4.43372 70.7748 4.54288 70.6413 4.54288C70.5078 4.54288 70.3986 4.62552 70.3986 4.72643C70.3986 4.8275 70.2165 5.07866 69.994 5.28485C69.7714 5.49088 69.5894 5.8085 69.5894 5.99059C69.5894 6.17722 69.4834 6.3218 69.3466 6.3218C69.1956 6.3218 69.1039 6.47446 69.1039 6.72609C69.1039 6.97773 69.0121 7.13039 68.8611 7.13039C68.6993 7.13039 68.6184 7.29211 68.6184 7.61555C68.6184 7.93899 68.5374 8.10071 68.3756 8.10071C68.2138 8.10071 68.1329 8.26243 68.1329 8.58587C68.1329 8.85271 68.06 9.07103 67.971 9.07103C67.882 9.07103 67.8069 9.41663 67.804 9.8392C67.8012 10.2618 67.692 10.7487 67.5612 10.9213C67.2539 11.3273 67.211 15.637 67.5133 15.7378C67.6198 15.7732 67.7349 16.2402 67.7755 16.8024C67.8155 17.3532 67.9121 17.8039 67.9904 17.8039C68.0688 17.8039 68.1329 18.0222 68.1329 18.2891C68.1329 18.6125 68.2138 18.7742 68.3756 18.7742C68.5374 18.7742 68.6184 18.9359 68.6184 19.2594C68.6184 19.5828 68.6993 19.7445 68.8611 19.7445C68.9979 19.7445 69.1039 19.8891 69.1039 20.0757C69.1039 20.2578 69.2757 20.5672 69.486 20.763C69.6962 20.9589 69.9195 21.2828 69.9823 21.483C70.0453 21.6832 70.1645 21.8469 70.2476 21.8469C70.3306 21.8469 70.3986 21.9561 70.3986 22.0895C70.3986 22.2229 70.5078 22.332 70.6413 22.332C70.7748 22.332 70.8841 22.4412 70.8841 22.5746C70.8841 22.708 70.9933 22.8172 71.1268 22.8172C71.2603 22.8172 71.3696 22.9264 71.3696 23.0598C71.3696 23.2107 71.5223 23.3024 71.7742 23.3024C72.026 23.3024 72.1787 23.3941 72.1787 23.5449C72.1787 23.6784 72.288 23.7875 72.4215 23.7875C72.555 23.7875 72.6643 23.8524 72.6643 23.9318C72.6643 24.011 72.8463 24.1216 73.0688 24.1774C73.2914 24.2332 73.4734 24.3503 73.4734 24.4375C73.4734 24.5248 73.5878 24.5961 73.7277 24.5961C73.8677 24.5961 74.0913 24.7053 74.2248 24.8387C74.3583 24.9721 74.6497 25.0813 74.8722 25.0813C75.0947 25.0813 75.386 25.1904 75.5195 25.3239C75.653 25.4573 76.0484 25.5664 76.398 25.5664C76.7477 25.5664 77.0338 25.6392 77.0338 25.7282C77.0338 25.8304 78.1937 25.8899 80.1896 25.8899C82.1855 25.8899 83.3454 25.8304 83.3454 25.7282C83.3454 25.6392 83.639 25.5664 83.9978 25.5664C84.4284 25.5664 84.6818 25.484 84.7433 25.3239C84.8011 25.1736 85.0474 25.0813 85.3907 25.0813C85.7341 25.0813 85.9804 24.9889 86.038 24.8387C86.0893 24.7053 86.2327 24.5961 86.3567 24.5961C86.4807 24.5961 86.5821 24.5248 86.5821 24.4375C86.5821 24.3503 86.7642 24.2332 86.9867 24.1774C87.2092 24.1216 87.3913 24.011 87.3913 23.9318C87.3913 23.8524 87.5005 23.7875 87.6341 23.7875C87.7676 23.7875 87.8768 23.6784 87.8768 23.5449C87.8768 23.4115 87.986 23.3024 88.1196 23.3024C88.2531 23.3024 88.3623 23.201 88.3623 23.0771C88.3623 22.9532 88.4759 22.8082 88.6149 22.7549C88.7957 22.6856 88.8532 22.4854 88.8172 22.0503C88.7679 21.4544 88.7544 21.4431 88.1259 21.4641C87.7734 21.4759 87.4578 21.5668 87.4246 21.6662C87.3915 21.7655 87.2612 21.8469 87.1351 21.8469C87.009 21.8469 86.9058 21.9561 86.9058 22.0895C86.9058 22.2404 86.753 22.332 86.5012 22.332C86.2494 22.332 86.0966 22.4237 86.0966 22.5746C86.0966 22.708 85.9874 22.8172 85.8539 22.8172C85.7203 22.8172 85.6111 22.8806 85.6111 22.9582C85.6111 23.0359 85.3198 23.1458 84.9638 23.2027C84.6077 23.2597 84.3164 23.3781 84.3164 23.466C84.3164 23.5538 84.1031 23.6258 83.8424 23.6258C83.5818 23.6258 83.2593 23.735 83.1258 23.8684C82.9285 24.0655 82.3527 24.111 80.0529 24.111C78.2664 24.111 77.2023 24.0498 77.1673 23.9454C77.1371 23.8543 76.8221 23.7329 76.4675 23.6753C76.113 23.6179 75.726 23.474 75.6076 23.3557C75.4893 23.2374 75.2154 23.1406 74.9994 23.1406C74.7832 23.1406 74.6063 23.0679 74.6063 22.9789C74.6063 22.89 74.4948 22.8172 74.3585 22.8172C74.2221 22.8172 74.0687 22.708 74.0175 22.5746C73.9662 22.4412 73.75 22.332 73.537 22.332C73.3008 22.332 73.1498 22.2374 73.1498 22.0895C73.1498 21.9561 73.0405 21.8469 72.907 21.8469C72.7735 21.8469 72.6643 21.7689 72.6643 21.6737C72.6643 21.4497 72.2525 21.0383 72.0284 21.0383C71.9331 21.0383 71.8551 20.9291 71.8551 20.7957C71.8551 20.6623 71.7458 20.5531 71.6123 20.5531C71.4788 20.5531 71.3696 20.444 71.3696 20.3106C71.3696 20.1771 71.2982 20.068 71.2108 20.068C71.1236 20.068 71.0064 19.886 70.9506 19.6637C70.8947 19.4413 70.792 19.2594 70.7222 19.2594C70.6525 19.2594 70.5497 19.0774 70.4939 18.8551C70.438 18.6327 70.3209 18.4508 70.2336 18.4508C70.1462 18.4508 70.0749 18.2325 70.0749 17.9656C70.0749 17.6422 69.994 17.4805 69.8321 17.4805C69.6581 17.4805 69.5894 17.3029 69.5894 16.8533C69.5894 16.5084 69.4745 15.9512 69.334 15.6153C69.011 14.843 69.0542 11.0007 69.3871 10.8902C69.5083 10.8499 69.5894 10.5365 69.5894 10.1088C69.5894 9.58158 69.653 9.39447 69.8321 9.39447C70.0074 9.39447 70.0749 9.2148 70.0749 8.74759C70.0749 8.28038 70.1424 8.10071 70.3176 8.10071C70.4511 8.10071 70.5604 7.99155 70.5604 7.85813C70.5604 7.72471 70.6332 7.61555 70.7222 7.61555C70.8112 7.61555 70.8841 7.43362 70.8841 7.21125C70.8841 6.95962 70.9758 6.80695 71.1268 6.80695C71.2603 6.80695 71.3696 6.69779 71.3696 6.56437C71.3696 6.43096 71.4788 6.3218 71.6123 6.3218C71.7458 6.3218 71.8551 6.21263 71.8551 6.07922C71.8551 5.9458 71.9643 5.83664 72.0978 5.83664C72.2313 5.83664 72.3406 5.75869 72.3406 5.66343C72.3406 5.43945 72.7523 5.02804 72.9764 5.02804C73.0718 5.02804 73.1498 4.91888 73.1498 4.78546C73.1498 4.65204 73.259 4.54288 73.3925 4.54288C73.526 4.54288 73.6353 4.47156 73.6353 4.38423C73.6353 4.29706 73.8173 4.17998 74.0399 4.12419C74.2624 4.06839 74.4444 3.95778 74.4444 3.87853C74.4444 3.79913 74.6288 3.73428 74.854 3.73428C75.0795 3.73428 75.3057 3.62512 75.3569 3.4917C75.4177 3.33354 75.6694 3.24912 76.0801 3.24912C76.5323 3.24912 76.7101 3.18055 76.7101 3.00654C76.7101 2.79889 77.1848 2.76396 80.0105 2.76396C82.7948 2.76396 83.3253 2.80197 83.404 3.00654C83.4629 3.16001 83.7112 3.24912 84.0801 3.24912C84.4009 3.24912 84.7725 3.35828 84.906 3.4917C85.0395 3.62512 85.3256 3.73428 85.5417 3.73428C85.7579 3.73428 85.9348 3.80705 85.9348 3.896C85.9348 3.98495 86.0753 4.05772 86.247 4.05772C86.4185 4.05772 86.6682 4.16688 86.8017 4.3003C86.9352 4.43372 87.1225 4.54288 87.218 4.54288C87.3133 4.54288 87.3913 4.65204 87.3913 4.78546C87.3913 4.91888 87.5005 5.02804 87.6341 5.02804C87.7676 5.02804 87.8768 5.10081 87.8768 5.18976C87.8768 5.2787 88.0505 5.35148 88.2625 5.35148C88.5258 5.35148 88.6792 5.23585 88.7459 4.98761C88.9192 4.34138 88.8554 3.727 88.6051 3.6311C88.4716 3.57984 88.3623 3.43655 88.3623 3.31268C88.3623 3.1888 88.2531 3.0874 88.1196 3.0874C87.986 3.0874 87.8768 3.01463 87.8768 2.92568C87.8768 2.83674 87.7676 2.76396 87.6341 2.76396C87.5005 2.76396 87.3913 2.6548 87.3913 2.52138C87.3913 2.3705 87.2385 2.2788 86.9867 2.2788C86.7642 2.2788 86.5821 2.20684 86.5821 2.11902C86.5821 2.03105 86.2953 1.91332 85.9448 1.85736C85.5943 1.80141 85.2688 1.65489 85.2216 1.53198C85.1682 1.3929 84.8892 1.30848 84.4833 1.30848C84.1245 1.30848 83.8309 1.23571 83.8309 1.14676C83.8309 1.04391 82.5362 0.985045 80.2705 0.985045C78.0048 0.985045 76.7101 1.04391 76.7101 1.14676ZM106.164 1.14676C106.164 1.23571 106.055 1.30848 105.921 1.30848C105.705 1.30848 105.681 2.71836 105.718 13.397L105.76 25.4856L107.459 25.5834V13.114H120.406V25.5664H122.186V13.5068C122.186 0.414012 122.226 0.985045 121.307 0.985045C121.079 0.985045 120.891 1.05782 120.891 1.14676C120.891 1.23571 120.782 1.30848 120.649 1.30848C120.438 1.30848 120.406 1.96442 120.406 6.24094V11.1734H107.459V0.985045H106.812C106.456 0.985045 106.164 1.05782 106.164 1.14676ZM139.601 1.24089C139.547 1.38158 139.502 6.9124 139.502 13.5316V25.5664H140.959V0.985045H140.329C139.904 0.985045 139.667 1.06817 139.601 1.24089ZM158.374 1.24089C158.32 1.38158 158.275 1.78184 158.275 2.13034V2.76396H163.616V25.5664H164.25C165.505 25.5664 165.396 26.6603 165.396 14.067V2.76396H170.737V2.1056C170.737 0.945908 170.959 0.985045 164.373 0.985045C159.141 0.985045 158.461 1.01399 158.374 1.24089ZM188.215 1.14676C188.215 1.23571 188.106 1.30848 187.972 1.30848C187.764 1.30848 187.729 1.79364 187.729 4.7046C187.729 6.86081 187.789 8.10071 187.891 8.10071C187.994 8.10071 188.053 9.23275 188.053 11.1734C188.053 13.114 187.994 14.2461 187.891 14.2461C187.787 14.2461 187.729 15.998 187.729 19.1785C187.729 22.3591 187.787 24.111 187.891 24.111C187.98 24.111 188.053 24.4021 188.053 24.7578V25.4047L192.746 25.4405C195.328 25.46 197.968 25.4781 198.613 25.4809L199.786 25.4856L199.886 24.111H189.51V12.9206L199.786 13.0273L199.841 12.6452C199.871 12.435 199.849 12.0179 199.793 11.7182C199.693 11.1862 199.672 11.1734 198.884 11.1734C198.316 11.1734 198.049 11.2452 197.984 11.416C197.904 11.623 197.276 11.6585 193.7 11.6585H189.51V2.76396H199.867V2.03622C199.867 1.49721 199.804 1.30848 199.624 1.30848C199.491 1.30848 199.382 1.23571 199.382 1.14676C199.382 1.04213 197.413 0.985045 193.798 0.985045C190.184 0.985045 188.215 1.04213 188.215 1.14676ZM226.085 1.14676C226.085 1.23571 225.871 1.30848 225.611 1.30848C225.35 1.30848 225.027 1.41764 224.894 1.55106C224.76 1.68448 224.464 1.79364 224.235 1.79364C223.973 1.79364 223.819 1.88356 223.819 2.03622C223.819 2.19794 223.657 2.2788 223.333 2.2788C223.066 2.2788 222.848 2.34672 222.848 2.42969C222.848 2.51265 222.684 2.63184 222.484 2.69475C222.283 2.75749 221.959 2.98067 221.763 3.19074C221.567 3.40081 221.33 3.57256 221.237 3.57256C221.144 3.57256 221.068 3.67008 221.068 3.7891C221.068 3.90829 220.886 4.08877 220.663 4.19C220.441 4.2914 220.258 4.48498 220.258 4.62034C220.258 4.75554 220.149 4.86632 220.016 4.86632C219.882 4.86632 219.773 4.97548 219.773 5.1089C219.773 5.24232 219.664 5.35148 219.53 5.35148C219.397 5.35148 219.287 5.46064 219.287 5.59406C219.287 5.72748 219.215 5.83664 219.126 5.83664C219.037 5.83664 218.964 6.01857 218.964 6.24094C218.964 6.49257 218.872 6.64523 218.721 6.64523C218.587 6.64523 218.478 6.75957 218.478 6.8993C218.478 7.03918 218.369 7.26268 218.236 7.3961C218.102 7.52952 217.993 7.80929 217.993 8.01791C217.993 8.22653 217.915 8.42302 217.82 8.45456C217.726 8.48609 217.607 8.81972 217.556 9.19588C217.506 9.57188 217.401 9.87963 217.324 9.87963C217.247 9.87963 217.184 11.2987 217.184 13.0332C217.184 14.8646 217.247 16.1867 217.334 16.1867C217.416 16.1867 217.534 16.587 217.595 17.0762C217.656 17.5654 217.761 17.9656 217.829 17.9656C217.896 17.9656 217.998 18.2567 218.055 18.6125C218.112 18.9683 218.223 19.2594 218.301 19.2594C218.379 19.2594 218.489 19.4413 218.545 19.6637C218.601 19.886 218.718 20.068 218.805 20.068C218.892 20.068 218.964 20.2863 218.964 20.5531C218.964 20.8766 219.045 21.0383 219.207 21.0383C219.34 21.0383 219.449 21.1475 219.449 21.2809C219.449 21.4143 219.522 21.5235 219.611 21.5235C219.7 21.5235 219.773 21.6326 219.773 21.766C219.773 21.8994 219.845 22.0086 219.933 22.0086C220.022 22.0086 220.561 22.4816 221.131 23.0598C221.764 23.7017 222.302 24.111 222.513 24.111C222.702 24.111 222.9 24.2201 222.951 24.3535C223.002 24.487 223.219 24.5961 223.432 24.5961C223.668 24.5961 223.819 24.6907 223.819 24.8387C223.819 24.9914 223.973 25.0813 224.235 25.0813C224.464 25.0813 224.76 25.1904 224.894 25.3239C225.037 25.4665 225.432 25.5664 225.853 25.5664C226.248 25.5664 226.57 25.6392 226.57 25.7282C226.57 25.8304 227.703 25.8899 229.645 25.8899C231.587 25.8899 232.72 25.8304 232.72 25.7282C232.72 25.6392 233.042 25.5664 233.437 25.5664C233.858 25.5664 234.253 25.4665 234.396 25.3239C234.529 25.1904 234.826 25.0813 235.055 25.0813C235.317 25.0813 235.471 24.9914 235.471 24.8387C235.471 24.7021 235.616 24.5961 235.802 24.5961C235.985 24.5961 236.294 24.4244 236.49 24.2143C236.686 24.0042 237.011 23.7811 237.211 23.7183C237.411 23.6554 237.575 23.5446 237.575 23.472C237.575 23.3994 237.721 23.302 237.899 23.2555C238.172 23.1842 238.222 23.036 238.22 22.3068C238.217 21.4398 237.959 20.7477 237.792 21.1596C237.747 21.2708 237.607 21.3617 237.481 21.3617C237.354 21.3617 237.251 21.4709 237.251 21.6043C237.251 21.7377 237.142 21.8469 237.008 21.8469C236.875 21.8469 236.766 21.9481 236.766 22.072C236.766 22.1957 236.584 22.3427 236.361 22.3985C236.139 22.4543 235.957 22.5714 235.957 22.6586C235.957 22.7459 235.847 22.8172 235.714 22.8172C235.58 22.8172 235.471 22.8804 235.471 22.9576C235.471 23.0349 235.163 23.1394 234.787 23.1898C234.41 23.2403 234.076 23.359 234.045 23.4536C234.013 23.5483 233.702 23.6258 233.354 23.6258C232.898 23.6258 232.72 23.6941 232.72 23.8684C232.72 24.0754 232.272 24.111 229.662 24.111C227.094 24.111 226.59 24.0722 226.511 23.8684C226.453 23.7162 226.206 23.6258 225.847 23.6258C225.533 23.6258 225.275 23.5589 225.275 23.4769C225.275 23.395 225.057 23.2801 224.79 23.2215C224.523 23.163 224.304 23.048 224.304 22.9662C224.304 22.8842 224.091 22.8172 223.83 22.8172C223.57 22.8172 223.247 22.708 223.114 22.5746C222.98 22.4412 222.793 22.332 222.697 22.332C222.602 22.332 222.524 22.2229 222.524 22.0895C222.524 21.9561 222.446 21.8469 222.351 21.8469C222.144 21.8469 221.715 21.4423 221.715 21.2476C221.715 21.0697 221.112 20.5531 220.904 20.5531C220.816 20.5531 220.744 20.3712 220.744 20.1488C220.744 19.9265 220.671 19.7445 220.582 19.7445C220.493 19.7445 220.42 19.6331 220.42 19.4969C220.42 19.3606 220.311 19.2073 220.178 19.1562C220.044 19.1049 219.935 18.8889 219.935 18.6761C219.935 18.4399 219.84 18.2891 219.692 18.2891C219.541 18.2891 219.449 18.1364 219.449 17.8848C219.449 17.6331 219.358 17.4805 219.207 17.4805C219.008 17.4805 218.964 17.202 218.964 15.9441C218.964 15.0277 218.898 14.4078 218.802 14.4078C218.712 14.4078 218.64 13.9765 218.64 13.4375C218.64 12.8985 218.712 12.4671 218.802 12.4671C218.896 12.4671 218.964 11.9281 218.964 11.1734C218.964 10.1313 219.011 9.87963 219.207 9.87963C219.382 9.87963 219.449 9.69996 219.449 9.23275C219.449 8.76554 219.517 8.58587 219.692 8.58587C219.84 8.58587 219.935 8.43499 219.935 8.19888C219.935 7.98605 220.044 7.77 220.178 7.71873C220.311 7.66763 220.42 7.51432 220.42 7.37799C220.42 7.24182 220.493 7.13039 220.582 7.13039C220.671 7.13039 220.744 6.94846 220.744 6.72609C220.744 6.47446 220.836 6.3218 220.987 6.3218C221.12 6.3218 221.229 6.21263 221.229 6.07922C221.229 5.9458 221.308 5.83664 221.404 5.83664C221.63 5.83664 222.524 4.9433 222.524 4.71705C222.524 4.62131 222.698 4.54288 222.911 4.54288C223.124 4.54288 223.341 4.43372 223.392 4.3003C223.443 4.16688 223.596 4.05772 223.733 4.05772C223.869 4.05772 223.981 3.98495 223.981 3.896C223.981 3.80705 224.163 3.73428 224.385 3.73428C224.637 3.73428 224.79 3.64258 224.79 3.4917C224.79 3.31656 224.97 3.24912 225.437 3.24912C225.905 3.24912 226.085 3.18168 226.085 3.00654C226.085 2.79825 226.588 2.76396 229.645 2.76396C232.702 2.76396 233.205 2.79825 233.205 3.00654C233.205 3.18055 233.383 3.24912 233.835 3.24912C234.246 3.24912 234.498 3.33354 234.559 3.4917C234.61 3.62512 234.836 3.73428 235.061 3.73428C235.287 3.73428 235.471 3.80705 235.471 3.896C235.471 3.98495 235.653 4.05772 235.876 4.05772C236.127 4.05772 236.28 4.14941 236.28 4.3003C236.28 4.43372 236.393 4.54288 236.53 4.54288C236.783 4.54288 237.021 4.7046 237.57 5.24733C238.037 5.70872 238.222 5.43218 238.222 4.27556C238.222 3.35489 238.181 3.20788 237.899 3.1343C237.721 3.08772 237.575 2.98536 237.575 2.90676C237.575 2.82833 237.427 2.76396 237.246 2.76396C237.065 2.76396 236.875 2.6548 236.824 2.52138C236.773 2.38796 236.557 2.2788 236.344 2.2788C236.107 2.2788 235.957 2.1842 235.957 2.03622C235.957 1.87612 235.796 1.79364 235.484 1.79364C235.225 1.79364 234.985 1.71165 234.952 1.61139C234.918 1.51112 234.512 1.39274 234.048 1.34827C233.584 1.30379 233.205 1.20385 233.205 1.12623C233.205 1.0486 231.603 0.985045 229.645 0.985045C227.379 0.985045 226.085 1.04391 226.085 1.14676ZM255.539 2.76396H260.879V25.5664H261.513C262.768 25.5664 262.659 26.6603 262.659 14.067V2.76396H268V2.19794C268 1.8475 267.877 1.50869 267.676 1.30848C267.364 0.99685 267.137 0.985045 261.446 0.985045H255.539V2.76396ZM43.244 2.94622C43.2775 3.04649 43.684 3.16486 44.1475 3.20934C44.7147 3.26384 44.9903 3.36281 44.9903 3.51224C44.9903 3.63434 45.1048 3.73428 45.2446 3.73428C45.3846 3.73428 45.6005 3.82533 45.7246 3.93643C46.2601 4.41641 46.4431 4.54288 46.6019 4.54288C46.6946 4.54288 46.7705 4.7612 46.7705 5.02804C46.7705 5.35148 46.8514 5.5132 47.0133 5.5132C47.2156 5.5132 47.256 5.83664 47.256 7.45383C47.256 9.07103 47.2156 9.39447 47.0133 9.39447C46.8798 9.39447 46.7705 9.50363 46.7705 9.63705C46.7705 9.77047 46.7056 9.87963 46.6262 9.87963C46.5469 9.87963 46.4365 10.0604 46.381 10.2815C46.3187 10.5294 46.1261 10.7219 45.878 10.7841C45.6568 10.8396 45.4758 10.9499 45.4758 11.0291C45.4758 11.1085 45.3666 11.1734 45.2331 11.1734C45.0996 11.1734 44.9903 11.2825 44.9903 11.416C44.9903 11.6238 44.5139 11.6585 41.6727 11.6585H38.3551V2.76396H40.7692C42.4159 2.76396 43.2025 2.82186 43.244 2.94622ZM6.1093 41.5162C5.95345 41.5625 5.82609 41.6679 5.82609 41.7502C5.82609 41.8327 5.53252 41.9001 5.17373 41.9001C4.74308 41.9001 4.48965 41.9826 4.42815 42.1427C4.37685 42.2761 4.16063 42.3853 3.94766 42.3853C3.71138 42.3853 3.56039 42.4799 3.56039 42.6279C3.56039 42.7613 3.4819 42.8705 3.38609 42.8705C3.15968 42.8705 2.2657 43.7638 2.2657 43.99C2.2657 44.0858 2.15646 44.1642 2.02295 44.1642C1.87487 44.1642 1.78019 44.3151 1.78019 44.5512C1.78019 44.764 1.67095 44.9801 1.53744 45.0314C1.36622 45.097 1.29469 45.364 1.29469 45.9381C1.29469 46.3856 1.22186 46.7517 1.13285 46.7517C1.04384 46.7517 0.971014 47.0792 0.971014 47.4795C0.971014 47.8797 1.04384 48.2072 1.13285 48.2072C1.22186 48.2072 1.29469 48.5006 1.29469 48.8591C1.29469 49.2894 1.37722 49.5427 1.53744 49.6041C1.67095 49.6554 1.78019 49.8715 1.78019 50.0843C1.78019 50.3204 1.87487 50.4713 2.02295 50.4713C2.15646 50.4713 2.2657 50.5804 2.2657 50.7139C2.2657 50.8473 2.33853 50.9564 2.42754 50.9564C2.51655 50.9564 2.58937 51.0656 2.58937 51.199C2.58937 51.3324 2.69861 51.4416 2.83213 51.4416C2.96564 51.4416 3.07488 51.5144 3.07488 51.6033C3.07488 51.6923 3.18412 51.765 3.31763 51.765C3.45115 51.765 3.56039 51.8742 3.56039 52.0076C3.56039 52.1585 3.71316 52.2502 3.96498 52.2502C4.21679 52.2502 4.36957 52.3419 4.36957 52.4928C4.36957 52.6275 4.51344 52.7354 4.69324 52.7354C4.87126 52.7354 5.01691 52.8067 5.01691 52.894C5.01691 52.9812 5.19897 53.0983 5.4215 53.154C5.64402 53.2098 5.82609 53.3205 5.82609 53.3997C5.82609 53.4791 6.11739 53.544 6.47343 53.544C6.94097 53.544 7.12077 53.6114 7.12077 53.7865C7.12077 53.9345 7.27177 54.0291 7.50805 54.0291C7.72102 54.0291 7.93723 54.1383 7.98854 54.2717C8.03968 54.4051 8.26592 54.5143 8.49136 54.5143C8.71664 54.5143 8.90097 54.5791 8.90097 54.6585C8.90097 54.7378 9.08303 54.8484 9.30556 54.9042C9.52808 54.96 9.71014 55.0771 9.71014 55.1642C9.71014 55.2516 9.78637 55.3229 9.87975 55.3229C9.97297 55.3229 10.218 55.5048 10.4242 55.7272C10.6305 55.9495 10.8818 56.1315 10.983 56.1315C11.084 56.1315 11.1667 56.2076 11.1667 56.301C11.1667 56.3941 11.3487 56.6389 11.5713 56.845C11.8056 57.062 11.9758 57.399 11.9758 57.646C11.9758 57.917 12.0642 58.0721 12.2186 58.0721C12.4196 58.0721 12.4614 58.3776 12.4614 59.851C12.4614 61.3245 12.4196 61.6299 12.2186 61.6299C12.0676 61.6299 11.9758 61.7826 11.9758 62.0342C11.9758 62.2566 11.9109 62.4385 11.8315 62.4385C11.7522 62.4385 11.6415 62.6205 11.5857 62.8428C11.5298 63.0652 11.4127 63.2471 11.3254 63.2471C11.238 63.2471 11.1667 63.3563 11.1667 63.4897C11.1667 63.6414 11.0132 63.7323 10.7571 63.7323C10.5316 63.7323 10.3054 63.8415 10.2542 63.9749C10.2029 64.1083 9.99287 64.2175 9.78718 64.2175C9.58165 64.2175 9.38324 64.3083 9.34618 64.4196C9.29876 64.5622 8.70676 64.6374 7.3344 64.6751C5.72801 64.7193 5.34527 64.6842 5.13392 64.473C4.99328 64.3324 4.69097 64.2175 4.46197 64.2175C4.19996 64.2175 4.04589 64.1275 4.04589 63.9749C4.04589 63.824 3.89312 63.7323 3.6413 63.7323C3.38949 63.7323 3.23671 63.6406 3.23671 63.4897C3.23671 63.3563 3.13541 63.2471 3.01144 63.2471C2.88764 63.2471 2.74053 63.0652 2.68469 62.8428C2.62886 62.6205 2.51169 62.4385 2.42446 62.4385C2.33707 62.4385 2.2657 62.3606 2.2657 62.2653C2.2657 62.1699 2.15646 61.9828 2.02295 61.8494C1.88943 61.716 1.78019 61.3937 1.78019 61.1333C1.78019 60.6669 1.76644 60.6596 0.890097 60.6596H0V61.5491C0 62.2319 0.0563188 62.4385 0.242754 62.4385C0.393746 62.4385 0.485507 62.5912 0.485507 62.8428C0.485507 63.0652 0.558333 63.2471 0.647343 63.2471C0.736353 63.2471 0.809179 63.3401 0.809179 63.4538C0.809179 63.6857 1.37399 64.2175 1.62014 64.2175C1.70818 64.2175 1.78019 64.3266 1.78019 64.46C1.78019 64.5935 1.88943 64.7026 2.02295 64.7026C2.15646 64.7026 2.2657 64.8118 2.2657 64.9452C2.2657 65.0786 2.37494 65.1878 2.50845 65.1878C2.64197 65.1878 2.75121 65.2591 2.75121 65.3464C2.75121 65.4336 2.93327 65.5507 3.1558 65.6065C3.37832 65.6623 3.56039 65.7729 3.56039 65.8521C3.56039 65.9315 3.84392 65.9964 4.19041 65.9964C4.60115 65.9964 4.85281 66.0808 4.91366 66.239C4.98988 66.4375 5.39172 66.4815 7.12725 66.4815C8.79642 66.4815 9.29941 66.4299 9.49053 66.239C9.62405 66.1055 9.94659 65.9964 10.2071 65.9964C10.4679 65.9964 10.6812 65.9294 10.6812 65.8474C10.6812 65.7656 10.8996 65.6506 11.1667 65.5921C11.4337 65.5335 11.6522 65.4185 11.6522 65.3367C11.6522 65.2547 11.7614 65.1878 11.8949 65.1878C12.0284 65.1878 12.1377 65.0786 12.1377 64.9452C12.1377 64.8118 12.2469 64.7026 12.3804 64.7026C12.5139 64.7026 12.6232 64.6247 12.6232 64.5294C12.6232 64.3054 13.0349 63.894 13.259 63.894C13.3544 63.894 13.4324 63.6757 13.4324 63.4089C13.4324 63.0854 13.5133 62.9237 13.6751 62.9237C13.8496 62.9237 13.9179 62.7455 13.9179 62.2902C13.9179 61.9303 14.0045 61.628 14.1184 61.5902C14.2606 61.5428 14.3189 61.0372 14.3189 59.851C14.3189 58.6648 14.2606 58.1593 14.1184 58.1119C14.0041 58.0739 13.9179 57.7707 13.9179 57.4066C13.9179 56.9883 13.8342 56.7361 13.6751 56.6752C13.5416 56.6239 13.4324 56.4079 13.4324 56.195C13.4324 55.9589 13.3377 55.808 13.1896 55.808C13.0561 55.808 12.9469 55.7294 12.9469 55.6335C12.9469 55.3706 11.6109 54.0891 11.2013 53.9593C11.0042 53.8967 10.843 53.7778 10.843 53.6948C10.843 53.6119 10.7415 53.544 10.6176 53.544C10.4936 53.544 10.3502 53.4348 10.2989 53.3014C10.2478 53.168 10.0215 53.0588 9.79608 53.0588C9.53989 53.0588 9.38647 52.9679 9.38647 52.8162C9.38647 52.6653 9.2337 52.5736 8.98188 52.5736C8.75936 52.5736 8.57729 52.5067 8.57729 52.4247C8.57729 52.3429 8.35882 52.2279 8.09179 52.1693C7.82476 52.1108 7.60628 51.9958 7.60628 51.914C7.60628 51.832 7.3878 51.765 7.12077 51.765C6.7971 51.765 6.63527 51.6842 6.63527 51.5225C6.63527 51.3745 6.48427 51.2799 6.24799 51.2799C6.03502 51.2799 5.8188 51.1707 5.7675 51.0373C5.71636 50.9039 5.52653 50.7947 5.3456 50.7947C5.16483 50.7947 5.01691 50.7219 5.01691 50.633C5.01691 50.5441 4.9054 50.4713 4.76914 50.4713C4.63271 50.4713 4.47929 50.3621 4.42815 50.2287C4.37685 50.0953 4.23961 49.9861 4.12309 49.9861C4.00657 49.9861 3.81447 49.7678 3.69633 49.501C3.57803 49.2341 3.42639 49.0158 3.35906 49.0158C3.29174 49.0158 3.23671 48.8339 3.23671 48.6115C3.23671 48.3599 3.14495 48.2072 2.99396 48.2072C2.81012 48.2072 2.75121 48.0083 2.75121 47.3871C2.75121 46.8737 2.842 46.4762 2.99396 46.3243C3.12748 46.1909 3.23671 45.9413 3.23671 45.7699C3.23671 45.5983 3.30954 45.458 3.39855 45.458C3.48756 45.458 3.56039 45.276 3.56039 45.0537C3.56039 44.802 3.65215 44.6494 3.80314 44.6494C3.93665 44.6494 4.04589 44.5402 4.04589 44.4068C4.04589 44.2559 4.19867 44.1642 4.45048 44.1642C4.67301 44.1642 4.85507 44.0973 4.85507 44.0153C4.85507 43.9334 5.07355 43.8185 5.34058 43.7599C5.60761 43.7014 5.82609 43.5864 5.82609 43.5046C5.82609 43.4226 6.62717 43.3556 7.60628 43.3556C9.08077 43.3556 9.38647 43.3973 9.38647 43.5982C9.38647 43.7491 9.53925 43.8408 9.79106 43.8408C10.0136 43.8408 10.1957 43.9056 10.1957 43.985C10.1957 44.0643 10.3865 44.177 10.6198 44.2355C11.0772 44.3502 11.4903 44.6892 11.4903 44.9497C11.4903 45.2675 12.0069 45.6197 12.4728 45.6197C12.7863 45.6197 12.9469 45.5375 12.9469 45.3771C12.9469 45.2437 13.0561 45.1345 13.1896 45.1345C13.3514 45.1345 13.4324 44.9728 13.4324 44.6494C13.4324 44.3259 13.3514 44.1642 13.1896 44.1642C13.0561 44.1642 12.9469 44.0858 12.9469 43.99C12.9469 43.7638 12.0529 42.8705 11.8265 42.8705C11.7307 42.8705 11.6522 42.7613 11.6522 42.6279C11.6522 42.4662 11.4903 42.3853 11.1667 42.3853C10.843 42.3853 10.6812 42.3044 10.6812 42.1427C10.6812 41.9684 10.5028 41.9001 10.0472 41.9001C9.69865 41.9001 9.38647 41.8191 9.35346 41.7201C9.29034 41.5311 6.62329 41.3636 6.1093 41.5162ZM40.2489 41.648C40.1045 41.7923 39.7198 41.9001 39.3492 41.9001C38.9896 41.9001 38.5939 42.008 38.4591 42.1427C38.3256 42.2761 38.0291 42.3853 37.8001 42.3853C37.5381 42.3853 37.3841 42.4752 37.3841 42.6279C37.3841 42.7788 37.2313 42.8705 36.9795 42.8705C36.7569 42.8705 36.5749 42.9432 36.5749 43.0322C36.5749 43.1211 36.4656 43.1939 36.3321 43.1939C36.1986 43.1939 36.0894 43.3031 36.0894 43.4365C36.0894 43.5874 35.9366 43.6791 35.6848 43.6791C35.433 43.6791 35.2802 43.7707 35.2802 43.9216C35.2802 44.055 35.171 44.1642 35.0374 44.1642C34.9039 44.1642 34.7947 44.2734 34.7947 44.4068C34.7947 44.5402 34.7162 44.6494 34.6204 44.6494C34.394 44.6494 33.5 45.5427 33.5 45.769C33.5 45.8647 33.3908 45.9431 33.2572 45.9431C33.1063 45.9431 33.0145 46.0958 33.0145 46.3474C33.0145 46.5991 32.9227 46.7517 32.7717 46.7517C32.6382 46.7517 32.529 46.8609 32.529 46.9943C32.529 47.1277 32.462 47.2369 32.3799 47.2369C32.298 47.2369 32.183 47.4552 32.1244 47.722C32.0658 47.9889 31.9516 48.2072 31.8706 48.2072C31.7899 48.2072 31.6771 48.4983 31.6201 48.8541C31.5631 49.2099 31.4531 49.501 31.3754 49.501C31.2977 49.501 31.2343 49.9012 31.2343 50.3904C31.2343 51.0732 31.178 51.2799 30.9915 51.2799C30.7855 51.2799 30.7488 51.6842 30.7488 53.9483C30.7488 56.2123 30.7855 56.6166 30.9915 56.6166C31.1804 56.6166 31.2343 56.8322 31.2343 57.5869C31.2343 58.1206 31.299 58.5573 31.3782 58.5573C31.4571 58.5573 31.5698 58.812 31.6282 59.1233C31.6866 59.4346 31.804 59.6893 31.8889 59.6893C31.9739 59.6893 32.0435 59.8297 32.0435 60.0013C32.0435 60.1727 32.1527 60.4222 32.2862 60.5556C32.4197 60.6891 32.529 60.8762 32.529 60.9716C32.529 61.0668 32.6382 61.1448 32.7717 61.1448C32.9085 61.1448 33.0145 61.2894 33.0145 61.476C33.0145 61.6581 33.1966 61.9757 33.4191 62.1817C33.6416 62.3879 33.8237 62.6391 33.8237 62.7401C33.8237 62.8411 33.9329 62.9237 34.0664 62.9237C34.1999 62.9237 34.3092 63.0329 34.3092 63.1663C34.3092 63.2997 34.3919 63.4089 34.4929 63.4089C34.594 63.4089 34.8376 63.5822 35.034 63.7942C35.2307 64.0063 35.5485 64.2294 35.7405 64.2902C35.9324 64.3512 36.0894 64.4688 36.0894 64.5517C36.0894 64.6347 36.1986 64.7026 36.3321 64.7026C36.4656 64.7026 36.5749 64.7739 36.5749 64.8613C36.5749 64.9484 36.7744 65.0699 37.0183 65.1312C37.2622 65.1923 37.5587 65.3391 37.6773 65.4577C37.7958 65.5761 38.0696 65.6729 38.2856 65.6729C38.5019 65.6729 38.6787 65.7457 38.6787 65.8347C38.6787 65.9236 38.9976 65.9964 39.3873 65.9964C39.8195 65.9964 40.1741 66.091 40.2971 66.239C40.4623 66.4379 41.016 66.4815 43.3783 66.4815C45.3703 66.4815 46.2768 66.4254 46.3188 66.2993C46.3523 66.199 46.7589 66.0806 47.2224 66.0362C47.686 65.9917 48.0652 65.8917 48.0652 65.8141C48.0652 65.7365 48.2057 65.6729 48.3774 65.6729C48.5489 65.6729 48.7987 65.5638 48.9322 65.4304C49.0657 65.2969 49.328 65.1878 49.5153 65.1878C49.7025 65.1878 49.8949 65.0852 49.9432 64.9597C49.9912 64.8344 50.2074 64.6874 50.4235 64.6332C50.6397 64.5791 50.8164 64.4633 50.8164 64.3761C50.8164 64.2888 50.9257 64.2175 51.0592 64.2175C51.1927 64.2175 51.3019 64.1447 51.3019 64.0557C51.3019 63.9668 51.4112 63.894 51.5447 63.894C51.6782 63.894 51.7874 63.7849 51.7874 63.6514C51.7874 63.518 51.8967 63.4089 52.0302 63.4089C52.1637 63.4089 52.2729 63.2997 52.2729 63.1663C52.2729 63.0329 52.3822 62.9237 52.5157 62.9237C52.6492 62.9237 52.7585 62.8457 52.7585 62.7505C52.7585 62.5265 53.1702 62.1151 53.3943 62.1151C53.4896 62.1151 53.5676 62.0059 53.5676 61.8725C53.5676 61.7391 53.6346 61.6299 53.7167 61.6299C53.7986 61.6299 53.9136 61.4116 53.9722 61.1448C54.0308 60.8779 54.1446 60.6596 54.2247 60.6596C54.305 60.6596 54.4163 60.4777 54.4721 60.2553C54.528 60.033 54.6387 59.851 54.718 59.851C54.7974 59.851 54.8623 59.6327 54.8623 59.3659C54.8623 59.0424 54.9432 58.8807 55.1051 58.8807C55.2795 58.8807 55.3478 58.7025 55.3478 58.2473C55.3478 57.8842 55.4341 57.5852 55.5501 57.5467C55.7016 57.4964 55.7649 56.5992 55.8018 53.9754C55.8453 50.8921 55.8209 50.4713 55.5995 50.4713C55.4092 50.4713 55.3478 50.294 55.3478 49.7435C55.3478 49.2045 55.2849 49.0158 55.1051 49.0158C54.9355 49.0158 54.8623 48.845 54.8623 48.4498C54.8623 48.1385 54.7895 47.8838 54.7005 47.8838C54.6115 47.8838 54.5386 47.7723 54.5386 47.6362C54.5386 47.4998 54.4294 47.3465 54.2959 47.2954C54.1624 47.2442 54.0531 47.0281 54.0531 46.8153C54.0531 46.5792 53.9585 46.4283 53.8104 46.4283C53.6769 46.4283 53.5676 46.3191 53.5676 46.1857C53.5676 46.0523 53.4584 45.9431 53.3249 45.9431C53.1914 45.9431 53.0821 45.8645 53.0821 45.7686C53.0821 45.5414 51.7039 44.1642 51.4766 44.1642C51.3806 44.1642 51.3019 44.055 51.3019 43.9216C51.3019 43.7882 51.1927 43.6791 51.0592 43.6791C50.9257 43.6791 50.8164 43.6077 50.8164 43.5204C50.8164 43.4332 50.6344 43.3162 50.4118 43.2604C50.1893 43.2046 50.0072 43.1019 50.0072 43.0322C50.0072 42.9625 49.8252 42.8598 49.6027 42.804C49.3801 42.7482 49.1981 42.6311 49.1981 42.5439C49.1981 42.4566 48.9874 42.3853 48.7299 42.3853C48.463 42.3853 48.2215 42.281 48.1685 42.1427C48.1075 41.9837 47.8552 41.9001 47.4365 41.9001C47.069 41.9001 46.7689 41.8143 46.7302 41.698C46.6804 41.5481 45.8667 41.4829 43.5822 41.4459C40.9618 41.4033 40.4635 41.4334 40.2489 41.648ZM184.768 41.648C184.622 41.7937 184.238 41.9001 183.857 41.9001C183.379 41.9001 183.198 41.9668 183.198 42.1427C183.198 42.3179 183.018 42.3853 182.551 42.3853C182.083 42.3853 181.903 42.4527 181.903 42.6279C181.903 42.7788 181.751 42.8705 181.499 42.8705C181.276 42.8705 181.094 42.9432 181.094 43.0322C181.094 43.1211 180.985 43.1939 180.851 43.1939C180.718 43.1939 180.609 43.2951 180.609 43.419C180.609 43.5427 180.427 43.6897 180.204 43.7455C179.982 43.8013 179.8 43.9184 179.8 44.0056C179.8 44.0929 179.69 44.1642 179.557 44.1642C179.423 44.1642 179.314 44.2734 179.314 44.4068C179.314 44.5402 179.205 44.6494 179.071 44.6494C178.938 44.6494 178.828 44.7585 178.828 44.892C178.828 45.0254 178.719 45.1345 178.586 45.1345C178.452 45.1345 178.343 45.2104 178.343 45.303C178.343 45.4858 178.102 45.8116 177.655 46.2331C177.499 46.3799 177.372 46.5931 177.372 46.7068C177.372 46.8205 177.299 46.9134 177.21 46.9134C177.121 46.9134 177.048 47.0954 177.048 47.3177C177.048 47.5694 176.957 47.722 176.806 47.722C176.644 47.722 176.563 47.8838 176.563 48.2072C176.563 48.5306 176.482 48.6924 176.32 48.6924C176.146 48.6924 176.077 48.8706 176.077 49.3258C176.077 49.6742 175.992 49.9876 175.888 50.0223C175.781 50.0578 175.666 50.5248 175.625 51.0869C175.585 51.6378 175.489 52.0885 175.411 52.0885C175.332 52.0885 175.268 52.9254 175.268 53.9483C175.268 54.9711 175.331 55.808 175.408 55.808C175.485 55.808 175.587 56.2969 175.635 56.8943C175.683 57.4919 175.802 58.0074 175.9 58.0399C175.997 58.0724 176.077 58.3499 176.077 58.6567C176.077 59.0031 176.169 59.2496 176.32 59.3073C176.454 59.3586 176.563 59.5769 176.563 59.7925C176.563 60.0082 176.672 60.2265 176.806 60.2776C176.939 60.3289 177.048 60.5184 177.048 60.6988C177.048 60.8792 177.23 61.1954 177.453 61.4016C177.675 61.6076 177.857 61.8525 177.857 61.9456C177.857 62.0389 177.967 62.1151 178.1 62.1151C178.234 62.1151 178.343 62.221 178.343 62.3504C178.343 62.6551 179.097 63.4089 179.402 63.4089C179.532 63.4089 179.638 63.518 179.638 63.6514C179.638 63.7849 179.747 63.894 179.88 63.894C180.014 63.894 180.123 63.9668 180.123 64.0557C180.123 64.1447 180.232 64.2175 180.366 64.2175C180.499 64.2175 180.609 64.3266 180.609 64.46C180.609 64.6109 180.761 64.7026 181.013 64.7026C181.265 64.7026 181.418 64.7943 181.418 64.9452C181.418 65.1069 181.58 65.1878 181.903 65.1878C182.227 65.1878 182.389 65.2686 182.389 65.4304C182.389 65.5812 182.542 65.6729 182.793 65.6729C183.016 65.6729 183.198 65.7457 183.198 65.8347C183.198 65.9236 183.521 65.9964 183.915 65.9964C184.336 65.9964 184.731 66.0963 184.874 66.239C185.226 66.59 190.572 66.5857 191.038 66.2338C191.21 66.1033 191.629 65.9964 191.968 65.9964C192.307 65.9964 192.585 65.9236 192.585 65.8347C192.585 65.7457 192.803 65.6729 193.07 65.6729C193.394 65.6729 193.556 65.5921 193.556 65.4304C193.556 65.2686 193.717 65.1878 194.041 65.1878C194.365 65.1878 194.527 65.1069 194.527 64.9452C194.527 64.7943 194.679 64.7026 194.931 64.7026C195.183 64.7026 195.336 64.6109 195.336 64.46C195.336 64.3266 195.445 64.2175 195.578 64.2175C195.712 64.2175 195.821 64.1447 195.821 64.0557C195.821 63.9668 195.93 63.894 196.064 63.894C196.198 63.894 196.307 63.7928 196.307 63.6689C196.307 63.5452 196.489 63.3982 196.711 63.3424C196.934 63.2866 197.116 63.1411 197.116 63.0188C197.116 62.8965 197.225 62.7547 197.359 62.7034C197.492 62.6523 197.601 62.499 197.601 62.3627C197.601 62.2265 197.711 62.1151 197.844 62.1151C197.978 62.1151 198.087 62.0389 198.087 61.9456C198.087 61.8525 198.269 61.6076 198.492 61.4016C198.714 61.1954 198.896 60.8792 198.896 60.6988C198.896 60.5184 199.005 60.3289 199.139 60.2776C199.272 60.2265 199.382 60.0005 199.382 59.7752C199.382 59.5192 199.473 59.3659 199.624 59.3659C199.799 59.3659 199.867 59.1877 199.867 58.7324C199.867 58.3841 199.947 58.0724 200.045 58.0399C200.142 58.0074 200.262 57.4919 200.31 56.8943C200.358 56.2969 200.46 55.808 200.537 55.808C200.614 55.808 200.676 54.8984 200.676 53.7865C200.676 52.6747 200.613 51.765 200.535 51.765C200.457 51.765 200.357 51.3861 200.313 50.9228C200.268 50.4596 200.15 50.0534 200.05 50.0199C199.949 49.9864 199.867 49.6742 199.867 49.3258C199.867 48.8706 199.799 48.6924 199.624 48.6924C199.463 48.6924 199.382 48.5306 199.382 48.2072C199.382 47.8838 199.301 47.722 199.139 47.722C198.986 47.722 198.896 47.5679 198.896 47.3053C198.896 47.0718 198.7 46.683 198.451 46.421C197.763 45.6983 197.601 45.4855 197.601 45.303C197.601 45.2104 197.492 45.1345 197.359 45.1345C197.225 45.1345 197.116 45.0254 197.116 44.892C197.116 44.7585 197.007 44.6494 196.873 44.6494C196.74 44.6494 196.63 44.5402 196.63 44.4068C196.63 44.2734 196.521 44.1642 196.388 44.1642C196.254 44.1642 196.145 44.0929 196.145 44.0056C196.145 43.9184 195.963 43.8013 195.74 43.7455C195.518 43.6897 195.336 43.5427 195.336 43.419C195.336 43.2951 195.227 43.1939 195.093 43.1939C194.959 43.1939 194.85 43.1211 194.85 43.0322C194.85 42.9432 194.676 42.8705 194.463 42.8705C194.25 42.8705 194.034 42.7613 193.982 42.6279C193.924 42.4757 193.677 42.3853 193.318 42.3853C192.918 42.3853 192.746 42.3125 192.746 42.1427C192.746 41.9637 192.559 41.9001 192.032 41.9001C191.603 41.9001 191.29 41.8191 191.25 41.698C191.2 41.5481 190.386 41.4829 188.102 41.4459C185.481 41.4033 184.983 41.4334 184.768 41.648ZM259.625 41.5199C259.425 41.5634 259.261 41.6669 259.261 41.7497C259.261 41.8324 258.97 41.9001 258.614 41.9001C258.146 41.9001 257.966 41.9676 257.966 42.1427C257.966 42.2936 257.813 42.3853 257.562 42.3853C257.339 42.3853 257.157 42.4581 257.157 42.547C257.157 42.636 257.072 42.7087 256.967 42.7087C256.698 42.7087 255.377 44.1217 255.377 44.4097C255.377 44.5415 255.311 44.6494 255.23 44.6494C255.15 44.6494 254.968 44.9898 254.826 45.4059C254.548 46.2208 254.46 49.0158 254.712 49.0158C254.791 49.0158 254.906 49.2152 254.968 49.4589C255.029 49.7026 255.128 49.9391 255.187 49.9845C255.247 50.0298 255.435 50.34 255.605 50.6734C255.774 51.0071 256.011 51.2799 256.13 51.2799C256.25 51.2799 256.348 51.389 256.348 51.5225C256.348 51.6733 256.501 51.765 256.752 51.765C257.004 51.765 257.157 51.8567 257.157 52.0076C257.157 52.141 257.266 52.2502 257.4 52.2502C257.533 52.2502 257.643 52.3172 257.643 52.3991C257.643 52.481 257.861 52.596 258.128 52.6545C258.395 52.713 258.614 52.828 258.614 52.9099C258.614 52.9918 258.75 53.0588 258.917 53.0588C259.084 53.0588 259.312 53.168 259.423 53.3014C259.534 53.4348 259.79 53.544 259.992 53.544C260.194 53.544 260.401 53.6531 260.452 53.7865C260.503 53.92 260.73 54.0291 260.955 54.0291C261.18 54.0291 261.365 54.1004 261.365 54.1878C261.365 54.2749 261.547 54.392 261.769 54.4478C261.992 54.5036 262.174 54.6142 262.174 54.6935C262.174 54.7729 262.358 54.8377 262.584 54.8377C262.809 54.8377 263.035 54.9469 263.086 55.0803C263.138 55.2137 263.354 55.3229 263.567 55.3229C263.78 55.3229 263.954 55.4013 263.954 55.4972C263.954 55.5933 264.245 55.9599 264.601 56.3121C264.957 56.6643 265.249 57.0612 265.249 57.194C265.249 57.3267 265.358 57.4773 265.492 57.5284C265.65 57.5892 265.734 57.8407 265.734 58.2511C265.734 58.5974 265.807 58.8807 265.896 58.8807C265.985 58.8807 266.058 59.281 266.058 59.7702C266.058 60.2594 265.985 60.6596 265.896 60.6596C265.807 60.6596 265.734 60.9101 265.734 61.2164C265.734 61.8345 265.279 62.7157 264.771 63.0807C264.589 63.2116 264.44 63.4116 264.44 63.5255C264.44 63.6391 264.294 63.7323 264.116 63.7323C263.936 63.7323 263.792 63.8402 263.792 63.9749C263.792 64.1444 263.621 64.2175 263.226 64.2175C262.914 64.2175 262.659 64.2902 262.659 64.3792C262.659 64.4783 261.877 64.5409 260.636 64.5409C259.396 64.5409 258.614 64.4783 258.614 64.3792C258.614 64.2902 258.366 64.2175 258.064 64.2175C257.726 64.2175 257.48 64.1246 257.422 63.9749C257.371 63.8415 257.218 63.7323 257.081 63.7323C256.945 63.7323 256.833 63.6757 256.833 63.6066C256.833 63.409 255.9 62.4385 255.71 62.4385C255.616 62.4385 255.539 62.2497 255.539 62.0187C255.539 61.7879 255.412 61.3844 255.257 61.1221C254.997 60.6821 254.913 60.6491 254.164 60.6929C253.414 60.7369 253.35 60.7736 253.303 61.1852C253.275 61.4297 253.329 61.6299 253.424 61.6299C253.519 61.6299 253.597 61.7824 253.597 61.9689C253.597 62.4339 254.168 63.4241 254.851 64.1431C254.962 64.2603 255.053 64.434 255.053 64.5294C255.053 64.6247 255.155 64.7026 255.279 64.7026C255.403 64.7026 255.546 64.8118 255.597 64.9452C255.648 65.0786 255.83 65.1878 256.002 65.1878C256.173 65.1878 256.355 65.2969 256.406 65.4304C256.458 65.5638 256.647 65.6729 256.828 65.6729C257.009 65.6729 257.157 65.7457 257.157 65.8347C257.157 65.9236 257.362 65.9964 257.612 65.9964C257.862 65.9964 258.207 66.1033 258.38 66.2338C258.766 66.5252 262.595 66.5923 262.69 66.3093C262.721 66.2147 263.055 66.096 263.432 66.0455C263.808 65.9951 264.116 65.8906 264.116 65.8133C264.116 65.7362 264.298 65.6729 264.521 65.6729C264.772 65.6729 264.925 65.5812 264.925 65.4304C264.925 65.2795 265.078 65.1878 265.33 65.1878C265.582 65.1878 265.734 65.0961 265.734 64.9452C265.734 64.8118 265.844 64.7026 265.977 64.7026C266.111 64.7026 266.22 64.5935 266.22 64.46C266.22 64.3266 266.329 64.2175 266.463 64.2175C266.614 64.2175 266.705 64.0648 266.705 63.8132C266.705 63.5615 266.797 63.4089 266.948 63.4089C267.108 63.4089 267.191 63.2486 267.191 62.9371C267.191 62.6777 267.279 62.4361 267.386 62.4004C267.832 62.2518 267.83 57.3966 267.384 57.121C267.292 57.0643 267.166 56.8183 267.105 56.5746C267.044 56.3309 266.929 56.1315 266.85 56.1315C266.77 56.1315 266.705 56.0223 266.705 55.8889C266.705 55.7555 266.596 55.6463 266.463 55.6463C266.329 55.6463 266.22 55.5404 266.22 55.411C266.22 55.1063 265.465 54.3526 265.161 54.3526C265.031 54.3526 264.925 54.2434 264.925 54.11C264.925 53.9766 264.816 53.8674 264.682 53.8674C264.549 53.8674 264.44 53.8025 264.44 53.7231C264.44 53.6439 264.258 53.5333 264.035 53.4775C263.812 53.4217 263.63 53.3046 263.63 53.2174C263.63 53.1301 263.485 53.0588 263.307 53.0588C263.129 53.0588 262.983 52.9909 262.983 52.9079C262.983 52.8249 262.823 52.7062 262.627 52.644C262.43 52.5819 262.17 52.4315 262.048 52.3097C261.927 52.1881 261.65 52.0885 261.434 52.0885C261.218 52.0885 261.041 52.0157 261.041 51.9268C261.041 51.8378 260.901 51.765 260.729 51.765C260.557 51.765 260.308 51.6559 260.174 51.5225C260.041 51.389 259.744 51.2799 259.515 51.2799C259.253 51.2799 259.099 51.19 259.099 51.0373C259.099 50.9039 258.961 50.7947 258.793 50.7947C258.624 50.7947 258.444 50.6856 258.393 50.5521C258.342 50.4187 258.189 50.3096 258.052 50.3096C257.916 50.3096 257.804 50.2368 257.804 50.1478C257.804 50.0589 257.695 49.9861 257.562 49.9861C257.428 49.9861 257.319 49.877 257.319 49.7435C257.319 49.6101 257.21 49.501 257.076 49.501C256.925 49.501 256.833 49.3483 256.833 49.0967C256.833 48.8743 256.76 48.6924 256.671 48.6924C256.576 48.6924 256.51 48.1263 256.51 47.3177C256.51 46.5091 256.576 45.9431 256.671 45.9431C256.76 45.9431 256.833 45.7612 256.833 45.5388C256.833 45.2872 256.925 45.1345 257.076 45.1345C257.21 45.1345 257.319 45.0254 257.319 44.892C257.319 44.7585 257.428 44.6494 257.562 44.6494C257.695 44.6494 257.804 44.5402 257.804 44.4068C257.804 44.2734 257.914 44.1642 258.047 44.1642C258.181 44.1642 258.29 44.0994 258.29 44.02C258.29 43.9407 258.472 43.8301 258.694 43.7743C258.917 43.7185 259.099 43.6014 259.099 43.5143C259.099 43.4201 259.823 43.3556 260.879 43.3556C261.902 43.3556 262.659 43.4213 262.659 43.5101C262.659 43.595 262.914 43.7122 263.226 43.7706C263.537 43.829 263.792 43.9415 263.792 44.0204C263.792 44.0995 263.883 44.1649 263.995 44.1655C264.106 44.1662 264.486 44.4936 264.839 44.8932C265.5 45.6414 266.007 45.8074 266.411 45.4085C266.528 45.2924 266.752 45.1491 266.908 45.0901C267.255 44.9587 267.275 44.7162 266.948 44.5908C266.815 44.5397 266.705 44.3753 266.705 44.2253C266.705 43.9119 265.464 42.7087 265.141 42.7087C265.022 42.7087 264.925 42.636 264.925 42.547C264.925 42.4581 264.743 42.3853 264.521 42.3853C264.269 42.3853 264.116 42.2936 264.116 42.1427C264.116 41.9637 263.929 41.9001 263.401 41.9001C263.005 41.9001 262.659 41.817 262.624 41.7135C262.559 41.5188 260.3 41.3729 259.625 41.5199ZM72.6643 41.8193C72.6643 41.9527 72.5914 42.0619 72.5024 42.0619C72.3959 42.0619 72.3406 46.1587 72.3406 54.0291V65.9964H80.773L80.6751 64.2983L74.1208 64.2108V53.1495C74.1208 47.0658 74.0766 41.9732 74.0225 41.8325C73.8881 41.4824 72.6643 41.4706 72.6643 41.8193ZM97.5465 41.9136C97.2837 42.2013 97.2633 42.8884 97.2633 51.4416C97.2633 57.4791 97.3191 60.6596 97.4251 60.6596C97.5141 60.6596 97.587 61.0599 97.587 61.5491C97.587 62.2319 97.6433 62.4385 97.8297 62.4385C97.9915 62.4385 98.0725 62.6003 98.0725 62.9237C98.0725 63.2471 98.1534 63.4089 98.3152 63.4089C98.4487 63.4089 98.558 63.518 98.558 63.6514C98.558 63.7849 98.6293 63.894 98.7167 63.894C98.804 63.894 98.9211 64.076 98.977 64.2983C99.0499 64.5886 99.1877 64.7026 99.4655 64.7026C99.7018 64.7026 99.8527 64.7972 99.8527 64.9452C99.8527 65.0786 99.9619 65.1878 100.095 65.1878C100.229 65.1878 100.338 65.2969 100.338 65.4304C100.338 65.5812 100.491 65.6729 100.743 65.6729C100.965 65.6729 101.147 65.7457 101.147 65.8347C101.147 65.9236 101.441 65.9964 101.8 65.9964C102.23 65.9964 102.484 66.0788 102.545 66.239C102.621 66.4356 103 66.4815 104.55 66.4815C105.757 66.4815 106.482 66.4181 106.518 66.3093C106.55 66.2147 106.884 66.096 107.26 66.0455C107.636 65.9951 107.944 65.8906 107.944 65.8133C107.944 65.7362 108.112 65.6729 108.316 65.6729C108.531 65.6729 108.856 65.4706 109.085 65.1946C109.303 64.9316 109.589 64.7133 109.719 64.7094C109.997 64.7015 110.696 63.9364 110.696 63.6398C110.696 63.5276 110.75 63.4116 110.817 63.3819C111.076 63.267 111.505 62.2246 111.505 61.7111C111.505 61.4145 111.596 61.1414 111.707 61.1044C111.865 61.0518 111.919 58.948 111.954 51.4686C111.993 42.9869 111.97 41.9001 111.751 41.9001C111.616 41.9001 111.505 41.8274 111.505 41.7384C111.505 41.4594 110.257 41.546 110.147 41.8325C110.092 41.9732 110.048 46.3761 110.048 51.6166C110.048 56.93 109.986 61.1448 109.907 61.1448C109.83 61.1448 109.719 61.4359 109.662 61.7917C109.606 62.1474 109.487 62.4385 109.399 62.4385C109.311 62.4385 109.239 62.5477 109.239 62.6811C109.239 62.8145 109.156 62.9237 109.055 62.9237C108.954 62.9237 108.703 63.1056 108.497 63.328C108.29 63.5504 107.973 63.7323 107.79 63.7323C107.604 63.7323 107.459 63.8382 107.459 63.9749C107.459 64.1275 107.305 64.2175 107.043 64.2175C106.814 64.2175 106.511 64.3329 106.37 64.4739C106.16 64.6834 105.801 64.7206 104.412 64.6761C103.236 64.6386 102.691 64.5593 102.644 64.4196C102.607 64.3085 102.365 64.2175 102.105 64.2175C101.793 64.2175 101.633 64.135 101.633 63.9749C101.633 63.824 101.48 63.7323 101.228 63.7323C100.976 63.7323 100.824 63.6406 100.824 63.4897C100.824 63.3563 100.746 63.2471 100.65 63.2471C100.426 63.2471 100.014 62.8357 100.014 62.6117C100.014 62.5165 99.9053 62.4385 99.7717 62.4385C99.5965 62.4385 99.529 62.2589 99.529 61.7917C99.529 61.3245 99.4615 61.1448 99.2862 61.1448C99.0731 61.1448 99.0435 59.9498 99.0435 51.3607V41.5767L98.4366 41.5901C98.0584 41.5985 97.7231 41.7205 97.5465 41.9136ZM128.434 41.8325C128.38 41.9732 128.336 42.3735 128.336 42.722V43.3556H133.676V65.9964H135.133V43.3556H140.473V41.5767H134.503C129.208 41.5767 128.521 41.6056 128.434 41.8325ZM157.264 41.9136C157 42.2029 156.981 43.0155 156.981 54.11V65.9964H158.761V41.5767L158.154 41.5901C157.776 41.5985 157.44 41.7205 157.264 41.9136ZM217.184 53.7865V65.9964H218.964V56.2123C218.964 50.8311 219 46.4283 219.045 46.4283C219.193 46.4283 219.773 47.0726 219.773 47.2369C219.773 47.3258 219.882 47.3986 220.016 47.3986C220.167 47.3986 220.258 47.5513 220.258 47.8029C220.258 48.0545 220.35 48.2072 220.501 48.2072C220.635 48.2072 220.744 48.3164 220.744 48.4498C220.744 48.5832 220.853 48.6924 220.987 48.6924C221.12 48.6924 221.229 48.7708 221.229 48.8665C221.229 49.0928 222.123 49.9861 222.35 49.9861C222.446 49.9861 222.524 50.0953 222.524 50.2287C222.524 50.3621 222.597 50.4713 222.686 50.4713C222.775 50.4713 222.848 50.5748 222.848 50.7014C222.848 50.828 223.066 51.1499 223.333 51.4167C223.6 51.6835 223.819 51.9803 223.819 52.076C223.819 52.1718 223.928 52.2502 224.062 52.2502C224.195 52.2502 224.304 52.3286 224.304 52.4244C224.304 52.6411 225.194 53.544 225.407 53.544C225.493 53.544 225.61 53.7259 225.666 53.9483C225.721 54.1706 225.839 54.3526 225.926 54.3526C226.013 54.3526 226.085 54.4287 226.085 54.522C226.085 54.6152 226.267 54.86 226.489 55.0661C226.712 55.2723 226.894 55.5234 226.894 55.6245C226.894 55.7254 227.003 55.808 227.136 55.808C227.27 55.808 227.379 55.9172 227.379 56.0506C227.379 56.184 227.488 56.2932 227.622 56.2932C227.755 56.2932 227.865 56.3711 227.865 56.4664C227.865 56.682 228.273 57.1018 228.483 57.1018C228.569 57.1018 228.685 57.2837 228.74 57.5061C228.796 57.7285 228.913 57.9104 229.001 57.9104C229.088 57.9104 229.159 58.0196 229.159 58.153C229.159 58.2864 229.269 58.3955 229.402 58.3955C229.536 58.3955 229.645 58.5047 229.645 58.6381C229.645 58.7715 229.754 58.8807 229.888 58.8807C230.021 58.8807 230.13 58.9899 230.13 59.1233C230.13 59.2567 230.203 59.3659 230.292 59.3659C230.381 59.3659 230.454 59.4443 230.454 59.54C230.454 59.6358 230.673 59.9451 230.941 60.2273C231.208 60.5095 231.536 60.8558 231.669 60.9967C231.802 61.1375 231.911 61.2995 231.911 61.3568C231.911 61.4142 232.293 61.8538 232.76 62.3336C233.228 62.8136 233.792 63.4389 234.014 63.7232C234.237 64.0075 234.546 64.3805 234.702 64.5522C234.858 64.7238 234.986 64.9371 234.986 65.0261C234.986 65.115 235.095 65.1878 235.228 65.1878C235.362 65.1878 235.471 65.2444 235.471 65.3134C235.471 65.5111 236.405 66.4815 236.595 66.4815C236.78 66.4815 236.851 42.3104 236.667 41.8325C236.558 41.5486 235.471 41.463 235.471 41.7384C235.471 41.8274 235.362 41.9001 235.228 41.9001C235.015 41.9001 234.986 43.1221 234.986 51.9268C234.986 57.4414 234.952 61.9534 234.91 61.9534C234.753 61.9534 233.708 60.8196 233.428 60.3454C233.267 60.0736 233.078 59.851 233.009 59.851C232.939 59.851 232.882 59.7419 232.882 59.6084C232.882 59.475 232.772 59.3659 232.639 59.3659C232.505 59.3659 232.396 59.2567 232.396 59.1233C232.396 58.9899 232.287 58.8807 232.153 58.8807C232.02 58.8807 231.911 58.7715 231.911 58.6381C231.911 58.5047 231.801 58.3955 231.668 58.3955C231.534 58.3955 231.425 58.2864 231.425 58.153C231.425 58.0196 231.352 57.9104 231.263 57.9104C231.174 57.9104 231.101 57.8069 231.101 57.6803C231.101 57.5536 230.883 57.2318 230.616 56.965C230.349 56.6981 230.13 56.4014 230.13 56.3056C230.13 56.2099 230.021 56.1315 229.888 56.1315C229.754 56.1315 229.645 56.0535 229.645 55.9583C229.645 55.7343 229.233 55.3229 229.009 55.3229C228.914 55.3229 228.836 55.2137 228.836 55.0803C228.836 54.9469 228.727 54.8377 228.593 54.8377C228.442 54.8377 228.35 54.6851 228.35 54.4334C228.35 54.1818 228.258 54.0291 228.107 54.0291C227.974 54.0291 227.865 53.92 227.865 53.7865C227.865 53.6531 227.755 53.544 227.622 53.544C227.488 53.544 227.379 53.4348 227.379 53.3014C227.379 53.168 227.306 53.0588 227.217 53.0588C227.128 53.0588 227.056 52.9496 227.056 52.8162C227.056 52.6828 226.946 52.5736 226.813 52.5736C226.679 52.5736 226.57 52.4645 226.57 52.3311C226.57 52.1976 226.492 52.0885 226.397 52.0885C226.15 52.0885 225.823 51.7291 225.69 51.3127C225.628 51.1169 225.509 50.9564 225.426 50.9564C225.343 50.9564 225.275 50.8473 225.275 50.7139C225.275 50.5804 225.166 50.4713 225.033 50.4713C224.899 50.4713 224.79 50.3621 224.79 50.2287C224.79 50.0953 224.681 49.9861 224.547 49.9861C224.414 49.9861 224.304 49.9035 224.304 49.8026C224.304 49.7015 224.122 49.4503 223.9 49.2441C223.677 49.0381 223.495 48.7933 223.495 48.7001C223.495 48.6068 223.386 48.5306 223.252 48.5306C223.116 48.5306 223.01 48.3864 223.01 48.2022C223.01 48.0214 222.9 47.8317 222.767 47.7806C222.633 47.7293 222.524 47.586 222.524 47.4622C222.524 47.3383 222.415 47.2369 222.281 47.2369C222.148 47.2369 222.039 47.1589 222.039 47.0637C222.039 46.8397 221.627 46.4283 221.403 46.4283C221.307 46.4283 221.229 46.3191 221.229 46.1857C221.229 46.0523 221.12 45.9431 220.987 45.9431C220.85 45.9431 220.744 45.7985 220.744 45.6119C220.744 45.4298 220.562 45.1122 220.339 44.9062C220.117 44.7 219.935 44.4488 219.935 44.3478C219.935 44.2469 219.826 44.1642 219.692 44.1642C219.559 44.1642 219.449 44.055 219.449 43.9216C219.449 43.7882 219.34 43.6791 219.207 43.6791C219.073 43.6791 218.964 43.6006 218.964 43.5049C218.964 43.4091 218.764 43.1237 218.519 42.8705C218.274 42.6174 217.928 42.2262 217.75 42.001C217.572 41.7758 217.372 41.5883 217.305 41.5841C217.238 41.5801 217.184 47.0711 217.184 53.7865ZM189.742 43.3265C190.593 43.3637 191.29 43.4575 191.29 43.5346C191.29 43.6119 191.581 43.7217 191.937 43.7787C192.293 43.8356 192.585 43.9456 192.585 44.0232C192.585 44.1008 192.769 44.1642 192.994 44.1642C193.22 44.1642 193.446 44.2734 193.497 44.4068C193.548 44.5402 193.764 44.6494 193.977 44.6494C194.214 44.6494 194.365 44.744 194.365 44.892C194.365 45.0254 194.474 45.1345 194.607 45.1345C194.741 45.1345 194.85 45.2437 194.85 45.3771C194.85 45.5105 194.929 45.6197 195.025 45.6197C195.251 45.6197 196.145 46.513 196.145 46.7393C196.145 46.835 196.254 46.9134 196.388 46.9134C196.521 46.9134 196.63 47.0226 196.63 47.156C196.63 47.2894 196.74 47.3986 196.873 47.3986C197.024 47.3986 197.116 47.5513 197.116 47.8029C197.116 48.0253 197.181 48.2072 197.26 48.2072C197.34 48.2072 197.45 48.3891 197.506 48.6115C197.562 48.8339 197.679 49.0158 197.766 49.0158C197.854 49.0158 197.925 49.2341 197.925 49.501C197.925 49.8244 198.006 49.9861 198.168 49.9861C198.354 49.9861 198.411 50.1928 198.411 50.8756C198.411 51.5584 198.467 51.765 198.653 51.765C198.857 51.765 198.896 52.1155 198.896 53.9483C198.896 55.781 198.857 56.1315 198.653 56.1315C198.468 56.1315 198.411 56.3362 198.411 57.0036C198.411 57.6296 198.342 57.902 198.168 57.9689C198.034 58.02 197.925 58.2461 197.925 58.4714C197.925 58.6965 197.858 58.8807 197.776 58.8807C197.694 58.8807 197.579 59.099 197.521 59.3659C197.462 59.6327 197.347 59.851 197.265 59.851C197.183 59.851 197.116 60.033 197.116 60.2553C197.116 60.507 197.024 60.6596 196.873 60.6596C196.74 60.6596 196.63 60.7688 196.63 60.9022C196.63 61.0356 196.552 61.1448 196.456 61.1448C196.23 61.1448 195.336 62.0381 195.336 62.2644C195.336 62.3601 195.227 62.4385 195.093 62.4385C194.959 62.4385 194.85 62.5099 194.85 62.5972C194.85 62.6844 194.668 62.8014 194.446 62.8572C194.223 62.913 194.041 63.0236 194.041 63.1029C194.041 63.1823 193.93 63.2471 193.793 63.2471C193.657 63.2471 193.503 63.3563 193.452 63.4897C193.401 63.6231 193.19 63.7323 192.983 63.7323C192.777 63.7323 192.498 63.8415 192.365 63.9749C192.231 64.1083 191.88 64.2197 191.585 64.2226C191.289 64.2254 190.906 64.3345 190.733 64.4652C190.489 64.6496 189.873 64.7026 187.972 64.7026C186.072 64.7026 185.456 64.6496 185.211 64.4652C185.039 64.3345 184.655 64.2254 184.36 64.2226C184.064 64.2197 183.713 64.1083 183.58 63.9749C183.446 63.8415 183.196 63.7323 183.025 63.7323C182.853 63.7323 182.713 63.661 182.713 63.5737C182.713 63.4865 182.53 63.3694 182.308 63.3136C182.085 63.2578 181.903 63.1551 181.903 63.0854C181.903 63.0157 181.721 62.913 181.499 62.8572C181.276 62.8014 181.094 62.6844 181.094 62.5972C181.094 62.5099 180.985 62.4385 180.851 62.4385C180.718 62.4385 180.609 62.3601 180.609 62.2644C180.609 62.0381 179.715 61.1448 179.488 61.1448C179.393 61.1448 179.314 61.0356 179.314 60.9022C179.314 60.7688 179.205 60.6596 179.071 60.6596C178.909 60.6596 178.828 60.4979 178.828 60.1745C178.828 59.9076 178.757 59.6893 178.67 59.6893C178.583 59.6893 178.465 59.5074 178.41 59.285C178.354 59.0626 178.243 58.8807 178.164 58.8807C178.084 58.8807 178.019 58.6965 178.019 58.4714C178.019 58.2461 177.91 58.02 177.777 57.9689C177.603 57.9023 177.534 57.6309 177.534 57.0151C177.534 56.4657 177.446 56.0668 177.291 55.912C177.102 55.7231 177.048 55.2368 177.048 53.7172C177.048 52.0898 177.089 51.765 177.291 51.765C177.477 51.765 177.534 51.5584 177.534 50.8756C177.534 50.1928 177.59 49.9861 177.777 49.9861C177.938 49.9861 178.019 49.8244 178.019 49.501C178.019 49.2341 178.091 49.0158 178.178 49.0158C178.265 49.0158 178.382 48.8339 178.438 48.6115C178.494 48.3891 178.605 48.2072 178.684 48.2072C178.764 48.2072 178.828 48.0253 178.828 47.8029C178.828 47.5513 178.92 47.3986 179.071 47.3986C179.205 47.3986 179.314 47.2894 179.314 47.156C179.314 47.0226 179.423 46.9134 179.557 46.9134C179.69 46.9134 179.8 46.835 179.8 46.7393C179.8 46.513 180.693 45.6197 180.92 45.6197C181.016 45.6197 181.094 45.5105 181.094 45.3771C181.094 45.2437 181.203 45.1345 181.337 45.1345C181.47 45.1345 181.58 45.0254 181.58 44.892C181.58 44.7411 181.732 44.6494 181.984 44.6494C182.236 44.6494 182.389 44.5577 182.389 44.4068C182.389 44.2451 182.551 44.1642 182.874 44.1642C183.141 44.1642 183.36 44.1008 183.36 44.0232C183.36 43.9456 183.651 43.8356 184.007 43.7787C184.363 43.7217 184.655 43.6119 184.655 43.5346C184.655 43.4575 185.36 43.3634 186.222 43.3257C187.32 43.2777 187.81 43.1939 187.86 43.0456C187.918 42.8714 187.954 42.8716 188.062 43.0464C188.15 43.1894 188.699 43.2809 189.742 43.3265ZM46.8191 43.6205C46.8903 43.7416 47.1997 43.8408 47.5069 43.8408C47.8139 43.8408 48.0652 43.9135 48.0652 44.0025C48.0652 44.0914 48.2057 44.1642 48.3774 44.1642C48.5489 44.1642 48.7987 44.2734 48.9322 44.4068C49.0657 44.5402 49.2529 44.6494 49.3484 44.6494C49.4437 44.6494 49.5217 44.7585 49.5217 44.892C49.5217 45.0428 49.6745 45.1345 49.9263 45.1345C50.1781 45.1345 50.3309 45.2262 50.3309 45.3771C50.3309 45.5105 50.4402 45.6197 50.5737 45.6197C50.7072 45.6197 50.8164 45.6925 50.8164 45.7814C50.8164 45.8704 50.9257 45.9431 51.0592 45.9431C51.1927 45.9431 51.3019 46.0258 51.3019 46.1267C51.3019 46.2278 51.4754 46.4711 51.6876 46.6675C51.8998 46.864 52.1231 47.1816 52.1839 47.3734C52.2449 47.5652 52.3626 47.722 52.4456 47.722C52.5286 47.722 52.5966 47.8312 52.5966 47.9646C52.5966 48.098 52.7059 48.2072 52.8394 48.2072C53.0012 48.2072 53.0821 48.3689 53.0821 48.6924C53.0821 48.9592 53.1456 49.1775 53.2232 49.1775C53.3009 49.1775 53.411 49.4686 53.4679 49.8244C53.5249 50.1802 53.634 50.4713 53.7105 50.4713C53.7871 50.4713 53.8843 51.0679 53.9266 51.7972C53.9725 52.5921 54.0781 53.1479 54.1901 53.1853C54.4453 53.2703 54.4354 54.7913 54.1791 54.8767C54.0541 54.9183 53.9583 55.3987 53.9187 56.1839C53.8842 56.8666 53.7955 57.4252 53.7217 57.4252C53.6479 57.4252 53.5383 57.7527 53.4783 58.153C53.4183 58.5532 53.3045 58.8807 53.2255 58.8807C53.1467 58.8807 53.0821 59.0626 53.0821 59.285C53.0821 59.5366 52.9904 59.6893 52.8394 59.6893C52.7059 59.6893 52.5966 59.7907 52.5966 59.9146C52.5966 60.0385 52.4874 60.1817 52.3539 60.233C52.2203 60.2841 52.1111 60.441 52.1111 60.5813C52.1111 60.7219 51.929 61.0054 51.7065 61.2114C51.484 61.4176 51.3019 61.6688 51.3019 61.7698C51.3019 61.8707 51.1927 61.9534 51.0592 61.9534C50.9257 61.9534 50.8164 62.0546 50.8164 62.1785C50.8164 62.3022 50.6344 62.4492 50.4118 62.505C50.1893 62.5608 50.0072 62.6779 50.0072 62.7651C50.0072 62.8524 49.898 62.9237 49.7645 62.9237C49.631 62.9237 49.5217 62.9907 49.5217 63.0726C49.5217 63.1545 49.3033 63.2695 49.0362 63.328C48.7692 63.3865 48.5507 63.5015 48.5507 63.5834C48.5507 63.6653 48.3687 63.7323 48.1461 63.7323C47.8943 63.7323 47.7415 63.824 47.7415 63.9749C47.7415 64.1465 47.564 64.2189 47.1347 64.2226C46.801 64.2254 46.3863 64.3345 46.2137 64.4652C45.7471 64.8178 40.6978 64.8132 40.5622 64.46C40.4965 64.2889 40.2293 64.2175 39.6548 64.2175C39.039 64.2175 38.8406 64.1584 38.8406 63.9749C38.8406 63.8269 38.6896 63.7323 38.4533 63.7323C38.2403 63.7323 38.0241 63.6231 37.9728 63.4897C37.9217 63.3563 37.6954 63.2471 37.47 63.2471C37.2447 63.2471 37.0604 63.1744 37.0604 63.0854C37.0604 62.9965 36.9511 62.9237 36.8176 62.9237C36.6841 62.9237 36.5749 62.8145 36.5749 62.6811C36.5749 62.5477 36.4656 62.4385 36.3321 62.4385C36.1986 62.4385 36.0894 62.3606 36.0894 62.2653C36.0894 62.0414 35.6777 61.6299 35.4535 61.6299C35.3582 61.6299 35.2802 61.5208 35.2802 61.3874C35.2802 61.2539 35.171 61.1448 35.0374 61.1448C34.9039 61.1448 34.7947 61.0621 34.7947 60.9612C34.7947 60.8602 34.6126 60.609 34.3901 60.4028C34.1676 60.1968 33.9855 59.8792 33.9855 59.6971C33.9855 59.5104 33.8795 59.3659 33.7428 59.3659C33.5809 59.3659 33.5 59.2041 33.5 58.8807C33.5 58.5573 33.4191 58.3955 33.2572 58.3955C33.0713 58.3955 33.0145 58.1903 33.0145 57.5195C33.0145 56.9917 32.9388 56.6184 32.824 56.5801C32.5589 56.4918 32.5635 51.4031 32.8289 51.3148C32.9342 51.2797 33.0145 50.9163 33.0145 50.4752C33.0145 49.9329 33.088 49.6692 33.2572 49.6041C33.3908 49.553 33.5 49.327 33.5 49.1017C33.5 48.8457 33.591 48.6924 33.7428 48.6924C33.8795 48.6924 33.9855 48.5478 33.9855 48.3612C33.9855 48.1791 34.1676 47.8615 34.3901 47.6554C34.6126 47.4492 34.7947 47.2362 34.7947 47.1821C34.7947 47.003 36.6992 45.1345 36.8817 45.1345C36.98 45.1345 37.0604 45.0254 37.0604 44.892C37.0604 44.744 37.2114 44.6494 37.4477 44.6494C37.6606 44.6494 37.8768 44.5402 37.9282 44.4068C37.9793 44.2734 38.2055 44.1642 38.431 44.1642C38.6562 44.1642 38.8406 44.1008 38.8406 44.0232C38.8406 43.9456 39.1319 43.8356 39.4879 43.7787C39.844 43.7217 40.1353 43.6064 40.1353 43.5225C40.1353 43.1428 46.5938 43.2376 46.8191 43.6205Z" fill="#635258"/>
<path fill-rule="evenodd" clip-rule="evenodd" d="M9.38647 0.904299C9.38647 1.15594 9.29471 1.3086 9.14372 1.3086C8.98383 1.3086 8.90097 1.46838 8.90097 1.77645C8.90097 2.04313 8.79658 2.28442 8.65821 2.33746C8.50593 2.39584 8.41546 2.64311 8.41546 3.00164C8.41546 3.3157 8.34846 3.57267 8.26641 3.57267C8.18452 3.57267 8.06945 3.791 8.01087 4.05783C7.95228 4.32467 7.83722 4.54299 7.75533 4.54299C7.67328 4.54299 7.60628 4.83409 7.60628 5.18987C7.60628 5.65708 7.53879 5.83675 7.36353 5.83675C7.18826 5.83675 7.12077 6.01642 7.12077 6.48363C7.12077 6.95084 7.05329 7.13051 6.87802 7.13051C6.71618 7.13051 6.63527 7.29223 6.63527 7.61567C6.63527 7.88251 6.56325 8.10083 6.47537 8.10083C6.38733 8.10083 6.26887 8.39192 6.2119 8.74771C6.15494 9.10349 6.04489 9.39458 5.96721 9.39458C5.88953 9.39458 5.82609 9.61291 5.82609 9.87974C5.82609 10.2032 5.74517 10.3649 5.58333 10.3649C5.40807 10.3649 5.34058 10.5446 5.34058 11.0118C5.34058 11.479 5.27309 11.6587 5.09783 11.6587C4.92369 11.6587 4.85507 11.8364 4.85507 12.2882C4.85507 12.6987 4.77059 12.9502 4.61232 13.011C4.4788 13.0621 4.36957 13.2881 4.36957 13.5134C4.36957 13.7385 4.30613 13.9227 4.22844 13.9227C4.15076 13.9227 4.04071 14.2138 3.98375 14.5696C3.92678 14.9254 3.80832 15.2165 3.72028 15.2165C3.6324 15.2165 3.56039 15.4036 3.56039 15.6323C3.56039 15.8611 3.45115 16.1574 3.31763 16.2908C3.18412 16.4242 3.07488 16.7153 3.07488 16.9377C3.07488 17.16 2.96564 17.4511 2.83213 17.5846C2.69861 17.718 2.58937 17.9675 2.58937 18.1389C2.58937 18.3105 2.51655 18.4509 2.42754 18.4509C2.33853 18.4509 2.2657 18.7079 2.2657 19.0219C2.2657 19.3805 2.17523 19.6277 2.02295 19.6861C1.87535 19.7427 1.78019 19.9876 1.78019 20.3107C1.78019 20.6338 1.68503 20.8786 1.53744 20.9352C1.40393 20.9863 1.29469 21.2124 1.29469 21.4377C1.29469 21.6628 1.22267 21.847 1.13479 21.847C1.04675 21.847 0.92829 22.1381 0.871324 22.4939C0.814358 22.8497 0.704309 23.1408 0.626628 23.1408C0.548947 23.1408 0.485507 23.3513 0.485507 23.6086C0.485507 23.8753 0.381123 24.1166 0.242754 24.1696C0.0825362 24.2311 0 24.4843 0 24.9147C0 25.5611 0.00517872 25.5666 0.611415 25.5666C1.31443 25.5666 1.78019 25.1469 1.78019 24.5136C1.78019 24.2636 1.87228 24.1111 2.02295 24.1111C2.19822 24.1111 2.2657 23.9314 2.2657 23.4642C2.2657 22.997 2.33319 22.8173 2.50845 22.8173C2.66123 22.8173 2.75121 22.6634 2.75121 22.4015C2.75121 22.1727 2.86045 21.8764 2.99396 21.743C3.12748 21.6096 3.23671 21.2873 3.23671 21.0269C3.23671 20.7664 3.30954 20.5532 3.39855 20.5532C3.48756 20.5532 3.56265 20.3896 3.56556 20.1894C3.56832 19.9892 3.67756 19.6842 3.80832 19.5116C3.93892 19.3389 4.04589 19.0297 4.04589 18.8243V18.4509H15.0446L15.146 18.8552C15.2019 19.0776 15.3126 19.2595 15.3919 19.2595C15.4713 19.2595 15.5362 19.5506 15.5362 19.9064C15.5362 20.3736 15.6037 20.5532 15.779 20.5532C15.9543 20.5532 16.0217 20.7329 16.0217 21.2001C16.0217 21.6673 16.0892 21.847 16.2645 21.847C16.4263 21.847 16.5072 22.0087 16.5072 22.3322C16.5072 22.599 16.5707 22.8173 16.6484 22.8173C16.726 22.8173 16.8361 23.1084 16.8931 23.4642C16.95 23.82 17.0685 24.1111 17.1565 24.1111C17.2444 24.1111 17.3164 24.3242 17.3164 24.5848C17.3164 25.267 17.6966 25.5666 18.563 25.5666H19.301L19.2093 24.8828C19.1588 24.5066 19.04 24.173 18.9453 24.1415C18.8505 24.1099 18.7729 23.8719 18.7729 23.6125C18.7729 23.301 18.6904 23.1408 18.5302 23.1408C18.3598 23.1408 18.2874 22.9689 18.2874 22.5633C18.2874 22.2455 18.1782 21.8764 18.0447 21.743C17.9112 21.6096 17.8019 21.3601 17.8019 21.1886C17.8019 21.0171 17.7291 20.8767 17.6401 20.8767C17.5511 20.8767 17.4783 20.622 17.4783 20.3107C17.4783 19.9154 17.4051 19.7446 17.2355 19.7446C17.075 19.7446 16.9928 19.5842 16.9928 19.271C16.9928 19.0106 16.8835 18.6883 16.75 18.5549C16.6165 18.4215 16.5072 18.1252 16.5072 17.8964C16.5072 17.6677 16.4438 17.4806 16.3661 17.4806C16.2884 17.4806 16.1784 17.1895 16.1214 16.8337C16.0645 16.4779 15.946 16.1868 15.858 16.1868C15.7701 16.1868 15.6981 15.9685 15.6981 15.7017C15.6981 15.3782 15.6171 15.2165 15.4553 15.2165C15.28 15.2165 15.2126 15.0368 15.2126 14.5696C15.2126 14.1024 15.1451 13.9227 14.9698 13.9227C14.808 13.9227 14.7271 13.761 14.7271 13.4376C14.7271 13.1707 14.6636 12.9524 14.5859 12.9524C14.5083 12.9524 14.3982 12.6613 14.3412 12.3055C14.2843 11.9498 14.1658 11.6587 14.0778 11.6587C13.9899 11.6587 13.9179 11.4455 13.9179 11.185C13.9179 10.9246 13.8086 10.6023 13.6751 10.4689C13.5416 10.3355 13.4324 10.0392 13.4324 9.81037C13.4324 9.54854 13.3424 9.39458 13.1896 9.39458C13.0143 9.39458 12.9469 9.21491 12.9469 8.74771C12.9469 8.39192 12.8799 8.10083 12.7978 8.10083C12.7159 8.10083 12.6009 7.88251 12.5423 7.61567C12.4837 7.34883 12.3778 7.13051 12.3073 7.13051C12.2367 7.13051 12.1325 6.83941 12.0755 6.48363C12.0186 6.12785 11.9001 5.83675 11.8121 5.83675C11.7242 5.83675 11.6522 5.6236 11.6522 5.36307C11.6522 5.10271 11.5429 4.7804 11.4094 4.64698C11.2759 4.51356 11.1667 4.21729 11.1667 3.98846C11.1667 3.75978 11.0946 3.57267 11.0068 3.57267C10.9187 3.57267 10.8003 3.28158 10.7433 2.9258C10.6863 2.57001 10.5763 2.27892 10.4986 2.27892C10.4209 2.27892 10.3575 2.09472 10.3575 1.8696C10.3575 1.64433 10.2482 1.41824 10.1147 1.36714C9.98122 1.31588 9.87198 1.09982 9.87198 0.886995C9.87198 0.650884 9.77731 0.5 9.62923 0.5C9.47823 0.5 9.38647 0.652663 9.38647 0.904299ZM10.0545 5.83675C9.97685 5.83675 9.8668 5.54566 9.80984 5.18987C9.75287 4.83409 9.63441 4.54299 9.54637 4.54299C9.45849 4.54299 9.38647 4.83409 9.38647 5.18987C9.38647 5.54566 9.31947 5.83675 9.23742 5.83675C9.15553 5.83675 9.04047 6.05507 8.98188 6.32191C8.9233 6.58875 8.81746 6.80707 8.7469 6.80707C8.67634 6.80707 8.57211 7.09816 8.51515 7.45395C8.45818 7.80973 8.33972 8.10083 8.25168 8.10083C8.1638 8.10083 8.09179 8.31915 8.09179 8.58599C8.09179 8.90943 8.01087 9.07115 7.84903 9.07115C7.67377 9.07115 7.60628 9.25082 7.60628 9.71802C7.60628 10.1852 7.53879 10.3649 7.36353 10.3649C7.20169 10.3649 7.12077 10.5266 7.12077 10.8501C7.12077 11.1169 7.05733 11.3352 6.97965 11.3352C6.90197 11.3352 6.79192 11.6263 6.73496 11.9821C6.67799 12.3379 6.56875 12.629 6.4922 12.629C6.41565 12.629 6.30642 12.9201 6.24945 13.2759C6.19248 13.6316 6.07402 13.9227 5.98598 13.9227C5.8981 13.9227 5.82382 14.0864 5.82091 14.2866C5.81816 14.4868 5.70892 14.7918 5.57816 14.9644C5.44755 15.1371 5.34058 15.4463 5.34058 15.6517C5.34058 15.8571 5.26775 16.0251 5.17874 16.0251C5.08973 16.0251 5.01691 16.1343 5.01691 16.2677C5.01691 16.4776 5.63722 16.5103 9.62923 16.5103C12.5962 16.5103 14.2415 16.4525 14.2415 16.3485C14.2415 16.2596 14.1695 16.1868 14.0817 16.1868C13.9936 16.1868 13.8751 15.8957 13.8182 15.5399C13.7612 15.1842 13.657 14.8931 13.5864 14.8931C13.5159 14.8931 13.41 14.6747 13.3514 14.4079C13.2929 14.1411 13.1778 13.9227 13.0959 13.9227C13.0139 13.9227 12.9469 13.6316 12.9469 13.2759C12.9469 12.8087 12.8794 12.629 12.7041 12.629C12.5423 12.629 12.4614 12.4673 12.4614 12.1438C12.4614 11.877 12.3893 11.6587 12.3015 11.6587C12.2134 11.6587 12.095 11.3676 12.038 11.0118C11.981 10.656 11.8718 10.3649 11.7952 10.3649C11.7187 10.3649 11.6094 10.0738 11.5525 9.71802C11.4955 9.36224 11.3855 9.07115 11.3078 9.07115C11.2301 9.07115 11.1667 8.85282 11.1667 8.58599C11.1667 8.26255 11.0857 8.10083 10.9239 8.10083C10.7486 8.10083 10.6812 7.92116 10.6812 7.45395C10.6812 6.98674 10.6137 6.80707 10.4384 6.80707C10.2766 6.80707 10.1957 6.64535 10.1957 6.32191C10.1957 6.05507 10.1322 5.83675 10.0545 5.83675Z" fill="#635258"/>
</svg>
