<svg width="265" height="57" viewBox="0 0 265 57" fill="none" xmlns="http://www.w3.org/2000/svg">
<path fill-rule="evenodd" clip-rule="evenodd" d="M249.075 2.75563V5.01126L253.374 4.82596L257.674 4.64003V2.75563V0.871227L253.374 0.685298L249.075 0.5V2.75563ZM0 15.3183V27.5669H1.91106H3.82212V22.5418V17.5168H11.7849H19.7476V22.5418V27.5669H21.6587H23.5697V22.5418V17.5168H21.6587C19.9597 17.5168 19.7476 17.3076 19.7476 15.6324C19.7476 13.9571 19.9597 13.748 21.6587 13.748H23.5697V8.40883V3.06969H21.6587H19.7476V8.4283V13.7869L11.9441 13.6104L4.14062 13.4339L3.95589 8.2518L3.77052 3.06969H1.88558H0V15.3183ZM184.099 15.3183V27.5669H186.01H187.921V22.5418V17.5168H195.565H203.209V22.5418V27.5669H205.453H207.696L207.523 15.4753L207.35 3.38376H205.439H203.528L203.342 8.58534L203.157 13.7875L195.698 13.6104L188.239 13.4339L188.054 8.2518L187.869 3.06969H185.984H184.099V15.3183ZM235.06 15.3183V27.5669H236.971H238.882V15.3183V3.06969H236.971H235.06V15.3183ZM30.5769 5.58223C30.5769 7.31713 30.3998 7.46663 28.3474 7.46663H26.1178V17.5168V27.5669H37.9026H49.6875V22.5814V17.5965L47.6172 17.3993C45.887 17.2347 45.5469 16.9452 45.5469 15.6324C45.5469 14.3196 45.887 14.03 47.6172 13.8654L49.6875 13.6682V8.68333V3.69783H40.1322H30.5769V5.58223ZM56.6947 5.26816C56.6947 6.59415 56.3972 6.8385 54.7837 6.8385H52.8726V17.2027V27.5669H54.7837H56.6947V22.5418V17.5168H64.6575H72.6202V22.5418V27.5669H74.8657H77.1112L76.936 17.3597L76.7608 7.15256L74.6905 6.95596C72.9756 6.79264 72.6202 6.49616 72.6202 5.22859V3.69783H64.6575H56.6947V5.26816ZM78.9904 15.6324V27.5669H80.9014H82.8125V22.5418V17.5168H93.0048H103.197V10.6073V3.69783H91.0937H78.9904V15.6324ZM105.225 5.4252C105.421 7.10545 105.557 7.16136 110.204 7.46663L114.982 7.7807L115.157 17.6738L115.333 27.5669H117.227H119.123V17.5168V7.46663H123.9H128.678V5.58223V3.69783H116.851H105.023L105.225 5.4252ZM131.863 13.748V23.7981H133.774C135.473 23.7981 135.685 24.0073 135.685 25.6825V27.5669H143.329H150.974V25.6825C150.974 24.0073 151.186 23.7981 152.885 23.7981H154.796V13.748V3.69783H152.885H150.974V13.748V23.7981H143.329H135.685V13.748V3.69783H133.774H131.863V13.748ZM157.981 15.6324V27.5669H159.892H161.803V22.5418V17.5168H171.677H181.55V10.6073V3.69783H169.766H157.981V15.6324ZM209.579 15.6324V27.5669H221.683H233.786V20.6574V13.748H223.912H214.038V8.7229V3.69783H211.809H209.579V15.6324ZM241.574 13.5909L241.749 23.484L243.819 23.6806C245.64 23.854 245.889 24.1002 245.889 25.7221V27.5669H253.534H261.178V25.6825C261.178 24.0073 261.39 23.7981 263.089 23.7981H265V13.748V3.69783H263.089H261.178V13.748V23.7981H253.534H245.889V13.748V3.69783H243.644H241.398L241.574 13.5909ZM45.2284 10.2932V13.1198H37.9026H30.5769V10.2932V7.46663H37.9026H45.2284V10.2932ZM72.6202 10.2932V13.1198H64.976H57.3317V10.2932V7.46663H64.976H72.6202V10.2932ZM98.738 10.2932V13.1198H90.7752H82.8125V10.7122C82.8125 9.38746 83.0036 8.11549 83.2374 7.8856C83.4705 7.65507 87.0538 7.46663 91.2001 7.46663H98.738V10.2932ZM177.728 10.2932V13.1198H169.766H161.803V10.2932V7.46663H169.766H177.728V10.2932ZM45.2284 20.6574V23.7981H37.9026H30.5769V20.6574V17.5168H37.9026H45.2284V20.6574ZM229.645 20.6574V23.484L221.842 23.6605L214.038 23.837V20.6574V17.4778L221.842 17.6543L229.645 17.8308V20.6574ZM30.5769 33.8482V35.7326H37.9026H45.2284V38.8733V42.014H37.9377H30.647L30.4527 39.0303C30.2667 36.1767 30.1756 36.0467 28.3474 36.0467H26.4363L26.2611 45.9398L26.0853 55.8329H37.8867H49.6875V50.8474V45.8626L47.6172 45.6653C45.887 45.5008 45.5469 45.2112 45.5469 43.8984C45.5469 42.5856 45.887 42.296 47.6172 42.1314L49.6875 41.9342V36.9493V31.9638H40.1322H30.5769V33.8482ZM56.0577 33.8482C56.0577 35.5235 55.8456 35.7326 54.1466 35.7326H52.2356V44.2125V52.6923H54.1046C55.6691 52.6923 56.0061 52.973 56.1749 54.4196L56.3762 56.147L64.1797 56.3235L71.9832 56.5V54.6357C71.9832 52.9919 72.2278 52.7488 74.0535 52.5748L76.1238 52.3782V44.2125V36.0467L74.0535 35.8501C72.2329 35.6767 71.9832 35.4305 71.9832 33.8087V31.9638H64.0204H56.0577V33.8482ZM78.9904 43.8984V55.8329H81.22H83.4495V45.7633V35.6937L91.253 35.8702L99.0565 36.0467L99.2317 45.9398L99.4075 55.8329H101.302H103.197V43.8984V31.9638H91.0937H78.9904V43.8984ZM105.108 43.8984V55.8329H107.019H108.93V50.8079V45.7828H119.123H129.315V38.8733V31.9638H117.212H105.108V43.8984ZM135.685 33.8482C135.685 35.5235 135.473 35.7326 133.774 35.7326H131.863V44.2125V52.6923H133.732C135.297 52.6923 135.633 52.973 135.802 54.4196L136.004 56.147L143.807 56.3235L151.611 56.5V54.6357C151.611 52.9919 151.855 52.7488 153.681 52.5748L155.751 52.3782L155.929 44.0554L156.107 35.7326H153.859C151.786 35.7326 151.611 35.5863 151.611 33.8482V31.9638H143.648H135.685V33.8482ZM158.618 44.2269V56.4893L170.243 56.3185L181.869 56.147L182.068 54.1056L182.268 52.0641H172.354H162.44V43.8984V35.7326H171.995H181.55V33.8482V31.9638H170.084H158.618V44.2269ZM71.843 44.0554L72.0214 52.0641H64.0395H56.0577L56.0609 50.0227C56.0628 48.9002 56.2501 45.2168 56.4768 41.8381L56.8896 35.6943L64.2771 35.8708L71.6647 36.0467L71.843 44.0554ZM124.732 39.0498L124.927 42.0529L117.088 41.8764L109.249 41.6999L109.045 39.5988C108.668 35.7251 108.776 35.6742 117.04 35.8696L124.537 36.0467L124.732 39.0498ZM151.611 43.8984V52.0641H143.966H136.322V43.8984V35.7326H143.966H151.611V43.8984ZM45.2284 48.9235V52.0641H37.9026H30.5769V48.9235V45.7828H37.9026H45.2284V48.9235Z" fill="#635258"/>
</svg>
