<svg width="50" height="60" viewBox="0 0 50 60" fill="none" xmlns="http://www.w3.org/2000/svg">
<path fill-rule="evenodd" clip-rule="evenodd" d="M24.2027 0.112611C24.0526 0.173092 23.3183 0.763838 22.571 1.42538C19.8082 3.87076 17.3448 5.39779 14.1746 6.63003C10.9888 7.86825 6.56119 8.66142 2.83485 8.66142C1.35047 8.66142 0.754429 8.94519 0.249884 9.89214C0.00128218 10.3585 0 10.4031 0 18.5072C0 27.4567 0.038811 28.1695 0.770862 32.6799C2.62179 44.0829 8.26364 52.096 18.0178 57.1757C20.88 58.6663 24.1773 60 25 60C25.8227 60 29.12 58.6663 31.9822 57.1757C41.7364 52.096 47.3782 44.0829 49.2291 32.6799C49.9612 28.1695 50 27.4567 50 18.5072C50 10.4031 49.9987 10.3585 49.7501 9.89214C49.2456 8.94519 48.6495 8.66142 47.1652 8.66142C46.5956 8.66142 45.4531 8.60727 44.6265 8.54116C37.6214 7.98031 32.001 5.63081 27.2727 1.28648C26.6958 0.756453 26.055 0.247404 25.8487 0.155276C25.4279 -0.0327309 24.6154 -0.0537117 24.2027 0.112611ZM25.8029 5.65905C30.9584 9.88253 36.8086 12.1542 44.1142 12.7693C44.9796 12.8422 45.712 12.9262 45.7418 12.9557C45.7717 12.9853 45.7976 15.974 45.7993 19.597C45.8027 26.4162 45.7258 27.9548 45.2121 31.3418C43.7925 40.7029 40.0057 46.9865 32.9513 51.6869C31.2421 52.8257 28.447 54.2722 26.3112 55.1232L25 55.6455L23.6888 55.1256C21.5941 54.295 18.7568 52.825 17.039 51.6805C9.99219 46.9851 6.20536 40.6986 4.78776 31.3418C4.27413 27.9518 4.19732 26.4158 4.2007 19.597C4.20245 15.974 4.22832 12.9853 4.25816 12.9557C4.288 12.9262 5.0204 12.8422 5.88578 12.7693C13.1154 12.1606 18.997 9.89917 24.0093 5.80088C24.5221 5.3815 24.9621 5.03607 24.9871 5.03314C25.0119 5.03021 25.379 5.31187 25.8029 5.65905ZM32.8671 22.2486C32.5566 22.395 30.6889 24.1943 27.276 27.6349L22.151 32.8015L19.8168 30.4762C17.3073 27.9766 17.0536 27.8031 16.0689 27.9148C14.5865 28.0828 13.7754 29.7665 14.5469 31.074C14.7098 31.3503 16.1712 32.9051 17.7945 34.5293C21.2508 37.9874 21.5156 38.1649 22.7273 37.8366C23.1255 37.7288 24.0818 36.8186 29.2829 31.5976C32.6321 28.2356 35.4544 25.3108 35.5548 25.0981C36.1021 23.9382 35.4555 22.4873 34.2397 22.1478C33.6318 21.978 33.4056 21.9946 32.8671 22.2486Z" fill="#404040"/>
</svg>
