<svg width="39" height="66" viewBox="0 0 39 66" fill="none" xmlns="http://www.w3.org/2000/svg">
<path fill-rule="evenodd" clip-rule="evenodd" d="M13.302 0.262359C9.52335 1.24956 6.80262 4.17611 6.11833 7.9893C5.97997 8.76003 5.94393 11.907 5.94032 23.4947L5.93579 38.0332L4.67147 39.2885C2.16725 41.7746 0.612137 44.8203 0.115297 48.2112C-0.122272 49.8328 0.0208639 52.6247 0.420041 54.1552C1.89971 59.8283 6.13099 64.0639 11.8136 65.5606C13.4275 65.9857 15.9467 66.1226 17.7239 65.8818C24.152 65.0108 29.3162 60.2993 30.8703 53.8878C31.2126 52.4753 31.3381 49.9255 31.1385 48.4366C30.6736 44.9682 29.0456 41.727 26.518 39.2373L25.3225 38.0598L25.2823 23.0568L25.242 8.05376L24.9463 7.09028C23.8825 3.62442 21.2889 1.10916 17.8969 0.253463C16.5441 -0.0878107 14.6279 -0.0840718 13.302 0.262359ZM16.602 4.00335C18.252 4.30414 19.9241 5.51284 20.6472 6.92744C21.3272 8.25772 21.3086 7.77334 21.3086 24.2097C21.3086 37.9497 21.3293 39.5168 21.5159 39.9091C21.6363 40.1623 22.1826 40.7082 22.8202 41.2126C24.852 42.8196 26.3031 45.0511 26.9501 47.5632C27.402 49.3183 27.4006 51.5139 26.9463 53.2705C25.7173 58.0231 21.782 61.4431 16.8778 62.0204C15.9446 62.1302 15.3104 62.1308 14.3938 62.0229C8.84837 61.3703 4.63931 57.1696 3.98538 51.635C3.52652 47.7529 5.26249 43.6726 8.41974 41.2121C9.01592 40.7474 9.58743 40.2039 9.68987 40.0043C9.84773 39.6961 9.88571 37.2597 9.94049 23.912L10.0051 8.18269L10.4708 7.21573C11.2663 5.56415 12.6695 4.42675 14.3652 4.05904C15.3854 3.83793 15.6574 3.8311 16.602 4.00335ZM30.2804 7.78082C28.9028 8.39039 28.6886 10.1804 29.8791 11.1362L30.3755 11.5348H34.0357C37.5473 11.5348 37.7108 11.5239 38.0608 11.2651C39.313 10.3391 39.3131 8.8633 38.061 7.93669C37.7148 7.68051 37.5204 7.66543 34.1855 7.63668C31.4626 7.61321 30.586 7.64557 30.2804 7.78082ZM14.7182 15.577C14.4707 15.7082 14.1374 16.007 13.9775 16.2406L13.6868 16.6657V29.7017V42.7378L12.8546 43.0356C10.6084 43.8396 8.64994 45.9791 8.01694 48.3204C7.26225 51.1116 8.01165 53.9006 10.0677 55.9526C11.631 57.5128 13.4445 58.2714 15.6106 58.2714C19.3014 58.2714 22.4588 55.7624 23.3172 52.1473C23.8715 49.8133 23.1493 47.0398 21.4963 45.1548C20.7852 44.3439 19.2776 43.3284 18.2846 42.9916L17.5623 42.7466V29.7817C17.5623 17.4044 17.5515 16.7965 17.3228 16.3676C16.8421 15.4661 15.6243 15.0965 14.7182 15.577ZM30.2804 15.5165C28.9028 16.1261 28.6886 17.9161 29.8791 18.8719L30.3755 19.2705H34.0357C37.5473 19.2705 37.7108 19.2596 38.0608 19.0008C39.313 18.0749 39.3131 16.599 38.061 15.6724C37.7148 15.4162 37.5204 15.4011 34.1855 15.3724C31.4626 15.3489 30.586 15.3813 30.2804 15.5165ZM30.2804 23.2522C28.9028 23.8618 28.6886 25.6517 29.8789 26.6076L30.3753 27.0062H34.0356C37.547 27.0062 37.7106 26.9953 38.0607 26.7365C39.3128 25.8108 39.3131 24.3347 38.061 23.4081C37.7148 23.1519 37.5204 23.1368 34.1855 23.1081C31.4626 23.0846 30.586 23.117 30.2804 23.2522ZM30.2804 30.9879C28.9028 31.5975 28.6886 33.3874 29.8789 34.3433L30.3753 34.7419H34.0356C37.547 34.7419 37.7106 34.731 38.0607 34.4722C39.3128 33.5465 39.3131 32.0704 38.061 31.1438C37.7148 30.8876 37.5204 30.8725 34.1855 30.8438C31.4626 30.8203 30.586 30.8527 30.2804 30.9879ZM17.3928 46.9397C18.7614 47.5921 19.5205 48.8287 19.5306 50.4218C19.5355 51.2021 19.4759 51.4445 19.0983 52.1834C17.324 55.6546 12.1945 54.7229 11.6779 50.8353C11.5079 49.5566 12.2406 47.9522 13.3352 47.2058C14.6128 46.3348 15.9412 46.2476 17.3928 46.9397Z" fill="#404040"/>
</svg>
