<svg width="65" height="66" viewBox="0 0 65 66" fill="none" xmlns="http://www.w3.org/2000/svg">
<path fill-rule="evenodd" clip-rule="evenodd" d="M0.919064 0.256296C0.691362 0.397208 0.391655 0.701463 0.25285 0.93262C0.0172745 1.32467 0.000384178 1.5878 3.19409e-06 4.87234C-0.00037779 7.78468 0.0331488 8.45778 0.194432 8.77441C0.308346 8.99809 1.9434 10.4198 4.13127 12.1977L7.87317 15.2384V19.9717V24.7049L6.9249 24.9319C5.81877 25.1966 5.26063 25.543 4.93349 26.1681C4.218 27.5348 5.36794 29.1781 6.89124 28.9661C7.19311 28.9241 7.53917 28.8511 7.66007 28.8041C7.86351 28.7248 7.87736 28.8649 7.84485 30.6858L7.80967 32.653L6.80501 32.9472C5.64377 33.2873 5.23028 33.5563 4.92079 34.1725C4.47834 35.0533 4.7477 36.0031 5.62739 36.6647C6.0052 36.949 6.8567 37.0254 7.52723 36.8351L7.87977 36.7352L7.84472 38.6907L7.80967 40.6462L6.80501 40.9404C5.64377 41.2805 5.23028 41.5494 4.92079 42.1657C4.47834 43.0465 4.7477 43.9962 5.62739 44.6579C6.0052 44.9421 6.8567 45.0186 7.52723 44.8283L7.87977 44.7284L7.84472 46.6839L7.80967 48.6393L6.80501 48.9335C5.64377 49.2736 5.23028 49.5426 4.92079 50.1588C4.47834 51.0396 4.7477 51.9894 5.62739 52.651C6.00457 52.9348 6.8567 53.0117 7.52393 52.8223L7.87317 52.7232V56.215C7.87317 58.5107 7.9213 59.8033 8.01362 59.9885C8.21415 60.3902 13.3286 65.6004 13.7403 65.8223C14.1802 66.0592 15.0275 66.0592 15.4674 65.8223C15.8792 65.6004 20.9936 60.3902 21.1941 59.9885C21.29 59.7962 21.3346 58.0159 21.3346 54.3778V49.0488L22.4283 48.7425C23.268 48.5073 23.6205 48.3361 23.9461 48.0056C24.694 47.2465 24.6887 46.0857 23.9338 45.3193C23.4177 44.7955 22.8047 44.6424 21.9416 44.8218L21.3346 44.9482V43.0019V41.0556L22.4283 40.7493C23.268 40.5142 23.6205 40.343 23.9461 40.0124C24.694 39.2533 24.6887 38.0925 23.9338 37.3262C23.4177 36.8024 22.8047 36.6492 21.9416 36.8287L21.3346 36.955V35.0087V33.0625L22.4283 32.7562C23.268 32.521 23.6205 32.3498 23.9461 32.0193C24.694 31.2602 24.6887 30.0994 23.9338 29.333C23.4177 28.8092 22.8047 28.6561 21.9416 28.8355L21.3346 28.9619V27.0095V25.0571L22.2829 24.8301C23.389 24.5654 23.9471 24.219 24.2743 23.5938C24.9899 22.2269 23.883 20.6105 22.3583 20.7957C22.0397 20.8344 21.6791 20.9054 21.5568 20.9535C21.3492 21.0351 21.3346 20.8501 21.3346 18.1397V15.2384L25.0765 12.1977C27.2644 10.4198 28.8994 8.99809 29.0133 8.77441C29.1746 8.45778 29.2081 7.78468 29.2078 4.87234C29.2074 1.5878 29.1905 1.32467 28.9549 0.93262C28.8161 0.701463 28.5164 0.397208 28.2887 0.256296C27.8827 0.00489902 27.6226 0 14.6039 0C1.58515 0 1.32507 0.00489902 0.919064 0.256296ZM25.3984 5.3848V6.90273L22.6363 9.18374L19.8742 11.4646H14.6039H9.3336L6.57147 9.18374L3.80934 6.90273V5.3848V3.86675H14.6039H25.3984V5.3848ZM17.5248 18.813C17.5248 21.7617 17.5063 22.0331 17.3025 22.0971C16.7223 22.2788 11.8773 23.5918 11.7864 23.5918C11.7295 23.5918 11.683 21.7933 11.683 19.5952V15.5986H14.6039H17.5248V18.813ZM17.5248 28.099V30.0279L17.0485 30.1561C16.7867 30.2266 15.4935 30.577 14.175 30.9346C12.8564 31.2923 11.7563 31.5849 11.7304 31.5849C11.7043 31.5849 11.683 30.7169 11.683 29.6561V27.7272L12.2227 27.5764C15.6356 26.6225 17.2341 26.1886 17.366 26.1803C17.4864 26.1727 17.5248 26.6365 17.5248 28.099ZM37.2676 32.6245C37.0555 32.6872 36.7328 32.8994 36.5506 33.0964C36.3685 33.2933 34.2889 36.8482 31.9296 40.9962C28.127 47.6817 27.6342 48.6114 27.5896 49.1827C27.5412 49.8021 27.591 49.9184 28.857 52.1479C35.7001 64.199 36.4047 65.4037 36.7645 65.6654L37.1454 65.9426H46.2891H55.4327L55.8137 65.6654C56.1734 65.4037 56.878 64.199 63.7211 52.1479C64.9871 49.9184 65.0369 49.8021 64.9885 49.1827C64.9439 48.6114 64.4511 47.6817 60.6485 40.9962C58.2892 36.8482 56.2108 33.2944 56.0299 33.099C55.8491 32.9035 55.4978 32.6863 55.2494 32.6162C54.6811 32.4559 37.8122 32.4638 37.2676 32.6245ZM17.5248 36.0922V38.0211L17.0485 38.1492C16.7867 38.2198 15.4935 38.5702 14.175 38.9278C12.8564 39.2854 11.7549 39.5781 11.7269 39.5781C11.6991 39.5781 11.6922 38.699 11.7115 37.6245L11.7465 35.6711L14.4134 34.9295C15.8802 34.5218 17.1802 34.1824 17.3025 34.1757C17.5048 34.1645 17.5248 34.3365 17.5248 36.0922ZM57.2345 42.8656C59.2099 46.34 60.827 49.2252 60.828 49.277C60.8291 49.3288 59.1953 52.2441 57.1973 55.7553L53.5647 62.1394H46.2891H39.0134L35.3732 55.7419C33.3594 52.2027 31.7638 49.2628 31.802 49.1617C31.8688 48.985 38.4466 37.3617 38.8129 36.773L38.9941 36.4819L46.3184 36.5152L53.6427 36.5484L57.2345 42.8656ZM44.2547 40.4041C41.0218 41.153 38.368 43.6003 37.2516 46.8622C36.9265 47.8122 36.8986 48.046 36.8986 49.8274C36.8986 51.6087 36.9265 51.8425 37.2516 52.7926C38.4151 56.1921 41.2758 58.72 44.6287 59.3112C45.976 59.549 47.9768 59.4082 49.2099 58.9889C55.212 56.9487 57.6393 49.8081 54.1491 44.4594C53.0379 42.7564 51.2026 41.3457 49.2099 40.6631C48.3694 40.3751 47.9199 40.3074 46.6065 40.2709C45.5662 40.2421 44.7556 40.2879 44.2547 40.4041ZM17.5248 44.0853V46.0142L17.0485 46.1424C16.7867 46.2129 15.4935 46.5633 14.175 46.9209C12.8564 47.2786 11.7549 47.5712 11.7269 47.5712C11.6991 47.5712 11.6922 46.6921 11.7115 45.6177L11.7465 43.6642L14.4134 42.9227C15.8802 42.5149 17.1802 42.1756 17.3025 42.1689C17.5048 42.1577 17.5248 42.3297 17.5248 44.0853ZM47.256 44.2191C48.3079 44.4172 49.6514 45.1472 50.341 45.8955C51.5045 47.1584 52.1071 49.0871 51.8325 50.6695C51.4021 53.1499 49.5612 55.0234 47.131 55.454C44.2051 55.9725 41.2862 53.7855 40.7456 50.6695C40.3444 48.3574 41.7115 45.7444 43.8552 44.7261C45.1075 44.1311 46.0455 43.9912 47.256 44.2191ZM17.5248 54.245V58.3404L16.0643 59.8188L14.6039 61.2971L13.1414 59.8167L11.6789 58.3362L11.7127 54.9969L11.7465 51.6575L14.4134 50.916C15.8802 50.5081 17.1802 50.1687 17.3025 50.162C17.5098 50.1504 17.5248 50.4259 17.5248 54.245Z" fill="#404040"/>
</svg>
