<svg width="65" height="66" viewBox="0 0 65 66" fill="none" xmlns="http://www.w3.org/2000/svg">
<path fill-rule="evenodd" clip-rule="evenodd" d="M30.9477 0.177527C29.9291 0.462314 29.1659 1.00661 26.7424 3.17592L24.4043 5.26887L20.3587 4.93778C15.8062 4.56529 15.2429 4.59405 13.8951 5.2681C13.4665 5.48246 12.864 5.88436 12.5562 6.16128C11.5832 7.03654 11.2214 7.83892 9.95082 11.9403C9.30068 14.0386 8.75236 15.7688 8.7323 15.7854C8.71211 15.8019 7.27154 16.6734 5.53084 17.7221C2.25868 19.6934 1.54709 20.2332 0.888059 21.244C0.0812534 22.4815 -0.214681 24.3913 0.17482 25.8471C0.269656 26.2017 0.926019 27.9115 1.63329 29.6465C2.34056 31.3814 2.91923 32.8785 2.91923 32.9733C2.91923 33.0681 2.32596 34.6086 1.60079 36.3967C0.0568778 40.204 0.000890189 40.3867 1.49661e-06 41.6189C-0.00126806 43.2885 0.805284 45.0363 2.03143 46.0209C2.35707 46.2825 4.13407 47.4065 5.98052 48.5191L9.3375 50.5418L10.1325 53.9299C10.5696 55.7934 11.0735 57.6256 11.2521 58.0014C11.7625 59.0753 12.8186 60.1407 13.9221 60.6948C15.1818 61.3273 15.9444 61.3611 20.6527 60.9927L24.3452 60.7039L26.7168 62.8158C28.021 63.9774 29.2988 65.0593 29.5563 65.22C31.2224 66.26 33.7776 66.26 35.4437 65.22C35.7012 65.0593 36.979 63.9774 38.2832 62.8158L40.6548 60.7039L44.3473 60.9927C49.0556 61.3611 49.8182 61.3273 51.0779 60.6948C52.1881 60.1373 53.2492 59.0632 53.7387 58.0009C53.9119 57.6253 54.413 55.8022 54.8523 53.9495L55.6511 50.581L59.0197 48.5324C60.8725 47.4056 62.6522 46.2727 62.9745 46.0147C64.1936 45.0387 65.0013 43.2859 65 41.6189C64.9991 40.3867 64.9431 40.204 63.3992 36.3967C62.674 34.6086 62.0808 33.0681 62.0808 32.9733C62.0808 32.8785 62.6457 31.4105 63.3364 29.711C64.0269 28.0115 64.6839 26.3057 64.7964 25.9203C65.2063 24.5153 64.9685 22.6957 64.2009 21.3651C63.6355 20.385 62.7275 19.6892 59.2877 17.6006C57.4374 16.4771 55.8556 15.4932 55.7728 15.4143C55.6899 15.3353 55.2744 13.7907 54.8491 11.9817C54.3478 9.84842 53.9388 8.40578 53.6854 7.87619C52.921 6.27839 51.2602 5.03309 49.5063 4.74263C48.8492 4.6339 47.8854 4.67208 44.6389 4.93584L40.5909 5.26461L38.2516 3.17372C36.965 2.02387 35.7016 0.951534 35.444 0.790826C34.2632 0.0542228 32.331 -0.209283 30.9477 0.177527ZM33.4522 4.17164C33.5918 4.26386 34.8487 5.36831 36.2452 6.62586C37.6417 7.88354 38.977 8.99741 39.2126 9.10124C39.5956 9.26995 40.0845 9.25486 43.8465 8.95795C46.1596 8.77531 48.2815 8.62647 48.562 8.62711C49.2385 8.62866 49.8922 9.00193 50.1662 9.543C50.2887 9.78471 50.7851 11.6579 51.2695 13.7053C51.8037 15.9637 52.2459 17.5619 52.3934 17.7682C52.5272 17.9553 54.3876 19.182 56.5277 20.4944C58.6677 21.8068 60.5358 22.9913 60.6789 23.1267C61.0063 23.4364 61.2264 24.2423 61.1122 24.7137C61.0642 24.9114 60.3485 26.7402 59.5216 28.7779C58.4866 31.3284 58.0182 32.6385 58.0182 32.983C58.0182 33.328 58.4743 34.6015 59.486 37.0816C61.3102 41.5532 61.3065 41.5405 60.9713 42.3103C60.7196 42.8886 60.6154 42.9627 56.6587 45.379C53.5686 47.2659 52.5471 47.9526 52.3652 48.2657C52.2338 48.4916 51.717 50.3791 51.2166 52.4602C50.6602 54.7751 50.2111 56.3774 50.0601 56.5875C49.9242 56.7765 49.6047 57.0365 49.35 57.1652C48.8987 57.3933 48.7704 57.3902 44.3434 57.0439C41.8445 56.8485 39.6429 56.7298 39.4511 56.78C39.2591 56.8303 37.8309 58.0022 36.2772 59.3842C33.2421 62.0838 32.9214 62.2833 32.0239 62.0309C31.6848 61.9354 30.7353 61.1742 28.7228 59.3842C27.1691 58.0022 25.7409 56.8307 25.5489 56.7809C25.3571 56.7311 23.1686 56.8489 20.6856 57.0426C15.9671 57.4108 15.7492 57.4048 15.1894 56.8903C14.768 56.5027 14.6285 56.0614 13.7228 52.2479C13.2312 50.1784 12.7334 48.337 12.6165 48.1556C12.4903 47.96 10.7562 46.8287 8.34825 45.3713C4.36716 42.9616 4.28782 42.9054 4.03162 42.3171C3.69303 41.5395 3.68744 41.559 5.51396 37.0816C6.52567 34.6015 6.98183 33.328 6.98183 32.983C6.98183 32.6364 6.50853 31.3243 5.44147 28.7134C3.76565 24.6126 3.63387 24.0714 4.13864 23.3637C4.28375 23.1603 5.89165 22.0965 7.91483 20.8655C9.85268 19.6862 11.5766 18.5891 11.746 18.4276C12.127 18.0639 12.177 17.9256 13.5763 13.3727C14.2023 11.3356 14.8063 9.52688 14.9182 9.35314C15.1841 8.94092 15.8472 8.62853 16.4592 8.62711C16.728 8.62647 18.8404 8.77531 21.1536 8.95795C24.9174 9.25499 25.4042 9.27008 25.7875 9.10098C26.023 8.99716 27.4154 7.83169 28.8818 6.51107C30.3481 5.19045 31.7192 4.0562 31.9287 3.99055C32.3772 3.85009 33.094 3.93535 33.4522 4.17164ZM29.8339 11.8555C27.6338 12.1654 25.637 12.7692 23.6495 13.7252C17.5269 16.6703 13.3685 22.0393 11.9132 28.8781C11.6638 30.0499 11.625 30.6061 11.625 33.0054C11.625 35.4047 11.6638 35.961 11.9132 37.1328C13.7497 45.7636 19.948 52.0466 28.4801 53.926C29.5857 54.1696 30.1612 54.2103 32.5 54.2103C34.8528 54.2103 35.4136 54.1702 36.5626 53.9197C45.0356 52.0726 51.2437 45.7517 53.0924 37.0894C53.3321 35.9662 53.3722 35.3815 53.3722 33.0054C53.3722 30.6101 53.3331 30.0478 53.0849 28.8781C51.2678 20.3103 44.9785 13.9026 36.6261 12.1094C35.183 11.7996 31.269 11.6532 29.8339 11.8555ZM35.8247 15.9866C42.7812 17.418 48.0873 22.9368 49.3358 30.0389C49.6197 31.6538 49.6197 34.357 49.3358 35.972C48.2498 42.1496 43.963 47.2952 38.1734 49.3702C36.2108 50.0737 34.714 50.3257 32.5 50.3257C30.286 50.3257 28.7892 50.0737 26.8266 49.3702C21.0427 47.2973 16.8265 42.2803 15.6749 36.1009C15.3721 34.4761 15.3654 31.565 15.6607 29.9744C17.0882 22.2859 23.1025 16.6058 30.7563 15.7178C32.0583 15.5667 34.3835 15.69 35.8247 15.9866ZM41.1965 25.4146C41.0568 25.4916 38.6146 27.9127 35.7693 30.7947L30.596 36.0349L27.3267 32.7281C25.5286 30.9094 23.9326 29.3571 23.7801 29.2787C23.3396 29.0521 22.4521 29.1091 21.9932 29.3933C21.197 29.8864 20.8198 31.0933 21.2142 31.8854C21.4139 32.2865 29.3194 40.3364 29.7324 40.5592C30.1673 40.7939 30.8673 40.7959 31.3932 40.564C31.6257 40.4616 34.3835 37.7514 37.7917 34.2763C43.0473 28.9174 43.7921 28.1094 43.8679 27.685C44.0483 26.6752 43.6367 25.7871 42.8297 25.4445C42.3321 25.2332 41.5511 25.2189 41.1965 25.4146Z" fill="#404040"/>
</svg>
