<svg width="48" height="28" viewBox="0 0 48 28" fill="none" xmlns="http://www.w3.org/2000/svg">
<path fill-rule="evenodd" clip-rule="evenodd" d="M5.17805 0.184357C4.55644 0.557875 4.4999 0.767736 4.49953 2.70297L4.49915 4.43564L3.44439 4.43601C2.55735 4.43629 2.34105 4.46549 2.08407 4.62C1.17847 5.1642 1.17847 6.47937 2.08407 7.02356C2.37574 7.19886 2.56382 7.20727 6.23366 7.20811C8.48758 7.20857 10.2164 7.24692 10.4128 7.3007C10.9448 7.44634 11.1852 7.76783 11.2255 8.38743C11.269 9.05509 11.0429 9.45189 10.4742 9.7063C10.1009 9.87337 9.81133 9.88391 5.53048 9.88612C1.16037 9.88834 0.971358 9.89564 0.677711 10.0721C-0.201355 10.6004 -0.23117 11.8954 0.622957 12.4472C0.864006 12.6029 1.33129 12.6169 7.69936 12.6601C14.4023 12.7055 14.5219 12.7095 14.7764 12.8968C15.2403 13.2383 15.4218 13.5615 15.4218 14.0462C15.4218 14.5309 15.2403 14.854 14.7764 15.1956C14.522 15.3829 14.4023 15.3869 7.69927 15.4323C1.33129 15.4755 0.864006 15.4895 0.622957 15.6453C-0.23117 16.1971 -0.201355 17.4921 0.677711 18.0203C0.953825 18.1862 1.1524 18.204 2.74121 18.2043L4.49915 18.2046L4.49953 20.4917C4.49981 22.611 4.5135 22.801 4.6862 23.08C5.0587 23.6823 5.29553 23.7484 7.07963 23.7488L8.67565 23.7492L8.89898 24.3956C9.64341 26.5509 11.7074 28 14.0327 28C16.3284 28 18.3905 26.5424 19.132 24.3956L19.3553 23.7492H26.4383H33.5213L33.7446 24.3956C34.489 26.5509 36.553 28 38.8784 28C41.174 28 43.2361 26.5424 43.9776 24.3956L44.2009 23.7492L45.6095 23.7488C47.1864 23.7484 47.4517 23.668 47.8154 23.08C47.9949 22.7898 48.0017 22.6078 47.9998 18.066C47.9986 15.2241 47.9601 13.1922 47.9029 12.9476C47.6457 11.8474 46.8614 10.8829 45.7652 10.3187C44.637 9.73799 44.9145 9.76091 38.3756 9.70667C32.485 9.65778 32.3531 9.65279 32.0997 9.46622C31.9574 9.36143 31.7539 9.1609 31.6476 9.02062C31.4596 8.77259 31.4536 8.64387 31.4274 4.38278L31.4005 0L18.442 0.000369434C5.67693 0.000646662 5.47901 0.0034194 5.17805 0.184357ZM34.2201 3.60396V6.93069H38.1117H42.0032L41.3825 5.93729C39.7962 3.39844 38.383 1.96499 36.5863 1.0725C36.0998 0.830759 34.5247 0.277228 34.3235 0.277228C34.2501 0.277228 34.2201 1.24152 34.2201 3.60396ZM15.1241 20.4342C15.6657 20.7017 16.0066 21.0355 16.292 21.5776C16.776 22.4971 16.5489 23.7997 15.7822 24.5014C14.5274 25.6497 12.4472 25.2765 11.7116 23.7712C11.4493 23.2342 11.4213 22.2232 11.6545 21.7043C12.2376 20.4068 13.8635 19.8116 15.1241 20.4342ZM39.9697 20.4342C40.5113 20.7017 40.8522 21.0355 41.1376 21.5776C41.6216 22.4971 41.3945 23.7997 40.6278 24.5014C39.373 25.6497 37.2928 25.2765 36.5572 23.7712C36.2949 23.2342 36.2669 22.2232 36.5001 21.7043C37.0832 20.4068 38.7091 19.8116 39.9697 20.4342Z" fill="#D9CEBF"/>
</svg>
