<svg width="40" height="36" viewBox="0 0 40 36" fill="none" xmlns="http://www.w3.org/2000/svg">
<path fill-rule="evenodd" clip-rule="evenodd" d="M29.9956 0.113988C29.8356 0.190671 27.3479 1.69997 24.4674 3.46809L19.2299 6.68285L19.2285 16.0545L19.227 25.4262L24.671 28.6719C29.5349 31.5716 30.15 31.9174 30.4447 31.9174C30.8468 31.9174 31.2407 31.6998 31.4782 31.3462L31.6543 31.084V15.9743V0.864596L31.4784 0.605376C31.0965 0.0424788 30.5342 -0.143899 29.9956 0.113988ZM36.2266 6.87017C36.0976 6.95132 35.3883 7.63042 34.6503 8.37931C33.5315 9.51451 33.2996 9.78934 33.2547 10.0329C33.1645 10.5221 33.4322 11.0959 33.8522 11.3139C34.1578 11.4724 34.6954 11.4757 34.9869 11.3208C35.2972 11.1559 37.707 8.69969 37.8602 8.39217C38.2361 7.6374 37.6409 6.72151 36.7749 6.72237C36.6023 6.72253 36.3555 6.78902 36.2266 6.87017ZM8.96903 8.21841C7.64619 8.53126 6.44036 9.86539 6.18048 11.3038C6.04589 12.0483 6.06989 20.0335 6.20862 20.6788C6.48366 21.9583 7.28471 22.9943 8.45873 23.5888C9.32254 24.0264 9.55616 24.048 13.4238 24.0493L16.9604 24.0504V16.0919V8.13342L13.1111 8.14126C10.994 8.14565 9.13003 8.18031 8.96903 8.21841ZM1.51659 10.7858C0.93345 10.988 0.516395 11.3558 0.239166 11.9124L0 12.3925V15.8945C0 19.7754 0.00656534 19.8347 0.503733 20.4174C0.647233 20.5855 0.953068 20.8277 1.1834 20.9558C1.58498 21.1789 1.64891 21.1896 2.73556 21.2149L3.86886 21.2413V15.9419V10.6425L2.89187 10.6451C2.16711 10.647 1.81203 10.6833 1.51659 10.7858ZM34.9183 15.1167C34.583 15.2943 34.3116 15.7556 34.3118 16.1476C34.312 16.5084 34.5376 16.9194 34.8508 17.1293C35.11 17.3029 35.1654 17.3073 37.1565 17.3069C39.0544 17.3067 39.2143 17.2958 39.4513 17.1508C39.8577 16.9023 40.0313 16.557 39.9954 16.0691C39.9602 15.5919 39.7861 15.3129 39.3907 15.1001C39.1481 14.9697 38.9234 14.9553 37.1657 14.9584C35.3738 14.9617 35.1861 14.9748 34.9183 15.1167ZM33.8312 20.9937C33.645 21.0925 33.4893 21.2627 33.3818 21.4854C33.0381 22.1978 33.1744 22.464 34.647 23.9562C35.3008 24.6187 35.9352 25.2329 36.0567 25.321C36.9503 25.9685 38.148 25.2314 37.9497 24.156C37.9025 23.8996 37.6874 23.6451 36.5133 22.4565C35.7538 21.6877 35.0374 21.0086 34.9213 20.9472C34.6307 20.7936 34.1717 20.8132 33.8312 20.9937ZM8.2545 26.2655C7.60891 27.2813 4.68562 32.4991 4.64732 32.7039C4.59386 32.9894 4.79723 33.5741 5.00896 33.7441C5.06969 33.7928 5.9811 34.3198 7.03429 34.9152C8.79544 35.9108 8.9813 35.9978 9.34974 35.9999C9.66222 36.0017 9.80822 35.9577 10.0141 35.7999C10.209 35.6504 10.9567 34.4184 12.8788 31.0792C14.3094 28.5941 15.5002 26.5076 15.5251 26.4426C15.5649 26.3384 15.208 26.3241 12.5333 26.323C10.1518 26.3219 9.37819 26.2965 8.94917 26.2053C8.64834 26.1414 8.39409 26.0891 8.38432 26.0891C8.37455 26.0891 8.31617 26.1684 8.2545 26.2655Z" fill="#D9CEBF"/>
</svg>
