<svg width="42" height="38" viewBox="0 0 42 38" fill="none" xmlns="http://www.w3.org/2000/svg">
<path fill-rule="evenodd" clip-rule="evenodd" d="M24.8128 0.0728054C24.2994 0.203797 23.7305 0.510403 23.3114 0.882059C23.1162 1.0551 21.3628 3.44964 19.4147 6.20324C17.4667 8.95675 15.5205 11.6522 15.0897 12.1931C14.6589 12.734 13.4953 14.0171 12.5038 15.0446L10.7012 16.9128L10.7008 25.225L10.7004 33.5373L12.3453 35.1735C14.078 36.8971 14.6039 37.2842 15.8226 37.7339L16.5428 37.9996H24.0044C32.5257 37.9996 32.0055 38.049 33.3778 37.1081C34.6136 36.2609 34.6523 36.1881 38.328 27.8247C40.1404 23.701 41.6914 20.042 41.7749 19.6935C41.9876 18.8044 42.0699 16.8421 41.9326 15.9362C41.7123 14.482 40.8851 13.3379 39.59 12.6958L39.0257 12.416L32.9537 12.3883C28.2227 12.3667 26.8923 12.3339 26.9293 12.2396C26.9554 12.1729 27.5138 10.7637 28.1701 9.10777C28.8263 7.45188 29.4278 5.84725 29.5065 5.54194C30.0295 3.5137 28.9615 1.14503 27.1454 0.305238C26.5382 0.0245134 25.4339 -0.0855549 24.8128 0.0728054ZM3.16379 15.2515C1.65743 15.4512 0.355094 16.7757 0.0964912 18.3707C-0.0334973 19.172 -0.0315338 32.6995 0.0986511 33.3925C0.403201 35.0148 1.51753 36.1478 3.12206 36.4666C4.6456 36.7694 6.31483 35.8899 7.03733 34.4039L7.314 33.8348V25.8523V17.8698L7.04027 17.3068C6.87298 16.9628 6.54025 16.5323 6.18455 16.1997C5.32362 15.3947 4.36147 15.0926 3.16379 15.2515Z" fill="#D9CFBF"/>
</svg>
