<svg width="37" height="38" viewBox="0 0 37 38" fill="none" xmlns="http://www.w3.org/2000/svg">
<path fill-rule="evenodd" clip-rule="evenodd" d="M17.5684 0.109512C17.3507 0.16957 17.0255 0.304978 16.8456 0.410247C16.4754 0.627094 0.927413 16.5248 0.564857 17.0571C0.0734979 17.7788 -0.12426 18.897 0.0792803 19.8035C0.32149 20.8827 1.21386 21.9131 2.24638 22.3057C2.42354 22.3731 2.87753 22.4492 3.25519 22.4749L3.94185 22.5215L3.97799 28.6832L4.01413 34.8449L4.17661 35.2874C4.51958 36.2213 5.23501 37.0594 6.077 37.5139C6.96351 37.9923 7.03753 38 10.7706 38C14.5627 38 14.4791 38.0117 14.8008 37.4355L14.9622 37.1463L14.964 32.358L14.966 27.5696L15.1371 27.1985C15.3385 26.7616 15.6895 26.3977 16.0645 26.2372C16.4377 26.0773 20.5492 26.0662 20.9172 26.2241C21.2564 26.3697 21.6691 26.7633 21.8535 27.1172C22.0107 27.419 22.0121 27.4556 22.048 32.3208C22.0829 37.0517 22.0891 37.2292 22.2287 37.4719C22.3082 37.6102 22.4866 37.7856 22.6251 37.8617C22.8604 37.9909 23.0977 38 26.2419 38C29.9769 38 30.0486 37.9926 30.9388 37.5121C31.7677 37.0647 32.4446 36.2674 32.825 35.2903L32.9984 34.8449L33.0345 28.6832L33.0707 22.5215L33.7573 22.4749C34.8103 22.4033 35.4552 22.092 36.1365 21.3264C36.7806 20.6025 37.0557 19.7689 36.9907 18.7384C36.9493 18.0834 36.7671 17.5256 36.435 17.0381C36.3199 16.8692 32.6699 13.0855 28.3237 8.62994C19.8669 -0.0399279 20.2113 0.286642 19.2932 0.0692751C18.8429 -0.0374038 18.032 -0.0184733 17.5684 0.109512Z" fill="#D9CFBF"/>
</svg>
