<svg width="35" height="36" viewBox="0 0 35 36" fill="none" xmlns="http://www.w3.org/2000/svg">
<path fill-rule="evenodd" clip-rule="evenodd" d="M15.6607 0.0688646C15.3411 0.101712 14.6644 0.211931 14.1568 0.313779C7.20871 1.70815 1.75028 7.27879 0.352447 14.4019C-1.07246 21.6632 1.89698 28.987 7.92383 33.0758C10.7262 34.9771 14.4133 36.1024 17.4808 35.9926C18.1676 35.9681 18.2633 35.9467 18.7369 35.7123C19.9351 35.1193 20.5947 33.8507 20.3848 32.543C20.2925 31.9679 20.0976 31.5452 19.6347 30.916C19.1526 30.2605 18.9925 29.786 18.9901 29.0045C18.9885 28.4851 19.0193 28.2925 19.1623 27.9317C19.4838 27.1199 20.0082 26.579 20.8047 26.2379L21.2321 26.055L23.8981 26.0077C26.2523 25.966 26.6418 25.9431 27.2272 25.8113C28.7609 25.4661 30.055 24.8451 31.281 23.866C33.1909 22.3409 34.4626 20.1319 34.8824 17.6103C35.0014 16.8954 35.0173 16.5769 34.986 15.5349C34.9194 13.3159 34.4625 11.451 33.5052 9.49012C30.6586 3.65944 24.379 -0.0493724 17.4381 0.000496716C16.7801 0.00520931 15.9803 0.0359467 15.6607 0.0688646ZM13.085 4.06747C15.0727 4.40242 16.1046 6.56705 15.1734 8.44822C15.1016 8.59318 14.8808 8.87805 14.6827 9.08125C13.2627 10.5377 10.896 10.1089 10.0353 8.2391C9.82971 7.79267 9.81591 7.71389 9.81591 6.98893C9.81591 6.29006 9.83429 6.17484 10.0057 5.79812C10.4426 4.8383 11.2178 4.23227 12.2427 4.04925C12.5416 3.99587 12.6776 3.99882 13.085 4.06747ZM23.2668 4.17396C23.9926 4.39876 24.6491 5.01147 25.0071 5.79812C25.1786 6.17484 25.197 6.29006 25.197 6.98893C25.197 7.71389 25.1832 7.79267 24.9776 8.2391C24.1169 10.1089 21.7502 10.5377 20.3302 9.08125C18.6919 7.40089 19.5844 4.489 21.8665 4.06852C22.2606 3.99594 22.8308 4.03884 23.2668 4.17396ZM7.49166 12.1197C8.62671 12.3952 9.45893 13.3372 9.65772 14.5714C9.9099 16.1376 8.80424 17.6772 7.25048 17.9236C6.30608 18.0735 5.32115 17.7227 4.70037 17.0158C4.10782 16.341 3.83274 15.4345 3.96173 14.5821C4.22793 12.8228 5.8182 11.7135 7.49166 12.1197ZM28.7996 12.0972C30.341 12.4339 31.3317 13.9897 31.0167 15.5788C30.6322 17.5185 28.616 18.5221 26.8894 17.6331C25.8024 17.0735 25.1501 15.7598 25.3576 14.5479C25.6522 12.8266 27.1752 11.7423 28.7996 12.0972Z" fill="#D9CFBF"/>
</svg>
