<svg width="38" height="38" viewBox="0 0 38 38" fill="none" xmlns="http://www.w3.org/2000/svg">
<path fill-rule="evenodd" clip-rule="evenodd" d="M16.7734 5.23242V10.4648H19H21.2266V5.23242V0H19H16.7734V5.23242ZM13.7996 2.75366C12.0303 3.8282 10.7597 5.20028 9.85439 7.01367C9.35809 8.00791 8.95754 9.30599 8.89252 10.1309L8.86914 10.4277L11.708 10.4472L14.5469 10.4666V6.42081C14.5469 4.19559 14.519 2.375 14.4849 2.375C14.4508 2.375 14.1424 2.54541 13.7996 2.75366ZM23.4531 6.41992V10.4648H26.2691C27.8179 10.4648 29.1011 10.4388 29.1208 10.4069C29.1854 10.3024 28.9498 9.14464 28.7135 8.40579C27.9584 6.0446 26.3616 4.04804 24.1788 2.73622C23.8483 2.53754 23.5498 2.375 23.5155 2.375C23.4812 2.375 23.4531 4.19521 23.4531 6.41992ZM6.30859 14.0273V15.4375H19H31.6914V14.0273V12.6172H19H6.30859V14.0273ZM8.77896 19.0186C8.82877 20.5763 8.95642 21.3947 9.31839 22.4776C10.7093 26.6381 14.6255 29.4643 19 29.4643C21.0009 29.4643 22.8986 28.8982 24.5545 27.8075C26.5362 26.5021 27.9457 24.6791 28.6864 22.463C29.0435 21.3949 29.1714 20.5709 29.221 19.0186L29.2643 17.6641H19H8.7357L8.77896 19.0186ZM7.60742 27.716C3.74218 28.333 0.760965 31.254 0.112367 35.0595C0.0454961 35.4517 0 36.1806 0 36.8593V38H4.63919H9.27838L9.25931 32.8232L9.24023 27.6465L8.7207 27.6338C8.43496 27.6269 7.93398 27.6638 7.60742 27.716ZM28.7722 27.6589C28.7449 27.686 28.7227 30.0239 28.7227 32.8542V38H33.3613H38V36.8593C38 36.1743 37.9548 35.4554 37.8867 35.0595C37.2326 31.252 34.2114 28.2894 30.4065 27.7245C29.5961 27.6042 28.8565 27.5745 28.7722 27.6589ZM11.4297 33.5515V38H19H26.5703V33.5515V29.1029L25.8628 29.576C23.8129 30.9465 21.5241 31.6323 19 31.6323C16.4853 31.6323 14.177 30.9397 12.1297 29.5709L11.4297 29.1029V33.5515Z" fill="#D9CEBF"/>
</svg>
