<svg width="35" height="40" viewBox="0 0 35 40" fill="none" xmlns="http://www.w3.org/2000/svg">
<path fill-rule="evenodd" clip-rule="evenodd" d="M15.5789 0.973822C11.0783 3.90287 6.72362 5.42534 2.12071 5.67908C0.872736 5.74792 0.608273 5.85176 0.211534 6.42871L0 6.73638L0.0333423 14.7746C0.0624942 21.7914 0.0862718 22.9319 0.220917 23.7502C1.25663 30.046 4.49395 33.7485 12.5806 37.8856C14.7366 38.9885 17.0893 40 17.4988 40C17.8946 40 18.5521 39.7346 20.9248 38.6172C29.0303 34.7999 32.9667 31.0304 34.3539 25.7574C34.9311 23.5635 34.9298 23.5881 34.9665 14.7746L35 6.73638L34.7885 6.42871C34.3918 5.85185 34.1273 5.74792 32.8793 5.67882C28.3968 5.43034 23.8391 3.84689 19.5088 1.03355C17.401 -0.335795 17.5868 -0.333027 15.5789 0.973822ZM19.6716 8.80036C22.0621 9.2708 23.9798 10.2769 25.7005 11.9633C27.1241 13.3584 27.9609 14.6908 28.5618 16.5183C29.6645 19.8725 29.1453 23.4206 27.1114 26.4288C26.5298 27.2891 24.9369 28.8502 24.0592 29.4202C21.757 30.9153 19.0326 31.6069 16.4751 31.3454C13.5614 31.0476 11.3133 30.0112 9.29947 28.0375C7.58206 26.3544 6.58506 24.5283 6.05714 22.0986C5.84587 21.1263 5.84679 18.8894 6.05887 17.9022C6.58005 15.4765 7.57459 13.6537 9.29947 11.9633C10.9528 10.3429 12.8049 9.34678 15.1103 8.83795C16.3951 8.55438 18.3402 8.5384 19.6716 8.80036ZM21.144 15.9006C20.9686 16.0024 19.7493 17.1573 18.4342 18.4671L16.0432 20.8486L15.1091 19.8958C14.0309 18.7961 13.6985 18.5727 13.1396 18.5722C12.0585 18.5713 11.3322 19.7138 11.8174 20.6522C12.0138 21.032 14.703 23.7028 15.2176 24.0292C15.6878 24.3274 16.2458 24.3698 16.7074 24.1424C17.0887 23.9545 22.7261 18.4673 23.0676 17.9517C23.3934 17.4596 23.4182 16.919 23.1374 16.4294C22.7557 15.7638 21.8111 15.5132 21.144 15.9006Z" fill="#D9CFBF"/>
</svg>
