<svg width="30" height="40" viewBox="0 0 30 40" fill="none" xmlns="http://www.w3.org/2000/svg">
<path fill-rule="evenodd" clip-rule="evenodd" d="M10.3559 2.36104L10.3762 4.72208H11.5245H12.6729L12.6932 2.36104L12.7134 0H11.5245H10.3357L10.3559 2.36104ZM4.00151 2.28432C3.57066 2.72507 3.21819 3.12048 3.21819 3.16309C3.21819 3.20571 3.94149 3.97732 4.82556 4.87787L6.43294 6.51522L7.27567 5.65869L8.11847 4.80216L6.49196 3.14256C5.5974 2.22976 4.84731 1.48297 4.82518 1.48297C4.80298 1.48297 4.43237 1.84356 4.00151 2.28432ZM16.6151 3.16145L14.9707 4.83939L15.7932 5.67797L16.6157 6.51655L18.2622 4.83806L19.9085 3.1595L19.0841 2.32155L18.2596 1.48359L16.6151 3.16145ZM25.551 3.59424C25.3917 3.63428 25.1505 3.72334 25.0151 3.79226C24.8796 3.8611 21.4059 7.34264 17.2956 11.5289L9.82246 19.1403L9.35646 18.4485C8.0152 16.4567 6.51286 14.9559 5.16494 14.2608C4.03129 13.6763 2.76919 13.6773 1.76362 14.2633C1.57415 14.3737 1.09981 14.7817 0.709599 15.17L0 15.8759L1.636 17.5577C2.53585 18.4828 3.38393 19.409 3.52066 19.6161C4.74855 21.4757 4.95211 24.0718 4.02961 26.1075C3.6518 26.9411 3.36816 27.3319 2.44176 28.2956L1.61434 29.1563L6.9327 34.5781L12.2511 40L13.4955 38.7367L14.7399 37.4733L16.9983 36.4878C19.3088 35.4795 20.01 35.1138 20.7495 34.5311C20.9811 34.3486 23.0871 32.2383 25.4295 29.8415C29.4436 25.734 29.6977 25.4576 29.8506 25.0319C30.4148 23.4609 29.3134 21.851 27.6779 21.8561C27.3109 21.8571 27.0371 21.9062 26.8094 22.0115L26.4769 22.1654L26.8614 21.7364C27.7659 20.7274 27.7962 19.4172 26.9372 18.459C26.4468 17.9119 25.944 17.687 25.2281 17.6944C24.9058 17.6977 24.5735 17.7524 24.3943 17.8314L24.0965 17.9629L24.4532 17.5476C24.8792 17.0515 25.1133 16.4615 25.1133 15.8834C25.1133 14.3004 23.5531 13.1385 22.1018 13.6407L21.6551 13.7953L24.7969 10.5835C27.5413 7.77777 27.9653 7.31259 28.1495 6.9054C28.8281 5.40456 27.8768 3.72014 26.2616 3.56256C26.03 3.53992 25.7102 3.5542 25.551 3.59424Z" fill="#D9CEBF"/>
</svg>
