<svg width="47" height="46" viewBox="0 0 47 46" fill="none" xmlns="http://www.w3.org/2000/svg">
<path fill-rule="evenodd" clip-rule="evenodd" d="M8.28292 0.182937C4.08239 1.04634 1.04391 4.03952 0.186348 8.15883C0.00385546 9.03535 0 9.33977 0 22.9976C0 36.6555 0.00385546 36.9599 0.186348 37.8364C0.427131 38.9931 0.814789 40.025 1.34611 40.9233C2.89123 43.536 5.27924 45.207 8.34021 45.8176C9.23568 45.9962 9.54669 46 23.5 46C37.4533 46 37.7643 45.9962 38.6598 45.8176C39.8415 45.5819 40.8958 45.2025 41.8135 44.6824C44.4827 43.17 46.1899 40.8326 46.8137 37.8364C46.9961 36.9599 47 36.6555 47 22.9976C47 9.33977 46.9961 9.03535 46.8137 8.15883C45.9506 4.0131 42.8952 1.02243 38.6598 0.177636C37.7634 -0.00117173 37.467 -0.004676 23.4397 0.00161371C9.63105 0.00781358 9.10423 0.0141033 8.28292 0.182937ZM24.0064 9.52523L24.2033 10.1037L24.8771 10.1486C25.2477 10.1733 25.5655 10.2368 25.5832 10.2895C25.601 10.3424 25.3873 10.5393 25.1086 10.7273C24.8297 10.9153 24.6018 11.1146 24.6023 11.1704C24.6027 11.2261 24.6814 11.5245 24.7774 11.8332C24.8759 12.1502 24.9154 12.4166 24.8681 12.4452C24.8221 12.473 24.5391 12.3274 24.2393 12.1215L23.6942 11.7472L23.1369 12.1298C22.8304 12.3403 22.5516 12.485 22.5172 12.4513C22.4829 12.4177 22.54 12.1071 22.6441 11.761L22.8334 11.1318L22.3235 10.7525C22.0432 10.5439 21.8211 10.3328 21.83 10.2834C21.839 10.234 22.1488 10.1819 22.5185 10.1676L23.1907 10.1417L23.3983 9.51094C23.5142 9.15872 23.6507 8.89491 23.7076 8.91351C23.7636 8.93175 23.898 9.20706 24.0064 9.52523ZM17.9008 10.9134C18.0813 11.4445 18.1217 11.4964 18.3541 11.4964C18.8661 11.4964 19.4609 11.6133 19.4609 11.7139C19.4609 11.7707 19.3473 11.8847 19.2085 11.9673C19.0697 12.0499 18.8426 12.2102 18.7038 12.3236L18.4516 12.5297L18.6349 13.0993C18.7358 13.4126 18.8184 13.7057 18.8184 13.7507C18.8184 13.9114 18.5814 13.8216 18.0925 13.4754L17.5962 13.1241L17.0907 13.4783C16.6538 13.7846 16.3398 13.9179 16.3398 13.7971C16.3398 13.7776 16.4268 13.486 16.5331 13.1492L16.7264 12.5367L16.4979 12.3535C16.3723 12.2528 16.1305 12.0638 15.9604 11.9336C15.7904 11.8034 15.676 11.6715 15.706 11.6405C15.736 11.6096 16.0626 11.5543 16.4318 11.5178L17.103 11.4515L17.2728 10.9573C17.5252 10.2228 17.5251 10.223 17.6172 10.2786C17.6641 10.307 17.7917 10.5927 17.9008 10.9134ZM30.5336 10.9191L30.7283 11.4515L31.3969 11.5178C31.7647 11.5543 32.0902 11.6091 32.1202 11.6396C32.1502 11.67 32.0323 11.8019 31.8582 11.9327C31.6841 12.0634 31.4375 12.2567 31.3104 12.3622L31.079 12.5543L31.2368 13.0441C31.5275 13.9468 31.4497 14.0109 30.7115 13.4771L30.2199 13.1216L29.7127 13.4771C28.936 14.0215 28.8928 13.972 29.2273 12.9219L29.3599 12.5053L28.8167 12.1201C28.5179 11.9082 28.2734 11.7042 28.2734 11.6667C28.2734 11.6293 28.5989 11.5708 28.9965 11.5369L29.7196 11.4751L29.8317 11.1092C30.1264 10.1464 30.2397 10.1157 30.5336 10.9191ZM13.2978 15.45L13.5047 16.0789H14.1879C15.0265 16.0789 15.0549 16.1719 14.3642 16.6562C14.0876 16.8502 13.8613 17.0387 13.8613 17.075C13.8613 17.1114 13.9426 17.3968 14.042 17.7091C14.1413 18.0216 14.1902 18.3088 14.1507 18.3475C14.1111 18.3863 13.8472 18.2555 13.564 18.0571C13.2809 17.8587 13.0169 17.6963 12.9773 17.6963C12.9378 17.6963 12.669 17.8587 12.3799 18.0571C12.0807 18.2625 11.8301 18.3794 11.7979 18.3285C11.7669 18.2793 11.826 17.9711 11.9294 17.6437C12.0326 17.3163 12.1172 17.0392 12.1172 17.0279C12.1172 17.0165 11.89 16.8542 11.6123 16.6669C10.9108 16.194 10.9432 16.0789 11.7778 16.0789H12.4482L12.6552 15.45C12.769 15.104 12.9136 14.821 12.9765 14.821C13.0394 14.821 13.184 15.104 13.2978 15.45ZM35.1454 15.45L35.3524 16.0789H36.0356C36.8742 16.0789 36.9025 16.1719 36.2118 16.6562C35.9353 16.8502 35.7095 17.0322 35.7102 17.0606C35.7108 17.089 35.7945 17.372 35.8962 17.6895C35.9979 18.0069 36.0475 18.2994 36.0066 18.3395C35.9656 18.3795 35.7063 18.2526 35.4304 18.0572C35.1544 17.8619 34.8892 17.7008 34.8409 17.6992C34.7926 17.6976 34.5135 17.8607 34.2208 18.0618C33.5863 18.4974 33.5088 18.4265 33.7792 17.6571C33.8813 17.3667 33.9648 17.0998 33.9648 17.0642C33.9648 17.0285 33.7376 16.8462 33.46 16.659C32.7621 16.1886 32.7933 16.0789 33.6255 16.0789H34.2959L34.5029 15.45C34.6167 15.104 34.7613 14.821 34.8242 14.821C34.887 14.821 35.0316 15.104 35.1454 15.45ZM11.3949 21.8969L11.6123 22.5034L12.3008 22.5484C12.7065 22.5749 12.974 22.6302 12.9522 22.6831C12.9317 22.7325 12.7096 22.923 12.4587 23.1063C12.2077 23.2896 11.9885 23.453 11.9717 23.4695C11.9548 23.4861 12.022 23.7541 12.1209 24.0653C12.2198 24.3764 12.3008 24.6678 12.3008 24.7128C12.3008 24.8735 12.0639 24.7836 11.5749 24.4375L11.0786 24.0862L10.5732 24.4404C10.2952 24.6353 10.0126 24.7947 9.945 24.7947C9.79519 24.7947 9.78867 24.862 10.0059 24.1657C10.1061 23.8445 10.1884 23.5562 10.1887 23.5251C10.1892 23.494 9.96226 23.3006 9.68457 23.0954C9.40689 22.8902 9.17969 22.6831 9.17969 22.6353C9.17969 22.5874 9.4638 22.5484 9.81107 22.5484C10.2054 22.5484 10.4771 22.5062 10.5351 22.436C10.5861 22.3743 10.702 22.0912 10.7926 21.8071C10.8833 21.5229 11.0069 21.2904 11.0674 21.2904C11.128 21.2904 11.2753 21.5633 11.3949 21.8969ZM36.6391 21.8969L36.8564 22.5034L37.522 22.5298C37.9662 22.5475 38.1871 22.5923 38.1864 22.6646C38.1858 22.7242 37.9585 22.9272 37.6812 23.1155C37.1298 23.4903 37.1327 23.4771 37.4212 24.2893C37.4893 24.4808 37.5449 24.6729 37.5449 24.7161C37.5449 24.8762 37.2995 24.7852 36.8121 24.4444L36.3112 24.0943L35.8115 24.4444C35.0332 24.99 34.965 24.9231 35.3099 23.9522C35.378 23.7607 35.4336 23.5735 35.4336 23.5362C35.4336 23.499 35.2064 23.3006 34.9287 23.0954C34.651 22.8902 34.4238 22.6831 34.4238 22.6353C34.4238 22.5874 34.7079 22.5484 35.0552 22.5484C35.4496 22.5484 35.7213 22.5062 35.7792 22.436C35.8302 22.3743 35.9461 22.0912 36.0367 21.8071C36.1274 21.5229 36.251 21.2904 36.3115 21.2904C36.3721 21.2904 36.5195 21.5633 36.6391 21.8969ZM13.2971 27.7851L13.5131 28.3813L14.1619 28.4075C14.5486 28.4231 14.8246 28.4756 14.8455 28.5374C14.8648 28.5945 14.6517 28.7966 14.372 28.9867C14.0923 29.1767 13.863 29.3765 13.8624 29.4305C13.8618 29.4846 13.9444 29.7651 14.0459 30.054C14.1599 30.3782 14.1979 30.6112 14.1451 30.6629C14.0923 30.7146 13.8488 30.6018 13.5087 30.3683L12.9578 29.9901L12.4496 30.3575C11.686 30.9097 11.6185 30.8578 11.9336 29.9612C12.0346 29.674 12.1172 29.4263 12.1172 29.4109C12.1172 29.3954 11.89 29.2186 11.6123 29.0178C10.9058 28.5069 10.9383 28.3888 11.7856 28.3888H12.4637L12.675 27.758C12.7912 27.4111 12.9301 27.1411 12.9837 27.158C13.0373 27.175 13.1783 27.4571 13.2971 27.7851ZM35.1572 27.8019L35.3542 28.3812L36.0061 28.4075C36.4001 28.4233 36.6722 28.4752 36.6936 28.5387C36.7131 28.5964 36.5011 28.7985 36.2225 28.9879C35.9439 29.1774 35.7144 29.3765 35.7125 29.4305C35.7105 29.4846 35.7916 29.7638 35.8926 30.0511C35.9936 30.3383 36.0762 30.6075 36.0762 30.6492C36.0762 30.7962 35.8665 30.7217 35.4459 30.4248C35.2119 30.2596 34.9743 30.0989 34.918 30.0674C34.8615 30.036 34.5809 30.1711 34.2942 30.3676C33.5213 30.8977 33.4959 30.8791 33.7801 29.9917C33.8804 29.6785 33.963 29.4133 33.9636 29.4025C33.9643 29.3918 33.7376 29.2151 33.46 29.0099C32.7608 28.4932 32.7905 28.3888 33.6362 28.3888H34.3172L34.4746 27.9171C34.7948 26.9569 34.8659 26.945 35.1572 27.8019ZM17.9125 32.3199L18.1299 32.9264L18.7954 32.9528C19.239 32.9704 19.4608 33.0153 19.4608 33.0876C19.4607 33.1471 19.2515 33.3355 18.9958 33.506C18.7401 33.6766 18.5148 33.8418 18.495 33.8732C18.4751 33.9046 18.5395 34.1896 18.6379 34.5065C18.7364 34.8235 18.8173 35.1131 18.8176 35.1502C18.8192 35.2968 18.566 35.1956 18.0925 34.8605L17.5962 34.5091L17.0907 34.8633C16.3062 35.4132 16.2379 35.3476 16.5833 34.3752C16.6514 34.1837 16.707 33.9964 16.707 33.9591C16.707 33.922 16.4798 33.7236 16.2021 33.5183C15.9245 33.3131 15.6973 33.1061 15.6973 33.0583C15.6973 33.0104 15.9814 32.9713 16.3286 32.9713C16.723 32.9713 16.9947 32.9292 17.0526 32.859C17.1037 32.7973 17.2195 32.5142 17.3101 32.23C17.4008 31.9458 17.5245 31.7134 17.585 31.7134C17.6456 31.7134 17.7929 31.9863 17.9125 32.3199ZM30.5035 32.2587C30.7474 32.9494 30.7779 32.9713 31.4975 32.9713C31.8448 32.9713 32.1289 33.0069 32.1289 33.0504C32.1289 33.0939 31.9017 33.2973 31.624 33.5025C31.3463 33.7077 31.1191 33.93 31.1191 33.9963C31.1191 34.0626 31.1811 34.2887 31.2568 34.4988C31.4178 34.9452 31.4336 35.2176 31.2988 35.2176C31.2462 35.2176 30.9819 35.0577 30.7115 34.8622L30.2199 34.5066L29.7127 34.8622C28.9358 35.4067 28.8928 35.3573 29.2278 34.3049L29.3611 33.8864L28.8173 33.5129C28.5182 33.3075 28.2734 33.1034 28.2734 33.0592C28.2734 33.015 28.5898 32.9671 28.9764 32.9526L29.6793 32.9264L29.849 32.4322C29.9424 32.1604 30.0392 31.8841 30.0641 31.8182C30.1503 31.5905 30.3318 31.7726 30.5035 32.2587ZM24.0065 34.2348L24.2035 34.8133L24.9074 34.8395C25.3828 34.8572 25.6107 34.901 25.6093 34.9743C25.6083 35.034 25.3811 35.2415 25.1044 35.4355C24.8278 35.6295 24.6022 35.8317 24.6029 35.8848C24.6037 35.9379 24.6825 36.224 24.7782 36.5205C24.8738 36.817 24.9185 37.0941 24.8776 37.1363C24.8366 37.1784 24.555 37.0417 24.252 36.8326L23.7009 36.4522L23.1403 36.8371C22.832 37.0488 22.5516 37.1946 22.5172 37.1609C22.4829 37.1273 22.5401 36.8162 22.6444 36.4696L22.8339 35.8394L22.2935 35.4324C21.9962 35.2085 21.7768 34.9877 21.8058 34.9418C21.8347 34.8958 22.1577 34.8582 22.5235 34.8582H23.1884L23.3971 34.224C23.5138 33.8697 23.6507 33.6045 23.7076 33.6231C23.7636 33.6413 23.8981 33.9166 24.0065 34.2348Z" fill="#404040"/>
</svg>
