<svg width="47" height="46" viewBox="0 0 47 46" fill="none" xmlns="http://www.w3.org/2000/svg">
<path fill-rule="evenodd" clip-rule="evenodd" d="M28.457 3.28963V6.57926L28.6636 6.44889C28.7772 6.3772 28.9734 6.25438 29.0996 6.17604C29.5447 5.89977 30.3825 5.72565 31.0442 5.77201C33.9355 5.97452 35.2432 9.44375 33.1882 11.4595C32.6306 12.0064 32.067 12.2867 31.2631 12.417C30.5227 12.5372 29.6572 12.3594 28.9788 11.9479C28.7356 11.8003 28.5187 11.6797 28.4969 11.6797C28.4749 11.6797 28.457 13.1352 28.457 14.9141V18.1484H31.7586H35.0602L34.8003 18.5303C33.8643 19.9055 34.1142 21.7554 35.3902 22.8968C36.0849 23.5182 36.7296 23.7557 37.7285 23.7584C38.4154 23.7602 38.5824 23.7265 39.1239 23.4768C40.9066 22.655 41.6301 20.7525 40.8418 18.9592C40.734 18.714 40.5884 18.4668 40.5182 18.4098C40.4481 18.3527 40.3906 18.2706 40.3906 18.2273C40.3906 18.1835 41.8608 18.1484 43.6953 18.1484H47L46.9991 9.9502L46.9982 1.75195L46.7812 1.30273C46.5205 0.762863 46.1778 0.432687 45.623 0.186965C45.2172 0.00718751 45.0621 0.00395312 36.8335 0.00197656L28.457 0V3.28963ZM1.58744 9.83331C1.02987 10.0038 0.508555 10.4466 0.236744 10.9805L0 11.4455V18.3008V25.1562H1.53879H3.07767L3.28045 24.3252C3.59394 23.0402 4.0219 22.2844 4.95015 21.3765C6.2958 20.0603 7.7136 19.5233 9.62545 19.6058C11.2764 19.6769 12.4514 20.1931 13.6891 21.3908C14.2692 21.9522 14.4664 22.2219 14.806 22.9182C15.2297 23.7868 15.4219 24.3994 15.4219 24.8816V25.1562H16.9824H18.543V23.3145C18.543 21.6238 18.5892 21.2724 18.7736 21.5642C18.888 21.7455 19.7136 22.0896 20.2716 22.1886C21.7638 22.4535 23.3075 21.6419 23.9873 20.2351C24.2485 19.6946 24.2793 19.5455 24.2783 18.8223C24.2775 18.135 24.2404 17.9361 24.0313 17.4968C23.1123 15.5663 20.6901 14.8558 18.9331 16.0013L18.543 16.2556V12.9794V9.70312L10.2583 9.70914C3.68335 9.71391 1.89395 9.73951 1.58744 9.83331ZM8.51379 22.2832C6.75056 22.7191 5.56372 24.4645 5.87785 26.1597C5.97901 26.7059 6.33059 27.5138 6.51583 27.6259C6.834 27.8183 6.36125 27.8516 3.30469 27.8516H0L0.000917969 36.0498L0.00183594 44.248L0.218752 44.6973C0.479547 45.2371 0.822225 45.5673 1.37695 45.813C1.78086 45.992 1.94628 45.9961 8.78955 45.998L15.7891 46V44.4727C15.7891 43.6326 15.7667 42.9453 15.7393 42.9453C15.3232 42.9453 14.1054 42.5848 13.4482 42.2669C12.4344 41.7767 11.7163 41.1687 11.1196 40.2956C10.5809 39.5072 10.3108 38.8467 10.1275 37.8691C9.5309 34.6874 11.9688 31.39 15.2601 30.927L15.7432 30.859L15.7683 29.3553L15.7935 27.8516H13.8667H11.9398L12.1997 27.4697C12.8424 26.5255 12.9388 25.2481 12.4468 24.1929C12.1292 23.5116 11.4105 22.8152 10.6937 22.494C10.1263 22.2397 9.09349 22.1399 8.51379 22.2832ZM18.543 31.0794V34.3072L18.0342 34.0074C17.3771 33.6201 16.7566 33.479 15.9402 33.5312C14.7285 33.6087 13.6237 34.3509 13.0668 35.4616C12.8327 35.9285 12.8057 36.0755 12.8057 36.8809C12.8057 37.666 12.8365 37.8436 13.0498 38.2892C13.9618 40.1932 16.4794 40.8932 18.1723 39.7134C18.316 39.6132 18.4582 39.5312 18.4883 39.5312C18.5184 39.5312 18.543 40.9867 18.543 42.7656V46H26.9244H35.3057L35.7808 45.7683C36.042 45.6409 36.385 45.3769 36.543 45.1818C37.1016 44.4914 37.0859 44.759 37.0859 35.9232V27.8516H33.7354C31.8925 27.8516 30.3848 27.8691 30.3848 27.8906C30.3848 27.9119 30.508 28.1242 30.6588 28.3622C31.5029 29.6953 31.3003 31.3681 30.1598 32.482C28.1002 34.4934 24.5556 33.2134 24.3487 30.3837C24.3023 29.7492 24.4779 28.9188 24.7464 28.5029C24.8182 28.3917 24.9437 28.1997 25.0252 28.0762L25.1735 27.8516H21.8582H18.543V31.0794Z" fill="#404040"/>
</svg>
