<svg width="52" height="40" viewBox="0 0 52 40" fill="none" xmlns="http://www.w3.org/2000/svg">
<path fill-rule="evenodd" clip-rule="evenodd" d="M7.36013 0.0644539C6.97166 0.185791 6.41042 0.730324 6.23106 1.15975C6.11782 1.43095 6.09375 4.02399 6.09375 15.924V30.3594L6.30916 30.8072C6.61568 31.4444 7.16361 31.7832 7.95641 31.8256C12.083 32.0462 14.5356 32.4541 17.0625 33.34C19.5207 34.2019 21.8969 35.5969 23.6133 37.186L24.5273 38.0323L24.5561 23.3159C24.5719 15.2219 24.5594 8.45559 24.5285 8.27967C24.3964 7.53182 22.8256 5.50559 21.5073 4.38248C18.3316 1.6772 14.2105 0.242319 8.98828 0.0236678C8.26211 -0.00679409 7.52944 0.0116056 7.36013 0.0644539ZM41.9546 0.0668053C37.159 0.462708 33.415 1.8798 30.4547 4.41939C29.1461 5.54208 27.6021 7.54 27.4715 8.27967C27.4406 8.45559 27.4281 15.2219 27.4439 23.3159L27.4727 38.0323L28.3867 37.186C30.1031 35.5969 32.4793 34.2019 34.9375 33.34C37.4644 32.4541 39.917 32.0462 44.0436 31.8256C44.8374 31.7831 45.3843 31.4445 45.6919 30.805L45.9083 30.3551L45.8819 15.7899L45.8555 1.22466L45.6107 0.865153C45.1723 0.221159 44.7794 0.0296989 43.8415 0.00312135C43.3852 -0.00986074 42.536 0.0188635 41.9546 0.0668053ZM1.87891 6.45042C1.82305 6.47076 1.60499 6.51635 1.39435 6.55182C0.937523 6.6288 0.32957 7.13479 0.137211 7.59806C0.0240703 7.87068 0 10.6102 0 23.2328V38.5371L0.211859 38.9774C0.460789 39.4951 0.816461 39.7757 1.43254 39.9404C1.81868 40.0438 2.05014 40.0238 3.14844 39.7917C7.36338 38.9016 11.5778 38.5338 15.5315 38.7112C17.3954 38.7949 19.7229 39.0764 21.0043 39.3731C21.9659 39.5958 22.0278 39.5685 21.535 39.1382C19.0682 36.9844 15.6608 35.5545 11.6289 34.9813C11.0145 34.8939 9.70907 34.7784 8.72798 34.7244C7.34896 34.6487 6.81657 34.5783 6.38138 34.4144C4.99677 33.893 4.08972 32.9559 3.46856 31.4049C3.31683 31.0261 3.29591 29.8118 3.25 18.7195L3.19922 6.45298L2.58984 6.43325C2.25469 6.42241 1.93477 6.43018 1.87891 6.45042ZM48.8262 6.45829C48.7842 6.50225 48.75 11.9258 48.75 18.5107C48.75 28.7933 48.7286 30.5657 48.5985 31.0686C48.1886 32.6526 47.1246 33.8473 45.6186 34.4144C45.1834 34.5783 44.651 34.6487 43.272 34.7244C42.2909 34.7784 40.9855 34.8939 40.3711 34.9813C36.3392 35.5545 32.9318 36.9844 30.465 39.1382C29.9722 39.5685 30.0341 39.5958 30.9957 39.3731C32.2771 39.0764 34.6046 38.7949 36.4685 38.7112C40.4222 38.5338 44.6366 38.9016 48.8516 39.7917C49.9499 40.0238 50.1813 40.0438 50.5675 39.9404C51.1835 39.7757 51.5392 39.4951 51.7881 38.9774L52 38.5371V23.2427C52 12.6852 51.9666 7.85933 51.8919 7.66072C51.7433 7.26451 51.3053 6.81443 50.8978 6.63912C50.5126 6.47332 48.9425 6.33624 48.8262 6.45829Z" fill="#404040"/>
</svg>
