<svg width="39" height="48" viewBox="0 0 39 48" fill="none" xmlns="http://www.w3.org/2000/svg">
<path fill-rule="evenodd" clip-rule="evenodd" d="M12.7565 0.221292C11.6729 0.503815 10.9657 0.820001 10.0228 1.44346C8.58191 2.39633 7.27229 4.00089 6.6721 5.54891C6.12932 6.94905 6.07211 7.38226 6.06768 10.1248L6.06372 12.6167L6.31767 12.9481C6.83518 13.6235 6.34048 13.5873 15.0331 13.5851C22.5306 13.5831 22.8588 13.5758 23.2415 13.403C23.9638 13.0769 23.9868 12.9836 24.0468 10.1387C24.0953 7.84566 24.1204 7.55329 24.3436 6.69522C25.223 3.31554 27.7997 0.913675 31.3738 0.141965C31.9169 0.024661 30.942 0.00909549 22.7957 0.00487593L13.6049 0L12.7565 0.221292ZM31.4681 2.95116C30.4703 3.2109 29.4209 3.80529 28.6875 4.52618C28.0688 5.13436 27.4178 6.06069 27.4155 6.33609C27.4151 6.39638 27.6374 6.51762 27.9096 6.60548C29.705 7.18497 31.3003 8.56598 32.1292 10.2584C32.8647 11.76 32.8268 11.2943 32.8595 19.2367C32.8785 23.8248 32.9217 26.3396 32.9818 26.3396C33.0329 26.3396 33.413 26.1704 33.8264 25.9637L34.578 25.5878L35.8968 26.245C37.3672 26.9777 37.7547 27.0513 38.3176 26.7052C38.4939 26.5969 38.7228 26.3431 38.8264 26.1411C39.0112 25.7806 39.0142 25.6118 38.9884 16.7034L38.9621 7.6329L38.7096 6.94511C38.346 5.9552 37.9229 5.29376 37.1656 4.53171C36.4339 3.79545 35.3911 3.20855 34.3469 2.94544C33.6439 2.76831 32.1592 2.77122 31.4681 2.95116ZM2.47072 9.50319C1.45294 10.0099 0.639438 10.9093 0.232968 11.9774L0.0307699 12.5088L0.00560136 28.2618C-0.0119319 39.2801 0.0111628 44.162 0.082427 44.5042C0.400382 46.0312 1.61857 47.3377 3.16818 47.8139C3.75828 47.9951 4.06841 48 15.066 48C26.023 48 26.3757 47.9946 26.957 47.8158C28.0793 47.4709 29.0125 46.706 29.5616 45.6812C30.178 44.5308 30.1456 45.4818 30.1454 28.5432C30.1451 11.8931 30.1623 12.4756 29.6397 11.4497C29.1629 10.5137 28.001 9.51416 27.0612 9.23127L26.8491 9.16741V10.8019C26.8491 11.7008 26.8065 12.6636 26.7544 12.9415C26.5187 14.1972 25.6453 15.3037 24.4103 15.9109L23.7011 16.2595L15.2506 16.285C5.74689 16.3135 6.2546 16.3475 5.13219 15.6064C4.46574 15.1664 4.03891 14.6543 3.63998 13.8162L3.33004 13.1652L3.29836 11.1726C3.28093 10.0768 3.2336 9.18007 3.19317 9.18007C3.15282 9.18007 2.8277 9.3255 2.47072 9.50319ZM23.2379 19.7709C23.5177 19.8972 23.6897 20.0598 23.8271 20.3277C24.0121 20.6884 24.0211 20.8579 24.0191 23.9682C24.0167 27.7528 24.001 27.8389 23.248 28.2015C22.8314 28.402 22.813 28.4025 15.0112 28.4025C7.5811 28.4025 7.17576 28.3939 6.86657 28.2289C6.68756 28.1334 6.45492 27.9404 6.34953 27.8C6.16486 27.554 6.15798 27.4174 6.15798 23.9954C6.15798 20.5734 6.16486 20.4368 6.34953 20.1908C6.45492 20.0504 6.68756 19.8574 6.86657 19.7619C7.17585 19.5969 7.57902 19.5884 15.0174 19.5904C22.506 19.5923 22.8598 19.6001 23.2379 19.7709ZM8.84453 23.9954V25.5895H15.0189H21.1932V23.9954V22.4014H15.0189H8.84453V23.9954ZM9.95054 32.0845C10.2374 32.3697 10.2947 32.4973 10.3261 32.9201C10.3697 33.5067 10.1613 33.9188 9.67019 34.2166C9.1064 34.5586 8.27988 34.3784 7.87181 33.8245C7.59665 33.4511 7.56253 32.7419 7.80149 32.3633C8.11134 31.8725 8.52243 31.6676 9.11054 31.7109C9.53558 31.7421 9.66378 31.7992 9.95054 32.0845ZM15.7919 31.8682C16.3746 32.2215 16.6006 33.1248 16.252 33.7064C15.563 34.8558 13.8176 34.4851 13.6824 33.1607C13.5707 32.0669 14.8387 31.2899 15.7919 31.8682ZM21.8627 31.8972C23.3261 32.8697 21.9774 35.0649 20.4434 34.2073C19.7885 33.8411 19.5564 33.0375 19.91 32.3601C20.256 31.697 21.2182 31.469 21.8627 31.8972ZM9.59676 37.8498C10.5534 38.3278 10.6057 39.7342 9.68565 40.2392C9.23281 40.4878 8.46247 40.4267 8.12783 40.1157C7.57761 39.6043 7.4693 38.8112 7.87464 38.2609C8.10276 37.9512 8.61556 37.6858 8.98593 37.6858C9.14146 37.6858 9.41634 37.7596 9.59676 37.8498ZM15.7215 37.8819C16.1649 38.1298 16.4173 38.55 16.4166 39.0392C16.4156 39.8367 15.8541 40.4041 15.066 40.4041C13.9873 40.4041 13.3617 39.388 13.8583 38.4426C14.2353 37.7246 15.0186 37.4889 15.7215 37.8819ZM21.9279 37.9531C22.2922 38.2111 22.5578 38.8718 22.4746 39.3129C22.2446 40.5319 20.4785 40.8185 19.91 39.7291C19.4011 38.754 20.1255 37.6267 21.2047 37.7141C21.4518 37.7342 21.7649 37.8376 21.9279 37.9531Z" fill="#404040"/>
</svg>
