<svg width="47" height="46" viewBox="0 0 47 46" fill="none" xmlns="http://www.w3.org/2000/svg">
<path fill-rule="evenodd" clip-rule="evenodd" d="M7.66703 0.159711C6.1765 1.04892 5.16877 4.59779 4.64007 10.819C4.37939 13.8863 4.30676 15.5947 4.25157 19.9591L4.19621 24.3383H8.34191H12.4876L12.4872 21.4862C12.4869 18.2581 12.3676 14.7629 12.163 11.9868C11.6425 4.92126 10.5728 0.925949 8.98695 0.1236C8.6339 -0.0549795 7.99768 -0.0375528 7.66703 0.159711ZM24.5161 2.83553C21.5363 3.22952 18.0205 4.51865 15.2881 6.21919C14.2329 6.87593 14.3141 6.62827 14.5406 8.49931C14.7217 9.99469 14.9528 12.9051 15.0385 14.7699L15.1045 16.2056L15.4782 16.179C15.9773 16.1436 16.9698 16.3764 17.5538 16.6659C18.6143 17.1916 19.4574 18.3683 19.6691 19.6185C19.9376 21.2037 19.042 22.9509 17.5582 23.7362C17.012 24.0255 15.8836 24.2821 15.5108 24.2021C15.2625 24.1487 15.2557 24.1581 15.2074 24.6246C15.1803 24.8871 15.1373 26.3215 15.1119 27.8122L15.0658 30.5226L15.726 30.8508C18.0125 31.9872 19.1499 33.5849 19.3346 35.9196C19.3642 36.2937 19.3409 36.8828 19.283 37.2287C18.9069 39.4716 19.1977 40.6954 20.3657 41.7853C21.2509 42.6114 21.8632 42.8322 23.9187 43.0664C30.45 43.8105 36.8917 41.4847 41.4646 36.7312C44.0139 34.0812 45.863 30.6121 46.5858 27.123C46.9582 25.3254 47.0432 24.3029 46.9818 22.362C46.9257 20.5895 46.7763 19.5059 46.3796 17.9949C44.31 10.1123 37.2363 3.85921 29.2173 2.82358C27.9447 2.65919 25.8082 2.66467 24.5161 2.83553ZM24.7504 8.79943C25.8867 9.18201 26.845 10.0931 27.2392 11.1661C28.1213 13.5674 26.6339 16.0789 24.0635 16.5283C21.383 16.9969 18.9111 14.602 19.3572 11.9685C19.7767 9.49192 22.3373 7.98729 24.7504 8.79943ZM22.7018 11.4025C22.2833 11.652 22.0376 12.0842 22.0376 12.5707C22.0376 13.9383 23.8659 14.4329 24.6139 13.2677C24.8579 12.8876 24.8199 12.1796 24.5346 11.7876C24.1377 11.2423 23.2744 11.061 22.7018 11.4025ZM35.3967 11.6013C36.0878 11.8358 36.4884 12.0865 36.9666 12.5839C37.509 13.1482 37.6982 13.448 37.9224 14.0991C38.3297 15.2819 38.1324 16.634 37.4009 17.6742C36.9862 18.2638 36.5712 18.6071 35.8518 18.9556C33.8328 19.9339 31.3274 19.0893 30.3814 17.1116C28.8245 13.857 31.9441 10.4295 35.3967 11.6013ZM33.4246 14.1653C32.1417 14.7959 32.6301 16.7013 34.0748 16.7025C34.8898 16.7031 35.487 16.0586 35.4165 15.2546C35.3309 14.2766 34.3212 13.7246 33.4246 14.1653ZM15.2652 18.9182C15.1359 18.9692 15.1136 19.7531 15.2098 20.8663L15.2691 21.5536L15.646 21.5532C16.6784 21.5523 17.3443 20.3765 16.8036 19.5092C16.4862 18.9997 15.7627 18.7218 15.2652 18.9182ZM38.2677 22.0154C40.074 22.5886 41.2542 24.5089 40.9489 26.3785C40.6653 28.1155 39.3104 29.4412 37.5168 29.7368C35.3315 30.0968 33.2273 28.5762 32.8529 26.3664C32.5703 24.6979 33.5262 22.9272 35.1083 22.1885C36.1415 21.706 37.1231 21.6523 38.2677 22.0154ZM36.1995 24.6073C34.9999 25.3228 35.516 27.1215 36.9213 27.1226C38.3445 27.1238 38.8032 25.1698 37.5197 24.5739C37.096 24.3772 36.5625 24.3907 36.1995 24.6073ZM4.28151 28.3132C4.33926 30.1405 4.40207 30.7386 4.53016 30.683C6.08615 30.0092 7.0297 29.7886 8.35568 29.7886C9.68167 29.7886 10.6252 30.0092 12.1812 30.683C12.3093 30.7386 12.3721 30.1405 12.4299 28.3132L12.4704 27.0331H8.35568H4.24101L4.28151 28.3132ZM29.8517 29.4604C31.5561 29.7766 32.8551 31.0877 33.1482 32.7875C33.5197 34.9422 31.9731 37.0088 29.7264 37.3599C27.0354 37.7805 24.6117 35.4142 25.0607 32.8046C25.3396 31.1833 26.4888 29.9422 28.0897 29.5333C28.8016 29.3515 29.1806 29.3359 29.8517 29.4604ZM28.3947 32.2427C27.5597 32.7407 27.511 33.9527 28.3038 34.505C28.6807 34.7675 29.3392 34.8136 29.7481 34.6061C31.0225 33.9594 30.5447 32.0642 29.1072 32.0642C28.8565 32.0642 28.5763 32.1344 28.3947 32.2427ZM6.93246 32.5915C6.15125 32.8256 5.93566 32.9192 5.38611 33.2632C4.36819 33.9003 3.52702 34.9515 3.11153 36.1058C2.92183 36.6329 2.89639 36.9038 2.84975 38.8905C2.79961 41.0218 2.79052 41.1069 2.55941 41.5854C2.14401 42.4453 1.41487 43.0101 0.462134 43.21L0 43.307V44.6536V46L3.55805 45.9633C7.52149 45.9223 7.5473 45.919 8.98411 45.2627C11.2721 44.2177 12.8946 42.3385 13.6101 39.9046C13.7788 39.3308 13.8162 38.9785 13.8175 37.9473C13.8188 36.853 13.7911 36.6139 13.6043 36.1058C13.0091 34.4867 11.7332 33.241 10.1003 32.6843C9.27215 32.402 7.7167 32.3565 6.93246 32.5915Z" fill="#404040"/>
</svg>
