<svg width="46" height="46" viewBox="0 0 46 46" fill="none" xmlns="http://www.w3.org/2000/svg">
<path fill-rule="evenodd" clip-rule="evenodd" d="M7.69926 0.174668C6.80367 0.353096 6.34114 0.607351 6.13962 1.03177C5.97172 1.38557 5.95195 1.90998 6.09603 2.19065C6.1514 2.29855 7.11709 3.31674 8.24197 4.45325C9.53889 5.76361 10.362 6.66752 10.4916 6.92393C10.7705 7.4753 10.8304 8.36995 10.6291 8.97558C10.2876 10.0033 9.26843 10.7283 8.15245 10.7375C7.06442 10.7464 6.91719 10.647 4.55203 8.30796C3.38742 7.15618 2.32303 6.1715 2.18677 6.11975C1.57332 5.88661 0.82532 6.1034 0.515765 6.60409C0.108328 7.263 -0.113592 9.19255 0.0590722 10.5743C0.177987 11.5259 0.572661 12.8887 0.94028 13.6172C2.13032 15.9754 4.40192 17.8497 6.89409 18.5298C7.57486 18.7155 7.84415 18.7375 9.36586 18.7305C10.7511 18.7243 11.22 18.6882 11.8491 18.5397L12.6246 18.3565L20.1147 25.8438L27.6048 33.331L27.489 33.9857C27.2325 35.4357 27.1909 35.9513 27.2331 37.1561C27.2988 39.0353 27.7332 40.3938 28.7467 41.8913C29.2313 42.6074 30.5045 43.8843 31.2073 44.359C33.2767 45.7571 35.6584 46.2767 38.09 45.8606C39.549 45.6109 40.0302 45.1941 39.9516 44.2479L39.9111 43.7589L37.8059 41.6254C35.5084 39.2969 35.3055 39.0163 35.232 38.0673C35.0668 35.9342 37.4535 34.5168 39.2967 35.6534C39.4945 35.7753 40.5461 36.755 41.6337 37.8305C42.7212 38.906 43.6994 39.8309 43.8074 39.886C44.0846 40.0273 44.6969 40.0103 45.0016 39.8527C45.3794 39.6575 45.6026 39.2907 45.7714 38.5879C45.9774 37.73 46.0445 36.0208 45.906 35.157C45.3199 31.5007 42.6137 28.4414 39.117 27.4822C38.1126 27.2068 35.5884 27.1889 34.2808 27.448L33.3994 27.6226L25.8951 20.1215L18.3906 12.6204L18.6195 11.4904C19.2999 8.13133 18.3579 4.97317 15.9933 2.68631C13.7475 0.514364 10.6707 -0.417396 7.69926 0.174668ZM41.8584 0.0701807C41.5028 0.20189 34.3323 4.55981 34.1531 4.75315C33.6232 5.32482 33.6974 6.03422 34.3615 6.74389L34.7489 7.15788L30.2145 11.6897L25.68 16.2216L27.5891 18.1314L29.4982 20.0413L32.1504 17.4131C33.6091 15.9676 35.6616 13.9368 36.7116 12.9002L38.6205 11.0154L39.1384 11.52C39.748 12.1142 40.155 12.2787 40.6708 12.1399C40.8645 12.0878 41.1225 11.953 41.2441 11.8403C41.548 11.5587 45.8918 4.3078 45.9595 3.96882C46.092 3.30704 45.9673 3.10435 44.5357 1.65456C43.7918 0.901227 43.0509 0.222195 42.8892 0.145469C42.599 0.00782973 42.1209 -0.0271191 41.8584 0.0701807ZM7.69198 30.62C0.736426 37.5899 0.674407 37.6587 0.231107 38.908C0.0570049 39.3988 0.0239281 39.6711 0.0239281 40.615C0.0239281 41.5589 0.0570049 41.8312 0.231107 42.322C0.813635 43.9634 2.08071 45.2234 3.67378 45.745C4.60299 46.0492 6.21404 46.05 7.07386 45.7466C8.32188 45.3063 8.391 45.2442 15.3655 38.2901C19.0114 34.6549 21.9943 31.639 21.9943 31.5879C21.9943 31.4672 14.5172 23.9941 14.3963 23.9941C14.3457 23.9941 11.3288 26.9758 7.69198 30.62ZM15.8247 30.0044C16.3827 30.3721 16.5934 31.1359 16.293 31.7026C16.2223 31.836 14.2302 33.8718 11.8663 36.2265C8.40798 39.6714 7.50979 40.5199 7.26908 40.5701C6.30042 40.7717 5.49939 39.9972 5.67529 39.0289C5.73101 38.722 6.21207 38.2078 9.97877 34.4289C12.3112 32.0889 14.3409 30.0979 14.4892 30.0045C14.8427 29.7817 15.4867 29.7817 15.8247 30.0044Z" fill="#404040"/>
</svg>
