<svg width="600" height="320" viewBox="0 0 600 320" fill="none" xmlns="http://www.w3.org/2000/svg">
<g clip-path="url(#clip0_181_135)">
<path d="M454 11H386V9H454V11Z" fill="#39AAE1"/>
<path d="M375 10L390 16C390 16 386 10 390 5L375 10Z" fill="#39AAE1"/>
<path d="M442 48H387V46H442V48Z" fill="#39AAE1"/>
<path d="M376 47L390 52C390 52 387 47 390 41L376 47Z" fill="#39AAE1"/>
<path d="M508 9H577V11H508V9Z" fill="#39AAE1"/>
<path d="M588 10L573 5C573 5 577 10 573 16L588 10Z" fill="#39AAE1"/>
<path d="M470 46H518V48H470V46Z" fill="#39AAE1"/>
<path d="M529 47L514 41C514 41 518 47 514 52L529 47Z" fill="#39AAE1"/>
<path d="M375 0V70H373V0H375Z" fill="#39AAE1"/>
<path d="M590 0V186H588V0H590Z" fill="#39AAE1"/>
<path d="M529 25V90H527V25H529Z" fill="#39AAE1"/>
<path d="M473.556 7.06613L474.38 -1.02529H482.695V0.880541H476.13L475.64 5.30519C476.435 4.83709 477.338 4.60304 478.348 4.60304C479.827 4.60304 481.001 5.09343 481.87 6.07421C482.739 7.04755 483.174 8.3664 483.174 10.0308C483.174 11.7025 482.721 13.0214 481.814 13.9873C480.915 14.9458 479.656 15.425 478.036 15.425C476.602 15.425 475.432 15.0275 474.525 14.2325C473.619 13.4375 473.102 12.3378 472.976 10.9335H474.927C475.053 11.8623 475.384 12.5644 475.919 13.04C476.453 13.5081 477.159 13.7421 478.036 13.7421C478.995 13.7421 479.745 13.4152 480.287 12.7613C480.837 12.1075 481.112 11.2047 481.112 10.053C481.112 8.96824 480.815 8.09892 480.221 7.44507C479.634 6.78378 478.85 6.45314 477.869 6.45314C476.97 6.45314 476.264 6.65004 475.751 7.04384L475.205 7.48965L473.556 7.06613ZM495.902 0.133812L489.181 15.2021H487.019L493.718 0.668782H484.935V-1.02529H495.902V0.133812Z" fill="#39AAE1"/>
<path d="M455.945 46.1965H458.197V47.8794H455.945V51.6465H453.872V47.8794H446.483V46.6646L453.75 35.419H455.945V46.1965ZM448.824 46.1965H453.872V38.2388L453.627 38.6846L448.824 46.1965ZM470.69 51.6465H460.058V50.1642L465.675 43.9228C466.507 42.9792 467.079 42.2139 467.391 41.6269C467.711 41.0325 467.87 40.4195 467.87 39.788C467.87 38.9409 467.614 38.2462 467.101 37.7038C466.589 37.1614 465.905 36.8902 465.051 36.8902C464.025 36.8902 463.227 37.1837 462.655 37.7707C462.09 38.3502 461.807 39.1601 461.807 40.2003H459.746C459.746 38.7069 460.225 37.4995 461.183 36.5781C462.149 35.6568 463.438 35.1961 465.051 35.1961C466.559 35.1961 467.751 35.5937 468.628 36.3887C469.505 37.1763 469.943 38.2276 469.943 39.5428C469.943 41.1403 468.925 43.0424 466.89 45.2491L462.543 49.9635H470.69V51.6465Z" fill="#39AAE1"/>
<path d="M380 306H425V308H380V306ZM374 302H376V303L377 304V305H378L379 306H380V308H379V307H378H377H376V306L375 305V304L374 303V302ZM376 71V302H374V71H376ZM380 66V68H379H378L377 69V70H376V71H374V70H375V69V68H376V67H377V66H378H379H380ZM425 68H380V66H425V68ZM430 71H428V70V69H427V68H426H425V66H426H427L428 67H429V68H430V69V70V71ZM428 302V71H430V302H428ZM425 308V306H426V305H427H428V304V303V302H430V303V304V305H429V306H428V307H427H426V308H425Z" fill="#35302F"/>
<path d="M429 296L518 294V296L429 298L428 297L429 296ZM429 298H428V297L429 298ZM430 77V297H428V77L429 76L430 77ZM428 77V76H429L428 77ZM518 80L429 78V76L518 78V80ZM529 89H527V88V87V86H526V85V84H525V83L524 82L523 81H522V80H521H520H519H518V78H519H520H521L522 79H523L524 80H525V81H526V82H527V83L528 84V85V86H529V87V88V89ZM527 285V89H529V285H527ZM518 296V294H519H520L521 293H522L523 292H524V291H525V290L526 289V288L527 287V286V285H529V286V287L528 288V289V290H527V291L526 292V293H525L524 294H523V295H522H521L520 296H519H518Z" fill="#35302F"/>
<path d="M528 227V229L527 228L528 227ZM528 229H527V228L528 229ZM529 145V228H527V145L528 144L529 145ZM527 145V144H528L527 145ZM528 145V144V145ZM539 155H538V154H537V153V152V151L536 150V149H535V148H534V147H533V146H532H531H530V145H529H528V144H529L530 145H531H532H533H534L535 146H536V147L537 148L538 149V150H539V151V152V153V154V155ZM538 218V155H539V218H538ZM528 229V227H529H530H531L532 226H533L534 225L535 224L536 223V222H537V221V220V219L538 218H539V219V220V221V222L538 223V224H537V225H536V226L535 227H534V228H533H532L531 229H530H529H528Z" fill="#35302F"/>
<path d="M539 174H551V176H539L538 175L539 174ZM538 175V174H539L538 175ZM538 197V175H540V197L539 198L538 197ZM539 198H538V197L539 198ZM551 198H539V196H551L552 197L551 198ZM552 197L553 198H551L552 197ZM548 189H550V190V191V192L551 193V194V195L552 196V197L551 198H550V197V196L549 195V194V193V192H548V191V190V189ZM550 183V189H548V183H550ZM551 176V174L552 176V177H551V178V179V180H550V181V182V183H548V182V181V180H549V179V178V177H550V176V175H551V176ZM551 174H553L552 176L551 174Z" fill="#35302F"/>
<path d="M581 206L582 204L583 205L582 207V209V210V212V213V215V217V218V220V221V223L583 224V226V227V229L584 230V231V232L585 234V235V236L586 237V238V239L587 240V241V242H586H585V241V240L584 239V238V237L583 236V235V234V233L582 232V230V229L581 228V226V225V223L580 221V220V218V217V215V213V212V210V208V207L581 205V206ZM582 204L583 205L582 204ZM582 204L581 206V205L582 204ZM581 206H580L581 205V206ZM585 200L586 201L585 202V203H584V204H583V205V206L581 205V204H582V203V202H583V201H584V200H585ZM588 191H590V192V193V194L589 195V196V197H588V198V199H587V200L586 201L585 200V199L586 198V197H587V196V195H588V194V193V192V191ZM590 182V191H588V182H590ZM585 173L586 172H587V173L588 174V175H589V176V177V178H590V179V180V181V182H588V181V180V179V178H587V177V176L586 175V174H585V173ZM581 167L582 168L583 167V168L584 169V170H585V171H586V172L585 173H584V172L583 171V170H582V169H581V168V167ZM581 168L580 167H581V168ZM582 168L581 167H583L582 168ZM583 167V168H582L583 167ZM586 131L587 132V133V134H586V135V136V137L585 138V139V140L584 141V142V144L583 145V147V148L582 150V151V153V154V156V158V159V161V162V164V166L583 167L581 168L580 166V164V163V161V159V158V156V154V153V151L581 149V148V146V145H582V143V142L583 141V139V138V137L584 136V135V134H585V133V132L586 131ZM587 132L586 131L587 132ZM588 122H590V123H589V124V125V126V127V128V129H588V130V131L587 132L586 131V130V129H587V128V127V126V125H588V124V123V122ZM569 103V101H570H571H572L573 102H574H575H576L577 103H578L579 104H580V105H581L582 106L583 107L584 108L585 109V110L586 111H587V112V113L588 114V115L589 116V117V118V119V120V121L590 122H588V121V120L587 119V118V117V116L586 115V114L585 113V112H584V111L583 110V109H582L581 108V107H580L579 106L578 105H577H576L575 104H574L573 103H572H571H570H569ZM550 122H548V121V120V119L549 118V117V116V115L550 114V113L551 112V111H552V110L553 109L554 108V107H555L556 106V105H557L558 104H559L560 103H561L562 102H563H564H565L566 101H567H568H569V103H568H567H566H565L564 104H563H562V105H561H560L559 106H558V107H557L556 108V109H555L554 110V111L553 112L552 113V114V115L551 116V117V118H550V119V120V121V122ZM552 131H550V132V131V130H549V129V128V127V126H548V125V124V123V122H550V123V124V125V126V127H551V128V129V130H552V131ZM550 131H552L550 132V131ZM550 132V131V132ZM557 167L555 168V167V166L556 164V162V161V159V158V156V154V153L555 151V150V148V147V145H554V144V142L553 141V140V139L552 138V137V136V135L551 134V133V132H550L552 131V132H553V133V134L554 135V136V137L555 138V139V141V142L556 143V145L557 146V148V149V151V153L558 154V156V158V159V161V163L557 164V166V168V167ZM555 168V167V168ZM555 168L557 167V168H555ZM557 167V168V167ZM550 183H548V182V181V180H549V179V178V177H550V176V175H551V174V173H552V172L553 171V170H554V169V168H555V167L557 168L556 169V170H555V171L554 172V173L553 174V175L552 176V177L551 178V179V180H550V181V182V183ZM548 189V183H550V189H548ZM557 206L555 204V206V205L554 204V203H553V202V201H552V200L551 199V198L550 197V196L549 195V194V193L548 192V191V190V189H550V190V191V192L551 193V194V195H552V196V197H553V198V199H554V200V201H555V202H556V203V204H557V205V206ZM557 205V206V205ZM555 204L557 206L555 205V204ZM555 205V204V205ZM552 242H550L551 241V240V239L552 238V237V236L553 235V234V232L554 231V230V229L555 227V226V224V223V221L556 220V218V217V215V213V212V210V209L555 207V205H557V207V208L558 210V212V213V215V217V218L557 220V221V223V225V226L556 228V229V230L555 232V233V234V235L554 236V237V238L553 239V240V241L552 242ZM550 242H552H550ZM550 251H548V250V249V248V247H549V246V245V244H550V243V242H552V243L551 244V245V246V247H550V248V249V250V251ZM569 271V272H568H567H566H565H564L563 271H562H561L560 270H559L558 269H557L556 268L555 267L554 266V265H553L552 264V263L551 262V261L550 260V259L549 258V257V256V255L548 254V253V252V251H550V252V253V254V255L551 256V257V258L552 259V260L553 261V262L554 263L555 264L556 265L557 266L558 267L559 268H560L561 269H562L563 270H564H565H566H567H568L569 271ZM588 251H590L589 252V253V254V255V256V257L588 258V259L587 260V261V262L586 263L585 264V265H584L583 266V267L582 268H581L580 269L579 270H578L577 271H576H575L574 272H573H572H571H570H569V271L570 270H571H572H573H574L575 269H576H577L578 268H579V267H580L581 266V265H582L583 264V263H584V262L585 261V260H586V259L587 258V257V256V255V254L588 253V252V251ZM586 242H587H588V243V244L589 245V246V247V248V249V250L590 251H588V250V249H587V248V247V246V245H586V244V243V242ZM587 242H586H587Z" fill="#35302F"/>
<path d="M110 34H23V33H110V34Z" fill="#39AAE1"/>
<path d="M12 34L26 39C26 39 23 34 26 28L12 34Z" fill="#39AAE1"/>
<path d="M155 33H243V34H155V33Z" fill="#39AAE1"/>
<path d="M254 34L240 28C240 28 243 34 240 39L254 34Z" fill="#39AAE1"/>
<path d="M12 18V178H10V18H12Z" fill="#39AAE1"/>
<path d="M255 18V178H254V18H255Z" fill="#39AAE1"/>
<path d="M126.658 30.9598C126.658 32.3995 126.416 33.6576 125.932 34.734C125.447 35.8037 124.761 36.6211 123.873 37.1862C122.985 37.7513 121.949 38.0338 120.765 38.0338C119.615 38.0338 118.599 37.758 117.717 37.2063L116.738 38.7705H115.305L116.759 36.4394C115.48 35.1477 114.841 33.2909 114.841 30.869V30.0314C114.841 28.6186 115.087 27.3706 115.578 26.2875C116.069 25.2044 116.762 24.3769 117.657 23.805C118.558 23.2265 119.588 22.9372 120.745 22.9372C122.184 22.9372 123.402 23.3577 124.398 24.1986L125.437 22.5335H126.86L125.256 25.1068C126.177 26.3649 126.645 27.9829 126.658 29.9608V30.9598ZM116.769 30.9598C116.769 32.6013 117.098 33.8964 117.758 34.845L123.449 25.7224C122.763 24.9756 121.862 24.6023 120.745 24.6023C119.52 24.6023 118.555 25.0698 117.848 26.005C117.149 26.9334 116.789 28.225 116.769 29.88V30.9598ZM124.731 30.0112C124.731 28.7868 124.543 27.7339 124.166 26.8526L118.626 35.7431C119.238 36.1737 119.951 36.3889 120.765 36.3889C122.016 36.3889 122.985 35.9348 123.671 35.0266C124.358 34.1117 124.711 32.8032 124.731 31.1011V30.0112Z" fill="#39AAE1"/>
<path d="M140.135 23.1289V24.7133H139.792C138.339 24.7402 137.182 25.1707 136.321 26.005C135.46 26.8392 134.962 28.0131 134.827 29.5268C135.601 28.6388 136.657 28.1948 137.996 28.1948C139.274 28.1948 140.294 28.6455 141.054 29.547C141.821 30.4485 142.204 31.6124 142.204 33.0386C142.204 34.5523 141.79 35.7633 140.963 36.6715C140.142 37.5797 139.039 38.0338 137.653 38.0338C136.247 38.0338 135.106 37.4956 134.232 36.4192C133.357 35.3361 132.92 33.9435 132.92 32.2414V31.5249C132.92 28.8204 133.495 26.7551 134.646 25.3288C135.803 23.8959 137.522 23.1626 139.802 23.1289H140.135ZM137.683 29.7488C137.044 29.7488 136.455 29.9406 135.917 30.324C135.379 30.7075 135.006 31.1885 134.797 31.7671V32.4533C134.797 33.6643 135.069 34.6398 135.614 35.3798C136.159 36.1198 136.839 36.4899 137.653 36.4899C138.494 36.4899 139.153 36.1804 139.631 35.5615C140.115 34.9425 140.357 34.1319 140.357 33.1294C140.357 32.1203 140.112 31.3063 139.621 30.6873C139.136 30.0617 138.491 29.7488 137.683 29.7488ZM145.272 30.4653L146.019 23.139H153.547V24.8646H147.603L147.159 28.8709C147.879 28.4471 148.696 28.2351 149.611 28.2351C150.95 28.2351 152.013 28.6792 152.8 29.5672C153.587 30.4485 153.981 31.6427 153.981 33.1496C153.981 34.6633 153.571 35.8575 152.75 36.7321C151.936 37.5999 150.795 38.0338 149.329 38.0338C148.03 38.0338 146.971 37.6739 146.15 36.9541C145.329 36.2342 144.862 35.2385 144.747 33.967H146.513C146.628 34.808 146.927 35.4437 147.411 35.8743C147.896 36.2981 148.535 36.51 149.329 36.51C150.197 36.51 150.876 36.214 151.367 35.622C151.865 35.03 152.114 34.2126 152.114 33.1698C152.114 32.1876 151.845 31.4005 151.307 30.8084C150.775 30.2097 150.066 29.9103 149.177 29.9103C148.363 29.9103 147.724 30.0886 147.26 30.4451L146.766 30.8488L145.272 30.4653Z" fill="#39AAE1"/>
<path d="M242 184H240V178V173L239 167L238 162L237 157L236 152L234 147L232 143L230 138L227 133L225 129L222 124L219 120L216 116L212 112L209 108L205 105L201 101L197 98L193 95L189 92L184 90L179 87L175 85L170 83L165 82L160 80L155 79L150 78L145 77H139H134V75H139L145 76H150L155 77L160 78L165 80L170 82L175 84L180 86L185 88L190 91L194 94L198 97L202 100L206 103L210 107L214 111L217 115L221 119L224 123L226 128L229 132L232 137L234 142L236 146L237 151L239 156L240 162L241 167L242 172V178V184ZM134 293V291H139H145L150 290L155 289L160 288L165 287L170 285L175 283L179 281L184 278L189 276L193 273L197 270L201 267L205 263L209 260L212 256L216 252L219 248L222 244L225 240L227 235L230 230L232 226L234 221L236 216L237 211L238 205L239 200L240 195V189V184H242V189V195L241 200L240 206L239 211L237 216L236 221L234 226L232 231L229 236L226 241L224 245L221 249L217 253L214 257L210 261L206 265L202 268L198 272L194 275L190 277L185 280L180 283L175 285L170 287L165 288L160 290L155 291L150 292L145 293H139H134ZM24 184H26V189L27 195V200L28 205L29 211L31 216L33 221L34 226L37 230L39 235L42 240L44 244L47 248L51 252L54 256L58 260L61 263L65 267L69 270L73 273L78 276L82 278L87 281L92 283L97 285L102 287L107 288L112 289L117 290L123 291H128H134V293H128H123L117 292L112 291L106 290L101 288L96 287L91 285L86 283L81 280L77 277L72 275L68 272L64 268L60 265L56 261L53 257L49 253L46 249L43 245L40 241L37 236L35 231L33 226L31 221L29 216L28 211L26 206L25 200V195L24 189V184ZM134 75V77H128H123L117 78L112 79L107 80L102 82L97 83L92 85L87 87L82 90L78 92L73 95L69 98L65 101L61 105L58 108L54 112L51 116L47 120L44 124L42 129L39 133L37 138L34 143L33 147L31 152L29 157L28 162L27 167V173L26 178V184H24V178L25 172V167L26 162L28 156L29 151L31 146L33 142L35 137L37 132L40 128L43 123L46 119L49 115L53 111L56 107L60 103L64 100L68 97L72 94L77 91L81 88L86 86L91 84L96 82L101 80L106 78L112 77L117 76H123L128 75H134Z" fill="#35302F"/>
<path d="M254 184H255V190V196L254 202L253 208L252 214L250 220L248 226L246 231L243 237L241 242L238 247L235 252L231 257L227 262L224 266L220 270L215 275L211 278L206 282L201 285L196 289L191 292L186 294L180 297L175 299L169 301L163 303L157 304L152 305L146 306H140H134V305L140 304H146L152 303L157 302L163 301L169 299L174 297L180 295L185 293L190 290L195 287L200 284L205 281L210 277L214 273L218 269L222 265L226 261L230 256L233 251L236 246L239 241L242 236L244 231L246 225L248 220L250 214L251 208L252 202L253 196V190L254 184ZM134 64V62H140L146 63H152L157 64L163 66L169 67L175 69L180 72L186 74L191 77L196 80L201 83L206 86L211 90L215 94L220 98L224 102L227 107L231 111L235 116L238 121L241 126L243 131L246 137L248 142L250 147L252 153L253 159L254 165L255 171V177V184H254L253 177V171L252 165L251 159L250 153L248 148L246 143L244 138L242 132L239 127L236 122L233 117L230 112L226 108L222 103L218 99L214 95L210 91L205 88L200 84L195 81L190 78L185 76L180 73L174 71L169 69L163 68L157 66L152 65L146 64H140H134ZM13 184H11V177L12 171V165L13 159L15 153L16 147L18 142L21 137L23 131L26 126L29 121L32 116L35 111L39 107L43 102L47 98L51 94L56 90L60 86L65 83L70 80L75 77L80 74L86 72L91 69L97 67L103 66L109 64L115 63H121L127 62H134V64H127H121L115 65L109 66L103 68L98 69L92 71L87 73L81 76L76 78L71 81L66 84L61 88L57 91L52 95L48 99L44 103L40 108L37 112L33 117L30 122L27 127L25 132L22 138L20 143L18 148L17 153L15 159L14 165L13 171V177V184ZM134 305V306H127H121L115 305L109 304L103 303L97 301L91 299L86 297L80 294L75 292L70 289L65 285L60 282L56 278L51 275L47 270L43 266L39 262L35 257L32 252L29 247L26 242L23 237L21 231L18 226L16 220L15 214L13 208L12 202V196L11 190V184H13V190V196L14 202L15 208L17 214L18 220L20 225L22 231L25 236L27 241L30 246L33 251L37 256L40 261L44 265L48 269L52 273L57 277L61 281L66 284L71 287L76 290L81 293L87 295L92 297L98 299L103 301L109 302L115 303L121 304H127L134 305Z" fill="#35302F"/>
<path d="M118 105C117 105 117 106 117 106C117 107 116 107 116 107C116 107 115 107 114 107C114 106 113 106 113 105V104C112 103 112 103 112 102V101C112 100 112 100 112 99C112 99 112 98 113 98C113 97 113 97 113 97H114H115C115 97 115 97 114 98V99C114 100 114 100 114 101V102C114 103 114 104 115 105C115 106 116 106 116 105L117 104C117 103 116 103 116 103C116 102 116 102 116 102C116 101 116 101 116 100L117 99C117 99 117 98 118 98C119 98 119 99 119 99C119 99 119 100 119 101L118 103C118 104 119 104 120 104C120 104 121 103 121 102C121 101 121 100 122 100C122 99 122 98 122 97C122 97 122 97 121 96C121 95 121 95 121 94H122C123 94 123 94 124 94V95C124 95 124 95 124 96C125 97 126 96 126 96C127 95 127 96 125 97C125 98 124 97 124 97C123 99 123 100 123 101C123 102 122 103 122 103C121 105 121 105 120 106C119 106 119 106 119 106C118 105 118 105 118 105ZM123 96V95C122 95 122 96 123 96Z" fill="#777577"/>
<path d="M130 102V101C131 100 131 99 132 98C131 98 131 98 131 98C131 97 131 97 132 97C132 97 132 97 133 97C133 97 134 97 133 97V98H134C135 99 135 99 135 100C135 100 135 100 134 101C134 102 133 102 133 103C133 103 133 103 134 103C134 103 135 103 136 103C136 102 137 102 137 101C138 100 138 99 139 98C140 98 140 97 141 96C141 96 141 96 141 95C142 95 142 95 143 95H144C144 95 144 96 143 96C143 96 143 96 143 97C142 97 141 98 141 99C140 100 140 100 139 101H140H141C141 100 141 100 142 100C142 100 142 100 142 99C142 99 142 99 143 99C143 99 143 99 143 100C143 100 143 100 142 101C142 101 141 101 141 102V103H140C140 104 140 104 140 104C141 104 142 104 142 104H143C143 104 143 104 143 103C143 103 143 103 143 102C143 102 144 101 145 101C146 100 147 100 148 100C148 101 148 101 148 101C149 102 148 102 148 102C148 103 147 103 147 104C146 104 145 104 145 105C145 106 146 106 146 106C147 106 147 105 147 105C148 105 148 105 148 104C149 104 149 103 150 103L151 102C151 101 152 101 152 101C153 100 154 100 154 100C155 100 155 100 155 100C155 101 155 102 154 102C153 103 152 103 151 103C150 104 150 104 150 105C149 105 149 106 148 106C148 107 149 107 150 106H151C149 107 148 108 148 107C147 107 147 107 147 107V106H146C145 106 144 106 144 106L143 105H142H141C140 105 139 105 139 105C139 104 139 104 139 104V103C139 103 139 102 140 102C139 102 139 102 139 102C139 102 139 102 138 102C138 102 138 103 137 103C137 104 137 104 137 104H136H135C134 104 133 104 132 104V103C132 102 132 102 132 101C133 100 133 100 133 100C133 100 133 100 133 99C133 99 133 99 132 99C132 100 132 101 131 101C131 102 130 102 130 103C129 104 128 104 126 104H125H124C123 104 123 104 123 104C124 103 124 103 124 103C124 102 124 102 124 102C123 101 124 100 124 99C125 98 126 98 127 98H128L129 99C129 100 128 100 128 101C127 102 127 102 126 103C127 103 127 103 127 103C128 103 129 103 130 102ZM152 102L154 101C155 100 154 101 152 102ZM126 102L127 101C127 100 127 100 127 99C126 99 126 99 126 100C125 100 125 101 125 101C125 102 125 102 125 102H126ZM144 104C145 104 146 104 146 103C147 103 147 102 147 102V101C147 101 146 101 146 102C145 102 145 102 145 103H144C144 104 144 104 144 104Z" fill="#777577"/>
<path d="M151 129C152 126 153 123 153 120C153 109 144 99 134 99C123 99 114 109 114 120C114 123 115 126 116 129C116 129 124 147 121 165C121 165 120 166 119 167C115 171 112 177 112 184C112 190 115 196 119 200C120 201 120 202 121 203C124 220 116 239 116 239C115 242 114 245 114 249C114 260 123 269 134 269C144 269 153 260 153 249C153 245 152 242 151 239C151 239 143 220 146 203C146 203 147 202 147 201C152 197 155 191 155 184C155 177 152 171 147 166L146 165C143 147 151 129 151 129Z" fill="#FEFEFE"/>
<path d="M152 120H154V121V122V123V124V125H153V126V127V128H152V129L150 128H151V127V126L152 125V124V123V122V121V120ZM134 100V99H135H136H137H138H139L140 100H141H142V101H143L144 102H145L146 103H147V104L148 105L149 106L150 107L151 108V109L152 110V111L153 112V113L154 114V115V117V118V119V120H152V119V118V117V116V115L151 114V113V112L150 111V110L149 109V108L148 107H147V106L146 105H145V104H144L143 103H142V102H141H140L139 101H138H137H136H135L134 100ZM115 120H113V119V118V117V115V114L114 113V112L115 111V110L116 109V108L117 107L118 106L119 105L120 104V103H121L122 102H123L124 101H125V100H126H127L128 99H129H130H131H132H134V100H133L132 101H131H130H129H128L127 102H126H125V103H124L123 104H122V105H121L120 106V107H119L118 108V109L117 110V111L116 112V113V114L115 115V116V117V118V119V120ZM116 128V130L115 129V128H114V127V126V125H113V124V123V122V121V120H115V121V122V123V124V125H116V126V127V128H117H116ZM116 130H115V129L116 130ZM116 130V128H117L116 130ZM116 128H117H116ZM122 165H120V163V161V160V158L121 157V155L120 153V152V150V149V147V146L119 145V144V142V141L118 140V139V137L117 136V135V134L116 133V132V131L115 130V129L117 128V129V130L118 131V132V133L119 134V135V136L120 137V138V139V141L121 142V143V145H122V147V148V150V152V153V155V157V158V160V162V163V165ZM120 168L119 166V165H120H122H121V166V167H120V168ZM113 184H111V183V182V181V180V179V178L112 177V176V175L113 174V173L114 172V171H115V170L116 169L117 168V167H118L119 166L120 168H119V169H118V170H117V171L116 172V173H115V174V175H114V176V177L113 178V179V180V181V182V183V184ZM120 200L119 201H118V200H117V199H116V198H115V197L114 196V195H113V194V193L112 192V191V190L111 189V188V187V186V185V184H113V185V186V187V188V189L114 190V191V192L115 193V194L116 195V196H117V197H118V198L119 199H120V200ZM121 203V202L120 203V202H119V201L120 200H121V201V202V203ZM121 202L122 203H121V202ZM121 202V203H120L121 202ZM120 203L119 202H121L120 203ZM116 240V239H115V238H116V237V236V235L117 234V233V232L118 231V230V229L119 227V226V225V223L120 222V220V219V217V216V214L121 212V211L120 209V208V206V204V203L122 202V204V206V207V209V211V212V214V216V217V219V220V222L121 223V225V226L120 228V229V230V231L119 233V234V235L118 236V237L117 238V239V240H116ZM117 240H116H117ZM116 239V240L115 239H116ZM115 239H116H115ZM115 249H113V248V247V246V245V244V243H114V242V241V240H115V239L117 240H116V241V242V243H115V244V245V246V247V248V249ZM134 268V270H132H131H130L129 269H128H127L126 268H125L124 267H123L122 266H121L120 265V264H119L118 263V262L117 261L116 260L115 259V258L114 257V256V255L113 254V253V252V251V250V249H115V250V251V252V253L116 254V255V256L117 257V258V259H118V260L119 261L120 262L121 263H122V264L123 265H124L125 266H126L127 267H128H129L130 268H131H132H133H134ZM152 249H154V250V251V252V253V254L153 255V256V257L152 258V259L151 260L150 261L149 262V263L148 264H147V265L146 266H145L144 267H143L142 268H141L140 269H139H138L137 270H136H135H134V268H135H136H137L138 267H139H140L141 266H142L143 265H144L145 264V263H146L147 262L148 261L149 260V259H150V258V257L151 256V255V254L152 253V252V251V250V249ZM150 239H152V240H153V241V242V243H154V244V245V246V247V248V249H152V248V247V246V245V244V243H151V242V241V240H150V239ZM150 240V239V240ZM152 239H150H152ZM145 202L147 203V204V206V208V209L146 211V212L147 214V216V217V219V220V222L148 223V225V226V227L149 229V230V231L150 232V233V234L151 235V236V237V238H152V239L150 240V239V238L149 237V236L148 235V234V233V231L147 230V229V228L146 226V225V223L145 222V220V219V217V216V214V212V211V209V207V206V204V202ZM147 200L148 202V201V202H147V203L145 202H146V201L147 200ZM155 184H156V185V186L155 187V188V189V190V191V192V193L154 194V195H153V196V197H152V198L151 199H150V200H149V201L148 202L147 200L148 199H149V198L150 197L151 196V195H152V194V193H153V192V191H154V190V189V188L155 187V186V185V184ZM147 167L148 166H149V167H150V168H151V169H152V170L153 171V172H154V173V174H155V175V176V177V178V179V180L156 181V182V183V184H155V183V182V181V180L154 179V178V177L153 176V175V174H152V173V172H151V171L150 170H149V169L148 168H147V167ZM145 165L147 164V165H148V166L147 167H146V166V165H145ZM150 128L152 129V130L151 131V132L150 133V134V135V136L149 137V138V140L148 141V142V144L147 145V147V148V150L146 152V153V155V156V158V160L147 161V163V164L145 165V163V161V160L144 158V156V155V153L145 151V150V148V147V145H146V143V142V140L147 139V138V137L148 136V135V134L149 133V132V131L150 130V129V128Z" fill="#35302F"/>
<path d="M227 184H225V183V182V181V180V179H224V178L223 177V176H222V175H221V174H220L219 173H218L217 172H216H215H214V170H215H216H217L218 171H219H220V172H221L222 173L223 174L224 175L225 176V177H226V178L227 179V180V181V182V183V184ZM214 197V195H215H216H217H218V194H219H220V193H221L222 192L223 191V190H224V189L225 188V187V186V185V184H227V185V186V187V188L226 189V190L225 191V192H224V193H223V194H222V195H221L220 196H219H218V197H217H216H215H214ZM200 184H202V185V186V187H203V188V189L204 190V191H205V192H206V193H207L208 194H209L210 195H211H212H213H214V197H213H212H211H210L209 196H208H207V195H206L205 194L204 193L203 192V191H202V190L201 189V188V187L200 186V185V184ZM214 170V172H213H212H211H210V173H209H208V174H207L206 175H205V176L204 177V178H203V179V180L202 181V182V183V184H200V183V182V181L201 180V179V178H202V177L203 176V175H204V174H205V173H206V172H207L208 171H209H210V170H211H212H213H214Z" fill="#35302F"/>
<path d="M69 184H67V183V182V181V180L66 179V178L65 177V176H64V175H63V174H62L61 173H60L59 172H58H57H56V170H57H58H59L60 171H61H62V172H63L64 173L65 174L66 175L67 176V177H68V178V179L69 180V181V182V183V184ZM56 197V195H57H58H59H60V194H61H62V193H63L64 192L65 191V190H66V189V188H67V187V186V185V184H69V185V186V187V188H68V189V190L67 191V192H66V193H65V194H64V195H63L62 196H61H60V197H59H58H57H56ZM42 184H44V185V186V187L45 188V189L46 190V191H47V192H48V193H49L50 194H51L52 195H53H54H55H56V197H55H54H53H52L51 196H50H49V195H48L47 194L46 193L45 192L44 191V190H43V189V188L42 187V186V185V184ZM56 170V172H55H54H53H52V173H51H50V174H49L48 175H47V176L46 177V178H45V179V180H44V181V182V183V184H42V183V182V181V180H43V179V178L44 177V176H45V175H46V174H47V173H48V172H49L50 171H51H52V170H53H54H55H56Z" fill="#35302F"/>
<path d="M222 185H205V183H222V185Z" fill="#35302F"/>
<path d="M63 185H47V183H63V185Z" fill="#35302F"/>
<path d="M145 184H147L146 185V186V187V188V189H145V190L144 191V192H143V193H142V194H141L140 195H139L138 196H137H136H135H134V197V195H135L136 194H137H138L139 193H140V192H141V191H142V190H143V189L144 188V187V186L145 185V184ZM134 173V171H135H136H137H138V172H139H140V173H141L142 174L143 175L144 176L145 177V178L146 179V180V181V182L147 183V184H145V183V182L144 181V180V179L143 178L142 177V176H141V175H140L139 174H138L137 173H136H135H134ZM123 184H121V183V182V181V180L122 179V178L123 177V176H124V175H125V174H126V173H127L128 172H129L130 171H131H132H133H134V173H133H132H131H130L129 174H128V175H127L126 176L125 177V178H124V179L123 180V181V182V183V184ZM134 195V197L133 196H132H131H130H129V195H128H127V194H126L125 193L124 192L123 191V190H122V189V188L121 187V186V185V184H123V185V186V187L124 188V189L125 190V191H126V192H127L128 193L129 194H130H131L132 195H133H134Z" fill="#35302F"/>
<path d="M142 184H144V185V186H143V187V188L142 189V190H141V191H140V192H139H138V193H137H136L135 194H134V192H135H136V191H137H138V190H139V189H140V188H141V187V186H142V185V184ZM134 175V174H135H136H137H138V175H139L140 176L141 177L142 178L143 179V180V181L144 182V183V184H142V183V182V181H141V180V179H140V178H139V177H138V176H137H136H135H134V175ZM126 184H124V183V182V181V180L125 179V178H126V177H127V176H128V175H129L130 174H131H132H133H134V175L133 176H132H131H130L129 177L128 178H127V179V180H126V181V182V183V184ZM134 192V194H133H132V193H131H130H129V192H128L127 191L126 190L125 189V188H124V187V186V185V184H126V185V186V187L127 188V189H128V190H129V191H130H131L132 192H133H134Z" fill="#35302F"/>
<path d="M133 190V178H135V190H133Z" fill="#35302F"/>
<path d="M140 185H128V183H140V185Z" fill="#35302F"/>
<path d="M149 138L147 137H148H150L152 138L154 139L155 140L157 141L158 142L160 143L162 144L163 145H165L166 146L168 148L169 149L170 151L172 152L173 154L174 155L175 157L176 159L177 160L178 162L179 164V166L180 168L181 169V171L182 173V175V177L183 179V182V184H181V182V180L180 178V176V174L179 172V170L178 168V166L177 165L176 163L175 161L174 160L173 158L172 156L171 155L170 153L169 152L168 150L166 149L165 148L163 147L162 145H160L159 144L157 143L156 142L155 141H153L151 140L150 139H148L149 138ZM147 137H148H147ZM147 164L145 165V164V163V162V161V160V159L144 158V157V156V155V154V153L145 152V151V150V149V148V147V146V145L146 144V143V142V141V140H147V139V138V137L149 138V139L148 140V141V142V143V144L147 145V146V147V148V149V150V151H146V152V153V154V155V156V157V158V159V160L147 161V162V163V164ZM148 166L147 167H146V166V165H145L147 164V165H148V166ZM156 184H155V183V182V181V180L154 179V178V177L153 176V175V174H152V173V172H151V171L150 170H149V169L148 168H147V167L148 166H149V167H150V168H151V169H152V170L153 171V172H154V173V174H155V175V176V177V178V179V180L156 181V182V183V184ZM148 202L147 200L148 199H149V198L150 197L151 196V195H152V194V193H153V192V191H154V190V189V188L155 187V186V185V184H156V185V186L155 187V188V189V190V191V192V193L154 194V195H153V196V197H152V198L151 199H150V200H149V201L148 202ZM147 203L145 202H146V201L147 200L148 202H147V203ZM148 230L149 231H147V230V229V228L146 227V226V225V224V223L145 222V221V220V219V218V217V216V215V214V213V212V211V210V209V208V207V206V205V204V203V202L147 203V204V205V206V207V208V209L146 210V211V212V213V214L147 215V216V217V218V219V220V221V222V223L148 224V225V226V227L149 228V229V230H148ZM149 231L148 232L147 231H149ZM181 184H183V186V188L182 190V192V194L181 196V198L180 200L179 202V203L178 205L177 207L176 209L175 210L174 212L173 214L172 215L170 217L169 218L168 220L166 221L165 222L163 223L162 225L160 226L158 227L157 228L155 229H154L152 230L150 231H149L148 230L150 229L152 228H153L154 227L156 226L157 225L159 224L161 223L162 222L164 221L165 219L166 218L168 217L169 215L170 214L171 213L172 211L173 209L174 208L175 206L176 204L177 203L178 201V199L179 197V195L180 194V192V190L181 188V186V184ZM86 184H84V182V180V177V175L85 173V172L86 170V168L87 166L88 164L89 162V160L90 159L91 157L92 155L94 154L95 152L96 151L97 149L99 148L100 147L101 145L103 144H105L106 143L108 142L109 141L111 140L113 139L115 138H117L119 137V139H117L116 140L114 141L112 142L110 143H109L107 144L106 145L104 146L103 147L101 148L100 149L99 151L97 152L96 153L95 155L94 156L93 158L92 160L91 161L90 163L89 165V166L88 168L87 170V172V174L86 176V178V180V182V184ZM118 230L120 231H119H117L115 230L113 229L111 228L109 227L108 226L106 225L105 224L103 223L101 222L100 221L99 219L97 218L96 216L95 215L94 213L92 212L91 210L90 209L89 207V205L88 203L87 201L86 200V198L85 196V194L84 192V190V188V186V184H86V186V188V190V192L87 193V195V197L88 199L89 201V203L90 204L91 206L92 208L93 209L94 211L95 212L96 214L97 215L99 217L100 218L101 219L103 221L104 222L106 223L107 224L109 225L110 226L112 227L114 228H116L117 229L119 230H118ZM120 231L119 232V231H120ZM120 202L121 203L122 202V203V204V205V206V207V208V209V210V211V212V213V214V215V216V217V218V219V220V221V222L121 223V224V225V226V227L120 228V229V230V231L118 230V229V228L119 227V226V225V224V223H120V222V221V220V219V218V217V216V215L121 214V213V212V211V210L120 209V208V207V206V205V204V203V202ZM120 203V202V203ZM121 203L120 202H121V203ZM121 202L122 203H121V202ZM119 201L120 200H121V201V202L120 203V202H119V201ZM111 184H113V185V186V187V188V189L114 190V191V192L115 193V194L116 195V196H117V197H118V198L119 199H120V200L119 201H118V200H117V199H116V198H115V197L114 196V195H113V194V193L112 192V191V190L111 189V188V187V186V185V184ZM119 166L120 168H119V169H118V170H117V171L116 172V173H115V174V175H114V176V177L113 178V179V180V181V182V183V184H111V183V182V181V180V179V178L112 177V176V175L113 174V173L114 172V171H115V170L116 169L117 168V167H118L119 166ZM120 165H122H121V166V167H120V168L119 166V165H120ZM119 139V137L120 138V139V140V141H121V142V143V144V145H122V146V147V148V149V150V151V152V153V154V155V156V157V158V159V160V161V162V163V164V165H120V164V163V162V161V160V159V158L121 157V156V155V154L120 153V152V151V150V149V148V147V146V145H119V144V143V142V141L118 140V139V138L119 139ZM119 137L120 138L119 137Z" fill="#35302F"/>
<path d="M147 145H146L147 144L148 145H150H151L153 146L154 147H155L156 148L157 149L159 150L160 151L161 152L162 154L164 155L165 156L166 157L167 158L168 160L169 161V163L170 164L171 166L172 167V169L173 170V172L174 173V175V177L175 178V180V182V184H173V182V180V179V177L172 175V174L171 172V171L170 169V168L169 166L168 165V164L167 162L166 161L165 160L164 158L163 157L162 156L161 155L160 154L159 153L158 152L156 151L155 150V149L153 148H152L151 147L149 146H148L146 145H147ZM146 145V144H147L146 145ZM147 164L145 165V164V163V162V161V160V159L144 158V157V156V155V154V153L145 152V151V150V149V148V147V146V145H146H147V146V147V148V149V150L146 151V152V153V154V155V156V157V158V159V160L147 161V162V163V164ZM148 166L147 167H146V166V165H145L147 164V165H148V166ZM156 184H155V183V182V181V180L154 179V178V177L153 176V175V174H152V173V172H151V171L150 170H149V169L148 168H147V167L148 166H149V167H150V168H151V169H152V170L153 171V172H154V173V174H155V175V176V177V178V179V180L156 181V182V183V184ZM148 202L147 200L148 199H149V198L150 197L151 196V195H152V194V193H153V192V191H154V190V189V188L155 187V186V185V184H156V185V186L155 187V188V189V190V191V192V193L154 194V195H153V196V197H152V198L151 199H150V200H149V201L148 202ZM147 203L145 202H146V201L147 200L148 202H147V203ZM146 222L147 224L146 223L145 222V221V220V219V218V217V216V215V214V213V212V211V210V209V208V207V206V205V204V203V202L147 203V204V205V206V207V208V209L146 210V211V212V213V214H147V215V216V217V218V219V220V221V222V223L146 222ZM147 224H146V223L147 224ZM173 184H175V185V187V189L174 191V192V194L173 196V197L172 199V200L171 202L170 203L169 205V206L168 207L167 209L166 210L165 211L164 213L162 214L161 215L160 216L159 217L158 218L156 219L155 220L154 221H153L151 222L150 223H148L147 224L146 222H148L149 221L151 220H152L153 219L154 218L155 217L156 216L158 215L159 214L160 213L161 212L162 211L163 210L164 209L165 208L166 206L167 205L168 204L169 202V201L170 199V198L171 197V195L172 193V192L173 190V189V187V185V184ZM93 184H92V182V180V179V177V175L93 174V172L94 170V169L95 167V166L96 164L97 163L98 161L99 160L100 159L101 157L102 156L103 155L104 154L105 153L106 152L107 151L109 150L110 149L111 148L113 147L114 146L116 145H117L119 144H120L121 145L119 146H118L116 147L115 148L114 149H112L111 150L110 151L109 152L107 153L106 154L105 155L104 156L103 157L102 159L101 160L100 161L99 162V164L98 165L97 167V168L96 169L95 171V172V174L94 176V177V179V180L93 182V184ZM120 223H121L120 224L119 223H117L116 222L114 221L113 220H111L110 219L109 218L107 217L106 216L105 215L104 214L103 212L102 211L101 210L100 209L99 207L98 206L97 204L96 203L95 202V200L94 199V197L93 195V194L92 192V191V189V187V185V184H93V185L94 187V189V190V192L95 193V195V196L96 198L97 199V201L98 202L99 204V205L100 206L101 207L102 209L103 210L104 211L105 212L106 213L107 214L109 215L110 216L111 217L112 218L114 219L115 220H116L118 221H119L121 222L120 223ZM121 223V224H120L121 223ZM120 202L121 203L122 202V203V204V205V206V207V208V209V210V211V212V213V214V215V216V217V218V219V220V221V222H121V223H120V222V221V220V219V218V217V216V215V214H121V213V212V211V210L120 209V208V207V206V205V204V203V202ZM120 203V202V203ZM121 203L120 202H121V203ZM121 202L122 203H121V202ZM119 201L120 200H121V201V202L120 203V202H119V201ZM111 184H113V185V186V187V188V189L114 190V191V192L115 193V194L116 195V196H117V197H118V198L119 199H120V200L119 201H118V200H117V199H116V198H115V197L114 196V195H113V194V193L112 192V191V190L111 189V188V187V186V185V184ZM119 166L120 168H119V169H118V170H117V171L116 172V173H115V174V175H114V176V177L113 178V179V180V181V182V183V184H111V183V182V181V180V179V178L112 177V176V175L113 174V173L114 172V171H115V170L116 169L117 168V167H118L119 166ZM120 165H122H121V166V167H120V168L119 166V165H120ZM121 145H120H121H122V146V147V148V149V150V151V152V153V154V155V156V157V158V159V160V161V162V163V164V165H120V164V163V162V161V160V159V158H121V157V156V155V154L120 153V152V151V150V149V148V147V146V145H121ZM120 145L121 144V145H120Z" fill="#35302F"/>
</g>
<defs>
<clipPath id="clip0_181_135">
<rect width="600" height="320" fill="white"/>
</clipPath>
</defs>
</svg>
