<svg width="39" height="40" viewBox="0 0 39 40" xmlns="http://www.w3.org/2000/svg">
<path d="M34.8214 0.0566406H4.17857C3.07035 0.0566406 2.00751 0.499957 1.22388 1.28907C0.440241 2.07818 0 3.14844 0 4.2644L0 35.1213C0 36.2373 0.440241 37.3076 1.22388 38.0967C2.00751 38.8858 3.07035 39.3291 4.17857 39.3291H16.1267V25.9773H10.6423V19.6929H16.1267V14.903C16.1267 9.45486 19.3477 6.44543 24.281 6.44543C26.6436 6.44543 29.1142 6.86971 29.1142 6.86971V12.2171H26.392C23.7099 12.2171 22.8733 13.8932 22.8733 15.6122V19.6929H28.8609L27.9033 25.9773H22.8733V39.3291H34.8214C35.9297 39.3291 36.9925 38.8858 37.7761 38.0967C38.5598 37.3076 39 36.2373 39 35.1213V4.2644C39 3.14844 38.5598 2.07818 37.7761 1.28907C36.9925 0.499957 35.9297 0.0566406 34.8214 0.0566406Z"/>
</svg>
