<svg width="40" height="39" viewBox="0 0 40 39" xmlns="http://www.w3.org/2000/svg">
<path d="M26.4 19.5C26.4 20.7342 26.0246 21.9406 25.3214 22.9668C24.6182 23.9929 23.6186 24.7927 22.4492 25.265C21.2797 25.7373 19.9929 25.8609 18.7514 25.6201C17.5099 25.3793 16.3696 24.785 15.4745 23.9123C14.5795 23.0397 13.9699 21.9278 13.723 20.7174C13.476 19.5069 13.6028 18.2523 14.0872 17.1121C14.5716 15.9718 15.3919 14.9973 16.4444 14.3116C17.4968 13.626 18.7342 13.26 20 13.26C21.6968 13.2619 23.3235 13.9199 24.5233 15.0898C25.7231 16.2596 26.398 17.8456 26.4 19.5ZM40 10.92V28.08C39.9966 30.9751 38.8155 33.7508 36.7159 35.798C34.6162 37.8451 31.7694 38.9967 28.8 39H11.2C8.23062 38.9967 5.38382 37.8451 3.28415 35.798C1.18447 33.7508 0.00338778 30.9751 0 28.08V10.92C0.00338778 8.02485 1.18447 5.24922 3.28415 3.20204C5.38382 1.15486 8.23062 0.00330308 11.2 0H28.8C31.7694 0.00330308 34.6162 1.15486 36.7159 3.20204C38.8155 5.24922 39.9966 8.02485 40 10.92ZM29.6 19.5C29.6 17.6488 29.037 15.8391 27.9821 14.2999C26.9272 12.7606 25.4279 11.5609 23.6738 10.8525C21.9196 10.1441 19.9894 9.95869 18.1271 10.3198C16.2649 10.681 14.5544 11.5725 13.2118 12.8815C11.8692 14.1905 10.9549 15.8583 10.5845 17.674C10.214 19.4896 10.4042 21.3716 11.1308 23.0819C11.8574 24.7922 13.0878 26.2541 14.6665 27.2826C16.2452 28.311 18.1013 28.86 20 28.86C22.5452 28.8572 24.9853 27.8702 26.7851 26.1154C28.5848 24.3607 29.5971 21.9816 29.6 19.5ZM32.8 9.36C32.8 8.89719 32.6592 8.44478 32.3955 8.05997C32.1318 7.67516 31.757 7.37523 31.3184 7.19812C30.8799 7.02101 30.3973 6.97467 29.9318 7.06496C29.4662 7.15525 29.0386 7.37811 28.7029 7.70537C28.3673 8.03262 28.1387 8.44957 28.0461 8.90349C27.9535 9.3574 28.001 9.8279 28.1827 10.2555C28.3643 10.6831 28.672 11.0485 29.0666 11.3056C29.4613 11.5628 29.9253 11.7 30.4 11.7C31.0365 11.7 31.647 11.4535 32.0971 11.0146C32.5471 10.5758 32.8 9.98061 32.8 9.36Z" />
</svg>
