<svg width="54" height="39" viewBox="0 0 54 39" fill="none" xmlns="http://www.w3.org/2000/svg">
<path d="M52.8266 6.23706C52.3323 3.55696 49.4858 1.21485 46.3355 0.904143C33.4796 -0.301742 20.5096 -0.30138 7.65379 0.905225C4.51479 1.21485 1.66834 3.55653 1.17154 6.24681C-0.391104 15.0344 -0.39051 23.9756 1.1733 32.7631C1.66809 35.4432 4.51479 37.7851 7.66436 38.0954C14.0857 38.6983 20.5405 39.0003 26.9999 39C33.4594 39.0003 39.9141 38.6983 46.3355 38.0954L46.3458 38.0945C49.4851 37.7853 52.332 35.4434 52.8286 32.7529C54.3911 23.9654 54.3905 15.0244 52.8266 6.23706ZM36.1654 20.941L24.0914 27.8697C23.7883 28.0436 23.4361 28.1434 23.0723 28.1585C22.7086 28.1737 22.3468 28.1035 22.0257 27.9556C21.7046 27.8077 21.4362 27.5875 21.249 27.3186C21.0618 27.0497 20.963 26.742 20.9629 26.4285V12.5712C20.9629 12.2577 21.0618 11.95 21.249 11.681C21.4362 11.4121 21.7046 11.1919 22.0258 11.044C22.3469 10.896 22.7087 10.8259 23.0725 10.8411C23.4363 10.8562 23.7886 10.9561 24.0916 11.13L36.1657 18.0587C36.4413 18.2169 36.6672 18.4312 36.8235 18.6826C36.9798 18.934 37.0616 19.2147 37.0616 19.4999C37.0616 19.785 36.9798 20.0657 36.8235 20.3171C36.6672 20.5685 36.4413 20.7828 36.1657 20.941H36.1654Z" fill="#C7C7C7"/>
</svg>
