<svg width="436" height="278" viewBox="0 0 436 278" fill="none" xmlns="http://www.w3.org/2000/svg">
<path d="M160.188 140.493C158.653 140.98 157.061 141.645 155.584 141.954C149.377 142.897 143.772 145.018 137.989 147.083C129.372 150.001 120.639 153.275 112.022 156.193C107.418 157.655 102.808 158.524 98.0836 159.75C94.6579 160.609 91.0542 161.41 87.5083 162.033C75.1575 164.332 62.6863 166.396 50.3932 168.517C49.1519 168.705 47.9683 168.715 46.6644 168.49C48.791 167.998 50.9754 167.327 52.9239 166.777C58.8275 164.949 64.731 163.12 70.8125 161.35C74.1179 160.255 77.4859 159.574 80.9693 158.537C84.4527 157.5 87.9938 156.284 91.4772 155.247C99.8585 152.449 108.24 149.652 116.501 146.618C129.66 141.825 143.315 139.751 156.849 137.442C164.119 136.253 171.144 134 178.409 132.22C179.472 131.973 180.713 131.785 181.955 131.596C182.133 131.654 182.311 131.712 182.551 132.183C174.579 134.326 166.847 136.94 158.75 138.254C146.043 140.438 133.394 142.444 120.995 146.105C111.844 148.851 102.818 152.424 93.551 155.525C89.7741 156.861 85.8817 158.553 82.1 159.297C74.9503 160.721 68.4647 163.739 61.6759 165.871C61.4402 165.992 61.2621 165.934 61.0264 166.055C60.7906 166.175 60.6126 166.118 60.3768 166.238C60.1988 166.181 59.963 166.301 59.785 166.243C59.5493 166.364 59.2558 166.663 59.02 166.783C59.02 166.783 59.02 166.783 58.842 166.725C58.842 166.725 58.842 166.725 59.02 166.783C59.2558 166.663 59.5493 166.364 59.785 166.243C59.963 166.301 60.1988 166.181 60.3768 166.238C60.5549 166.296 60.7906 166.175 60.9687 166.233C61.1467 166.291 61.3824 166.17 61.5605 166.228C67.1753 165.291 72.7902 164.353 78.4628 163.238C87.6814 161.499 96.9577 159.582 106.056 157.607C112.614 156.188 118.926 153.705 125.181 151.399C132.499 148.848 139.817 146.297 147.135 143.745C151.557 141.634 155.872 141.063 160.188 140.493Z" fill="#EFE7DB"/>
<path d="M199.476 103.015C198.206 99.6497 196.993 96.1066 195.723 92.7417C192.032 82.883 187.633 73.3858 182.114 64.3129C177.259 56.8334 171.639 49.8936 165.903 43.3102C161.005 37.7856 155.755 32.7378 149.919 28.2874C144.558 24.1883 139.376 20.1468 134.194 16.1053C133.597 15.5182 132.765 15.0517 131.875 14.7633C133.487 16.4669 134.921 18.1127 136.59 19.638C140.348 23.2181 144.106 26.7982 148.042 30.436C150.905 33.1355 154.004 35.7144 156.925 38.2357C165.629 45.9778 173.217 54.7365 178.746 64.9938C183.255 73.5424 186.879 82.3949 190.916 91.1845C191.58 92.7778 192.422 94.4289 193.028 96.2004C193.091 96.6145 193.154 97.0285 193.216 97.4426C192.254 95.5557 191.291 93.6688 190.387 91.6037C186.652 83.6999 183.274 75.9113 179.304 68.128C174.492 58.6936 168.15 50.3386 160.457 43.1208C156.28 39.0113 151.81 35.2005 147.455 31.0334C141.907 25.6921 136.417 20.1726 130.927 14.6531C129.854 13.7148 129.31 12.3573 128.588 10.9422C130.97 12.6982 133.174 14.3966 135.556 16.1526C142.167 21.2478 148.836 26.1647 155.154 31.5585C161.231 36.4806 166.427 42.2988 171.388 48.2375C174.319 51.9432 177.427 55.7067 180.122 59.5329C185.814 68.0712 190.857 76.7928 194.192 86.5362C195.285 89.8434 196.848 92.9096 197.999 96.0386C198.432 98.3447 198.865 100.651 199.476 103.015Z" fill="#EFE7DB"/>
<path d="M248.808 27.2475C249.712 29.3125 250.559 31.5558 251.464 33.6209C254.722 41.1735 258.158 48.7839 261.122 56.6352C264.024 64.0726 265.805 71.9342 266.758 79.9216C266.517 79.4499 266.219 79.1563 266.156 78.7423C263.432 64.0777 258.052 50.3247 251.787 36.8756C249.737 32.2737 247.744 27.4937 245.695 22.8918C244.429 20.1192 243.163 17.3465 242.134 14.4534C242.312 14.5111 242.668 14.6264 242.788 14.8623C246.267 20.5178 249.746 26.1732 253.047 31.771C260.847 44.733 266.761 58.659 269.784 73.6171C272.19 85.6192 276.189 96.956 280.13 108.471C284.794 121.401 285.555 134.839 284.54 148.292C284.545 148.885 284.314 149.597 284.261 150.368C284.078 149.718 283.953 148.89 283.948 148.297C283.842 142.553 284.092 136.925 283.75 131.301C283.446 123.13 282.08 115.206 279.057 107.533C274.038 94.4872 270.318 81.075 267.19 67.6578C263.759 53.3547 257.142 40.3825 249.347 28.0128C249.226 27.7769 249.048 27.7192 248.928 27.4833C248.808 27.2475 248.509 26.954 248.389 26.7181C248.269 26.4823 248.269 26.4823 248.389 26.7181C248.211 26.6604 248.389 26.7181 248.567 26.7758C248.625 26.5976 248.688 27.0116 248.808 27.2475Z" fill="#EFE7DB"/>
<path d="M287.769 231.834C285.123 233.93 282.299 235.968 279.653 238.064C267.658 247.763 255.486 257.405 243.549 266.926C240.081 269.74 236.434 272.496 233.023 275.132C232.493 275.551 232.022 275.792 231.372 275.976C233.018 274.54 234.899 272.984 236.602 271.37C238.247 269.934 239.773 268.262 241.298 266.59C246.749 260.087 252.2 253.584 257.828 247.138C261.99 242.186 266.33 237.292 270.491 232.34C276.062 226.072 281.576 219.983 287.686 214.481C292.209 210.236 296.433 205.698 300.955 201.454C305.006 197.45 309.413 193.562 313.464 189.558C316.341 186.749 319.098 183.705 322.033 180.718C324.087 178.627 326.199 176.358 328.254 174.267C329.428 173.072 330.423 171.82 331.54 170.803C331.718 170.861 331.838 171.097 332.016 171.155C331.607 171.81 331.198 172.465 330.611 173.062C327.619 176.227 324.626 179.392 321.456 182.5C319.401 184.591 317.525 186.739 315.471 188.83C311.771 192.357 308.013 196.062 304.314 199.588C299.791 203.833 295.447 208.135 290.924 212.38C287.811 215.309 284.641 218.416 281.706 221.403C279.122 223.913 276.717 226.481 274.432 229.285C270.794 233.225 267.335 237.224 263.876 241.222C262.293 243.072 260.71 244.922 259.128 246.772C255.611 250.948 252.094 255.125 248.577 259.301C247.052 260.973 245.647 262.88 244.122 264.552C243.771 265.029 243.655 265.385 243.424 266.098C246.306 263.882 249.188 261.665 251.892 259.391C260.947 252.086 270.001 244.782 279.176 237.713C281.529 235.915 283.882 234.118 286.412 232.378C286.47 232.2 287.062 232.195 287.769 231.834Z" fill="#EFE7DB"/>
<path d="M174.172 19.6065C174.293 19.8423 174.413 20.0782 174.533 20.314C174.894 21.0216 175.313 21.551 175.674 22.2586C181.612 31.8608 187.607 41.2849 193.723 50.9448C200.2 61.3123 206.855 71.7375 212.153 82.7075C212.634 83.651 213.115 84.5944 213.597 85.5378C213.471 84.7097 213.346 83.8817 212.985 83.1741C210.998 78.9863 209.011 74.7985 206.552 70.8517C199.531 59.1267 192.453 47.58 185.374 36.0332C183.454 32.8516 181.357 29.6124 179.437 26.4309C179.138 26.1373 179.018 25.9015 178.72 25.608C178.777 25.4298 178.955 25.4874 178.955 25.4874C179.254 25.781 179.374 26.0168 179.437 26.4309C179.855 26.9603 180.332 27.3115 180.928 27.8985C182.603 30.0161 184.277 32.1337 185.952 34.2513C192.472 42.6639 199.05 50.8983 205.334 59.4315C211.618 67.9646 216.844 77.3362 220.713 87.2526C224.038 95.8115 226.064 104.737 227.855 113.783C228.23 116.268 229.019 118.689 229.63 121.053C229.813 121.703 229.818 122.295 230.059 122.767C230.295 122.646 230.473 122.704 230.708 122.583C230.646 122.169 230.583 121.755 230.343 121.283C229.972 119.391 229.423 117.442 229.053 115.55C227.946 110.466 227.017 105.44 225.674 100.476C222.248 86.7654 216.521 74.0815 208.731 62.304C199.983 49.2319 190.061 37.3545 180.019 25.2413C179.003 24.1248 178.046 22.8301 177.031 21.7137C176.314 20.8908 175.419 20.0102 174.466 19.3078C174.466 19.3078 174.23 19.4283 174.172 19.6065ZM178.296 24.4863C178.118 24.4287 178.118 24.4287 178.118 24.4287L178.176 24.2505C178.118 24.4287 178.118 24.4287 178.296 24.4863Z" fill="#EFE7DB"/>
<path d="M303.143 92.6935C302.541 91.5142 302.175 90.2144 301.574 89.0351C299.211 82.363 296.906 75.5128 294.307 68.9612C291.223 60.874 286.43 53.8085 281.753 46.3867C275.218 36.1974 268.741 25.8299 262.443 15.5201C262.024 14.9907 261.841 14.3408 261.774 13.3345C263.443 14.8598 265.171 16.207 266.783 17.9105C273.356 25.5528 280.222 32.8963 286.266 40.9577C295.062 52.6672 301.264 65.7023 305.345 79.822C305.408 80.2361 305.471 80.6501 305.533 81.0641C304.989 79.7066 304.325 78.1133 303.781 76.7558C299.056 63.4117 292.858 50.9688 284.124 39.6733C278.442 32.3195 272.172 25.5631 266.018 18.4502C265.897 18.2144 265.541 18.099 264.95 18.1042C265.489 18.8694 265.849 19.577 266.388 20.3423C272.745 30.4739 279.101 40.6056 285.636 50.7949C291.689 60.0408 296.092 70.1302 299.374 80.644C300.409 84.1294 301.502 87.4366 302.536 90.9219C302.955 91.4513 303.138 92.1013 303.143 92.6935Z" fill="#EFE7DB"/>
<path d="M96.1101 70.5117C92.5879 66.8111 88.9455 62.8746 85.4233 59.174C81.3044 54.8864 77.1278 50.7769 72.7732 46.6098C63.4674 37.6884 52.8721 30.3181 42.5127 22.8274C36.7964 18.6129 30.907 14.9329 25.133 10.8966C24.6567 10.5454 24.3006 10.43 23.7088 10.4352C29.0113 14.7125 34.6072 18.6912 39.6162 23.2673C44.8609 27.7228 49.5187 32.7757 54.2342 37.6504C52.5645 36.1251 50.6591 34.7202 49.2252 33.0744C43.4367 27.2614 37.297 21.9252 30.8061 17.066C25.9222 13.318 21.0961 9.39193 16.2123 5.64397C14.9613 4.64802 13.946 3.53152 13.0462 2.05869C13.5802 2.23171 13.8786 2.52525 14.4126 2.69828C20.5427 6.84995 26.793 11.2375 32.923 15.3891C39.4091 19.6562 45.7171 23.8656 52.1455 28.3108C57.5634 32.2318 62.9236 36.3309 67.9903 40.7287C76.2134 47.5274 83.5562 55.2221 90.5477 63.3937C91.9816 65.0396 93.5935 66.7431 95.0852 68.2107C95.6818 68.7978 96.2207 69.5631 96.8174 70.1502C96.3459 70.3912 96.2882 70.5693 96.1101 70.5117Z" fill="#EFE7DB"/>
<path d="M104.091 199.498C106.92 198.052 109.628 196.37 112.4 195.102C122.306 190.633 131.611 184.984 140.796 179.1C148.094 174.18 155.571 169.317 162.692 164.339C178.347 153.66 195.509 146.226 213.999 141.978C215.477 141.669 216.833 141.124 218.253 140.993C217.079 142.188 215.602 142.497 214.125 142.806C206.922 145.001 199.777 147.018 192.695 149.448C181.836 153.215 172.237 159.162 162.759 165.345C152.81 171.769 142.98 178.429 132.853 184.796C127.671 188.039 122.191 190.989 116.591 193.703C112.525 195.93 108.219 197.685 104.091 199.498Z" fill="#EFE7DB"/>
<path d="M98.2595 202.925C98.4375 202.982 98.6155 203.04 98.6155 203.04C106.699 199.949 115.027 197.922 123.047 194.417C141.508 186.616 158.646 176.22 174.884 164.351C182.298 159.075 190.073 154.506 198.324 150.288C199.503 149.685 200.98 149.376 202.279 149.01C196.741 152.138 191.141 154.852 185.724 158.216C178.776 162.659 171.891 167.517 165.242 172.253C153.768 180.349 141.513 187.208 128.6 193.065C124 195.119 119.223 197.115 114.56 198.755C107.242 201.307 99.6259 203.564 92.1299 206.058C91.4804 206.241 90.8308 206.425 90.1187 206.194C92.0047 205.23 93.7705 204.03 95.9597 203.952C96.0174 203.774 96.2531 203.653 96.3108 203.475C96.5466 203.354 96.7824 203.234 97.0181 203.113C96.9604 203.291 97.1384 203.349 97.0807 203.527C97.2587 203.585 97.3165 203.407 97.4945 203.465C97.5522 203.286 98.0237 203.045 98.2595 202.925Z" fill="#EFE7DB"/>
<path d="M65.222 13.4492C66.8339 15.1527 68.4459 16.8563 70.0579 18.5598C76.7462 25.8456 83.2565 33.0738 90.1806 40.2392C94.8383 45.2921 99.7896 50.0463 104.505 54.921C107.609 58.0923 111.006 60.9647 113.994 64.4923C119.729 71.0757 125.816 77.1823 131.552 83.7657C134.54 87.2933 137.879 90.344 140.983 93.5152C144.265 96.7441 147.368 99.9153 150.414 103.265C148.865 101.975 147.315 100.686 145.824 99.218C141.767 95.3444 137.653 91.6489 133.891 87.4766C130.07 83.4825 126.721 79.2473 122.958 75.075C119.614 71.4321 116.092 67.7315 112.69 64.2668C110.78 62.2697 108.927 60.0944 107.017 58.0974C104.808 55.8068 102.542 53.6944 100.276 51.582C96.2771 47.5302 92.0428 43.5989 88.102 39.3689C81.6542 32.5547 75.322 25.3843 68.932 18.3919C67.4403 16.9243 66.1844 15.3361 64.9285 13.7479C64.9285 13.7479 65.1643 13.6274 65.222 13.4492Z" fill="#EFE7DB"/>
<path d="M249.137 132.491C248.713 131.37 247.876 130.311 247.688 129.069C245.864 123.162 243.92 117.019 242.154 110.934C238.439 98.1143 233.367 85.8393 227.409 73.8681C224.763 68.6792 222.352 63.3698 219.47 58.3014C215.562 50.9321 211.477 43.5051 207.512 36.314C207.151 35.6064 206.732 35.077 206.136 34.4899L206.078 34.6681C205.958 34.4322 205.717 33.9605 205.597 33.7247L205.539 33.9028C205.419 33.6669 205.178 33.1952 205.058 32.9594L205 33.1376C204.88 32.9017 204.639 32.43 204.519 32.1941C204.399 31.9583 204.456 31.7801 204.394 31.3661C204.451 31.1879 204.687 31.0673 204.745 30.8892C206.785 34.3065 208.705 37.4881 210.745 40.9055C213.387 45.5021 215.851 50.0411 218.257 54.7583C223.31 64.6644 228.482 74.8064 233.299 84.833C238.597 95.8031 241.889 107.501 245.181 119.2C246.22 123.277 247.496 127.234 248.771 131.191C249.012 131.663 249.074 132.077 249.137 132.491Z" fill="#EFE7DB"/>
<path d="M152.928 222.408C155.512 219.898 157.86 217.508 160.443 214.998C163.556 212.069 166.669 209.139 169.604 206.153C171.951 203.763 174.121 201.316 176.527 198.748C179.168 196.06 181.631 193.314 184.273 190.626C188.03 186.921 191.73 183.394 195.608 179.925C202.892 173.228 210.893 167.354 219.731 162.539C228.098 157.965 236.705 153.862 245.25 149.346C245.486 149.225 245.722 149.104 245.957 148.984C246.078 149.22 246.078 149.22 246.198 149.456C245.197 150.116 244.254 150.598 243.254 151.258C234.473 155.895 225.808 160.176 217.148 165.049C208.959 169.681 201.607 175.371 194.852 181.649C189.743 186.491 184.634 191.333 179.466 196.353C177.234 198.386 175.242 200.891 173.188 202.982C169.96 206.268 166.789 209.375 163.561 212.661C160.448 215.59 157.277 218.698 154.165 221.627C153.813 222.104 153.4 222.167 152.928 222.408Z" fill="#EFE7DB"/>
<path d="M202.698 236.366C207.51 231.23 212.321 226.095 217.132 220.959C221.649 216.123 226.465 211.579 230.983 206.743C234.269 203.279 237.377 199.757 240.605 196.472C246.941 189.664 253.576 183.151 260.807 177.224C267.216 172.016 274.283 167.808 281.529 163.658C282.708 163.056 283.709 162.396 284.887 161.793C284.887 161.793 285.066 161.851 285.186 162.086C282.949 163.527 280.769 164.79 278.532 166.231C273.822 169.234 268.991 172 264.522 175.474C258.637 179.672 253.292 184.634 248.245 189.89C242.025 196.341 235.924 203.027 229.525 209.421C226.297 212.706 222.948 215.756 219.72 219.042C216.843 221.85 214.144 224.717 211.445 227.583C208.746 230.45 205.811 233.437 203.112 236.303C203.17 236.125 202.934 236.245 202.698 236.366Z" fill="#EFE7DB"/>
<path d="M346.197 117.667C345.898 117.374 345.658 116.902 345.595 116.488C341.606 106.336 336.024 96.8489 330.091 87.8389C327.574 84.0703 325.472 80.2388 323.191 76.3497C322.411 75.1128 321.454 73.8181 320.732 72.4029C321.088 72.5183 321.266 72.576 321.564 72.8695C328.378 80.9834 335.134 89.2756 341.889 97.5677C347.687 104.565 351.128 112.768 354.275 121.269C354.396 121.505 354.28 121.861 354.401 122.097C354.04 121.389 353.621 120.86 353.438 120.21C351.085 114.723 348.91 109.293 345.614 104.287C341.836 98.3381 337.236 93.107 332.694 87.6977C331.082 85.9942 329.47 84.2906 327.916 82.4089C327.796 82.173 327.853 81.9949 327.974 82.2307C327.853 81.9949 327.974 82.2308 328.152 82.2884C328.811 83.2895 329.234 84.4111 329.894 85.4122C334.629 92.6559 339.421 99.7214 342.799 107.51C343.892 110.817 344.926 114.302 346.197 117.667Z" fill="#EFE7DB"/>
<path d="M117.495 116.226C116.667 116.352 116.018 116.535 115.306 116.305C104.35 115.512 93.3367 114.897 82.3185 113.69C65.1993 111.885 48.3978 112.742 31.4329 115.318C29.364 115.633 27.4731 116.004 25.4619 116.14C24.8124 116.324 23.9848 116.449 23.4459 115.684C43.0667 112.196 62.8801 110.543 82.7851 112.857C93.9814 114.121 105.173 114.794 116.427 115.88C116.903 116.231 117.259 116.347 117.495 116.226Z" fill="#EFE7DB"/>
<path d="M169.176 219.008C172.352 216.493 175.585 213.8 178.582 211.227C183.461 207.098 187.92 202.439 192.082 197.487C195.599 193.31 199.236 189.37 202.695 185.371C205.101 182.804 207.208 179.942 209.734 177.61C216.955 170.499 224.596 163.918 233.314 158.867C234.021 158.505 234.964 158.023 235.734 158.076C234.733 158.736 233.79 159.218 232.789 159.878C225.135 164.683 218.375 170.369 211.856 176.526C207.097 180.891 203.114 185.901 198.952 190.853C191.741 199.148 184.649 207.68 175.768 214.45C173.708 215.948 171.471 217.389 169.176 219.008Z" fill="#EFE7DB"/>
<path d="M369.227 169.231C367.524 170.845 365.942 172.695 364.238 174.309C354.486 183.159 344.132 190.831 332.225 196.62C325.032 200 317.776 202.965 310.405 206.287C306.277 208.1 302.207 209.734 298.199 211.783C295.428 213.051 293.017 215.026 290.366 216.53C292.185 214.56 294.066 213.004 296.424 211.799C300.374 209.928 304.559 207.937 308.688 206.124C322.135 200.44 335.761 194.813 347.765 186.298C355.121 181.199 361.881 175.514 368.28 169.121C368.337 168.943 368.751 168.88 368.751 168.88C368.929 168.937 369.107 168.995 369.227 169.231Z" fill="#EFE7DB"/>
<path d="M16.8223 65.695C12.4342 64.6672 8.33957 63.3407 4.2401 61.4219C4.9522 61.6526 5.84237 61.941 6.6122 61.9935C10.8222 62.9636 14.7966 64.0543 19.0644 64.8463C28.7835 66.4199 38.2718 68.7062 47.5292 71.7053C55.7184 74.3583 64.0182 76.0628 72.6644 76.6981C83.2063 77.5538 93.7002 79.7722 103.732 83.416C103.02 83.1853 102.428 83.1905 101.716 82.9598C93.5896 80.7208 85.4052 78.6599 77.1728 77.9618C63.3736 76.8383 50.2044 73.1627 36.9151 69.2511C30.6264 67.4107 23.9914 66.6394 17.5296 65.3335C17.2938 65.454 17.058 65.5745 16.8223 65.695Z" fill="#EFE7DB"/>
<path d="M315.133 96.9717C314.709 95.8501 314.228 94.9066 313.862 93.6068C312.332 87.4013 310.744 81.3741 309.271 74.9904C306.446 62.4589 300.556 51.494 292.309 41.7342C287.887 36.5608 283.051 31.4502 278.157 26.5178C275.949 24.2272 273.269 22.1776 270.824 20.0075C271.301 20.3587 271.955 20.7676 272.432 21.1188C276.127 24.2849 280.058 27.3304 283.282 30.7375C287.819 35.5545 292.299 40.5497 296.307 45.786C302.827 54.1986 307.226 63.6958 309.738 74.1571C311.336 81.3689 312.991 88.4025 314.589 95.6143C315.008 96.1436 315.07 96.5576 315.133 96.9717Z" fill="#EFE7DB"/>
<path d="M202.584 27.2359C202.464 27.0001 202.464 27.0001 202.344 26.7642C201.564 25.5273 200.785 24.2902 200.126 23.2891C201.333 26.24 202.777 29.0703 203.985 32.0211C204.346 32.7287 204.707 33.4363 204.889 34.0862C209.047 43.1117 213.205 52.1372 217.127 61.2832C220.144 68.3641 222.747 75.5079 225.529 82.7093C228.493 90.5607 230.986 98.6531 235.129 105.902C235.548 106.431 235.966 106.961 236.327 107.668C234.701 104.188 232.896 100.65 231.505 97.0495C226.063 82.8824 221.506 68.4115 214.942 54.6688C212.112 48.83 209.576 42.6925 206.805 36.6755C206.622 36.0256 206.439 35.3757 206.078 34.6681C205.958 34.4322 205.717 33.9605 205.597 33.7247L205.539 33.9028C205.419 33.6669 205.178 33.1952 205.058 32.9594L205 33.1376C204.88 32.9017 204.639 32.43 204.519 32.1941C204.577 32.016 204.456 31.7801 204.514 31.6019C204.394 31.366 204.216 31.3084 204.273 31.1302C204.451 31.1879 204.63 31.2456 204.63 31.2456C204.086 29.8881 203.542 28.5306 202.998 27.1731C203.056 26.9949 202.82 27.1154 202.584 27.2359Z" fill="#EFE7DB"/>
<path d="M162.244 80.7145C161.825 80.1851 161.407 79.6557 160.988 79.1263C156.07 71.2327 150.272 64.2352 143.588 57.5416C140.307 54.3127 136.91 51.4402 133.571 48.3895C128.682 44.0494 123.793 39.7092 118.962 35.1908C115.147 31.7889 111.509 28.4447 107.693 25.0428C103.757 21.405 99.8213 17.7672 95.8853 14.1295C96.3616 14.4807 96.7177 14.5961 97.194 14.9473C103.151 19.6335 108.757 24.7966 114.304 30.1379C118.539 34.0692 123.009 37.88 127.243 41.8113C133.623 47.6191 140.355 52.9501 146.148 59.3553C152.12 65.8183 157.384 72.6427 161.825 80.185C162.003 80.2427 162.124 80.4786 162.244 80.7145Z" fill="#EFE7DB"/>
<path d="M208.703 239.689C214.987 233.653 221.092 227.558 228.03 221.93C234.674 216.601 241.078 210.8 247.125 204.884C253.231 198.79 258.383 191.993 263.237 184.903C265.051 182.34 266.745 179.542 268.915 177.094C268.039 178.583 266.985 180.013 266.052 181.68C261.963 188.231 257.517 194.666 252.297 200.456C243.912 209.947 234.092 217.791 224.571 225.929C219.986 229.759 215.699 233.883 211.292 237.772C210.469 238.49 209.526 238.971 208.703 239.689Z" fill="#EFE7DB"/>
<path d="M133.077 241.178C135.55 239.617 138.081 237.877 140.496 236.494C148.036 232.045 154.916 226.595 161.319 220.795C164.726 217.567 168.488 214.454 171.774 210.99C174.357 208.48 176.7 205.498 179.106 202.931C182.214 199.409 185.264 196.066 188.372 192.544C189.604 191.171 190.778 189.977 192.13 188.839C190.547 190.689 188.964 192.539 187.203 194.331C184.976 196.957 182.57 199.524 180.342 202.15C174.834 208.831 168.906 214.983 162.383 220.548C157.153 225.154 151.923 229.761 145.976 233.544C142.267 235.886 138.557 238.228 134.67 240.513C133.963 240.874 133.491 241.115 132.784 241.477C133.198 241.414 133.077 241.178 133.077 241.178Z" fill="#EFE7DB"/>
<path d="M255.44 143.393C252.13 136.611 249.704 129.525 248.578 122.072C246.08 106.103 240.69 91.1651 232.466 77.0815C231.567 75.6087 230.725 73.9577 230.296 72.2438C231.316 73.9525 232.216 75.4254 233.236 77.1341C239.655 87.6797 244.424 99.069 247.365 111.244C248.592 116.564 249.348 122.125 250.753 127.502C251.672 131.344 253.063 134.945 254.218 138.666C254.646 140.38 254.954 141.858 255.44 143.393Z" fill="#EFE7DB"/>
<path d="M89.7277 107.821C90.5552 107.696 91.3828 107.57 92.1526 107.622C103.46 107.938 114.54 109.559 125.563 111.359C130.067 112.03 134.691 112.937 139.31 113.252C145.055 113.735 150.737 113.804 156.54 114.109C158.079 114.214 159.734 113.963 161.568 113.769C160.865 114.723 159.917 114.613 159.09 114.738C155.539 114.769 151.81 114.743 148.081 114.716C138.492 114.563 129.009 112.868 119.467 111.352C110.104 109.894 100.683 108.614 91.2096 108.104C90.6178 108.11 90.0837 107.937 89.7277 107.821Z" fill="#EFE7DB"/>
<path d="M364.715 174.66C361.785 178.239 359.033 181.876 355.328 184.81C348.328 190.024 341.568 195.71 333.971 200.337C329.319 203.161 324.604 205.571 319.528 207.274C315.751 208.609 312.094 210.181 308.26 211.695C307.846 211.758 307.374 211.999 307.018 211.884C308.197 211.281 309.198 210.621 310.319 210.197C311.911 209.531 313.326 208.808 314.861 208.321C327.197 204.245 338.09 197.339 348.145 189.374C351.614 186.56 355.261 183.804 358.552 180.933C359.961 179.617 361.251 178.066 362.66 176.751C363.305 175.975 364.07 175.436 364.715 174.66Z" fill="#EFE7DB"/>
<path d="M153.184 80.1419C151.447 77.6103 149.532 75.021 147.795 72.4894C141.804 63.6575 135.048 55.3655 127.648 47.8489C122.874 43.1524 118.101 38.4558 113.328 33.7592C110.941 31.411 108.555 29.0627 106.226 26.5362C106.106 26.3004 105.985 26.0645 105.745 25.5928C107.116 26.8246 108.189 27.7629 109.084 28.6435C114.334 33.6913 119.583 38.739 124.833 43.7868C135.573 54.354 145.018 65.8802 152.582 78.9626C152.881 79.2561 152.943 79.6702 153.184 80.1419Z" fill="#EFE7DB"/>
<path d="M268.51 91.5148C268.75 91.9865 269.169 92.5159 269.174 93.1081C273.212 109.183 277.071 125.2 280.931 141.217C281.85 145.058 282.534 149.021 283.275 152.805C283.097 152.747 282.861 152.867 282.861 152.867C282.799 152.453 282.678 152.218 282.438 151.746C280.296 143.177 278.212 134.429 276.071 125.86C273.924 116.698 271.778 107.537 269.631 98.3754C269.198 96.0693 268.943 93.8209 268.51 91.5148Z" fill="#EFE7DB"/>
<path d="M187.472 256.044C189.584 253.775 191.397 251.212 193.687 249.001C198.383 244.221 203.257 239.5 208.13 234.779C212.711 230.356 217.411 226.169 221.991 221.746C224.868 218.937 227.746 216.129 230.623 213.32C217.075 228.423 201.496 241.292 187.948 256.395C187.592 256.279 187.414 256.222 187.472 256.044Z" fill="#EFE7DB"/>
<path d="M330.278 161.338C329.74 160.573 329.201 159.807 328.719 158.864C328.715 158.272 328.71 157.68 328.469 157.208C322.55 142.69 318.638 127.443 315.317 112.192C314.763 109.65 314.267 106.929 313.714 104.388C314.32 106.159 315.105 107.988 315.475 109.88C318.296 121.82 321.294 133.817 325.12 145.688C326.453 149.467 327.786 153.246 329.119 157.025C329.484 158.324 329.792 159.802 330.278 161.338Z" fill="#EFE7DB"/>
<path d="M305.322 98.7157C306.41 101.431 307.498 104.146 308.527 107.039C309.74 110.582 310.775 114.067 311.752 117.731C314.625 128.9 319.091 139.403 323.97 149.844C325.053 151.966 325.9 154.21 326.925 156.511C325.842 154.388 324.288 152.506 323.441 150.263C320.91 144.718 318.378 139.172 316.025 133.685C313.432 127.725 311.959 121.342 310.25 115.079C308.85 110.293 307.272 105.451 305.871 100.665C305.631 100.194 305.505 99.3656 305.322 98.7157Z" fill="#EFE7DB"/>
<path d="M313.168 218.404C321.005 214.249 328.723 209.859 335.603 204.409C342.834 198.482 350.306 193.028 357.715 187.159C357.951 187.038 358.129 187.096 358.485 187.211C357.898 187.809 357.369 188.228 356.782 188.825C348.078 195.653 339.553 202.538 330.729 209.13C327.14 211.708 323.132 213.757 319.244 216.042C317.83 216.765 316.593 217.545 315.001 218.211C314.529 218.452 313.76 218.399 313.168 218.404Z" fill="#EFE7DB"/>
<path d="M326.086 205.854C325.321 206.394 324.498 207.112 323.555 207.594C319.489 209.821 315.66 211.927 311.474 213.918C308.938 215.065 306.104 215.919 303.449 216.831C299.436 218.287 295.481 219.566 291.646 221.08C287.398 222.657 283.689 224.999 280.162 227.991C279.869 228.29 279.397 228.531 278.627 228.478C279.743 227.461 280.682 226.387 281.918 225.606C285.565 222.85 289.573 220.802 293.821 219.225C295.827 218.496 297.656 217.711 299.782 217.218C307.755 215.076 315.183 211.576 322.371 207.604C323.608 206.823 324.907 206.457 326.086 205.854Z" fill="#EFE7DB"/>
<path d="M66.0731 81.2568C66.6649 81.2516 67.3144 81.0683 68.0265 81.299C72.8235 81.6718 77.6831 82.4586 82.5379 82.6532C91.0637 83.0526 99.479 84.4007 107.721 86.2834C111.161 87.201 114.895 87.82 118.278 88.9158C115.848 88.5224 113.418 88.129 110.988 87.7356C107.134 86.8808 103.516 85.9054 99.6042 85.2288C93.7967 84.3318 88.1096 83.6706 82.3647 83.1877C76.7978 82.7624 71.409 82.3948 66.0731 81.2568Z" fill="#EFE7DB"/>
<path d="M319.089 110.263C319.753 111.857 320.417 113.45 320.845 115.164C323.535 125.683 326.461 136.081 328.974 146.543C329.71 149.734 330.268 152.869 330.827 156.003C330.586 155.531 330.288 155.238 330.105 154.588C328.093 147.439 326.139 140.112 324.306 133.02C322.655 126.579 321.182 120.195 319.767 113.633C319.7 112.627 319.512 111.385 319.089 110.263Z" fill="#EFE7DB"/>
<path d="M241 201.325C241.938 200.251 242.876 199.176 243.757 198.28C251.031 190.399 257.829 182.166 266.475 175.517C268.005 174.437 269.357 173.3 270.887 172.221C271.123 172.1 271.301 172.158 272.008 171.796C270.069 173.531 268.481 174.788 266.894 176.046C261.014 180.835 255.611 185.976 250.627 191.646C247.813 194.869 244.642 197.976 241.828 201.199C241.592 201.32 241.356 201.44 241.12 201.561C241.12 201.561 240.942 201.503 241 201.325Z" fill="#EFE7DB"/>
<path d="M60.6745 79.7048C59.9047 79.6523 58.8991 79.7203 58.187 79.4896C46.8607 76.8047 36.0588 73.1084 25.1366 69.1762C23.0003 68.4841 20.9217 67.6137 18.9586 66.387C20.5608 66.9061 22.1054 67.6034 23.5873 67.8866C35.9914 72.102 48.3329 75.9034 60.6745 79.7048Z" fill="#EFE7DB"/>
<path d="M366.244 159.011C365.705 158.245 365.286 157.716 364.747 156.951C359.521 147.579 354.296 138.208 350.013 128.354C349.652 127.647 349.527 126.818 349.402 125.99C350.003 127.17 350.725 128.585 351.327 129.764C355.778 138.491 360.286 147.04 364.916 155.824C365.156 156.296 365.455 156.589 365.753 156.883C365.873 157.119 366.114 157.59 366.234 157.826C366.176 158.004 366.176 158.004 366.176 158.004C366.234 157.826 366.47 157.706 366.47 157.706C366.71 158.177 366.951 158.649 366.956 159.241C366.658 158.948 366.422 159.068 366.244 159.011Z" fill="#EFE7DB"/>
<path d="M223.442 109.794C222.167 105.837 220.892 101.88 219.674 97.7449C217.605 90.7741 215.713 83.861 212.581 77.1365C211.618 75.2496 210.834 73.4204 210.05 71.5912C211.373 74.1857 212.932 76.6596 214.077 79.1964C217.513 86.8067 219.592 94.9619 221.907 102.997C222.513 104.768 222.884 106.66 223.312 108.374C223.553 108.846 223.38 109.38 223.442 109.794Z" fill="#EFE7DB"/>
<path d="M180.183 117.634C179.702 116.691 179.163 115.925 178.918 114.861C177.517 110.076 175.41 105.653 173.244 101.407C170.896 96.5118 168.254 91.9151 165.67 87.1403C165.309 86.4327 164.477 85.9661 165.001 84.9547C168.244 90.7307 171.43 96.6849 174.673 102.461C176.295 105.349 177.503 108.3 178.653 111.429C179.379 113.436 179.692 115.506 180.183 117.634Z" fill="#EFE7DB"/>
<path d="M230.96 138.809C230.599 138.102 230.18 137.572 229.819 136.865C225.83 126.712 222.312 116.319 220.036 105.737C219.973 105.323 219.968 104.731 219.963 104.139C220.324 104.847 220.743 105.376 220.868 106.204C223.255 115.837 226.47 125.345 229.8 134.496C230.286 136.032 230.594 137.51 230.96 138.809Z" fill="#EFE7DB"/>
<path d="M63.0916 107.461C62.6778 107.524 62.3843 107.823 62.0283 107.707C52.7422 108.44 43.5188 109.586 34.5409 111.797C33.8913 111.98 33.2995 111.985 32.5297 111.933C33.0012 111.692 33.5304 111.273 34.18 111.089C43.3311 108.344 52.6748 107.434 62.2592 106.995C62.5575 107.288 62.7355 107.346 63.0916 107.461Z" fill="#EFE7DB"/>
<path d="M310.116 199.893C315.63 193.804 321.028 188.071 326.19 182.459C325.911 184.534 314.826 196.891 310.116 199.893Z" fill="#EFE7DB"/>
<path d="M160.315 90.9183C164.458 98.1671 170.603 104.095 176.045 110.978C175.453 110.983 175.039 111.046 175.097 110.867C172.946 108.399 170.617 105.872 168.524 103.225C165.892 99.813 163.438 96.4584 161.042 92.9257C160.623 92.3963 160.676 91.6259 160.315 90.9183Z" fill="#EFE7DB"/>
<path d="M358.77 135.326C359.068 135.619 359.189 135.855 359.429 136.327C361.672 142.763 363.972 149.021 366.215 155.457C366.398 156.107 366.402 156.699 366.407 157.292C366.109 156.998 365.931 156.94 365.633 156.647C365.45 155.997 365.325 155.169 365.142 154.519C363.082 148.733 361.2 143.004 359.141 137.218C358.9 136.746 358.895 136.154 358.77 135.326Z" fill="#EFE7DB"/>
<path d="M74.8281 51.8039C67.8559 46.0012 61.0618 40.2561 54.0897 34.4534L54.1474 34.2753C55.3985 35.2712 56.8275 36.3248 58.0785 37.3208C60.4026 39.255 62.9624 41.0688 65.2287 43.1812C68.3274 45.7602 71.3684 48.5173 74.4094 51.2745C74.7655 51.3898 74.7078 51.568 74.8281 51.8039Z" fill="#EFE7DB"/>
<path d="M209.163 129.582C206.17 125.462 203.827 121.159 201.777 116.557C202.734 117.852 203.692 119.147 204.592 120.62C206.031 122.858 207.234 125.216 208.615 127.633C208.677 128.047 208.86 128.696 209.163 129.582Z" fill="#EFE7DB"/>
<path d="M23.5662 115.92C22.3923 117.115 20.7901 116.596 19.4284 116.548C20.7853 116.004 22.0843 115.637 23.5662 115.92Z" fill="#EFE7DB"/>
<path d="M66.1308 81.0787C64.2928 80.6801 62.5125 80.1034 60.6745 79.7048C62.4548 80.2816 64.2928 80.6801 66.1308 81.0787Z" fill="#EFE7DB"/>
<path d="M162.244 80.7145C163.144 82.1873 164.101 83.4819 164.823 84.897C163.572 83.9011 162.908 82.3078 162.244 80.7145Z" fill="#EFE7DB"/>
<path d="M156.721 85.6192C156.119 84.4399 155.638 83.4965 155.036 82.3172C155.46 83.4388 156.061 84.6181 156.721 85.6192Z" fill="#EFE7DB"/>
<path d="M160.188 140.493C161.074 140.189 162.079 140.121 162.965 139.817C161.959 139.885 161.074 140.189 160.188 140.493Z" fill="#EFE7DB"/>
<path d="M167.94 219.789C167.117 220.507 166.174 220.989 165.351 221.707C166.294 221.225 167.117 220.507 167.94 219.789Z" fill="#EFE7DB"/>
<path d="M200.293 238.934C201.173 238.037 201.996 237.32 202.876 236.424C201.876 237.084 200.995 237.98 200.293 238.934Z" fill="#EFE7DB"/>
<path d="M74.8281 51.8039C75.4824 52.2127 76.0791 52.7998 76.7335 53.2086L76.6757 53.3868C76.0214 52.9779 75.4247 52.3909 74.8281 51.8039Z" fill="#EFE7DB"/>
<path d="M249.623 134.027C249.984 134.734 250.287 135.62 250.648 136.328C250.465 135.678 250.162 134.792 249.623 134.027Z" fill="#EFE7DB"/>
<path d="M65.4011 107.619C66.1709 107.671 66.7627 107.666 67.5903 107.54C66.8204 107.488 65.9929 107.614 65.4011 107.619Z" fill="#EFE7DB"/>
<path d="M200.351 238.755C199.999 239.232 199.591 239.887 199.239 240.364L199.061 240.307C199.412 239.83 199.764 239.353 200.351 238.755Z" fill="#EFE7DB"/>
<path d="M223.442 109.794C223.625 110.444 223.986 111.152 224.169 111.802C223.986 111.152 223.803 110.502 223.442 109.794Z" fill="#EFE7DB"/>
<path d="M164.971 139.089C164.321 139.272 163.614 139.633 162.786 139.759C163.672 139.455 164.321 139.272 164.971 139.089Z" fill="#EFE7DB"/>
<path d="M199.476 103.015C199.659 103.664 200.02 104.372 200.145 105.2C199.842 104.314 199.659 103.664 199.476 103.015Z" fill="#EFE7DB"/>
<path d="M135.552 116.957C134.783 116.905 134.013 116.852 133.421 116.857C134.191 116.91 134.961 116.962 135.552 116.957Z" fill="#EFE7DB"/>
<path d="M306.255 82.4793C306.438 83.1292 306.563 83.9572 306.746 84.6071C306.563 83.9572 306.38 83.3073 306.255 82.4793Z" fill="#EFE7DB"/>
<path d="M157.678 86.9139C158.039 87.6214 158.222 88.2713 158.583 88.9789C158.458 88.1508 158.275 87.5009 157.678 86.9139Z" fill="#EFE7DB"/>
<path d="M219.906 104.317C219.723 103.667 219.362 102.96 219.237 102.132C219.362 102.96 219.545 103.61 219.906 104.317Z" fill="#EFE7DB"/>
<path d="M318.112 106.6C318.295 107.25 318.42 108.078 318.425 108.67C318.478 107.9 318.295 107.25 318.112 106.6Z" fill="#EFE7DB"/>
<path d="M160.315 90.9183C159.776 90.1531 159.18 89.566 158.819 88.8584C159.18 89.566 159.718 90.3312 160.315 90.9183Z" fill="#EFE7DB"/>
<path d="M194.42 186.628C194.362 186.806 194.362 186.806 194.304 186.984C194.184 186.749 194.242 186.57 194.42 186.628C194.242 186.57 194.242 186.57 194.42 186.628Z" fill="#EFE7DB"/>
<path d="M102.262 200.284C102.912 200.101 103.441 199.681 104.091 199.498C103.619 199.739 102.912 200.101 102.262 200.284Z" fill="#EFE7DB"/>
<path d="M152.928 222.408C152.577 222.885 152.283 223.183 151.932 223.66C152.283 223.183 152.635 222.706 152.928 222.408Z" fill="#EFE7DB"/>
<path d="M72.7385 107.436C73.2726 107.609 73.8644 107.604 74.2204 107.72C73.6864 107.547 73.1523 107.374 72.7385 107.436Z" fill="#EFE7DB"/>
<path d="M76.4674 107.463C75.9333 107.29 75.3415 107.295 74.9854 107.18C75.4618 107.531 76.0536 107.526 76.4674 107.463Z" fill="#EFE7DB"/>
<path d="M78.8346 107.442C78.3005 107.269 77.7087 107.274 77.3527 107.159C77.7087 107.274 78.2428 107.448 78.8346 107.442Z" fill="#EFE7DB"/>
<path d="M78.8346 107.442C79.4264 107.437 79.9605 107.61 80.5523 107.605C79.7825 107.553 79.1907 107.558 78.8346 107.442Z" fill="#EFE7DB"/>
<path d="M82.5634 107.469C81.9716 107.474 81.6156 107.359 81.0238 107.364C81.6156 107.359 82.1497 107.532 82.5634 107.469Z" fill="#EFE7DB"/>
<path d="M84.2811 107.632C84.8729 107.627 85.407 107.8 85.9988 107.795C85.407 107.8 84.8152 107.805 84.2811 107.632Z" fill="#EFE7DB"/>
<path d="M88.188 107.716C87.5962 107.721 87.0621 107.548 86.6484 107.611C87.0044 107.727 87.5962 107.721 88.188 107.716Z" fill="#EFE7DB"/>
<path d="M88.188 107.716C88.7799 107.711 89.3139 107.884 89.9057 107.879C89.1359 107.826 88.6018 107.653 88.188 107.716Z" fill="#EFE7DB"/>
<path d="M214.564 88.0169C214.804 88.4887 214.809 89.0809 215.05 89.5526C215.045 88.9604 214.804 88.4887 214.564 88.0169Z" fill="#EFE7DB"/>
<path d="M117.673 116.284C118.265 116.279 118.857 116.274 119.213 116.389C118.621 116.394 118.087 116.221 117.673 116.284Z" fill="#EFE7DB"/>
<path d="M119.213 116.389C119.804 116.384 120.396 116.379 120.752 116.494C120.218 116.321 119.804 116.384 119.213 116.389Z" fill="#EFE7DB"/>
<path d="M122.35 116.421C121.758 116.426 121.166 116.431 120.81 116.316C121.344 116.489 121.936 116.484 122.35 116.421Z" fill="#EFE7DB"/>
<path d="M124.067 116.584C123.48 117.181 122.946 117.008 122.528 116.479C122.884 116.594 123.476 116.589 124.067 116.584Z" fill="#EFE7DB"/>
<path d="M124.067 116.584C124.659 116.578 125.251 116.573 125.607 116.689C125.078 117.108 124.486 117.113 124.067 116.584Z" fill="#EFE7DB"/>
<path d="M127.204 116.615C126.675 117.035 126.083 117.04 125.665 116.51C126.199 116.683 126.733 116.856 127.204 116.615Z" fill="#EFE7DB"/>
<path d="M127.325 116.851C127.917 116.846 128.451 117.019 129.042 117.014C128.33 116.783 127.739 116.788 127.325 116.851Z" fill="#EFE7DB"/>
<path d="M128.864 116.956C129.399 117.129 129.99 117.124 130.524 117.297C129.99 117.124 129.456 116.951 128.864 116.956Z" fill="#EFE7DB"/>
<path d="M131.232 116.936C131.766 117.109 132.358 117.103 132.714 117.219C132.18 117.046 131.645 116.873 131.232 116.936Z" fill="#EFE7DB"/>
<path d="M215.536 91.0883C215.295 90.6166 215.29 90.0243 215.05 89.5526C215.29 90.0243 215.353 90.4384 215.536 91.0883Z" fill="#EFE7DB"/>
<path d="M136.202 116.774C136.736 116.947 137.27 117.12 137.862 117.115C137.328 116.942 136.794 116.769 136.202 116.774Z" fill="#EFE7DB"/>
<path d="M194.487 100.807C194.549 101.221 194.554 101.814 194.617 102.228C194.554 101.814 194.491 101.4 194.487 100.807Z" fill="#EFE7DB"/>
<path d="M139.161 116.748C139.339 116.806 139.753 116.743 139.931 116.801L139.873 116.979C139.695 116.921 139.575 116.685 139.161 116.748Z" fill="#EFE7DB"/>
<path d="M218.51 100.124C218.751 100.596 218.991 101.068 219.232 101.539C219.049 100.889 218.808 100.418 218.51 100.124Z" fill="#EFE7DB"/>
<path d="M249.801 134.084C249.56 133.613 249.377 132.963 249.315 132.549C249.377 132.963 249.618 133.435 249.801 134.084Z" fill="#EFE7DB"/>
<path d="M251.134 137.863C251.071 137.449 250.888 136.8 250.826 136.385C250.831 136.978 250.893 137.392 251.134 137.863Z" fill="#EFE7DB"/>
<path d="M305.711 81.1218C305.952 81.5935 306.135 82.2435 306.197 82.6575C306.014 82.0076 305.952 81.5935 305.711 81.1218Z" fill="#EFE7DB"/>
<path d="M306.688 84.7854C306.929 85.2571 307.169 85.7288 307.41 86.2005C307.169 85.7288 306.986 85.0789 306.688 84.7854Z" fill="#EFE7DB"/>
<path d="M303.686 94.051C303.446 93.5792 303.441 92.987 303.2 92.5153C303.383 93.1652 303.446 93.5792 303.686 94.051Z" fill="#EFE7DB"/>
<path d="M347.891 122.154C347.65 121.682 347.645 121.09 347.405 120.618C347.409 121.21 347.65 121.682 347.891 122.154Z" fill="#EFE7DB"/>
<path d="M304.35 95.6443C304.11 95.1726 303.927 94.5227 303.864 94.1087C303.869 94.7009 304.11 95.1726 304.35 95.6443Z" fill="#EFE7DB"/>
<path d="M304.836 97.1799C305.077 97.6517 305.082 98.2439 305.322 98.7157C305.26 98.3016 305.077 97.6517 304.836 97.1799Z" fill="#EFE7DB"/>
<path d="M208.761 239.511C208.468 239.81 208.41 239.988 208.116 240.287C208.116 240.287 207.938 240.229 207.996 240.051C208.174 240.109 208.468 239.81 208.761 239.511Z" fill="#EFE7DB"/>
<path d="M314.902 97.6845C315.143 98.1562 315.383 98.6279 315.624 99.0997C315.561 98.6856 315.321 98.2139 314.902 97.6845Z" fill="#EFE7DB"/>
<path d="M318.425 108.67C318.665 109.142 318.906 109.613 319.089 110.263C319.084 109.671 318.843 109.199 318.425 108.67Z" fill="#EFE7DB"/>
<path d="M346.741 119.025C346.5 118.553 346.317 117.903 346.255 117.489C346.437 118.139 346.5 118.553 346.741 119.025Z" fill="#EFE7DB"/>
<path d="M347.405 120.618C347.164 120.146 346.981 119.496 346.919 119.082C346.923 119.675 347.164 120.146 347.405 120.618Z" fill="#EFE7DB"/>
<path d="M304.172 95.5867C304.413 96.0584 304.596 96.7082 304.658 97.1223C304.596 96.7082 304.355 96.2365 304.172 95.5867Z" fill="#EFE7DB"/>
<path d="M348.377 123.689C348.136 123.218 347.953 122.568 347.891 122.154C347.896 122.746 348.136 123.218 348.377 123.689Z" fill="#EFE7DB"/>
<path d="M354.28 121.861C354.521 122.333 354.526 122.925 354.766 123.397C354.526 122.925 354.463 122.511 354.28 121.861Z" fill="#EFE7DB"/>
<path d="M354.766 123.397C355.007 123.869 355.012 124.461 355.252 124.932C355.19 124.518 355.007 123.869 354.766 123.397Z" fill="#EFE7DB"/>
<path d="M355.738 126.468C355.979 126.94 356.162 127.59 356.224 128.004C356.22 127.412 355.979 126.94 355.738 126.468Z" fill="#EFE7DB"/>
<path d="M358.048 133.911C358.289 134.382 358.472 135.032 358.534 135.446C358.53 134.854 358.289 134.382 358.048 133.911Z" fill="#EFE7DB"/>
<path d="M68.2398 107.357C68.7739 107.53 69.3657 107.525 69.8998 107.698C69.1877 107.467 68.6536 107.294 68.2398 107.357Z" fill="#EFE7DB"/>
<path d="M154.021 81.2007C153.781 80.7289 153.482 80.4354 153.242 79.9637C153.247 80.5559 153.545 80.8495 154.021 81.2007Z" fill="#EFE7DB"/>
<path d="M153.785 81.3212C154.084 81.6147 154.502 82.1441 154.801 82.4377C154.738 82.0236 154.262 81.6724 153.785 81.3212Z" fill="#EFE7DB"/>
<path d="M156.485 85.7397C156.961 86.0909 157.202 86.5627 157.678 86.9139C157.438 86.4421 157.139 86.1486 156.485 85.7397Z" fill="#EFE7DB"/>
<path d="M313.358 104.272C313.238 104.036 313.117 103.8 313.175 103.622L313.411 103.502C313.531 103.738 313.651 103.973 313.594 104.152C313.536 104.33 313.536 104.33 313.358 104.272Z" fill="#EFE7DB"/>
<path d="M164.351 222.367C164.057 222.666 164.293 222.545 164.351 222.367C164.293 222.545 164.115 222.488 164.351 222.367Z" fill="#EFE7DB"/>
<path d="M169.176 219.008C168.705 219.249 168.411 219.548 167.882 219.967C168.353 219.726 168.705 219.249 169.176 219.008Z" fill="#EFE7DB"/>
<path d="M366.893 158.827C366.836 159.006 366.778 159.184 366.72 159.362C366.6 159.126 366.422 159.068 366.302 158.832C366.422 159.068 366.658 158.948 366.893 158.827Z" fill="#EFE7DB"/>
<path d="M251.076 138.042C251.196 138.278 251.495 138.571 251.615 138.807C251.495 138.571 251.374 138.335 251.076 138.042Z" fill="#EFE7DB"/>
<path d="M217.466 95.4543C217.345 95.2184 217.047 94.9248 216.927 94.6889C216.989 95.103 217.11 95.339 217.466 95.4543Z" fill="#EFE7DB"/>
<path d="M203.867 147.752C203.631 147.873 203.338 148.171 202.924 148.234C203.338 148.171 203.573 148.051 203.867 147.752Z" fill="#EFE7DB"/>
<path d="M307.357 86.9709C307.477 87.2068 307.776 87.5003 307.896 87.7362C307.776 87.5003 307.655 87.2645 307.357 86.9709Z" fill="#EFE7DB"/>
<path d="M199.914 105.913C200.034 106.149 200.333 106.442 200.453 106.678C200.333 106.442 200.212 106.206 199.914 105.913Z" fill="#EFE7DB"/>
<path d="M205.464 147.679C205.7 147.558 206.172 147.317 206.407 147.197C205.994 147.26 205.7 147.558 205.464 147.679Z" fill="#EFE7DB"/>
<path d="M206.407 147.197C206.643 147.076 206.937 146.778 207.172 146.657C206.937 146.778 206.701 146.898 206.407 147.197Z" fill="#EFE7DB"/>
<path d="M217.846 98.5308C217.966 98.7666 218.265 99.0601 218.385 99.2959C218.5 98.9396 218.144 98.8243 217.846 98.5308Z" fill="#EFE7DB"/>
<path d="M201.296 115.614C201.416 115.85 201.478 116.264 201.599 116.5C201.714 116.143 201.594 115.908 201.296 115.614Z" fill="#EFE7DB"/>
<path d="M96.8401 203.056C97.0759 202.935 97.5474 202.694 97.7831 202.574C97.4897 202.872 97.4319 203.051 97.1384 203.349C97.1384 203.349 97.0182 203.113 96.8401 203.056Z" fill="#EFE7DB"/>
<path d="M210.05 71.5912C209.872 71.5335 209.929 71.3553 209.751 71.2977C209.929 71.3553 210.05 71.5912 210.05 71.5912Z" fill="#EFE7DB"/>
<path d="M102.262 200.284C102.027 200.404 101.613 200.467 101.377 200.588C101.733 200.703 102.027 200.404 102.262 200.284Z" fill="#EFE7DB"/>
<path d="M317.015 102.7C316.716 102.407 316.596 102.171 316.298 101.877C316.538 102.349 316.658 102.585 317.015 102.7Z" fill="#EFE7DB"/>
<path d="M236.625 107.962C236.746 108.198 236.808 108.612 236.929 108.848C237.044 108.491 236.924 108.255 236.625 107.962Z" fill="#EFE7DB"/>
<path d="M165.741 139.141C165.976 139.021 166.27 138.722 166.506 138.601C166.27 138.722 166.034 138.842 165.741 139.141Z" fill="#EFE7DB"/>
<path d="M30.2876 112.782C30.0518 112.902 29.7584 113.201 29.5226 113.321C29.9941 113.08 30.0518 112.902 30.2876 112.782Z" fill="#EFE7DB"/>
<path d="M100.434 201.07C100.67 200.949 101.084 200.886 101.319 200.766C101.141 200.708 100.848 201.007 100.434 201.07Z" fill="#EFE7DB"/>
<path d="M100.434 201.07C100.198 201.19 99.7846 201.253 99.4911 201.552C99.9049 201.489 100.198 201.19 100.434 201.07Z" fill="#EFE7DB"/>
<path d="M237.107 108.905C237.227 109.141 237.29 109.555 237.588 109.849C237.347 109.377 237.227 109.141 237.107 108.905Z" fill="#EFE7DB"/>
<path d="M142.471 116.245C142.827 116.361 143.005 116.418 143.361 116.534C143.005 116.418 142.649 116.303 142.471 116.245Z" fill="#EFE7DB"/>
<path d="M237.949 110.556C237.828 110.32 237.766 109.906 237.646 109.67C237.53 110.027 237.65 110.263 237.949 110.556Z" fill="#EFE7DB"/>
<path d="M28.1033 113.452C27.8675 113.573 27.6317 113.693 27.396 113.814C27.8098 113.751 28.0455 113.63 28.1033 113.452Z" fill="#EFE7DB"/>
<path d="M327.17 157.575C327.05 157.339 326.987 156.925 326.867 156.689C326.987 156.925 327.107 157.161 327.17 157.575Z" fill="#EFE7DB"/>
<path d="M327.228 157.396C327.406 157.454 327.406 157.454 327.526 157.69C327.526 157.69 327.348 157.632 327.228 157.396Z" fill="#EFE7DB"/>
<path d="M238.252 111.442C238.132 111.206 238.069 110.792 237.771 110.499C238.011 110.97 238.132 111.206 238.252 111.442Z" fill="#EFE7DB"/>
<path d="M99.6691 201.61C99.4334 201.73 99.0196 201.793 98.7261 202.091C99.0196 201.793 99.2554 201.672 99.6691 201.61Z" fill="#EFE7DB"/>
<path d="M216.205 93.2739C216.325 93.5098 216.623 93.8033 216.744 94.0392C216.623 93.8033 216.503 93.5674 216.205 93.2739Z" fill="#EFE7DB"/>
<path d="M98.7838 201.913C98.6684 202.27 98.375 202.568 98.2595 202.925C98.0815 202.867 97.9612 202.631 97.7831 202.574C98.1969 202.511 98.4904 202.212 98.7838 201.913Z" fill="#EFE7DB"/>
<path d="M164.529 222.425C164.822 222.126 165.236 222.063 165.529 221.765C165.058 222.006 164.822 222.126 164.529 222.425Z" fill="#EFE7DB"/>
<path d="M195.454 103.287C195.574 103.522 195.694 103.758 195.815 103.994C195.637 103.936 195.574 103.522 195.454 103.287Z" fill="#EFE7DB"/>
<path d="M312.167 219.065C312.403 218.944 312.874 218.703 313.11 218.583C312.874 218.703 312.639 218.824 312.167 219.065Z" fill="#EFE7DB"/>
<path d="M326.971 205.55C326.735 205.671 326.321 205.734 326.086 205.854C326.321 205.734 326.678 205.849 326.971 205.55Z" fill="#EFE7DB"/>
<path d="M143.953 116.529C144.131 116.586 144.367 116.466 144.367 116.466C144.367 116.466 144.189 116.408 143.953 116.529Z" fill="#EFE7DB"/>
<path d="M95.7816 203.894C95.8394 203.716 96.0751 203.595 96.0751 203.595C95.8394 203.716 95.7816 203.894 95.7816 203.894Z" fill="#EFE7DB"/>
<path d="M268.187 88.2601C268.308 88.496 268.25 88.6741 268.37 88.91C268.428 88.7318 268.308 88.496 268.187 88.2601Z" fill="#EFE7DB"/>
<path d="M268.558 90.1521C268.616 89.9739 268.495 89.7381 268.553 89.5599C268.495 89.7381 268.438 89.9163 268.558 90.1521Z" fill="#EFE7DB"/>
<path d="M268.688 91.5725C268.746 91.3943 268.625 91.1584 268.741 90.802C268.447 91.1007 268.568 91.3366 268.688 91.5725Z" fill="#EFE7DB"/>
<path d="M180.13 118.405C180.188 118.226 180.125 117.812 180.183 117.634C180.125 117.812 180.068 117.991 180.13 118.405Z" fill="#EFE7DB"/>
<path d="M165.741 139.141C165.563 139.083 165.149 139.146 164.971 139.089C165.327 139.204 165.563 139.083 165.741 139.141Z" fill="#EFE7DB"/>
<path d="M255.44 143.393C255.383 143.57 255.383 143.57 255.44 143.393V143.393Z" fill="#EFE7DB"/>
<path d="M166.506 138.601C166.741 138.481 166.919 138.539 167.333 138.476C167.097 138.596 166.741 138.481 166.506 138.601Z" fill="#EFE7DB"/>
<path d="M167.333 138.476C167.391 138.298 167.391 138.298 167.333 138.476V138.476Z" fill="#EFE7DB"/>
<path d="M200.15 105.792C200.208 105.614 200.145 105.2 200.203 105.022C200.087 105.378 200.03 105.556 200.15 105.792Z" fill="#EFE7DB"/>
<path d="M216.258 92.5034C216.378 92.7393 216.263 93.0957 216.383 93.3316C216.263 93.0957 216.2 92.6816 216.258 92.5034Z" fill="#EFE7DB"/>
<path d="M216.744 94.0392C216.686 94.2173 216.749 94.6313 216.691 94.8095C216.806 94.4532 216.864 94.275 216.744 94.0392Z" fill="#EFE7DB"/>
<path d="M217.355 96.4029C217.413 96.2247 217.35 95.8107 217.408 95.6325C217.35 95.8107 217.292 95.9888 217.355 96.4029Z" fill="#EFE7DB"/>
<path d="M217.899 97.7603C217.841 97.9385 217.904 98.3526 217.846 98.5308C217.961 98.1744 218.019 97.9962 217.899 97.7603Z" fill="#EFE7DB"/>
<path d="M218.563 99.3536C218.505 99.5318 218.568 99.9459 218.51 100.124C218.625 99.7677 218.505 99.5318 218.563 99.3536Z" fill="#EFE7DB"/>
<path d="M26.7465 113.997C26.9822 113.877 27.3383 113.992 27.574 113.871C27.1602 113.934 26.9822 113.877 26.7465 113.997Z" fill="#EFE7DB"/>
<path d="M219.237 102.132C219.294 101.953 219.41 101.597 219.289 101.361C219.174 101.717 219.116 101.896 219.237 102.132Z" fill="#EFE7DB"/>
<path d="M315.133 96.9717C315.075 97.1499 315.195 97.3858 315.08 97.7422C315.138 97.564 315.075 97.1499 315.133 96.9717Z" fill="#EFE7DB"/>
<path d="M28.7528 113.269C28.5748 113.211 28.339 113.332 28.161 113.274C28.517 113.389 28.6951 113.447 28.7528 113.269Z" fill="#EFE7DB"/>
<path d="M29.5804 113.143C29.3446 113.264 28.9885 113.148 28.7528 113.269C29.1088 113.384 29.3446 113.264 29.5804 113.143Z" fill="#EFE7DB"/>
<path d="M31.0574 112.834C30.8794 112.776 30.4656 112.839 30.2876 112.782C30.6436 112.897 30.8794 112.776 31.0574 112.834Z" fill="#EFE7DB"/>
<path d="M315.749 99.9277C315.807 99.7496 315.922 99.3932 315.802 99.1573C315.744 99.3355 315.686 99.5137 315.749 99.9277Z" fill="#EFE7DB"/>
<path d="M67.5326 107.719C67.7683 107.598 68.0041 107.478 68.2398 107.357C68.0618 107.299 67.826 107.42 67.5326 107.719Z" fill="#EFE7DB"/>
<path d="M224.116 112.572C224.174 112.394 224.111 111.98 224.169 111.802C224.054 112.158 224.174 112.394 224.116 112.572Z" fill="#EFE7DB"/>
<path d="M224.116 112.572C224.058 112.75 224.058 112.75 224.116 112.572V112.572Z" fill="#EFE7DB"/>
<path d="M72.7962 107.258C72.5605 107.379 72.3248 107.499 72.1467 107.441C72.267 107.677 72.5028 107.557 72.7962 107.258Z" fill="#EFE7DB"/>
<path d="M316.957 102.879C316.899 103.057 316.962 103.471 316.904 103.649C317.019 103.293 316.899 103.057 316.957 102.879Z" fill="#EFE7DB"/>
<path d="M77.1747 107.101C76.9389 107.222 76.7031 107.343 76.4674 107.463C76.6454 107.521 76.8812 107.4 77.1747 107.101Z" fill="#EFE7DB"/>
<path d="M86.4704 107.554C86.2346 107.674 85.9989 107.794 85.7631 107.915C86.1769 107.852 86.2346 107.674 86.4704 107.554Z" fill="#EFE7DB"/>
<path d="M207.172 146.657C207.23 146.479 207.23 146.479 207.172 146.657V146.657Z" fill="#EFE7DB"/>
<path d="M308.079 88.3861C307.959 88.1502 308.074 87.7939 307.954 87.5581C308.016 87.9721 307.959 88.1502 308.079 88.3861Z" fill="#EFE7DB"/>
<path d="M131.054 116.878C130.818 116.999 130.582 117.119 130.346 117.24C130.76 117.177 130.996 117.056 131.054 116.878Z" fill="#EFE7DB"/>
<path d="M136.26 116.596C136.024 116.716 135.788 116.837 135.61 116.779C135.788 116.837 135.966 116.894 136.26 116.596Z" fill="#EFE7DB"/>
<path d="M328.719 158.864L328.541 158.806C328.484 158.985 328.484 158.984 328.719 158.864C328.662 159.042 328.662 159.042 328.719 158.864Z" fill="#EFE7DB"/>
<path d="M331.01 156.653C331.067 156.475 330.947 156.239 331.005 156.06C330.947 156.239 330.889 156.417 331.01 156.653Z" fill="#EFE7DB"/>
<path d="M330.831 156.595C330.952 156.831 330.894 157.009 330.957 157.423C331.072 157.067 330.952 156.831 330.831 156.595Z" fill="#EFE7DB"/>
<path d="M331.014 157.245C331.135 157.481 331.135 157.481 331.014 157.245V157.245Z" fill="#EFE7DB"/>
<path d="M138.511 116.931C138.276 117.052 138.098 116.994 137.862 117.115C138.04 117.172 138.276 117.052 138.511 116.931Z" fill="#EFE7DB"/>
<path d="M356.893 130.189C356.836 130.368 356.956 130.603 356.898 130.782C357.134 130.661 357.014 130.425 356.893 130.189Z" fill="#EFE7DB"/>
<path d="M266.998 80.3933C267.056 80.2151 266.936 79.9792 266.993 79.8011C266.7 80.0998 266.82 80.3356 266.998 80.3933Z" fill="#EFE7DB"/>
<path d="M266.945 81.1637C267.003 80.9855 266.883 80.7496 266.941 80.5714C266.883 80.7496 266.825 80.9278 266.945 81.1637Z" fill="#EFE7DB"/>
<path d="M266.95 81.7559C267.008 81.5777 266.888 81.3419 266.945 81.1637C266.888 81.3419 266.83 81.5201 266.95 81.7559Z" fill="#EFE7DB"/>
<path d="M266.95 81.7559C266.893 81.9341 267.013 82.1699 266.955 82.3481C267.013 82.1699 267.071 81.9918 266.95 81.7559Z" fill="#EFE7DB"/>
<path d="M267.138 82.9981C267.196 82.8199 267.075 82.584 267.133 82.4058C267.075 82.584 267.018 82.7622 267.138 82.9981Z" fill="#EFE7DB"/>
<path d="M266.96 82.9404C266.902 83.1186 267.023 83.3544 266.965 83.5326C267.201 83.4121 267.08 83.1763 266.96 82.9404Z" fill="#EFE7DB"/>
<path d="M312.167 219.065C312.11 219.242 312.11 219.242 312.167 219.065V219.065Z" fill="#EFE7DB"/>
<path d="M267.326 84.2402C267.383 84.062 267.263 83.8261 267.321 83.648C267.085 83.7685 267.205 84.0043 267.326 84.2402Z" fill="#EFE7DB"/>
<path d="M267.331 84.8324C267.388 84.6542 267.268 84.4184 267.326 84.2402C267.268 84.4184 267.21 84.5966 267.331 84.8324Z" fill="#EFE7DB"/>
<path d="M142.293 116.188C142.057 116.308 141.701 116.193 141.466 116.313C141.822 116.429 142.057 116.308 142.293 116.188Z" fill="#EFE7DB"/>
<path d="M267.331 84.8324C267.451 85.0683 267.393 85.2464 267.456 85.6605C267.335 85.4246 267.451 85.0683 267.331 84.8324Z" fill="#EFE7DB"/>
<path d="M143.125 116.654C143.361 116.534 143.717 116.649 143.953 116.529C143.775 116.471 143.361 116.534 143.125 116.654Z" fill="#EFE7DB"/>
<path d="M283.968 150.666C284.026 150.488 284.083 150.31 284.083 150.31L284.141 150.132C284.141 150.132 284.141 150.132 284.199 149.954C284.141 150.132 284.083 150.31 283.968 150.666ZM283.968 150.666C284.026 150.488 284.083 150.31 284.083 150.31L284.141 150.132C284.141 150.132 284.141 150.132 284.199 149.954C284.141 150.132 284.083 150.31 283.968 150.666ZM260.046 11.9874C259.993 12.7578 259.998 13.35 260.181 13.9999C261.452 17.3648 262.9 20.7873 264.464 23.8535C267.832 30.4575 271.85 36.8783 275.161 43.6605C281.359 56.1034 287.441 68.9026 293.404 81.466C297.436 89.6634 300.877 97.866 303.552 106.608C305.8 113.637 308.403 120.781 310.829 127.867C314.043 137.374 318.201 146.4 324.423 154.519C325.799 156.343 326.997 158.109 328.373 159.933C328.792 160.463 329.153 161.17 329.812 162.171C314.175 160.649 299.182 158.352 284.3 155.106C285.267 150.3 286.118 145.85 287.205 141.28C288.066 138.015 288.336 134.755 288.306 131.202C288.095 126.999 288.003 123.031 287.791 118.828C287.377 111.606 286.727 104.504 284.657 97.5336C281.924 88.9695 279.369 80.4631 276.693 71.7208C272.679 58.6074 267.015 46.3376 259.052 35.0946C253.663 27.4421 247.624 19.9729 241.999 12.4408C241.7 12.1473 241.344 12.0319 240.81 11.8589C239.872 12.9332 240.531 13.9344 240.892 14.6419C244.829 25.5646 248.765 36.4873 252.702 47.41C254.155 51.4247 255.55 55.6177 257.004 59.6325C259.675 67.7825 262.581 75.8121 265.074 83.9044C268.356 94.4183 269.569 105.246 270.547 116.195C271.639 126.787 274.267 136.892 279.021 146.504C280.167 149.041 281.49 151.636 282.934 154.466C274.456 152.704 266.271 150.643 257.967 148.346C257.716 146.69 257.644 145.092 257.394 143.435C256.686 136.512 256.156 129.646 255.391 122.901C254.293 111.717 251.069 101.025 245.838 91.061C241.628 82.8059 236.595 75.2687 231.383 67.6739C225.633 59.3138 220.119 50.8331 214.426 42.2948C209.393 34.7577 204.36 27.2205 199.206 19.4474C198.908 19.1539 198.61 18.8604 198.311 18.5668C197.311 19.2271 197.85 19.9923 198.032 20.6422C198.879 22.8854 199.904 25.1864 200.809 27.2515C204.129 35.2182 207.507 43.0067 210.828 50.9734C212.883 56.1674 214.88 61.5397 216.935 66.7338C217.117 67.3837 217.3 68.0336 217.603 68.9193C217.247 68.804 217.247 68.804 217.069 68.7463C216.651 68.2169 216.29 67.5093 216.049 67.0376C211.848 59.967 207.47 52.8387 201.797 46.6693C194.868 38.9117 187.881 31.3324 180.716 23.6953C178.686 21.4624 176.246 19.8845 173.922 17.9503C173.446 17.5991 172.912 17.426 172.378 17.253C172.32 17.4312 172.084 17.5517 171.906 17.4941C172.031 18.3221 172.156 19.1503 172.517 19.8578C174.745 24.5173 176.973 29.1768 179.437 33.7159C184.899 42.9669 190.654 51.9192 195.879 61.2908C198.401 65.6516 200.687 70.133 202.265 74.9758C205.297 83.8334 208.622 92.3923 212.125 101.009C217.144 114.054 222.871 126.738 230.541 138.28C230.782 138.752 231.022 139.223 231.561 139.989C230.671 139.7 229.959 139.47 229.425 139.297C224.854 137.619 220.162 135.705 215.476 134.384C212.094 133.288 210.005 131.233 208.913 127.926C208.73 127.276 208.369 126.569 208.186 125.919C206.232 118.592 203.865 111.327 202.325 103.937C200.101 92.5851 196.578 81.5996 191.935 71.0384C189.885 66.4366 187.185 62.0181 184.134 58.0765C178.75 51.0162 173.13 44.0764 166.572 38.2108C164.724 36.6278 162.756 34.8089 160.73 33.1682C156.977 30.1804 153.046 27.1349 149.057 24.2675C143.759 20.5824 138.226 17.0178 132.871 13.5108C131.086 12.3419 129.301 11.1729 127.337 9.94625C127.039 9.65272 126.625 9.71556 125.855 9.66305C126.216 10.3706 126.457 10.8423 126.698 11.314C128.194 13.3739 129.811 15.6697 131.601 17.4309C139.723 26.3626 148.023 35.352 156.146 44.2837C164.09 53.1578 171.033 62.692 176.504 73.1275C180.835 81.6184 184.637 90.5285 188.318 99.2028C191.456 106.52 195.065 113.595 199.795 120.247C202.008 123.13 204.222 126.013 206.435 128.895C206.974 129.661 207.571 130.248 208.11 131.013C208.052 131.191 207.816 131.312 207.816 131.312C199.8 128.124 191.962 124.994 184.302 121.922C182.623 119.212 182.127 116.492 181.338 114.07C179.028 106.628 176.424 99.4842 173.643 92.2828C171.285 86.203 167.69 80.9038 163.918 75.547C159.429 69.3673 154.352 63.7851 149.04 58.3233C145.219 54.3291 141.341 50.5132 137.285 46.6395C133.946 43.5888 130.549 40.7164 127.209 37.6657C121.666 32.9166 116.065 28.3457 110.522 23.5967C109.151 22.3649 107.9 21.3689 106.471 20.3153C102.184 17.1544 98.0168 14.2294 93.7296 11.0685C93.0752 10.6596 92.3631 10.4289 91.6607 11.3827C92.1996 12.1479 92.9166 12.9708 93.5132 13.5579C100.976 21.4885 108.382 29.5972 115.667 37.4702C123.49 46.1083 130.549 55.2862 136.372 65.2448C140.813 72.7872 145.019 80.45 149.46 87.9924C151.082 90.8804 152.468 93.8888 155.033 96.2948C157.001 98.1137 158.968 99.9326 160.994 101.573C165.166 105.091 169.631 108.309 173.803 111.826C176.247 113.996 178.34 116.643 180.549 118.934C180.491 119.112 180.313 119.054 180.255 119.233C179.543 119.002 178.653 118.714 177.999 118.305C173.899 116.386 169.978 114.525 165.936 112.428C162.371 110.682 158.863 108.758 155.88 105.823C150.568 100.361 145.198 95.0776 140.415 89.1966C137.066 84.9614 133.717 80.7263 130.661 76.1924C127.784 71.7162 124.199 67.6016 120.85 63.3665C114.152 54.8962 106.516 47.5001 98.2927 40.7015C94.8956 37.829 91.5563 34.7783 88.1592 31.9058C84.3436 28.5039 80.5279 25.1019 76.5342 21.6424C74.0899 19.4723 71.4675 17.2445 68.8451 15.0168C67.1754 13.4914 65.5058 11.966 63.1337 11.3945C62.133 12.0547 62.5517 12.5841 62.9126 13.2917C63.7498 14.3504 64.3513 15.5298 65.1885 16.5886C74.8121 28.1724 84.3202 40.1126 94.0015 51.5182C101.234 60.1616 108.23 68.9254 116.872 76.2534C121.64 80.3577 126.293 84.8184 131.062 88.9228C135.83 93.0271 141.07 96.8904 145.896 100.817C147.445 102.106 149.052 103.217 150.602 104.507C149.177 104.045 147.989 103.463 146.623 102.824C142.162 100.198 137.466 97.6918 133.063 94.8873C127.65 91.5585 122.237 88.2297 116.824 84.901C114.029 83.2078 111.233 81.5146 108.495 79.6432C106.114 77.8871 103.438 76.4298 101.408 74.1968C96.572 69.0862 92.0296 63.6769 88.0165 57.8485C82.9256 50.4895 76.8965 44.2047 69.5154 39.0571C62.4327 34.203 55.1142 29.4695 47.7957 24.7359C41.3096 20.4689 35.0016 16.2595 28.5732 11.8143C23.574 8.42273 18.5747 5.03114 13.5177 1.81774C13.0413 1.46653 12.2715 1.414 11.4391 0.947448C11.2756 2.66645 12.3486 3.60474 13.0656 4.42766C15.0961 6.66059 17.3047 8.95117 19.393 11.0059C24.1085 15.8806 28.8818 20.5772 33.4192 25.3943C37.5381 29.6819 41.9504 33.6709 46.2473 38.0163C51.1408 42.9487 56.3856 47.4042 61.7457 51.5033C67.8806 56.2472 74.4821 60.1579 81.1414 63.8904C87.6226 67.5652 93.9884 71.5963 100.061 75.9262C102.144 77.3887 104.406 78.9089 106.489 80.3714C108.394 81.7763 110.3 83.1811 112.205 84.5859C110.844 84.5385 109.775 84.1925 108.765 83.6683C102.472 81.2356 96.0577 78.5671 89.7643 76.1344C80.6801 72.6008 71.3072 69.9581 61.7083 68.6203C46.48 66.4432 31.3094 64.088 16.2591 61.9686C11.9336 61.3548 7.43005 60.6834 3.10455 60.0696C2.3347 60.0171 1.50714 60.1427 0.679593 60.2684C0.621867 60.4466 0.564148 60.6248 0.506422 60.803C0.804745 61.0965 1.28109 61.4477 1.63713 61.5631C5.13993 62.8947 8.82078 64.2841 12.3236 65.6158C21.9996 69.1442 31.6179 72.8509 40.6541 77.7472C51.6534 83.8701 63.3357 86.6704 75.8839 86.7979C80.1469 86.9976 84.2895 86.9615 88.4321 86.9254C97.6653 86.9633 106.841 87.1794 115.91 88.9364C117.926 89.3926 119.942 89.8489 121.785 90.8397C123.984 91.9458 125.832 93.5288 127.973 94.8132C131.423 96.9153 134.815 99.1955 138.265 101.298C143.024 104.217 148.076 106.839 152.892 109.58C154.081 110.162 155.211 110.922 156.52 111.74C155.813 112.102 155.101 111.871 154.509 111.876C151.545 111.31 148.581 110.743 145.738 110.413C140.642 109.746 135.662 108.724 130.678 107.109C126.405 105.725 122.075 104.519 117.687 103.491C104.941 100.937 92.1473 99.7453 79.0747 100.629C68.7831 101.43 58.4338 102.408 48.3877 104.273C37.514 106.263 27.7904 111.382 17.3402 114.494C16.6906 114.677 16.2817 115.332 15.459 116.05C16.3491 116.338 16.8832 116.511 17.4173 116.684C20.3186 116.837 23.0419 116.931 26.0009 116.906C34.4642 116.891 42.8649 116.462 51.2705 116.626C61.0954 116.659 70.9204 116.692 80.577 117.851C90.8254 119.006 101.132 119.982 111.38 121.136C119.377 121.955 127.186 121.531 135.042 119.745C137.405 119.132 139.945 118.577 142.25 118.143C148.101 117.085 154.129 116.085 160.158 115.084C161.399 114.896 162.583 114.885 163.949 115.525C170.546 118.843 177.143 122.162 183.739 125.48C184.75 126.005 185.76 126.529 187.247 127.404C184.293 128.022 181.752 128.578 179.27 128.955C166.563 131.138 153.668 132.08 141.202 134.735C131.868 136.83 122.351 138.276 113.137 140.607C97.7218 144.472 83.1531 150.581 68.4065 156.633C60.6795 159.839 53.1306 163.103 45.4036 166.31C44.5183 166.613 43.5128 166.681 43.1713 168.343C43.8834 168.573 44.5955 168.804 45.3653 168.857C48.5024 168.889 51.6394 168.92 54.8342 168.774C66.9589 167.78 79.204 167.022 91.2085 165.792C104.454 164.373 117.695 162.362 130.079 156.924C138.985 153.115 147.771 149.07 156.075 144.082C166.794 137.71 177.576 131.753 190.158 128.741C197.938 132.049 206.022 136.243 214.625 138.833C213.682 139.315 212.618 139.561 211.733 139.865C205.526 140.808 199.498 141.808 193.233 142.929C182.538 144.977 172.511 149.21 162.845 154.151C158.837 156.2 155.012 158.898 151.366 161.654C139.068 170.468 126.949 179.339 114.651 188.153C106.236 194.09 97.2825 199.261 88.6271 204.726C88.0979 205.146 87.5687 205.565 86.8614 205.926C87.997 207.279 89.0026 207.211 90.0659 206.965C95.0264 205.618 99.9869 204.272 105.125 202.983C116.288 200.102 127.205 196.157 137.943 192.155C144.02 189.792 149.914 186.779 155.688 183.531C171.772 174.566 186.835 163.892 200.764 151.866C206.172 147.317 212.239 143.77 218.128 140.165C225.903 142.881 233.621 145.775 241.574 148.548C241.103 148.789 240.987 149.146 240.809 149.088C234.901 150.324 229.657 153.154 224.35 155.569C209.314 162.511 195.299 171.162 182.963 182.523C178.97 186.348 174.977 190.174 171.162 194.057C167.991 197.164 165.119 200.565 162.069 203.908C159.254 207.131 156.44 210.354 153.625 213.577C149.873 217.874 146.12 222.171 142.367 226.468C139.495 229.869 136.503 233.034 133.51 236.199C132.278 237.572 130.869 238.887 130.118 241.204C130.946 241.078 131.538 241.073 132.009 240.832C132.245 240.712 132.245 240.712 132.481 240.591C133.366 240.287 134.073 239.926 134.959 239.622C135.43 239.381 135.666 239.26 136.137 239.019C144.446 234.623 152.991 230.107 161.3 225.711C168.431 221.917 175.378 217.474 181.849 212.679C192.025 204.95 200.829 195.989 208.974 186.027C213.545 180.42 218.115 174.813 222.864 169.263C225.034 166.816 227.203 164.369 229.672 162.215C231.081 160.9 232.727 159.464 234.314 158.207C234.55 158.086 234.844 157.787 235.079 157.667C238.726 154.911 242.493 152.39 246.679 150.399C259.194 153.666 271.473 157.053 284.344 160.435C283.458 160.739 282.987 160.98 282.458 161.4C273.73 165.266 265.243 169.605 257.478 175.358C248.89 181.83 241.019 189.124 233.446 196.712C230.569 199.521 227.692 202.329 224.935 205.374C222.236 208.24 219.359 211.049 216.66 213.916C214.019 216.604 211.498 219.528 208.977 222.452C205.517 226.45 201.702 230.333 198.599 234.447C195.905 237.906 193.509 241.658 191.291 245.468C188.722 249.755 186.509 254.157 184.238 258.737C184.123 259.093 184.128 259.686 184.133 260.278C185.908 260.262 186.37 258.837 187.25 257.941C191.537 253.817 196.242 250.222 200.89 246.806C206.303 242.849 211.773 238.715 217.243 234.581C229.42 225.531 241.66 216.896 251.268 204.848C254.9 200.315 258.056 195.431 261.092 190.311C263.661 186.024 266.052 181.68 268.977 177.508C273.422 171.073 279.239 165.87 286.312 162.254C287.726 161.531 289.203 161.222 290.863 161.563C304.143 164.29 317.654 166.305 331.217 167.549C331.809 167.544 332.343 167.717 333.055 167.947C332.468 168.545 332.175 168.843 331.823 169.32C329.177 171.416 326.651 173.748 324.063 175.666C318.944 179.323 313.767 183.159 308.528 186.581C297.697 193.901 287.883 202.337 279.502 212.42C274.109 218.745 269.192 225.421 264.275 232.098C260.176 237.464 256.019 243.008 251.92 248.374C248.23 253.085 244.42 257.561 240.787 262.094C238.502 264.897 236.573 267.816 234.345 270.442C233.349 271.694 232.233 272.711 231.237 273.963C230.357 274.859 229.419 275.934 228.899 277.537C229.727 277.412 230.319 277.406 230.554 277.286C232.734 276.023 234.856 274.938 236.915 273.44C241.096 270.857 245.156 268.038 249.337 265.454C263.232 256.568 277.127 247.681 290.421 237.615C296.42 233.061 302.299 228.272 307.284 222.602C308.28 221.349 309.333 219.919 311.104 219.311C311.518 219.248 311.811 218.949 312.225 218.887C312.225 218.887 312.225 218.887 312.403 218.944C312.874 218.703 313.288 218.64 313.76 218.399C315.588 217.613 317.416 216.827 319.244 216.042C320.187 215.56 321.309 215.135 322.252 214.653C328.444 211.934 334.395 208.743 340.048 205.259C347.588 200.81 353.101 194.721 357.955 187.63C358.013 187.452 358.249 187.332 358.307 187.154C359.418 185.545 360.351 183.878 361.463 182.269C364.147 177.626 367.13 173.277 369.935 168.869C370.762 168.744 371.532 168.796 372.538 168.728C381.766 168.174 390.874 167.384 399.977 166.001C411.563 164.242 422.783 161.183 433.883 157.888C434.768 157.584 435.297 157.165 435.466 156.038C434.811 155.629 434.157 155.22 433.445 154.99C431.486 154.355 429.24 154.612 427.291 155.162C411.702 159.562 395.743 162.07 379.653 163.158C376.459 163.304 373.086 163.393 369.833 163.718C369.646 162.475 369.4 161.411 369.155 160.348C367.196 152.428 365.829 144.504 364.698 136.459C363.191 125.929 359.856 116.186 354.573 106.993C349.53 98.2709 342.49 91.462 335.273 84.5954C331.337 80.9576 327.281 77.084 323.345 73.4462C322.45 72.5656 321.612 71.5068 319.601 71.6428C320.203 72.8221 320.448 73.8861 320.929 74.8295C324.654 81.5489 328.436 88.0901 332.218 94.6313C336.482 102.116 339.624 110.025 341.881 118.238C343.099 122.373 344.374 126.33 346.063 130.225C349.017 136.892 352.679 143.197 357.049 149.141C359.921 153.025 362.972 156.966 366.023 160.908C366.561 161.673 366.922 162.381 367.461 163.146C363.088 163.895 336.981 163.116 332.237 161.972C331.659 156.469 331.139 150.788 330.561 145.285C329.608 137.298 328.597 129.488 326.225 121.632C323.366 112.24 320.979 102.607 319.833 92.7849C319.771 92.3708 319.708 91.9568 319.646 91.5427C318.154 82.7901 315.54 74.4619 311.922 66.2017C309.569 60.7141 306.686 55.6456 303.154 50.7606C295.311 39.7535 284.884 31.2565 274.693 22.639C271.118 19.7088 267.543 16.7786 264.026 13.6702C262.837 13.0883 261.706 12.3283 260.046 11.9874ZM271.49 115.713C270.012 101.452 267.35 87.2013 262.74 73.5008C259.708 64.6432 256.734 55.6074 253.702 46.7497C250.492 37.8344 247.283 28.9191 244.073 20.0038C243.712 19.2963 243.587 18.4682 243.341 17.4042L243.64 17.6977C243.938 17.9913 244.116 18.049 244.236 18.2848C245.372 19.6371 246.45 21.1677 247.585 22.52C250.217 25.9322 252.907 29.1662 255.361 32.5208C259.726 37.8724 262.969 43.6484 266.097 49.7807C270.37 58.4498 273.936 67.4805 276.438 76.7573C278.147 83.0205 280.149 88.985 282.271 95.1853C285.062 103.571 285.962 112.329 286.391 121.328C286.535 124.525 286.68 127.722 286.825 130.919C287.032 134.53 286.647 138.146 285.906 141.647C285.392 143.843 284.935 145.861 284.598 148.114C284.425 148.649 284.43 149.241 284.199 149.954C284.141 150.132 284.026 150.488 283.968 150.666L283.91 150.845C283.737 151.379 283.799 151.793 283.626 152.328C283.448 152.27 283.448 152.27 283.213 152.391L283.034 152.333C282.914 152.097 282.616 151.803 282.553 151.389C282.433 151.154 282.433 151.154 282.313 150.918C276.837 139.89 272.895 128.375 271.49 115.713ZM205.944 126.767C204.448 124.708 202.773 122.59 201.277 120.53C195.113 112.233 191.071 102.851 187.028 93.4691C183.347 84.7948 179.488 76.0628 174.685 67.8129C169.224 58.5619 162.584 49.9134 155.356 41.8623C147.412 32.9882 139.232 24.2347 131.288 15.3607C131.168 15.1249 130.99 15.0672 130.869 14.8313C130.629 14.3596 130.152 14.0084 129.912 13.5366C129.912 13.5366 129.969 13.3584 130.147 13.4161C132.111 14.6428 134.074 15.8695 136.037 17.0961C138 18.3228 139.727 19.6699 141.691 20.8966C146.035 23.8793 150.26 26.6261 154.369 29.7293C166.754 38.8608 177.085 50.0831 185.949 62.7988C190.202 69.0991 192.864 76.0646 195.347 82.9725C197.888 89.7023 199.365 96.6782 201.021 103.712C202.493 110.095 204.38 116.416 206.088 122.679C206.391 123.565 206.517 124.393 206.82 125.279L206.94 125.515C207.123 126.165 207.364 126.637 207.667 127.522C206.541 127.354 206.185 127.239 205.944 126.767ZM179.524 116.633C179.105 116.104 178.629 115.752 178.388 115.281C175.521 111.989 172.48 109.232 169.025 106.538C167.297 105.19 165.512 104.021 163.843 102.496C158.357 97.5688 152.872 92.6416 149.326 85.9798C145.36 78.7887 141.395 71.5976 137.195 64.5269C131.613 55.04 125.15 46.4492 117.803 38.1623C117.505 37.8687 117.206 37.5752 116.908 37.2817C114.16 34.2258 111.235 31.1123 108.309 27.9987C104.787 24.2981 101.323 20.4193 97.8004 16.7188C97.324 16.3675 97.0835 15.8959 96.9006 15.246L96.7803 15.0101C97.911 15.7702 98.984 16.7084 100.293 17.5262C101.722 18.5798 103.151 19.6335 104.58 20.6871C106.009 21.7408 107.558 23.0302 108.93 24.262C114.295 28.9534 119.896 33.5243 125.261 38.2157C128.836 41.1459 132.175 44.1966 135.514 47.2473C139.571 51.1209 143.805 55.0522 147.568 59.2245C152.403 64.3351 157.124 69.802 161.488 75.1537C166.391 81.2705 170.472 88.1053 173.196 95.4849C175.433 101.329 177.315 107.057 179.317 113.022C179.683 114.322 179.813 115.742 180.183 117.634C180.063 117.398 179.707 117.283 179.587 117.047C179.88 116.748 179.702 116.691 179.524 116.633ZM173.039 134.221C169.325 135.971 165.789 137.778 162.373 139.822C159.957 141.205 157.306 142.709 154.833 144.271C147.294 148.719 139.51 152.104 131.667 155.666C118.34 161.587 104.271 163.723 90.02 165.21C79.8487 166.246 69.4368 166.811 59.1452 167.611C57.134 167.747 54.9448 167.825 52.9336 167.961C51.7501 167.972 50.5664 167.982 49.3251 168.171C49.3828 167.992 49.3828 167.992 49.2625 167.757L49.3202 167.578C53.6264 165.823 57.9902 163.89 62.2963 162.135C63.4174 161.71 64.5384 161.286 65.5391 160.626C80.4012 154.218 95.504 148.282 111.15 143.704C121.187 140.655 131.531 139.084 141.635 137.041C153.216 134.69 164.927 133.758 176.571 131.821C176.984 131.758 177.341 131.873 177.99 131.69C177.932 131.868 177.697 131.989 177.697 131.989C177.461 132.109 177.403 132.288 177.167 132.408C175.811 132.953 174.396 133.676 173.039 134.221ZM277.589 166.713C276.53 167.552 275.414 168.568 274.476 169.643C271.306 172.75 268.433 176.151 265.98 180.081C265.046 181.748 264.113 183.414 263.059 184.845C263.059 184.845 263.059 184.845 263.002 185.023C261.66 187.345 260.26 189.845 258.739 192.108C258.739 192.108 258.739 192.108 258.682 192.287C255.819 196.872 252.721 201.578 249.204 205.755C245.042 210.707 240.404 215.308 235.348 219.379C225.822 226.925 216.055 233.999 206.586 241.366C201.881 244.961 197.176 248.556 192.413 252.329C191.354 253.167 190.474 254.063 189.415 254.901C189.18 255.022 189.122 255.2 188.886 255.321C188.65 255.441 188.415 255.562 188.058 255.446C188.116 255.268 188.116 255.268 188.174 255.09C189.338 252.711 190.56 250.153 192.08 247.889C194.592 243.781 197.161 239.494 200.148 235.737C203.487 231.502 207.124 227.562 210.762 223.621C213.283 220.697 215.746 217.951 218.445 215.085C221.144 212.218 223.843 209.352 226.72 206.543C229.419 203.676 232.296 200.868 235.173 198.059C242.804 190.293 250.853 183.056 259.441 176.585C265.498 171.853 272.455 168.594 279.114 165.042C279.35 164.921 279.763 164.858 280.057 164.56L280.177 164.795C279.177 165.456 278.354 166.174 277.589 166.713ZM359.305 150.069C355.177 144.597 351.698 138.941 348.512 132.987C346.048 128.448 344.056 123.668 342.771 118.526C340.447 109.307 337.121 100.748 332.319 92.4983C329.798 88.1375 327.156 83.5408 324.634 79.18C324.634 79.18 324.634 79.18 324.514 78.9441C324.273 78.4724 324.033 78.0007 323.735 77.7072C323.374 76.9996 322.955 76.4702 323.066 75.5216C323.662 76.1087 324.317 76.5176 324.913 77.1046C325.808 77.9852 326.703 78.8658 327.834 79.6259C330.577 82.0895 333.262 84.7313 336.004 87.195C349.477 99.0414 358.355 113.534 361.873 131.212C363.168 137.538 364.107 143.749 365.223 150.017C365.599 152.501 366.152 155.043 366.763 157.407C366.946 158.057 367.071 158.885 367.254 159.535C367.018 159.655 366.84 159.598 366.605 159.718C364.391 156.835 361.937 153.481 359.305 150.069ZM231.214 126.488C230.371 117.552 229.471 108.794 228.45 99.8005C228.263 98.5584 228.075 97.3163 227.887 96.0742C228.065 96.1318 228.123 95.9536 228.301 96.0113C228.542 96.483 228.84 96.7766 228.902 97.1906C234.879 111.531 242.564 124.849 250.898 137.984C252.876 140.987 254.675 143.933 256.071 148.126C248.358 145.824 241.059 143.459 233.938 141.152C232.773 136.247 231.729 131.577 231.214 126.488ZM211.29 49.5479C208.874 43.6462 206.401 37.9228 203.985 32.0211C203.682 31.1354 203.2 30.1919 202.897 29.3061C202.594 28.4204 202.113 27.477 202.045 26.4707C202.166 26.7066 202.344 26.7642 202.522 26.8219C202.7 26.8796 202.82 27.1154 202.82 27.1154C202.82 27.1154 202.998 27.1731 202.94 27.3513C203.061 27.5871 203.239 27.6448 203.359 27.8807C204.018 28.8818 204.678 29.8829 205.159 30.8263C205.159 30.8263 205.159 30.8263 205.337 30.884C205.457 31.1199 205.755 31.4134 205.996 31.8852C208.335 35.5961 210.731 39.1288 213.127 42.6615C218.642 51.1421 224.392 59.5023 230.084 68.0406C234.16 74.2831 238.293 80.3474 242.133 86.7105C249.216 98.8495 253.288 111.785 254.467 125.752C254.862 130.605 255.435 135.516 255.772 140.547C255.777 141.14 255.902 141.968 255.907 142.56C255.907 142.56 255.671 142.68 255.493 142.623C255.315 142.565 255.373 142.387 255.195 142.329C253.934 140.149 252.438 138.089 251.177 135.909C250.936 135.437 250.638 135.143 250.397 134.672C250.277 134.436 250.277 134.436 250.157 134.2C241.457 119.765 233.406 105.147 227.536 89.2661C226.323 85.723 224.461 82.3633 222.954 79.119C222.29 77.5256 221.626 75.9323 220.962 74.3389C217.522 66.1363 214.495 57.8709 211.29 49.5479ZM227.644 131.435C222.601 122.713 218.265 113.63 214.579 104.364C211.678 96.9262 208.069 89.8504 205.759 82.4079C201.504 68.8228 194.835 56.6209 187.28 44.7229C182.844 37.7728 178.585 30.8804 175.149 23.27C174.846 22.3843 174.365 21.4408 174.298 20.4346L174.476 20.4922C175.428 21.1947 176.439 21.7189 177.156 22.5418C178.051 23.4224 178.888 24.4812 179.783 25.3618C185.095 30.8236 190.349 36.4636 195.426 42.0459C198.592 45.6312 201.758 49.2164 204.631 53.1004C210.853 61.2195 215.838 70.1193 220.529 79.3178C225.341 88.7522 226.964 98.9251 228.114 109.339C228.427 111.409 228.504 113.6 228.817 115.67C229.01 117.505 229.202 119.339 229.452 120.995C229.838 124.664 230.343 128.568 230.728 132.237C230.978 133.893 231.286 135.371 231.537 137.028C231.359 136.97 231.301 137.148 231.123 137.09C230.704 136.561 230.344 135.853 229.925 135.324C229.805 135.088 229.684 134.852 229.386 134.559C228.962 133.437 228.303 132.436 227.644 131.435C227.822 131.493 227.822 131.493 227.644 131.435ZM147.195 100.45C145.468 99.1027 143.562 97.6978 141.835 96.3507C136.417 92.4297 131.586 87.9113 126.755 83.3929C123.594 80.3999 120.139 77.7056 116.978 74.7126C113.398 71.1902 109.818 67.6677 106.353 63.789C102.889 59.9102 99.6024 56.0891 96.3736 52.0898C87.2841 40.679 77.3719 29.9861 68.2824 18.5753C67.1468 17.223 66.1893 15.9283 65.0537 14.576C65.1114 14.3978 65.2894 14.4555 65.3472 14.2773C65.3472 14.2773 65.3472 14.2773 65.4049 14.0991C66.0593 14.508 66.834 15.1528 67.4883 15.5617C67.7867 15.8552 67.9647 15.9128 68.263 16.2064C72.7331 20.0172 77.0251 23.7703 81.4374 27.7593C84.8345 30.6318 87.9381 33.803 91.1571 36.6178C93.6014 38.7879 96.1035 40.7798 98.6056 42.7717C101.05 44.9418 103.788 46.8132 106.174 49.1614C110.765 53.2081 114.826 57.674 118.771 62.4962C121.702 66.2019 124.575 70.0859 127.447 73.9698C130.56 78.3255 133.558 83.0375 136.907 87.2727C140.377 91.7437 144.317 95.9736 148.023 100.324C148.023 100.324 148.023 100.324 148.201 100.382C148.321 100.618 148.499 100.675 148.619 100.911C148.561 101.089 148.561 101.089 148.561 101.089L147.195 100.45ZM113.952 88.302C113.774 88.2443 113.596 88.1867 113.36 88.3072C104.767 86.9014 96.3037 86.9159 87.6623 86.8728C83.9335 86.8461 80.3826 86.8771 76.7115 86.6722C65.2266 86.2985 54.3767 83.9648 44.0943 78.6648C34.2258 73.3019 23.5393 69.2493 13.0309 65.2543C11.9627 64.9082 10.7742 64.3263 9.76382 63.802C9.40777 63.6867 9.10945 63.3931 8.81113 63.0996C9.40293 63.0944 10.1728 63.1469 10.7068 63.32C11.2409 63.493 11.8327 63.4879 12.3668 63.6609C28.1292 66.011 44.0119 68.5969 60.01 70.8265C70.3788 72.2168 80.3434 74.8543 90.1397 78.6187C93.8205 80.008 97.5014 81.3974 101.182 82.7867L101.36 82.8444C101.894 83.0174 102.428 83.1905 103.083 83.5993C106.408 84.8734 109.732 86.1474 113.057 87.4214C113.413 87.5368 113.889 87.8879 114.424 88.0609C114.602 88.1186 114.958 88.234 115.256 88.5275C114.602 88.1186 114.188 88.1815 113.952 88.302ZM57.0972 40.3499C58.6514 42.2317 60.4414 43.9929 62.4671 45.6335C64.4928 47.2742 66.4608 49.0931 68.4865 50.7338C70.4545 52.5527 72.6583 54.2511 74.684 55.8918C76.7097 57.5325 78.7354 59.1732 80.7611 60.8139C82.7868 62.4546 84.7548 64.2734 86.487 66.2128C85.1205 65.5732 83.9898 64.8131 82.6233 64.1736C80.0058 62.538 77.3305 61.0807 74.713 59.4451C70.4884 56.6983 66.3215 53.7733 62.2124 50.6701C57.6846 47.0375 53.33 42.8703 49.0957 38.939C45.4581 35.5948 42.2342 32.1878 38.6543 28.6654C34.8963 25.0853 31.3741 21.3846 27.6161 17.8046C24.0362 14.2821 20.4563 10.7597 16.8764 7.23731C16.1594 6.41439 15.2645 5.53379 14.7255 4.76855C14.4849 4.29683 14.1866 4.0033 13.946 3.53157C15.9092 4.75823 18.0503 6.04253 20.0135 7.26919C27.8709 12.768 35.5502 18.2092 43.4654 23.5299C47.8103 26.5126 52.3909 29.3747 56.9139 32.4151L57.0919 32.4728C58.2226 33.2329 59.5314 34.0507 60.6621 34.8108C65.6614 38.2023 70.6607 41.5939 75.3088 45.4624C78.4075 48.0414 81.2127 50.919 83.7245 54.0954C87.6702 58.9176 91.5004 64.0962 95.5086 69.3324C95.5086 69.3324 95.5087 69.3324 95.6867 69.3901C95.9273 69.8618 96.4036 70.213 96.6442 70.6848C97.0629 71.2142 97.6018 71.9794 98.0204 72.5088C83.7298 61.9725 69.9156 51.7875 57.0972 40.3499ZM157.377 115.168C150.699 116.351 143.9 117.299 137.285 118.897C128.778 120.866 120.084 121.593 111.317 120.722C100.063 119.636 89.1029 118.251 77.7912 117.342C67.4273 116.544 57.0683 116.339 46.945 116.012C39.901 115.896 32.6839 116.314 25.5823 116.376C24.9905 116.381 24.2207 116.329 23.6289 116.334C23.4508 116.276 23.2728 116.219 22.9744 115.925C23.0321 115.747 23.0321 115.747 23.0899 115.569C23.1476 115.391 23.1476 115.391 23.3256 115.448C25.1539 114.662 27.1603 113.934 28.9885 113.148L29.2243 113.028C29.4601 112.907 29.6381 112.965 29.6958 112.787C29.6958 112.787 29.8738 112.844 29.9316 112.666C30.1096 112.724 30.1673 112.546 30.403 112.425C30.403 112.425 30.403 112.425 30.6388 112.305C31.7599 111.88 32.6451 111.576 33.7662 111.152C33.9442 111.21 34.0019 111.032 34.18 111.089C40.0209 108.847 46.1024 107.076 52.3669 105.956C62.1773 104.212 71.877 103.416 81.7548 102.679C94.4137 101.858 106.794 103.112 119.005 105.493C123.273 106.285 127.189 107.554 131.284 108.88C136.625 110.611 142.019 111.57 147.47 112.352C150.136 112.625 152.686 113.254 155.293 113.705C155.65 113.821 156.241 113.815 156.597 113.931C156.953 114.046 157.487 114.219 158.022 114.392C158.2 114.45 158.2 114.45 158.378 114.508C157.791 115.105 157.555 115.225 157.377 115.168ZM207.408 146.537C203.583 149.235 200.057 152.227 196.352 155.162C182.89 166.355 168.529 176.074 153.267 184.322C149.202 186.549 145.194 188.597 140.946 190.174C129.5 194.538 118.111 198.724 106.064 201.909C102.638 202.768 99.1545 203.805 95.6711 204.843C94.55 205.267 93.3087 205.455 92.1877 205.88C92.0674 205.644 92.0674 205.644 91.9471 205.408C92.4186 205.167 92.7121 204.868 93.1836 204.627C95.185 203.307 97.1865 201.986 99.1302 200.844C113.679 192.366 127.329 182.416 140.8 172.407C146.978 167.911 153.035 163.18 159.453 159.155C170.817 152.008 183.086 146.926 196.265 144.502C201.702 143.506 207.081 142.69 212.46 141.873C213.109 141.689 213.879 141.742 214.471 141.737C214.471 141.737 214.413 141.915 214.591 141.973C214.591 141.973 214.591 141.973 214.534 142.151C214.298 142.271 214.24 142.45 213.947 142.748C213.475 142.989 213.004 143.23 212.532 143.471C210.704 144.257 208.938 145.457 207.408 146.537ZM243.432 151.316C238.716 153.726 234.305 157.022 230.427 160.491C229.311 161.508 228.252 162.346 227.314 163.42C227.021 163.719 226.727 164.018 226.434 164.316C224.379 166.407 222.445 168.734 220.511 171.061C217.581 174.64 214.594 178.397 211.606 182.155C199.189 198.017 184.683 211.825 167.069 221.87C161.531 224.998 155.815 228.068 150.1 231.139C147.506 232.464 145.091 233.848 142.498 235.173C140.612 236.137 138.49 237.222 136.604 238.186C136.075 238.605 135.425 238.788 134.776 238.972C134.655 238.736 134.477 238.678 134.535 238.5C135.122 237.903 135.709 237.305 136.238 236.886C139.11 233.485 142.161 230.142 145.033 226.741C148.434 222.921 151.6 219.221 155.001 215.401C157.758 212.356 160.337 209.254 163.094 206.209C166.495 202.389 170.132 198.448 173.712 194.686C176.704 191.521 179.875 188.413 183.045 185.306C193.207 175.8 204.624 167.883 217.118 161.496C222.069 158.965 227.14 156.67 232.091 154.139C235.627 152.332 239.347 151.174 243.186 150.252C243.6 150.189 244.014 150.126 244.49 150.477C244.081 151.133 243.845 151.253 243.432 151.316ZM335.307 168.283C345.43 168.609 355.375 168.878 365.499 169.204C352.311 177.73 338.82 185.369 324.43 191.536C325.44 184.775 330.789 173.12 335.307 168.283ZM302.107 226.437C296.237 232.411 289.352 237.269 282.468 242.126C270.579 250.285 258.57 258.207 246.561 266.13C243.323 268.231 240.085 270.332 236.847 272.434C236.376 272.675 236.082 272.973 235.611 273.214C235.317 273.513 234.904 273.576 234.49 273.639C234.312 273.581 234.134 273.523 234.076 273.702C234.485 273.046 234.836 272.57 235.423 271.972C240.109 266.009 244.675 259.809 249.539 253.903C257.275 244.596 264.771 234.818 272.088 224.982C274.547 221.643 277.005 218.305 279.82 215.082C284.217 210.01 288.556 205.115 293.55 200.63C301.128 193.634 309.783 188.169 318.02 182.174C321.316 179.895 324.491 177.38 327.667 174.865C327.902 174.744 328.196 174.445 328.432 174.325C328.725 174.026 329.197 173.785 329.726 173.366C329.61 173.722 329.731 173.958 329.673 174.136C329.615 174.314 329.558 174.493 329.5 174.671C328.456 177.286 327.412 179.901 326.604 182.396C326.488 182.752 326.373 183.108 326.257 183.465C325.387 185.545 324.694 187.684 323.881 189.586C323.304 191.368 322.308 192.62 320.48 193.406C318.122 194.611 315.765 195.816 313.527 197.257C312.82 197.619 312.291 198.038 311.584 198.4C303.693 203.325 296.52 209.073 289.529 215.472C284.713 220.015 280.373 224.909 276.154 230.04C274.514 232.068 272.695 234.038 270.934 235.83C270.347 236.427 269.582 236.967 270.068 238.503C270.954 238.199 271.661 237.838 272.368 237.476C282.39 232.65 292.234 227.767 302.256 222.942C303.434 222.339 304.791 221.794 306.562 221.186C305.046 224.043 303.338 225.064 302.107 226.437ZM366.822 171.799C366.764 171.977 366.528 172.097 366.471 172.276C363.315 177.16 360.159 182.044 357.003 186.928C356.594 187.583 356.243 188.06 355.891 188.537C355.483 189.192 354.896 189.789 354.487 190.444C351.326 194.736 347.333 198.562 342.978 201.679C338.975 204.32 334.972 206.961 330.729 209.13C328.843 210.094 326.957 211.059 325.129 211.844C316.165 215.832 307.139 219.405 298.354 223.449C290.747 226.892 283.439 230.628 275.952 234.306C275.245 234.667 274.538 235.029 273.532 235.097C273.826 234.798 273.999 234.263 274.292 233.965C275.875 232.115 277.516 230.087 279.277 228.295C279.628 227.818 280.157 227.399 280.508 226.922C280.508 226.922 280.508 226.922 280.566 226.744C283.967 222.923 287.547 219.161 291.425 215.692C292.599 214.497 293.715 213.481 295.009 212.522C296.948 210.787 298.829 209.231 300.946 207.554C309.298 201.203 318.074 195.974 327.567 191.567C339.595 186.014 351.44 179.81 362.626 172.605C364.099 171.704 365.749 170.86 367.399 170.017L367.577 170.075C367.755 170.132 367.876 170.368 367.876 170.368C367.289 170.965 366.937 171.442 366.822 171.799ZM433.219 156.295C431.275 157.437 429.735 157.332 427.599 156.64C429.485 155.676 431.082 155.602 433.219 156.295ZM406.742 160.908C412.179 159.913 417.495 158.682 423.047 157.331C424.524 157.022 425.886 157.069 427.671 158.238C426.55 158.663 425.665 158.966 424.78 159.27C410.49 163.304 395.892 165.859 381.165 166.995C350.112 169.338 319.549 166.525 289.314 160.274C262.754 154.82 237.061 146.693 211.945 136.784C204.107 133.654 196.211 130.702 188.724 127.095C181.059 123.431 173.394 119.766 165.787 115.924C159.369 112.663 153.008 109.224 146.704 105.607C142.364 103.216 138.318 100.527 134.036 97.9586C130.109 95.5053 126.303 93.2878 122.377 90.8345C121.068 90.0167 119.817 89.0208 118.566 88.0249L118.624 87.8466C122.372 90.2423 125.942 92.5803 129.748 94.7977C133.732 97.0728 137.659 99.5261 141.643 101.801C145.627 104.076 149.611 106.351 153.83 108.506C160.191 111.945 166.788 115.263 173.442 118.404C182.118 122.592 190.73 126.367 199.521 130.199C202.61 131.594 205.872 132.454 209.197 133.728C223.983 139.699 239.058 144.78 254.363 149.148C279.518 156.509 305.245 161.497 331.246 163.817C356.535 165.906 381.684 165.391 406.742 160.908ZM292.001 40.2562C294.089 42.3109 295.942 44.4862 297.794 46.6614C307.596 58.3029 313.447 71.8149 316.941 86.532C317.923 90.7878 318.789 95.4 319.3 99.8968C320.248 107.292 322.495 114.32 324.507 121.469C326.88 129.326 328.069 137.193 329.022 145.18C329.089 146.186 329.214 147.014 329.46 148.078C329.46 148.078 329.46 148.078 329.402 148.256C329.474 149.855 329.725 151.511 329.797 153.11C329.927 154.53 330.057 155.95 330.187 157.371C330.192 157.963 330.197 158.555 330.201 159.147C329.961 158.676 329.662 158.382 329.186 158.031C328.767 157.501 328.349 156.972 327.752 156.385C326.737 155.268 325.957 154.032 325.12 152.973C324.581 152.207 324.042 151.442 323.503 150.677C320.929 147.087 318.59 143.376 316.959 139.303C313.215 130.215 309.707 121.006 306.613 111.734C302.85 100.277 298.201 89.1237 293.081 78.2113C287.302 66.2979 281.936 54.3216 276.099 42.5863C272.789 35.804 268.828 29.2051 265.104 22.4857C263.602 19.8336 262.573 16.9404 261.307 14.1678C261.543 14.0473 261.543 14.0472 261.779 13.9267L262.077 14.2203C262.375 14.5138 262.731 14.6292 263.03 14.9227C263.506 15.2739 263.747 15.7456 264.045 16.0392C265.416 17.271 266.966 18.5604 268.337 19.7922C272.985 23.6607 277.753 27.765 282.401 31.6335C282.878 31.9847 283.474 32.5718 283.951 32.923C286.929 35.2661 289.494 37.672 292.001 40.2562ZM283.968 150.666C284.026 150.488 284.083 150.31 284.083 150.31L284.141 150.132C284.141 150.132 284.141 150.132 284.199 149.954C284.141 150.132 284.083 150.31 283.968 150.666Z" fill="#EFE7DB"/>
</svg>
