<svg width="266" height="219" viewBox="0 0 266 219" fill="none" xmlns="http://www.w3.org/2000/svg">
<path d="M54.4412 95.1116C50.401 89.6049 45.8258 84.5635 42.6274 78.5121C40.4835 74.6445 38.4932 70.7374 36.9237 66.5579C32.9629 56.2824 30.4974 45.4575 30.4137 34.3455C30.4287 31.2308 30.7903 28.1904 30.9588 25.036C31.0678 24.1893 31.3699 23.4564 31.672 22.7235C30.934 26.8434 30.8497 30.9584 30.9188 35.0338C31.2352 46.4133 33.7402 57.3917 38.0477 67.7414C40.7905 74.5653 44.3752 80.8446 48.8017 86.5792C50.7822 89.179 52.7627 91.7789 54.6293 94.5719C54.7086 94.8789 54.5947 95.072 54.4412 95.1116Z" fill="#635258"/>
<path d="M251.252 118.668C235.09 111.867 219.175 112.371 202.865 116.416C205.014 115.861 206.97 115.193 209.158 114.792C216.219 112.97 223.444 112.416 230.752 112.823C237.061 113.16 243.146 114.537 249.083 116.607C250.242 117.291 250.588 117.365 251.252 118.668Z" fill="#635258"/>
<path d="M135.02 62.8611C136.545 61.1578 137.917 59.4941 139.442 57.7907C143.409 53.4928 147.529 49.1552 152.312 46.1201C157.363 42.8522 162.22 39.4705 167.816 37.0445C168.851 36.6137 169.004 36.5741 170.237 36.9109C169.97 37.1436 169.856 37.3368 169.702 37.3764C165.637 38.7527 162.077 40.8174 158.556 43.0356C155.189 45.2141 151.356 46.8579 148.494 49.7248C144.295 53.7553 140.135 57.9394 136.09 61.9303C135.822 62.163 135.441 62.5888 135.174 62.8215C135.406 63.089 135.213 62.975 135.02 62.8611Z" fill="#635258"/>
<path d="M27.3063 208.864C26.1427 207.527 25.7863 206.145 25.5833 204.724C25.0933 200.921 24.7171 196.925 24.3806 193.082C23.9946 187.779 24.2623 182.47 25.3766 177.271C26.3028 172.611 27.729 167.986 29.7346 163.703C24 178.281 23.9201 193.201 27.3063 208.864Z" fill="#635258"/>
<path d="M50.6559 36.6545C49.6556 36.5851 49.9181 35.6987 49.9528 35.1986C49.6608 32.1631 49.3688 29.1276 49.2699 26.206C49.0967 23.631 48.8839 20.9025 49.0177 18.2483C49.1564 16.2477 49.6022 14.168 50.0479 12.0883C50.2707 11.0484 50.6868 10.1224 51.0631 9.04291C51.2166 9.00331 51.5632 9.07764 52.0633 9.11234C53.5934 8.06266 54.8115 6.43853 57.114 5.84448C56.6188 6.46343 56.4307 7.00316 55.9702 7.12197C51.4889 9.42425 50.4044 13.4698 50.0922 17.971C49.6662 22.6654 50.0869 27.4687 50.468 32.1186C50.3639 33.619 51.2204 35.0353 50.6559 36.6545Z" fill="#635258"/>
<path d="M137.344 19.2006C137.117 19.5869 137.003 19.78 136.849 19.8196C130.224 23.33 125.381 28.6727 120.617 34.3224C116.616 39.1205 113.427 44.5277 110.238 49.9349C109.896 50.5142 109.441 51.2867 108.906 51.7522C112.125 45.1912 115.769 39.0115 120.34 33.2479C125.713 26.7861 134.116 19.3787 137.344 19.2006Z" fill="#635258"/>
<path d="M124.137 57.4826C125.315 55.7049 126.415 53.6203 127.786 51.9566C130.262 48.8618 132.545 45.6532 135.293 42.9794C139.339 38.9885 143.385 34.9976 148.128 31.809C149.238 31.0316 150.54 30.3681 151.689 29.7443C151.728 29.8978 151.921 30.0117 151.921 30.0117C151.654 30.2444 151.426 30.6307 151.159 30.8634C146.45 33.5519 142.478 37.1962 138.507 40.8405C133.313 45.4552 129.163 50.9465 125.013 56.4378C124.785 56.824 124.365 57.0963 124.137 57.4826Z" fill="#635258"/>
<path d="M182.229 174.133C190.067 183.572 198.019 192.818 207.689 200.474C207.575 200.667 207.421 200.707 207.307 200.9C206.688 200.405 205.956 200.103 205.337 199.607C202.356 196.938 199.336 194.115 196.469 191.253C191.433 186.33 187.2 180.71 182.966 175.089C182.58 174.861 182.308 174.44 182.229 174.133Z" fill="#635258"/>
<path d="M234.274 90.3018C233.813 90.4206 233.66 90.4602 233.467 90.3463C230.03 88.4495 226.183 88.1323 222.336 87.8151C216.988 87.3938 211.68 87.126 206.332 86.7047C204.985 86.561 203.525 86.6104 202.138 86.3132C204.406 86.2193 206.827 86.0858 209.135 86.1454C215.096 86.4083 220.944 86.8642 226.906 87.1271C229.06 87.2263 231.179 87.8257 232.957 89.0043C233.269 89.5788 233.655 89.8066 234.274 90.3018Z" fill="#635258"/>
<path d="M127.573 166.622C130.365 179.982 135.034 192.367 141.278 204.51C140.773 203.821 140.228 202.98 139.876 202.252C135.628 194.67 132.608 186.772 130.123 178.408C129.019 174.763 128.415 171.153 127.811 167.543C127.578 167.276 127.652 166.929 127.573 166.622Z" fill="#635258"/>
<path d="M242.348 126.04C232.807 125.227 223.191 124.761 213.55 126.102C208.979 126.79 204.721 128.053 200.428 129.815C199.7 130.167 198.932 130.365 198.318 130.523C198.318 130.523 198.279 130.37 198.086 130.256C202.8 128.221 207.439 126.533 212.431 125.572C217.769 124.686 223.111 124.454 228.419 124.722C231.881 124.811 235.188 124.94 238.689 125.183C240.076 125.48 241.308 125.817 242.348 126.04Z" fill="#635258"/>
<path d="M74.0026 37.6714C72.6464 26.0691 75.2765 7.70773 78.926 2.18171C78.1782 4.99432 77.2769 7.84651 76.5291 10.6591C75.8209 13.6252 75.2661 16.5518 74.9045 19.5922C74.5429 22.6326 74.1814 25.673 74.1268 28.6343C74.1118 31.749 74.0572 34.7102 74.0026 37.6714Z" fill="#635258"/>
<path d="M53.8395 153.063C55.6025 147.205 58.2914 141.764 61.327 136.396C65.1202 129.523 69.2601 122.724 74.4447 116.802C74.826 116.376 75.3607 115.911 75.9351 115.599C75.0586 116.644 74.2217 117.842 73.1918 118.927C66.071 128.132 60.3019 138.134 55.538 148.859C55.0477 150.132 54.4436 151.598 53.8395 153.063Z" fill="#635258"/>
<path d="M119.533 38.3681C119.344 38.9079 119.156 39.4476 118.775 39.8734C113.333 47.3354 109.203 55.4413 106.192 64.0771C104.726 68.5486 103.26 73.02 101.759 77.9916C102.582 74.8324 103.176 72.0594 103.924 69.2468C105.726 63.5423 107.876 57.9122 110.411 52.5099C112.684 47.994 115.304 43.5524 118.503 39.4525C118.73 39.0663 119.151 38.7939 119.533 38.3681Z" fill="#635258"/>
<path d="M213.791 158.131C219.668 167.585 226.308 176.187 236.008 182.689C234.626 183.046 234.121 182.357 233.695 181.976C228.051 177.865 223.169 172.903 219.203 167.05C217.143 164.143 215.43 161.31 213.523 158.364C213.484 158.21 213.637 158.171 213.791 158.131Z" fill="#635258"/>
<path d="M115.564 195.59C115.332 195.322 115.099 195.055 114.98 194.594C112.118 187.31 110.178 179.788 109.965 171.984C109.906 169.216 110.154 166.368 110.441 163.674C110.842 160.788 111.436 158.015 112.145 155.048C111.847 156.435 111.743 157.935 111.293 159.361C109.505 167.027 109.871 174.791 111.851 182.467C112.841 186.305 113.945 189.949 115.089 193.747C115.248 194.362 115.406 194.976 115.564 195.59Z" fill="#635258"/>
<path d="M151.291 53.5875C152.554 52.7705 153.817 51.9535 155.08 51.1366C157.184 49.775 159.209 48.1063 161.353 46.8982C164.686 45.2198 168.058 43.6949 171.47 42.3234C173.386 41.5016 175.228 41.0264 177.184 40.358C177.798 40.1996 178.298 40.2343 178.991 40.3829C174.005 41.9968 169.524 44.2991 164.617 46.2201C159.977 47.9083 156.199 51.6665 151.291 53.5875Z" fill="#635258"/>
<path d="M61.0415 210.803C60.6107 209.768 60.1403 208.579 59.8631 207.505C58.2442 201.864 57.7394 196.1 57.6951 190.218C57.626 186.142 57.9034 182.141 58.9484 177.942C58.7403 180.943 58.2599 183.523 58.3192 186.291C58.225 189.098 58.2842 191.867 58.6505 194.555C58.8633 197.284 59.2297 199.973 59.7495 202.622C60.2693 205.271 60.9821 208.035 61.6554 210.644C61.3088 210.57 61.1554 210.61 61.0415 210.803Z" fill="#635258"/>
<path d="M195.806 72.5565C184.833 75.715 175.613 81.8595 166.511 88.4647C175.301 81.2851 184.56 75.294 195.806 72.5565Z" fill="#635258"/>
<path d="M177.571 137.677C166.702 134.26 156.056 129.802 144.846 126.964C145.767 126.726 147.921 126.825 148.54 127.321C150.204 128.692 152.318 128.638 154.13 129.317C157.215 130.486 160.374 131.308 163.419 132.323C168.163 134.21 172.867 135.944 177.571 137.677Z" fill="#635258"/>
<path d="M61.4239 184.998C61.6515 189.688 61.6067 193.956 62.2156 198.22C62.8245 202.484 64.2008 206.549 65.0771 210.58C62.3687 208.332 60.1015 193.199 61.4239 184.998Z" fill="#635258"/>
<path d="M127.106 211.768C126.64 211.233 126.061 210.892 125.749 210.317C123.303 207.183 121.164 203.969 119.867 200.21C118.57 196.451 117.387 192.5 116.857 188.543C117.134 189.618 117.565 190.653 117.842 191.727C119.144 196.14 120.446 200.552 122.744 204.38C123.912 206.37 125.388 208.282 126.749 210.387C126.982 210.654 127.254 211.075 127.334 211.382C127.22 211.575 127.259 211.729 127.106 211.768Z" fill="#635258"/>
<path d="M195.459 77.5578C198.375 76.8054 201.366 75.7063 204.322 75.1073C208.66 74.1519 213.196 73.9641 217.657 74.1229C218.157 74.1576 218.657 74.1923 219.197 74.3805C219.543 74.4548 219.737 74.5687 220.009 74.9896C219.202 75.0341 218.355 74.9251 217.548 74.9696C210.472 74.8305 203.48 75.652 196.613 77.5876C196.266 77.5133 195.766 77.4786 195.459 77.5578Z" fill="#635258"/>
<path d="M247.753 174.911C244.173 174.361 234.112 165.823 230.339 160.083C235.801 165.387 241.034 171.077 247.753 174.911Z" fill="#635258"/>
<path d="M104.199 105.851C94.9152 103.498 85.6359 101.799 76.1685 100.64C86.4381 101.101 97.5296 103.479 104.199 105.851Z" fill="#635258"/>
<path d="M253.004 121.654C245.334 119.212 237.56 118.27 229.638 118.022C237.595 117.77 245.597 118.325 253.004 121.654Z" fill="#635258"/>
<path d="M142.565 201.885C144.392 204.525 145.952 207.397 147.893 209.844C149.601 212.023 151.537 213.815 153.513 215.761C153.978 216.296 154.636 216.945 155.255 217.44C155.102 217.48 155.142 217.633 154.988 217.673C154.602 217.445 154.255 217.371 153.869 217.143C149.15 213.449 145.615 208.63 142.768 203.307C142.689 203 142.684 202.346 142.565 201.885Z" fill="#635258"/>
<path d="M180.728 189.256C183.094 192.084 185.347 195.105 187.868 197.893C190.195 200.567 192.675 203.201 195.156 205.836C195.349 205.95 195.542 206.064 195.428 206.257C194.507 206.495 194.042 205.96 193.616 205.578C192.066 204.013 190.556 202.602 189.274 200.805C186.323 196.981 183.372 193.158 180.574 189.296C180.574 189.296 180.574 189.296 180.728 189.256Z" fill="#635258"/>
<path d="M57.4082 70.4417C57.1755 70.1743 56.9825 70.0603 56.9033 69.7533C53.7396 63.2017 50.8828 56.571 48.9074 49.5491C48.6698 48.628 48.7787 47.7813 48.8481 46.781L48.6946 46.8206C50.7145 54.6497 53.6553 62.2411 57.2102 69.6741C57.2498 69.8276 57.329 70.1347 57.4082 70.4417Z" fill="#635258"/>
<path d="M52.6144 87.3965C56.4566 92.1357 60.3385 97.0285 64.1807 101.768C61.8287 100.901 54.377 91.6899 52.6144 87.3965Z" fill="#635258"/>
<path d="M227.988 149.065C234.781 147.476 241.436 147.888 248.71 148.794C244.942 148.784 241.441 148.541 238.059 148.759C234.638 148.823 231.335 149.348 227.953 149.565C227.913 149.412 228.027 149.219 227.988 149.065Z" fill="#635258"/>
<path d="M157.606 141.518C159.344 147.619 161.235 153.68 162.893 159.474C161.497 157.87 157.591 144.633 157.606 141.518Z" fill="#635258"/>
<path d="M27.254 161.069C26.9172 162.302 26.6943 163.341 26.3575 164.574C26.0207 165.807 26.0306 167.115 25.1145 168.006C24.7332 168.432 24.7381 169.085 24.7035 169.586C24.3716 171.472 23.9258 173.552 23.4009 175.325C23.4407 170.403 25.174 165.698 26.5211 160.766C26.9073 160.994 27.0609 160.955 27.254 161.069Z" fill="#635258"/>
<path d="M48.8481 46.781C48.041 46.8255 48.0361 46.1718 47.8776 45.5578C46.6053 39.9918 45.5261 34.5397 45.5214 28.8104C45.5561 28.3102 45.4372 27.8497 45.6254 27.3099C45.7046 27.617 45.7838 27.924 45.863 28.231C45.9421 33.6137 46.7886 38.7984 47.9817 44.0574C48.3728 44.9388 49.0709 45.7411 48.8481 46.781Z" fill="#635258"/>
<path d="M119.16 65.4795C117.986 67.9108 116.813 70.342 115.639 72.7733C113.901 76.8238 112.356 80.9882 110.618 85.0387C110.316 85.7716 109.974 86.3509 109.479 86.9699C110.345 84.6178 111.019 82.1518 112.079 79.9136C114.045 75.4769 116.05 71.1937 118.056 66.9105C118.397 66.3311 118.779 65.9053 119.16 65.4795Z" fill="#635258"/>
<path d="M27.254 161.069C27.3135 158.761 28.0662 156.602 29.1655 154.517C31.1364 150.734 33.0677 146.798 35.2317 143.128C32.5081 149.071 29.4379 154.938 27.254 161.069Z" fill="#635258"/>
<path d="M189.345 143.972C181.72 142.337 174.545 139.276 167.296 136.562C174.506 139.123 181.983 141.451 189.345 143.972Z" fill="#635258"/>
<path d="M51.2821 206.608C44.6717 207.003 37.987 207.746 31.3965 205.68C37.982 207.092 44.7063 206.503 51.2821 206.608Z" fill="#635258"/>
<path d="M76.194 195.923C76.7535 198.726 77.3128 201.529 78.0258 204.292C78.7387 207.055 79.719 209.586 80.7785 212.423C79.7734 211.7 79.3031 210.512 79.0258 209.437C78.1149 205.907 77.3178 202.183 76.4069 198.652C76.1297 197.577 76.0851 196.77 76.194 195.923Z" fill="#635258"/>
<path d="M79.8729 199.395C80.7541 204.08 81.6353 208.764 84.1654 212.859C81.6946 211.532 79.4469 204.089 79.8729 199.395Z" fill="#635258"/>
<path d="M160.38 106.583C156.949 110.416 153.943 114.629 151.477 119.031C153.324 114.134 156.562 110.188 160.38 106.583Z" fill="#635258"/>
<path d="M50.6559 36.6545C51.4231 41.5321 52.1904 46.4098 52.9577 51.2875C52.8042 51.3271 52.8042 51.3271 52.6507 51.3667C52.3338 50.1386 52.0169 48.9105 51.8536 47.6428C51.3734 45.1471 50.8932 42.6513 50.7596 40.2298C50.4428 39.0017 50.6261 37.8083 50.6559 36.6545Z" fill="#635258"/>
<path d="M163.174 94.5651C166.957 91.4605 170.893 88.3164 175.528 85.9745C171.205 88.8909 167.189 91.728 163.174 94.5651Z" fill="#635258"/>
<path d="M136.033 115.648C136.806 111.028 139.623 107.354 142.287 103.72C139.816 107.468 137.538 111.33 136.033 115.648Z" fill="#635258"/>
<path d="M247.497 151.072C251.572 151.003 255.078 151.9 258.737 152.757C257.509 153.074 252.235 152.306 247.497 151.072Z" fill="#635258"/>
<path d="M74.7815 3.251C73.6622 7.79673 72.6965 12.3028 71.6911 16.6555C72.4094 9.92097 73.5237 4.72161 74.7815 3.251Z" fill="#635258"/>
<path d="M216.079 155.576C218.218 158.79 220.51 161.964 222.921 165.599C219.861 162.623 217.569 159.449 215.965 155.769C215.965 155.769 215.965 155.769 216.079 155.576Z" fill="#635258"/>
<path d="M111.573 99.528C110.711 102.534 109.696 105.579 108.76 108.931C108.438 107.05 109.374 103.697 111.573 99.528Z" fill="#635258"/>
<path d="M130.4 77.3153C128.236 80.9845 125.918 84.6932 123.714 88.2089C125.685 84.4258 127.656 80.6428 130.4 77.3153Z" fill="#635258"/>
<path d="M152.601 120.215C153.651 116.67 155.859 113.808 158.261 111.059C156.285 114.189 154.463 117.279 152.601 120.215Z" fill="#635258"/>
<path d="M41.7456 201.373C45.0532 201.502 48.4748 201.438 51.7824 201.567C51.822 201.72 51.822 201.72 51.8616 201.874C50.901 201.958 49.7869 202.082 48.7866 202.012C47.6329 201.982 46.3258 201.992 45.1721 201.962C44.0183 201.933 43.0181 201.863 41.8248 201.68C41.7852 201.526 41.7456 201.373 41.7456 201.373Z" fill="#635258"/>
<path d="M71.2358 124.671C69.1856 128.147 67.0959 131.469 64.8922 134.985C66.7097 131.241 68.5667 127.651 71.2358 124.671Z" fill="#635258"/>
<path d="M205.931 201.91C204.198 201.539 201.41 198.983 199.504 196.037C201.633 197.943 203.609 199.889 205.931 201.91Z" fill="#635258"/>
<path d="M142.719 201.846C142.486 201.578 142.139 201.504 142.06 201.197C140.733 198.592 139.406 195.988 138.04 193.229C138.347 193.15 138.5 193.11 138.54 193.264C139.827 195.715 141.308 198.28 142.595 200.732C142.521 201.078 142.639 201.539 142.719 201.846Z" fill="#635258"/>
<path d="M84.4675 99.8083C88.7803 100.66 93.2813 100.973 97.4852 102.671C93.1327 101.666 88.7803 100.66 84.4675 99.8083Z" fill="#635258"/>
<path d="M239.385 171.666C241.509 172.919 243.406 174.559 245.149 176.237C242.797 175.371 241.168 173.499 239.385 171.666Z" fill="#635258"/>
<path d="M253.48 123.496C250.474 122.634 247.355 121.965 244.349 121.103L244.463 120.91C247.582 121.579 250.548 122.287 253.668 122.956C253.554 123.149 253.44 123.342 253.48 123.496Z" fill="#635258"/>
<path d="M173.238 134.211C176.09 135.112 178.942 136.013 181.795 136.915C181.834 137.068 181.681 137.108 181.72 137.262C178.868 136.36 176.13 135.266 173.278 134.364C173.124 134.404 173.085 134.25 173.238 134.211Z" fill="#635258"/>
<path d="M44.3103 204.968C43.5031 205.013 42.7356 205.211 41.8889 205.102C39.8885 204.963 38.0415 204.784 36.1946 204.606C36.155 204.453 36.2688 204.259 36.2292 204.106C38.9625 204.547 41.6562 204.834 44.3103 204.968Z" fill="#635258"/>
<path d="M93.9598 99.1602C96.3861 99.6804 98.7727 100.047 101.352 100.528L101.392 100.681C98.8123 100.201 96.3861 99.6804 93.9598 99.1602Z" fill="#635258"/>
<path d="M130.36 77.1618C131.197 75.9635 132.148 74.5721 132.984 73.3738C133.326 72.7945 133.861 72.329 134.435 72.0171C133.103 73.8343 131.732 75.4981 130.36 77.1618Z" fill="#635258"/>
<path d="M259.202 158.367C257.469 157.996 255.776 157.778 254.043 157.406L254.003 157.253C255.696 157.471 257.543 157.649 259.237 157.867C259.123 158.06 259.163 158.214 259.202 158.367Z" fill="#635258"/>
<path d="M131.252 67.9266C132.242 66.6887 133.079 65.4904 134.069 64.2525C134.109 64.406 134.262 64.3665 134.302 64.52C133.312 65.7579 132.475 66.9561 131.484 68.194C131.291 68.0801 131.291 68.0801 131.252 67.9266Z" fill="#635258"/>
<path d="M180.421 189.335C179.643 188.226 178.752 187.31 177.975 186.201C178.128 186.161 178.089 186.007 178.242 185.968C179.019 187.077 179.797 188.186 180.535 189.142C180.574 189.296 180.574 189.296 180.421 189.335Z" fill="#635258"/>
<path d="M122.469 35.1545C121.746 36.1597 121.023 37.1649 120.26 38.0165C120.147 38.2097 119.8 38.1354 119.493 38.2146C120.563 37.2837 121.439 36.2389 122.469 35.1545Z" fill="#635258"/>
<path d="M172.023 177.094C172.528 177.782 173.073 178.624 173.578 179.312L173.732 179.273C173.187 178.431 172.682 177.742 172.023 177.094Z" fill="#635258"/>
<path d="M165.109 101.434C165.798 100.928 166.332 100.463 167.06 100.111C167.06 100.111 167.1 100.265 167.253 100.225C166.565 100.73 166.03 101.196 165.342 101.701C165.342 101.701 165.302 101.547 165.109 101.434Z" fill="#635258"/>
<path d="M163.049 103.602C162.401 104.261 161.792 105.073 161.143 105.731C160.95 105.617 160.91 105.464 160.717 105.35C161.519 104.652 162.361 104.107 163.049 103.602Z" fill="#635258"/>
<path d="M116.919 140.555C116.389 141.674 115.859 142.793 115.329 143.912C116.052 142.907 116.389 141.674 116.919 140.555Z" fill="#635258"/>
<path d="M135.46 70.2791C135.956 69.6602 136.337 69.2343 136.832 68.6153L137.025 68.7293C136.53 69.3482 136.188 69.9275 135.693 70.5465C135.5 70.4326 135.46 70.2791 135.46 70.2791Z" fill="#635258"/>
<path d="M164.025 90.2521C164.446 89.9798 164.981 89.5143 165.402 89.242C165.402 89.242 165.442 89.3955 165.595 89.3559C165.06 89.8214 164.639 90.0937 164.105 90.5592C164.065 90.4056 164.025 90.2521 164.025 90.2521Z" fill="#635258"/>
<path d="M195.459 77.5578C194.731 77.9094 194.003 78.2609 193.082 78.4985C193.042 78.345 193.003 78.1915 192.963 78.038C193.77 77.9935 194.691 77.7559 195.459 77.5578Z" fill="#635258"/>
<path d="M119.16 65.4795C119.616 64.707 119.878 63.8206 120.334 63.0482C120.527 63.1621 120.527 63.1621 120.72 63.276C120.071 63.9346 119.616 64.707 119.16 65.4795Z" fill="#635258"/>
<path d="M60.0579 172.089C60.2461 171.549 60.2412 170.895 60.4294 170.356C60.3947 170.856 60.2065 171.396 60.0579 172.089Z" fill="#635258"/>
<path d="M113.343 150.81C113.308 151.31 113.12 151.85 113.085 152.35C113.12 151.85 113.155 151.349 113.343 150.81Z" fill="#635258"/>
<path d="M124.137 57.4826C123.835 58.2154 123.339 58.8344 123.037 59.5673C122.844 59.4534 122.844 59.4534 122.651 59.3394C123.146 58.7205 123.642 58.1015 124.137 57.4826Z" fill="#635258"/>
<path d="M71.1962 124.517C71.5378 123.938 72.033 123.319 72.335 122.586C72.3747 122.739 72.5281 122.7 72.5677 122.853C72.2261 123.433 71.7309 124.052 71.1962 124.517Z" fill="#635258"/>
<path d="M115.411 195.629C115.723 196.204 116.035 196.778 116.193 197.392C116.04 197.432 115.886 197.471 115.733 197.511C115.728 196.857 115.723 196.204 115.411 195.629Z" fill="#635258"/>
<path d="M86.4482 97.3324C86.9484 97.3671 87.4882 97.5553 87.8348 97.6296C87.8348 97.6296 87.8348 97.6297 87.8744 97.7832C87.3743 97.7485 87.0276 97.6742 86.5274 97.6395C86.4878 97.486 86.4878 97.486 86.4482 97.3324Z" fill="#635258"/>
<path d="M116.919 140.555C117.221 139.822 117.409 139.282 117.711 138.549C117.864 138.51 117.904 138.663 118.057 138.624C117.755 139.356 117.26 139.975 116.919 140.555Z" fill="#635258"/>
<path d="M51.3584 160.58C51.3931 160.08 51.4673 159.733 51.6555 159.194C51.6208 159.694 51.5862 160.194 51.3584 160.58Z" fill="#635258"/>
<path d="M214.757 153.625C215.108 154.353 215.613 155.041 215.965 155.769L215.811 155.809C215.46 155.081 215.108 154.353 214.757 153.625Z" fill="#635258"/>
<path d="M78.832 112.232C78.6042 112.618 78.1834 112.891 77.9557 113.277L77.7625 113.163C77.9903 112.777 78.4112 112.504 78.639 112.118C78.639 112.118 78.7924 112.079 78.832 112.232Z" fill="#635258"/>
<path d="M53.7999 152.91C53.5374 153.796 53.2353 154.529 52.9728 155.415C53.2749 154.683 53.5374 153.796 53.7999 152.91Z" fill="#635258"/>
<path d="M52.9728 155.415C52.8242 156.109 52.6757 156.802 52.5271 157.495C52.5271 157.495 52.3735 157.535 52.3339 157.381C52.5221 156.842 52.6707 156.148 52.9728 155.415Z" fill="#635258"/>
<path d="M122.469 35.1545C122.85 34.7287 123.039 34.1889 123.42 33.7631C123.459 33.9166 123.613 33.877 123.652 34.0305C123.425 34.4168 122.85 34.7287 122.469 35.1545Z" fill="#635258"/>
<path d="M164.141 161.772C164.22 162.079 164.493 162.5 164.572 162.807L164.418 162.847C164.339 162.54 164.067 162.119 163.988 161.812C163.834 161.851 163.988 161.812 164.141 161.772Z" fill="#635258"/>
<path d="M44.3103 204.968C44.8104 205.003 45.3105 205.038 45.9642 205.033L46.0038 205.186C45.3501 205.191 44.85 205.156 44.3103 204.968Z" fill="#635258"/>
<path d="M62.1317 79.8654C62.0525 79.5584 61.8594 79.4445 61.7802 79.1374L61.9336 79.0978C62.0129 79.4049 62.2059 79.5188 62.2852 79.8258C62.2852 79.8258 62.2852 79.8258 62.1317 79.8654Z" fill="#635258"/>
<path d="M61.1167 77.835C60.8444 77.4141 60.8048 77.2606 60.572 76.9932C60.7256 76.9536 60.8395 76.7605 60.993 76.7209C60.9187 77.0675 60.9979 77.3745 61.1167 77.835Z" fill="#635258"/>
<path d="M115.482 143.872C115.294 144.412 115.259 144.912 115.111 145.605L114.957 145.645C115.146 145.105 115.334 144.566 115.482 143.872Z" fill="#635258"/>
<path d="M59.869 75.5373C59.7898 75.2303 59.5967 75.1164 59.5175 74.8093C59.671 74.7697 59.7849 74.5766 59.9384 74.537C60.0176 74.844 60.2502 75.1115 60.3295 75.4185C60.0225 75.4977 60.0225 75.4977 59.869 75.5373Z" fill="#635258"/>
<path d="M180.402 171.494C180.402 171.494 180.595 171.608 180.674 171.915C180.674 171.915 180.52 171.954 180.56 172.108C180.481 171.801 180.441 171.647 180.402 171.494Z" fill="#635258"/>
<path d="M214.757 153.625C214.484 153.204 214.212 152.783 213.979 152.516C214.133 152.476 214.286 152.437 214.247 152.283C214.519 152.704 214.638 153.164 214.757 153.625Z" fill="#635258"/>
<path d="M44.6254 134.483C44.7393 134.29 45.0066 134.057 45.1205 133.864C45.1205 133.864 45.1602 134.018 45.3137 133.978C45.1998 134.171 44.9324 134.404 44.6254 134.483C44.7789 134.444 44.7789 134.444 44.6254 134.483Z" fill="#635258"/>
<path d="M42.7634 137.42C42.9912 137.033 43.219 136.647 43.4468 136.261C43.4864 136.414 43.6399 136.375 43.6795 136.528C43.3725 136.608 43.1447 136.994 42.7634 137.42Z" fill="#635258"/>
<path d="M42.7237 137.266C42.3821 137.845 42.0404 138.425 41.6988 139.004C42.08 138.578 42.4217 137.999 42.7237 137.266Z" fill="#635258"/>
<path d="M41.6988 139.004C41.5106 139.544 41.2828 139.93 41.0946 140.47L40.9015 140.356C41.1293 139.97 41.5106 139.544 41.6988 139.004Z" fill="#635258"/>
<path d="M62.0487 165.845C62.123 165.498 62.0833 165.345 62.1575 164.998C62.2368 165.305 62.1626 165.652 62.0487 165.845Z" fill="#635258"/>
<path d="M163.049 103.602C163.277 103.216 163.658 102.79 163.886 102.404C163.926 102.557 164.119 102.671 164.119 102.671C163.891 103.058 163.47 103.33 163.049 103.602Z" fill="#635258"/>
<path d="M58.1906 72.2045C58.4629 72.6255 58.6956 72.8929 59.1214 73.2742C58.9679 73.3138 58.9679 73.3138 58.8144 73.3534C58.5817 73.086 58.4629 72.6255 58.1906 72.2045Z" fill="#635258"/>
<path d="M171.036 214.515C169.848 214.985 169.006 215.53 168.085 215.767C162.292 217.426 156.226 218.663 150.229 218.901C145.54 219.128 140.841 218.048 136.558 216.042C132.661 214.264 128.844 212.793 124.759 211.555C122.1 210.768 119.48 210.134 116.712 210.193C114.905 210.168 113.667 209.177 112.583 208.147C105.765 201.392 102.012 193.192 101.21 183.739C100.789 178.935 100.909 174.32 101.488 169.586C101.998 165.853 102.395 162.312 103.251 158.653C103.96 155.687 105.054 152.948 106.148 150.21C107.698 146.699 109.402 143.149 110.798 139.678C111.403 138.212 111.581 136.365 111.492 134.751C111.398 132.483 109.967 131.378 107.739 131.626C105.817 131.794 104.401 132.651 103.064 133.814C99.3603 137.226 96.6219 141.207 94.1162 145.455C90.5854 151.442 88.7134 158.147 87.5346 165C85.5831 176.473 86.3997 187.887 88.6769 199.252C89.7165 204.551 91.6771 209.612 95.5144 213.697C96.2125 214.499 97.3712 215.183 96.9602 216.762C96.267 216.614 95.4203 216.505 94.727 216.356C90.0231 214.623 85.1705 213.582 80.2833 213.042C75.51 212.309 70.5485 212.116 65.6613 211.575C58.2736 210.862 51.0887 211.569 43.7455 211.663C38.5166 211.702 33.471 210.548 28.3857 209.24C24.88 208.344 21.716 206.868 18.6659 205.199C13.7243 202.544 9.92664 198.612 8.1938 193.165C7.32741 190.442 6.50053 187.871 5.48063 185.187C4.10427 181.122 4.03516 177.046 4.61962 172.966C5.60039 165.345 7.81408 158.061 11.3003 151.268C15.2421 143.701 19.1047 135.828 24.3983 129.059C27.5972 124.96 30.9893 120.973 34.4209 117.141C38.006 113.269 42.017 109.778 45.7952 106.02C46.1765 105.594 46.5578 105.168 47.053 104.549C45.3547 103.678 43.473 103.999 41.8191 103.935C39.0116 103.841 35.9763 104.133 33.2083 104.192C30.7474 104.172 28.2072 103.845 25.5928 103.864C23.939 103.8 22.404 104.196 20.7897 104.285C16.1005 104.512 11.3717 104.586 6.64295 104.66C4.68212 104.675 3.0233 103.957 1.21105 103.278C0.864432 103.204 0.745665 102.743 0.240625 102.055C1.16164 101.817 1.73597 101.506 2.38958 101.501C4.42471 101.139 6.30643 100.818 8.38116 100.61C9.84188 100.56 11.3818 100.818 12.9168 100.422C21.2504 99.0905 29.6731 99.3734 38.0562 99.5027C40.5171 99.5227 43.0572 99.8498 45.3647 99.9093C45.7113 99.9836 46.0183 99.9044 46.865 100.013C46.5531 99.439 46.2808 99.018 46.0085 98.5971C42.904 94.8137 39.646 91.0698 36.6554 87.0932C30.0503 77.9912 26.243 67.6762 23.9311 56.8116C22.6984 51.3991 21.9262 45.8678 22.1146 40.2524C22.303 34.637 23.145 29.0167 25.7597 23.9214C29.439 17.2416 34.5543 12.3198 42.4274 11.1072C46.5372 10.5381 50.2956 9.24095 53.5835 6.75535C54.8066 5.78488 56.3021 5.23531 57.7975 4.68577C64.3188 2.67579 71.0382 1.43338 77.9556 0.958509C83.4519 0.686565 88.651 1.80112 93.7016 3.60893C95.6673 4.24787 97.7074 4.54021 99.7871 4.98603C100.327 5.17424 100.98 5.1693 101.867 5.43181C101.525 6.01116 101.49 6.51131 101.263 6.89754C97.4942 11.963 94.8844 17.7119 92.1212 23.5005C89.3183 29.1355 87.0552 34.9587 85.5249 41.0841C84.7771 43.8967 83.8757 46.7489 83.321 49.6754C81.434 59.4948 81.6217 69.1064 85.9589 78.3024C86.7016 79.9118 87.7513 81.442 88.6078 82.8583C89.1129 83.5466 89.8852 84.0023 90.5042 84.4975C91.4995 83.9132 91.455 83.1061 91.4105 82.2989C90.762 77.8818 90.4601 73.539 90.7723 69.0378C90.7971 67.2303 90.9755 65.3833 91.347 63.6502C92.8328 56.7177 94.8186 49.8199 98.1167 43.5659C103.648 32.6425 111.462 23.5861 121.871 16.9712C123.287 16.1146 124.896 15.3719 126.505 14.6293C128.882 13.6886 131.15 13.5947 133.354 15.1547C136.676 17.2446 139.998 19.3346 143.093 21.8107C150.248 27.3326 158.007 31.3888 166.489 34.4397C172.272 36.5497 178.095 38.8131 183.463 41.849C185.973 43.3298 188.063 45.0829 190.192 46.9895C190.424 47.2569 190.657 47.5244 191.122 48.0592C190.395 48.4107 189.86 48.8762 189.246 49.0346C187.711 49.4306 186.022 49.8663 184.448 50.1088C183.987 50.2276 183.527 50.3464 183.22 50.4256C178.04 51.9257 172.826 53.9258 168.117 56.6143C159.848 61.3675 152.316 67.0765 146.26 74.6969C143.898 77.5986 142.036 80.5349 140.753 83.8129C140.189 85.4321 139.857 87.3188 139.485 89.0519C139.262 90.0918 139.614 90.8197 140.579 91.3893C142.273 91.6073 143.808 91.2112 145.224 90.3547C146.794 89.4585 148.364 88.5623 149.547 87.4383C154.053 83.3286 158.599 79.3724 163.065 75.1092C168.943 69.3357 175.638 64.8251 182.917 61.3098C189.354 58.3392 195.955 56.6362 203.065 56.2752C205.333 56.1813 207.413 56.6271 208.963 58.192C210.938 60.1383 212.874 61.931 214.582 64.1099C218.776 69.5771 222.663 75.1235 226.703 80.6303C228.996 83.8046 231.556 86.7462 234.383 89.4551C236.784 91.7826 239.072 94.3033 240.517 97.3686C240.948 98.4036 241.379 99.4386 241.656 100.513C241.815 101.127 241.78 101.627 241.864 102.588C240.671 102.405 239.631 102.182 238.591 101.959C234.546 100.874 230.421 99.4823 226.301 98.7442C222.489 97.9269 218.641 97.6097 214.908 97.0994C210.174 96.5196 205.52 96.2469 200.677 96.514C192.913 96.8798 185.386 98.1667 178.142 101.182C173.695 102.984 169.947 105.588 167.595 109.797C166.57 111.535 166.584 113.496 167.674 115.18C168.491 116.443 169.728 117.433 171.308 117.844C173.967 118.632 176.735 118.573 179.419 117.553C183.751 115.944 188.198 114.142 192.491 112.379C202.726 108.265 213.244 105.879 224.197 105.181C229.039 104.914 233.699 105.841 238.284 107.114C244.335 108.991 248.974 112.378 252.321 117.737C253.178 119.153 254.034 120.569 254.584 122.065C256.193 126.398 257.762 130.577 259.139 134.643C258.495 135.955 257.841 135.96 257.109 135.658C251.365 133.701 245.512 132.592 239.585 131.829C235.505 131.244 231.43 131.313 227.325 132.536C225.369 133.204 223.606 133.986 221.729 134.962C220.427 135.625 219.744 136.784 219.947 138.205C220.15 139.626 221.308 140.31 222.541 140.647C226.2 141.504 229.736 141.246 233.38 140.142C235.49 139.434 237.911 139.301 240.179 139.207C247.25 138.692 253.761 140.451 260.168 143.71C260.267 146.631 260.173 149.439 260.579 152.281C260.985 155.124 261.891 158.001 262.604 160.764C263.47 163.488 264.49 166.172 265.589 169.163C265.129 169.282 264.554 169.593 263.94 169.752C259.915 171.282 255.617 172.391 251.67 174.227C247.61 176.257 244.015 178.822 240.187 181.12C237.662 182.754 235.25 184.194 232.918 185.942C230.853 187.457 228.966 187.125 226.807 186.373C222.836 184.941 219.053 182.97 215.612 180.42C211.785 177.641 208.071 174.67 204.471 171.505C199.867 167.618 196.331 162.799 193.905 157.204C192.925 154.673 191.638 152.222 190.39 149.924C189.687 148.468 188.41 147.324 186.904 146.566C185.246 145.848 184.518 146.2 183.606 147.745C182.359 150.523 182.304 153.484 183.056 156.401C184.319 160.659 186.002 164.646 188.567 168.241C195.291 177.803 202.817 186.668 211.794 194.176C212.606 194.785 213.304 195.587 214.156 196.35C212.175 198.825 209.843 200.573 207.278 202.054C201.534 205.173 195.512 207.218 189.14 208.534C187.758 208.891 186.525 208.554 185.406 208.024C180.351 205.563 176.018 202.096 172.295 197.817C166.982 191.82 162.625 185.085 158.996 177.999C155.094 170.492 152.074 162.593 149.361 154.615C148.692 152.659 148.331 150.624 147.509 148.708C146.999 147.366 146.222 146.256 145.291 145.187C143.741 143.622 141.78 143.637 140.409 145.3C139.532 146.345 138.849 147.504 138.512 148.737C137.046 153.208 137.388 157.704 138.65 161.963C140.031 166.682 141.72 171.322 143.408 175.962C147.181 186.778 153.9 195.687 161.46 204.051C164.174 206.953 167.115 209.469 169.942 212.177C169.719 213.217 170.185 213.752 171.036 214.515ZM259.608 166.285C259.647 166.439 259.494 166.478 259.533 166.632C258.84 166.483 258.147 166.335 257.607 166.146C255.176 164.973 252.631 163.992 250.2 162.818C236.306 155.924 222.526 148.837 208.063 142.909C201.66 140.303 195.258 137.698 188.559 136.48C182.706 135.37 177.036 133.067 171.372 131.418C171.218 131.457 171.179 131.304 170.986 131.19C166.935 129.451 162.543 128.292 158.453 126.4C154.749 124.736 150.858 123.612 146.966 122.487C143.034 121.21 138.989 120.125 134.983 119.194C131.631 118.257 128.165 117.514 124.852 116.732C117.534 115.018 110.329 113.111 103.05 111.55C95.2715 109.955 87.2648 108.747 79.4116 107.498C77.025 107.132 74.6779 106.918 72.2912 106.552C68.0972 106.16 63.8636 105.615 59.6696 105.224C56.976 104.936 54.1288 104.689 51.3213 104.594C50.4745 104.485 49.4 104.762 48.7117 105.267C47.2955 106.124 46.112 107.248 44.9682 108.526C41.5712 111.858 37.9416 114.923 35.01 118.79C32.955 121.612 30.1276 123.979 27.8794 126.688C21.8579 133.808 17.5744 141.954 13.3305 150.253C9.27476 158.012 6.29851 166.148 5.67422 175.15C5.46611 178.151 5.45107 181.266 6.51058 184.103C7.49581 187.287 8.63454 190.432 9.77329 193.576C10.9912 197.028 13.2045 199.895 16.2199 202.064C17.4182 202.901 18.7303 203.545 20.0425 204.189C24.0185 206.274 28.0293 207.859 32.4213 209.018C37.8531 210.4 43.3147 210.628 48.811 210.356C54.9213 209.926 60.9969 209.996 67.1914 210.526C70.192 210.734 73.0788 211.135 76.0795 211.344C81.6203 211.879 87.1264 212.914 92.4444 214.489C93.1376 214.638 93.8309 214.786 94.8707 215.009C94.1329 214.054 93.8606 213.633 93.3951 213.098C90.9888 210.117 89.1964 206.977 88.3994 203.253C87.7608 200.143 87.0826 196.88 86.5975 193.731C85.0678 184.629 84.9593 175.324 86.1976 166.163C86.891 161.236 88.2381 156.304 90.011 151.754C92.6505 144.851 96.6418 138.746 101.831 133.477C103.51 131.734 105.733 130.833 108.269 130.507C110.804 130.18 112.973 132.24 112.913 134.548C112.928 136.509 112.789 138.509 112.111 140.322C110.754 143.946 109.011 147.343 107.46 150.854C106.44 153.245 105.42 155.637 104.747 158.103C102.845 165.962 102.25 173.81 102.542 181.922C103.042 192.108 107.067 200.729 114.118 207.751C114.776 208.4 115.549 208.856 116.396 208.965C119.708 209.747 122.981 210.376 126.18 211.352C129.879 212.363 133.503 213.72 137.128 215.077C141.525 216.89 145.917 218.049 150.606 217.821C156.563 217.43 162.321 216.272 168.154 214.767C168.461 214.688 168.922 214.569 169.382 214.45C168.724 213.802 168.298 213.42 168.065 213.153C164.391 210.335 161.366 206.858 158.341 203.382C152.018 196.008 146.27 188.323 142.933 179.196C141.244 174.556 139.556 169.916 138.021 165.236C136.566 160.864 136.071 156.407 136.576 152.02C136.903 149.479 137.616 147.167 139.255 145.27C141.008 143.181 143.89 142.929 145.865 144.875C146.757 145.791 147.727 147.014 148.197 148.203C148.861 149.505 149.064 150.926 149.42 152.308C150.757 156.22 152.133 160.285 153.624 164.158C157.703 174.894 163.125 185.12 170.23 194.257C174.889 200.259 180.158 205.449 187.332 208.509C192.824 207.584 198.077 205.737 203.252 203.583C206.203 202.331 208.842 200.504 211.249 198.409C211.63 197.984 212.012 197.558 212.393 197.132C210.729 195.76 209.105 194.542 207.595 193.13C200.589 186.915 194.806 179.73 189.097 172.197C186.418 168.795 184.621 165.002 182.937 161.016C181.214 156.876 180.992 152.84 182.19 148.601C182.978 145.942 184.547 145.046 186.979 146.22C188.637 146.938 189.954 148.235 190.85 149.805C192.177 152.41 193.504 155.015 194.678 157.659C196.01 160.918 197.723 163.75 200.05 166.424C206.566 173.912 214.454 179.736 223.178 184.362C225.302 185.615 227.654 186.482 230.194 186.809C233.254 184.709 236.315 182.61 239.221 180.55C245.837 175.732 252.883 171.95 260.712 169.93C261.786 169.653 262.821 169.222 263.896 168.945C262.519 164.879 260.915 161.2 259.732 157.248C258.549 153.296 258.286 149.107 258.911 145.18C258.524 144.952 258.292 144.685 258.099 144.571C253.122 142.417 247.958 140.802 242.536 140.727C240.575 140.742 238.614 140.757 236.732 141.079C233.816 141.831 231.053 142.544 228.013 142.182C227.859 142.222 227.666 142.108 227.513 142.147C225.25 142.895 223.17 142.449 221.125 141.503C218.194 140.295 217.783 136.799 220.229 134.858C220.764 134.392 221.492 134.041 222.22 133.689C227.543 130.842 233.306 130.338 239.08 131.14C244.353 131.908 249.439 133.216 254.484 134.37C255.524 134.593 256.564 134.816 257.604 135.039C257.247 133.657 256.93 132.429 256.46 131.241C255.158 126.828 253.395 122.535 250.905 118.593C248.454 114.805 245.241 111.868 241.19 110.13C236.021 107.861 230.475 106.672 224.672 107.024C213.872 107.681 203.509 110.028 193.387 113.949C188.787 115.791 184.187 117.632 179.587 119.474C176.596 120.573 173.442 120.405 170.436 119.543C167.084 118.607 165.173 115.007 165.921 112.194C166.292 110.461 167.243 109.069 168.194 107.678C170.67 104.583 174.037 102.405 177.756 100.954C188.872 96.4487 200.593 95.5533 212.482 96.5792C214.829 96.7923 217.062 97.1985 219.409 97.4116C224.95 97.9469 230.381 99.3288 235.699 100.904C237.279 101.315 238.898 101.88 240.824 102.365C240.354 101.177 240.116 100.256 239.765 99.5276C238.279 96.3088 236.145 93.7485 233.59 91.4606C230.377 88.5239 227.698 85.1217 225.134 81.5265C221.326 76.2871 217.672 71.0081 213.557 65.848C211.81 63.5155 209.487 61.495 207.319 59.4348C206.234 58.4048 204.887 58.2611 203.427 58.3105C196.316 58.6715 189.409 60.4536 182.971 63.4242C175.272 67.2119 168.309 71.9553 162.357 78.0753C158.426 81.8731 154.454 85.5174 150.29 89.0477C148.685 90.444 146.848 91.5729 144.971 92.5483C143.976 93.1326 142.862 93.2563 141.748 93.38C139.366 93.667 138.089 92.523 138.455 90.1363C138.748 88.0961 139.193 86.0164 139.832 84.0505C141.377 79.8861 143.888 76.2913 146.785 72.9242C152.999 65.9178 160.263 60.4416 168.305 56.0746C172.172 53.9307 176.277 52.7079 180.417 50.985C180.991 50.673 181.645 50.6681 182.299 50.6632C184.641 50.2227 186.904 49.4751 189.474 48.6484C188.196 47.5044 187.305 46.5882 186.3 45.8651C185.255 44.9886 184.096 44.3051 182.784 43.6613C177.224 40.5115 171.247 38.2877 165.464 36.1778C157.328 33.2011 149.569 29.1449 142.801 23.8509C139.939 21.6421 137.003 19.78 134.027 17.7644C131.011 15.5952 128.169 16.0011 125.144 17.6003C124.723 17.8726 124.416 17.9518 123.995 18.2242C115.191 23.4428 108.402 30.7611 102.89 39.2235C99.0128 45.1357 96.4476 51.6918 94.4221 58.4361C92.1737 66.2203 91.3861 73.955 92.792 81.9425C92.8761 82.9032 93.1137 83.8242 93.0443 84.8245C92.866 86.6716 91.4103 87.3746 89.8258 86.3098C89.2069 85.8146 88.5879 85.3194 88.0828 84.631C87.0332 83.1008 86.1371 81.531 85.3944 79.9216C81.4087 71.4536 80.7258 62.461 82.3107 53.3744C83.5638 46.1745 85.4705 38.9696 88.3031 32.1808C91.5864 23.9659 95.4093 15.9392 100.391 8.59598C100.658 8.36326 100.733 8.01662 100.921 7.47689C99.881 7.25397 99.0343 7.14499 98.1876 7.03598C96.6081 6.62486 94.9146 6.40686 93.449 5.80262C89.1312 4.29693 84.6253 3.33098 80.0897 3.51881C72.786 3.76586 65.7597 5.08747 58.7778 7.21626C57.0893 7.6519 55.4057 8.74117 53.836 9.63734C51.4641 11.2317 49.1269 12.3259 46.3243 12.8852C45.2498 13.1624 44.1752 13.4397 43.2146 13.5238C36.723 14.38 32.3703 18.4501 28.9089 23.4364C26.017 27.4571 24.67 32.3891 24.3231 37.3904C23.793 43.5852 24.2236 49.6958 25.4612 55.7619C27.3375 64.9379 30.0951 73.7227 34.8483 81.9927C37.2645 86.2812 40.2155 90.1042 43.3199 93.8877C45.0281 96.0667 46.8502 98.0525 48.6723 100.038C49.5636 100.955 50.5291 101.524 51.8363 101.514C53.4506 101.425 54.9905 101.683 56.5304 101.94C62.3783 102.396 68.34 102.659 74.1135 103.462C82.4272 104.592 90.627 105.914 98.8664 107.391C106.952 108.907 114.964 110.769 122.976 112.631C127.675 113.711 132.413 114.945 137.152 116.178C142.43 117.6 147.555 119.061 152.68 120.522C156.379 121.532 160.077 122.543 163.702 123.9C171.105 126.575 178.354 129.289 185.796 132.117C188.494 133.058 190.926 134.232 193.698 134.826C199.784 136.203 205.835 138.08 211.469 140.884C216.178 143.271 221.041 145.618 225.596 148.045C234.593 153.092 243.59 158.138 252.587 163.185C254.206 163.749 256.944 164.844 259.608 166.285ZM227.23 150.571C227.344 150.377 227.344 150.377 227.458 150.184C227.225 149.917 227.032 149.803 226.646 149.575C219.887 145.588 212.747 142.028 205.572 138.967C204.26 138.323 202.908 137.526 201.482 137.075C199.016 136.401 196.59 135.881 194.124 135.207C190.965 134.385 187.96 133.523 184.875 132.354C182.716 131.602 180.671 130.656 178.666 129.863C177.2 129.259 175.581 128.694 174.115 128.09C168.911 126.322 163.667 124.4 158.31 122.672C152.799 120.983 147.327 119.447 141.702 117.951C135.691 116.227 129.72 114.657 123.748 113.087C119.009 111.854 114.31 110.774 109.691 110.001C97.678 107.861 85.6655 105.721 73.6926 103.734C70.2661 103.145 66.9585 103.016 63.4182 102.619C59.5708 102.302 55.5699 102.025 51.7621 101.861C47.2611 101.549 42.7601 101.236 38.1056 100.964C31.4903 100.706 25.1076 100.715 18.5368 101.264C16.6156 101.432 14.7687 101.254 12.8474 101.422C11.2332 101.511 9.54469 101.947 7.81655 102.229C6.39545 102.432 5.08827 102.442 3.20664 102.763C4.2514 103.64 5.21196 103.556 6.05867 103.665C11.3668 103.933 16.7047 103.047 22.1267 103.121C26.2415 103.206 30.2771 102.983 34.3522 102.914C40.7348 102.905 47.0035 103.089 53.2375 103.772C58.9319 104.268 64.5124 104.957 70.2067 105.452C72.5537 105.665 74.9403 106.032 77.327 106.399C81.214 106.869 84.9079 107.226 88.8345 107.85C92.7611 108.475 96.7273 109.252 100.54 110.07C105.046 111.036 109.552 112.002 114.097 113.121C120.183 114.498 126.154 116.068 132.126 117.639C138.058 119.055 143.99 120.472 149.927 122.542C156.943 124.989 164.113 127.396 170.941 130.383C174.798 132.007 178.923 133.399 183.003 133.983C184.043 134.206 185.162 134.736 186.088 135.152C186.627 135.341 187.014 135.568 187.514 135.603C192.634 136.411 197.684 138.218 202.621 140.219C209.716 142.973 216.624 146.267 223.645 149.367C224.992 149.511 226.111 150.041 227.23 150.571Z" fill="#635258"/>
<path d="M101.565 118.483C101.966 120.672 101.673 122.712 100.302 124.376C99.6926 125.188 99.0043 125.693 98.3556 126.351C95.8352 128.639 93.3147 130.926 90.6011 133.1C89.4176 134.224 88.0014 135.081 86.6248 136.091C86.3574 136.323 85.897 136.442 85.6296 136.675C84.2877 137.185 82.9458 137.695 81.7079 136.704C80.47 135.714 80.574 134.214 80.8712 132.827C81.9113 127.974 84.922 124.414 89.0171 121.884C91.389 120.29 93.9936 118.963 96.6774 117.943C98.1332 117.24 99.9009 117.111 101.565 118.483ZM100.223 118.993C98.9105 118.349 97.5686 118.859 96.5337 119.29C94.4639 120.151 92.4733 121.32 90.4431 122.335C87.8781 123.815 85.7786 125.83 84.1444 128.381C83.2333 129.925 82.6688 131.545 81.9507 133.203C81.6882 134.09 81.5792 134.937 82.2774 135.739C83.129 136.501 84.1639 136.071 84.8918 135.719C86.1941 135.056 87.6103 134.199 88.6799 133.268C91.7747 130.669 94.83 127.916 97.9249 125.316C98.7271 124.618 99.3361 123.806 99.9452 122.994C100.703 121.489 101.04 120.256 100.223 118.993Z" fill="#635258"/>
</svg>
